G04*
G04 #@! TF.GenerationSoftware,Altium Limited,Altium Designer,25.8.1 (18)*
G04*
G04 Layer_Color=8388736*
%FSLAX44Y44*%
%MOMM*%
G71*
G04*
G04 #@! TF.SameCoordinates,6AF8D778-47F9-488B-AB56-3A1079AA570C*
G04*
G04*
G04 #@! TF.FilePolarity,Negative*
G04*
G01*
G75*
%ADD19R,1.6098X0.9561*%
%ADD20R,1.7000X0.9500*%
%ADD21R,0.9561X1.6098*%
%ADD23R,0.9500X1.7000*%
%ADD24R,1.1300X1.4200*%
%ADD27R,1.4557X1.8582*%
%ADD28R,0.8000X0.8000*%
%ADD32R,1.5000X1.5000*%
%ADD33R,0.5500X1.6000*%
%ADD34R,0.8000X0.3000*%
%ADD35R,0.3000X0.8000*%
G04:AMPARAMS|DCode=36|XSize=1.03mm|YSize=1.41mm|CornerRadius=0.1198mm|HoleSize=0mm|Usage=FLASHONLY|Rotation=90.000|XOffset=0mm|YOffset=0mm|HoleType=Round|Shape=RoundedRectangle|*
%AMROUNDEDRECTD36*
21,1,1.0300,1.1705,0,0,90.0*
21,1,0.7905,1.4100,0,0,90.0*
1,1,0.2395,0.5853,0.3953*
1,1,0.2395,0.5853,-0.3953*
1,1,0.2395,-0.5853,-0.3953*
1,1,0.2395,-0.5853,0.3953*
%
%ADD36ROUNDEDRECTD36*%
G04:AMPARAMS|DCode=37|XSize=1.41mm|YSize=0.72mm|CornerRadius=0.1275mm|HoleSize=0mm|Usage=FLASHONLY|Rotation=90.000|XOffset=0mm|YOffset=0mm|HoleType=Round|Shape=RoundedRectangle|*
%AMROUNDEDRECTD37*
21,1,1.4100,0.4650,0,0,90.0*
21,1,1.1550,0.7200,0,0,90.0*
1,1,0.2550,0.2325,0.5775*
1,1,0.2550,0.2325,-0.5775*
1,1,0.2550,-0.2325,-0.5775*
1,1,0.2550,-0.2325,0.5775*
%
%ADD37ROUNDEDRECTD37*%
%ADD38R,1.2500X0.7000*%
G04:AMPARAMS|DCode=39|XSize=3.34mm|YSize=1.41mm|CornerRadius=0.1483mm|HoleSize=0mm|Usage=FLASHONLY|Rotation=90.000|XOffset=0mm|YOffset=0mm|HoleType=Round|Shape=RoundedRectangle|*
%AMROUNDEDRECTD39*
21,1,3.3400,1.1135,0,0,90.0*
21,1,3.0435,1.4100,0,0,90.0*
1,1,0.2965,0.5568,1.5218*
1,1,0.2965,0.5568,-1.5218*
1,1,0.2965,-0.5568,-1.5218*
1,1,0.2965,-0.5568,1.5218*
%
%ADD39ROUNDEDRECTD39*%
%ADD40R,1.2500X0.4000*%
%ADD41R,1.0000X1.0500*%
G04:AMPARAMS|DCode=42|XSize=1.75mm|YSize=1.75mm|CornerRadius=0.4625mm|HoleSize=0mm|Usage=FLASHONLY|Rotation=90.000|XOffset=0mm|YOffset=0mm|HoleType=Round|Shape=RoundedRectangle|*
%AMROUNDEDRECTD42*
21,1,1.7500,0.8250,0,0,90.0*
21,1,0.8250,1.7500,0,0,90.0*
1,1,0.9250,0.4125,0.4125*
1,1,0.9250,0.4125,-0.4125*
1,1,0.9250,-0.4125,-0.4125*
1,1,0.9250,-0.4125,0.4125*
%
%ADD42ROUNDEDRECTD42*%
%ADD43C,1.5500*%
%ADD44O,2.2500X1.1500*%
%ADD45O,1.9500X1.1500*%
%ADD46C,1.7500*%
%ADD47C,1.6750*%
%ADD48C,1.5060*%
%ADD49R,2.0800X2.0800*%
%ADD50C,2.0800*%
%ADD51C,2.0350*%
%ADD52R,1.5500X1.5500*%
%ADD53C,0.7500*%
%ADD54R,1.6750X1.6750*%
%ADD55C,1.9000*%
%ADD56R,1.9000X1.9000*%
%ADD57C,0.1000*%
D19*
X78367Y435360D02*
D03*
X185420Y344481D02*
D03*
X24720Y435360D02*
D03*
X78367Y461382D02*
D03*
X24720D02*
D03*
X185420Y318459D02*
D03*
D20*
X102969Y435580D02*
D03*
X48260D02*
D03*
X118110Y61000D02*
D03*
X53340Y281910D02*
D03*
X12700Y407700D02*
D03*
X102969Y463580D02*
D03*
X48260D02*
D03*
X332740Y412720D02*
D03*
X95276Y531238D02*
D03*
Y559238D02*
D03*
X118110Y89000D02*
D03*
X53340Y309910D02*
D03*
X12700Y379700D02*
D03*
X332740Y440720D02*
D03*
D21*
X124771Y351790D02*
D03*
Y328930D02*
D03*
X116529Y509210D02*
D03*
X142551D02*
D03*
X220669Y419100D02*
D03*
X388309Y372110D02*
D03*
X414331D02*
D03*
X311461Y299720D02*
D03*
X285439D02*
D03*
X98749Y351790D02*
D03*
Y328930D02*
D03*
X246691Y419100D02*
D03*
D23*
X248950Y360680D02*
D03*
X247670Y486790D02*
D03*
X248950Y384810D02*
D03*
X381030Y397510D02*
D03*
X220950Y360680D02*
D03*
X275670Y486790D02*
D03*
X220950Y384810D02*
D03*
X353030Y397510D02*
D03*
D24*
X105410Y264730D02*
D03*
Y195010D02*
D03*
Y240730D02*
D03*
Y219010D02*
D03*
D27*
X308083Y63923D02*
D03*
X313463Y266523D02*
D03*
X278058Y63923D02*
D03*
X283438Y266523D02*
D03*
D28*
X395630Y353630D02*
D03*
X405130Y329630D02*
D03*
X414630Y353630D02*
D03*
D32*
X336830Y299720D02*
D03*
X371830D02*
D03*
D33*
X160580Y402800D02*
D03*
X193080D02*
D03*
X134580D02*
D03*
X141080D02*
D03*
X147580D02*
D03*
X154080D02*
D03*
X167080D02*
D03*
X180080D02*
D03*
X193080Y460800D02*
D03*
X186580D02*
D03*
X167080D02*
D03*
X147580D02*
D03*
X141080D02*
D03*
X134580D02*
D03*
X180080D02*
D03*
X160580D02*
D03*
X154080D02*
D03*
X173580D02*
D03*
Y402800D02*
D03*
X186580D02*
D03*
X302173Y576405D02*
D03*
X276173D02*
D03*
X243673D02*
D03*
X295673D02*
D03*
X289173D02*
D03*
X282673D02*
D03*
X269673D02*
D03*
X256673D02*
D03*
X243673Y518405D02*
D03*
X250173D02*
D03*
X269673D02*
D03*
X289173D02*
D03*
X295673D02*
D03*
X302173D02*
D03*
X256673D02*
D03*
X276173D02*
D03*
X282673D02*
D03*
X263173D02*
D03*
Y576405D02*
D03*
X250173D02*
D03*
D34*
X401580Y458350D02*
D03*
X370580D02*
D03*
X401580Y448350D02*
D03*
X370580Y453350D02*
D03*
X401580D02*
D03*
X370580Y448350D02*
D03*
X401580Y443350D02*
D03*
X370580D02*
D03*
D35*
X48140Y335020D02*
D03*
X38140D02*
D03*
X48140Y366020D02*
D03*
X43140D02*
D03*
Y335020D02*
D03*
X38140Y366020D02*
D03*
X33140Y335020D02*
D03*
Y366020D02*
D03*
D36*
X81710Y195540D02*
D03*
Y218440D02*
D03*
Y241340D02*
D03*
D37*
X139665Y18794D02*
D03*
Y73794D02*
D03*
X152365D02*
D03*
X165065D02*
D03*
X177765D02*
D03*
X190465D02*
D03*
X203165D02*
D03*
X215865D02*
D03*
X228565D02*
D03*
Y18794D02*
D03*
X215865D02*
D03*
X190465D02*
D03*
X177765D02*
D03*
X165065D02*
D03*
X152365D02*
D03*
X203165D02*
D03*
D38*
X80470Y148840D02*
D03*
Y84840D02*
D03*
Y140840D02*
D03*
Y92840D02*
D03*
D39*
X14810Y218440D02*
D03*
D40*
X80470Y134340D02*
D03*
Y129340D02*
D03*
Y124340D02*
D03*
Y119340D02*
D03*
Y114340D02*
D03*
Y109340D02*
D03*
Y104340D02*
D03*
Y99340D02*
D03*
D41*
X422180Y299720D02*
D03*
X390680Y299720D02*
D03*
D42*
X339173Y579389D02*
D03*
D43*
X122330Y643020D02*
D03*
X230552D02*
D03*
X337870D02*
D03*
D44*
X74820Y160040D02*
D03*
Y73640D02*
D03*
D45*
X33020Y160040D02*
D03*
Y73640D02*
D03*
D46*
X339173Y528589D02*
D03*
Y553989D02*
D03*
Y503189D02*
D03*
D47*
X43010Y556000D02*
D03*
D48*
X215900Y840740D02*
D03*
X241300D02*
D03*
X266700D02*
D03*
X190500D02*
D03*
X165100Y739140D02*
D03*
X292100Y840740D02*
D03*
Y739140D02*
D03*
X165100Y840740D02*
D03*
X241300Y739140D02*
D03*
X215900D02*
D03*
X266700D02*
D03*
X190500D02*
D03*
D49*
X187920Y223830D02*
D03*
D50*
X309920D02*
D03*
Y103830D02*
D03*
X187920D02*
D03*
D51*
X167920Y163830D02*
D03*
D52*
X122330Y693020D02*
D03*
X230552D02*
D03*
X337870D02*
D03*
D53*
X69820Y87940D02*
D03*
Y145740D02*
D03*
D54*
X43010Y531000D02*
D03*
D55*
X381101Y164018D02*
D03*
Y214018D02*
D03*
D56*
Y114018D02*
D03*
D57*
X419100Y25400D02*
D03*
Y838200D02*
D03*
X25400D02*
D03*
Y25400D02*
D03*
M02*
