M48
;Layer_Color=9474304
;FILE_FORMAT=4:4
METRIC,LZ
;TYPE=PLATED
T01F00S00C0.3000
T02F00S00C0.4000
T04F00S00C0.7112
T05F00S00C1.0000
T06F00S00C1.0500
T07F00S00C1.1000
T08F00S00C1.2000
T09F00S00C1.2900
T10F00S00C1.3200
;TYPE=NON_PLATED
T11F00S00C0.6500
T12F00S00C3.2000
%
T01
X0006076Y0002441
X0009076
X0006076Y0005441
Y0008441
Y0011441
X0003076
X0021076
Y0008441
X0027076
X0030076
X0033076
X0036076
X0039076
X0042076
Y0011441
X0039076Y0005441
X0036076
Y0002441
X0033076
Y0005441
X0030076Y0002441
X0027076
X0024076
X0018076Y0005441
X0015076
Y0014441
X0018076
X0024076
X0027076
X0030076
X0033076
X0036076
X0039076
X0042076
Y0017441
Y0020441
Y0023441
Y0026441
X0039076
X0036076
Y0023441
X0033076
Y0026441
Y0032441
X0036076
X0039076
X0042076
X0036076Y0035441
Y0038441
X0033076Y0035441
X0030076Y0032441
Y0029441
Y0020441
X0027076
Y0023441
X0024076
Y0020441
X0021076
Y0023441
X0018076Y0020441
X0015076
Y0023441
Y0026441
Y0035441
X0021076
Y0032441
X0024076
X0027076Y0044441
X0039076Y0047441
Y0050441
X0042076
X0036076
X0018076
X0015076Y0017441
X0039076
Y0020441
X0012076
Y0017441
X0009076
X0006076
Y0020441
Y0023441
X0003076
Y0020441
Y0017441
Y0014441
X0006076
Y0029441
X0003076
Y0035441
X0006076Y0041441
X0009076
Y0044441
Y0047441
X0006076
Y0050441
X0003076
Y0047441
X0006076Y0044441
Y0053441
X0012076
X0009076Y0059441
Y0062441
Y0065441
Y0068441
Y0071441
X0012076
Y0074441
Y0077441
Y0080441
Y0083441
X0009076
Y0080441
Y0077441
Y0074441
X0006076
Y0077441
Y0080441
Y0083441
X0003076Y0080441
Y0077441
Y0074441
Y0071441
X0006076
Y0068441
Y0065441
Y0062441
Y0059441
X0003076
Y0062441
Y0065441
Y0068441
Y0056441
X0015076Y0053441
X0021076
X0024076
X0030076
X0036076
X0039076
X0042076
Y0056441
Y0059441
Y0062441
Y0065441
Y0068441
Y0071441
Y0074441
Y0077441
Y0080441
X0039076
Y0077441
Y0074441
Y0071441
Y0068441
Y0065441
Y0062441
Y0059441
Y0056441
X0036076
Y0059441
X0033076
Y0071441
X0030076Y0068441
X0027076Y0071441
X0024076
X0018076Y0068441
Y0065441
Y0062441
Y0059441
Y0077441
Y0080441
X0015076
Y0083441
Y0077441
X0036076Y0080441
Y0083441
X0033076
T02
X00109118Y00118511
X00122722Y00118449
X00135835Y0010129
X0016256Y00101
X0021463Y00102
X0025527Y00093
X002032Y00042
X001524Y00034
X00129944Y0012504
X00139172Y00140681
X0024638Y0012192
X002159Y0027686
X0016129Y0026543
X001524Y0028914
X0015494Y0032258
X00153225Y00370441
X0020828Y0042672
X0022098Y0043688
X00220688Y00463795
X00208901Y00463048
X0023873Y00454285
X0030734Y004572
X00311201Y00476704
X00322929Y00477829
X00297038Y00479432
X0034798Y0044958
X0036068Y0042926
X0035306Y004191
X0038862Y0042291
X0032131Y0038481
X003048Y00381
X003048Y0034417
X0032131Y0035433
X00422757Y00284886
X00165651Y00476736
X00156393Y00481147
X00141812Y00482289
X0009525Y0038354
Y0036957
X0006223Y003683
Y0038354
X0000889Y0029718
X00125734Y0021844
X00185562Y00557744
X00197174
X00206774Y0055769
X00270479Y00542802
X00282396Y00547364
X00243681Y00614463
X00247449Y00690185
X00279265Y00669376
X0035185Y00656027
X0036068Y0068834
X00343862Y00811867
X0034544Y0083312
X0032512Y0080518
T04
X0009906Y0001651
X0012319Y00021
X0033782Y00064
X0039061Y0022805
X004064Y0039751
X0041656Y0042418
X002695Y0038608
X0026968Y0036156
X0018034Y0037338
X00255727Y00456181
X00103027Y00482931
X0009437Y0050921
X0004826Y004826
X0004572Y0039878
X0003429Y0030861
Y0028194
X0008509Y0026543
X00127Y00299904
X00307027Y00600829
T05
X0012233Y0064302
Y0069302
X001651Y0073914
X001905
X002159
X002413
X002667
X002921
X0033787Y0069302
Y0064302
X00230552
Y0069302
X002413Y0084074
X002159
X001905
X001651
X002667
X002921
T06
X0004301Y00531
Y00556
T07
X00339173Y00503189
Y00528589
Y00553989
Y00579389
T08
X00381101Y00114018
Y00164018
Y00214018
T09
X0016792Y0016383
T10
X0018792Y0010383
X0030992
Y0022383
X0018792
T11
X0006982Y0008794
Y0014574
T12
X000254Y000254
X004191
X000254Y008382
X004191
M30
