G04*
G04 #@! TF.GenerationSoftware,Altium Limited,Altium Designer,25.8.1 (18)*
G04*
G04 Layer_Physical_Order=1*
G04 Layer_Color=255*
%FSLAX44Y44*%
%MOMM*%
G71*
G04*
G04 #@! TF.SameCoordinates,9FB52167-E1BE-4782-BDCD-D2F078FF21A9*
G04*
G04*
G04 #@! TF.FilePolarity,Positive*
G04*
G01*
G75*
%ADD18R,0.4500X1.5000*%
%ADD19R,1.6098X0.9561*%
%ADD20R,1.7000X0.9500*%
%ADD21R,0.9561X1.6098*%
G04:AMPARAMS|DCode=22|XSize=0.93mm|YSize=1.31mm|CornerRadius=0.0698mm|HoleSize=0mm|Usage=FLASHONLY|Rotation=90.000|XOffset=0mm|YOffset=0mm|HoleType=Round|Shape=RoundedRectangle|*
%AMROUNDEDRECTD22*
21,1,0.9300,1.1705,0,0,90.0*
21,1,0.7905,1.3100,0,0,90.0*
1,1,0.1395,0.5853,0.3953*
1,1,0.1395,0.5853,-0.3953*
1,1,0.1395,-0.5853,-0.3953*
1,1,0.1395,-0.5853,0.3953*
%
%ADD22ROUNDEDRECTD22*%
%ADD23R,0.9500X1.7000*%
%ADD24R,1.1300X1.4200*%
G04:AMPARAMS|DCode=25|XSize=1.31mm|YSize=0.62mm|CornerRadius=0.0775mm|HoleSize=0mm|Usage=FLASHONLY|Rotation=90.000|XOffset=0mm|YOffset=0mm|HoleType=Round|Shape=RoundedRectangle|*
%AMROUNDEDRECTD25*
21,1,1.3100,0.4650,0,0,90.0*
21,1,1.1550,0.6200,0,0,90.0*
1,1,0.1550,0.2325,0.5775*
1,1,0.1550,0.2325,-0.5775*
1,1,0.1550,-0.2325,-0.5775*
1,1,0.1550,-0.2325,0.5775*
%
%ADD25ROUNDEDRECTD25*%
%ADD26R,1.1500X0.6000*%
%ADD27R,1.4557X1.8582*%
%ADD28R,0.8000X0.8000*%
G04:AMPARAMS|DCode=29|XSize=3.24mm|YSize=1.31mm|CornerRadius=0.0983mm|HoleSize=0mm|Usage=FLASHONLY|Rotation=90.000|XOffset=0mm|YOffset=0mm|HoleType=Round|Shape=RoundedRectangle|*
%AMROUNDEDRECTD29*
21,1,3.2400,1.1135,0,0,90.0*
21,1,3.0435,1.3100,0,0,90.0*
1,1,0.1965,0.5568,1.5218*
1,1,0.1965,0.5568,-1.5218*
1,1,0.1965,-0.5568,-1.5218*
1,1,0.1965,-0.5568,1.5218*
%
%ADD29ROUNDEDRECTD29*%
%ADD30R,1.1500X0.3000*%
%ADD31R,0.9000X0.9500*%
%ADD32R,1.5000X1.5000*%
%ADD33R,0.8000X0.3000*%
%ADD34R,0.3000X0.8000*%
%ADD35C,1.5500*%
%ADD36R,1.5500X1.5500*%
%ADD37C,0.3000*%
%ADD38C,0.5000*%
%ADD39C,1.0000*%
%ADD40C,0.6000*%
%ADD41C,0.4000*%
%ADD42C,1.5000*%
G04:AMPARAMS|DCode=43|XSize=1.65mm|YSize=1.65mm|CornerRadius=0.4125mm|HoleSize=0mm|Usage=FLASHONLY|Rotation=90.000|XOffset=0mm|YOffset=0mm|HoleType=Round|Shape=RoundedRectangle|*
%AMROUNDEDRECTD43*
21,1,1.6500,0.8250,0,0,90.0*
21,1,0.8250,1.6500,0,0,90.0*
1,1,0.8250,0.4125,0.4125*
1,1,0.8250,0.4125,-0.4125*
1,1,0.8250,-0.4125,-0.4125*
1,1,0.8250,-0.4125,0.4125*
%
%ADD43ROUNDEDRECTD43*%
%ADD44O,2.1500X1.0500*%
%ADD45O,1.8500X1.0500*%
%ADD46C,1.6500*%
%ADD47C,1.5750*%
%ADD48C,1.4060*%
%ADD49R,1.9800X1.9800*%
%ADD50C,1.9800*%
%ADD51C,1.9350*%
%ADD52C,0.6500*%
%ADD53R,1.5750X1.5750*%
%ADD54C,1.8000*%
%ADD55R,1.8000X1.8000*%
%ADD56C,0.8000*%
%ADD57C,0.6000*%
%ADD58C,1.2700*%
G36*
X316844Y607442D02*
X316722Y607321D01*
X316037Y606295D01*
X315796Y605085D01*
Y593369D01*
X311085Y588658D01*
X310400Y587632D01*
X310159Y586423D01*
Y572360D01*
X308626Y570828D01*
X306963Y571516D01*
Y575135D01*
X302173D01*
Y577675D01*
X306963D01*
Y586445D01*
X305334D01*
Y592040D01*
X309262Y595969D01*
X309948Y596994D01*
X310188Y598204D01*
Y600829D01*
X309948Y602038D01*
X309262Y603064D01*
X308237Y603749D01*
X307027Y603989D01*
X305818Y603749D01*
X304792Y603064D01*
X304107Y602038D01*
X303867Y600829D01*
Y599513D01*
X300634Y596280D01*
X298834Y597026D01*
Y608974D01*
X299102Y609242D01*
X316098D01*
X316844Y607442D01*
D02*
G37*
G36*
X246986Y546912D02*
X247013Y546780D01*
Y527505D01*
X239823D01*
Y509305D01*
X272449D01*
Y496890D01*
X269320D01*
Y476690D01*
X270980D01*
Y466931D01*
X271337Y465136D01*
X272354Y463614D01*
X298838Y437130D01*
X300110Y436280D01*
Y384230D01*
X300053Y384172D01*
X299200Y382114D01*
Y379886D01*
X300053Y377828D01*
X300810Y377071D01*
X300064Y375271D01*
X288911D01*
Y401320D01*
X288670Y402530D01*
X287985Y403555D01*
X243128Y448412D01*
X242265Y449275D01*
X243188Y450823D01*
X243477Y451113D01*
X244330Y453171D01*
Y455399D01*
X243477Y457457D01*
X241902Y459033D01*
X239844Y459885D01*
X237616D01*
X235558Y459033D01*
X233983Y457457D01*
X233978Y457446D01*
X224611D01*
X224204Y458313D01*
X224059Y459246D01*
X225435Y460623D01*
X226288Y462681D01*
Y464909D01*
X225435Y466967D01*
X224141Y468262D01*
Y490353D01*
X223900Y491562D01*
X223215Y492588D01*
X200335Y515468D01*
Y552992D01*
X200346Y552997D01*
X200771Y553422D01*
X202001Y554496D01*
X203123Y553422D01*
X203602Y552943D01*
X205660Y552090D01*
X207888D01*
X209946Y552943D01*
X211521Y554518D01*
X211580Y554660D01*
X246986D01*
Y546912D01*
D02*
G37*
G36*
X399907Y858985D02*
X399048Y858252D01*
X396158Y854868D01*
X393833Y851074D01*
X392131Y846963D01*
X391092Y842636D01*
X390743Y838200D01*
X391092Y833764D01*
X392131Y829437D01*
X393833Y825326D01*
X396158Y821532D01*
X399048Y818148D01*
X402432Y815258D01*
X406226Y812933D01*
X410337Y811230D01*
X414664Y810192D01*
X419100Y809843D01*
X423536Y810192D01*
X427863Y811230D01*
X431974Y812933D01*
X435768Y815258D01*
X439152Y818148D01*
X439885Y819007D01*
X441574Y818384D01*
Y45216D01*
X439885Y44593D01*
X439152Y45452D01*
X435768Y48342D01*
X431974Y50667D01*
X427863Y52369D01*
X423536Y53408D01*
X419100Y53757D01*
X414664Y53408D01*
X410337Y52369D01*
X406226Y50667D01*
X402432Y48342D01*
X399048Y45452D01*
X396158Y42068D01*
X393833Y38274D01*
X392131Y34163D01*
X391092Y29836D01*
X390743Y25400D01*
X391092Y20964D01*
X392131Y16637D01*
X393833Y12526D01*
X396158Y8732D01*
X399048Y5348D01*
X399907Y4615D01*
X399284Y2926D01*
X45216D01*
X44593Y4615D01*
X45452Y5348D01*
X48342Y8732D01*
X50667Y12526D01*
X52369Y16637D01*
X53408Y20964D01*
X53757Y25400D01*
X53408Y29836D01*
X52369Y34163D01*
X50667Y38274D01*
X48342Y42068D01*
X45452Y45452D01*
X42068Y48342D01*
X38274Y50667D01*
X34163Y52369D01*
X29836Y53408D01*
X25400Y53757D01*
X20964Y53408D01*
X16637Y52369D01*
X12526Y50667D01*
X8732Y48342D01*
X5348Y45452D01*
X4615Y44593D01*
X2926Y45216D01*
Y292679D01*
X4726Y293425D01*
X5718Y292433D01*
X7776Y291580D01*
X10004D01*
X12062Y292433D01*
X13638Y294008D01*
X14490Y296066D01*
X16269Y296016D01*
Y267188D01*
X16510Y265978D01*
X17195Y264953D01*
X18952Y263195D01*
X19978Y262510D01*
X21188Y262269D01*
X68580D01*
X69790Y262510D01*
X70815Y263195D01*
X80975Y273355D01*
X81660Y274380D01*
X81901Y275590D01*
Y281319D01*
X140931D01*
X155695Y266555D01*
X155690Y266544D01*
Y264316D01*
X156419Y262555D01*
X155694Y260755D01*
X154060D01*
X152266Y260398D01*
X150744Y259382D01*
X136783Y245420D01*
X112660D01*
Y249430D01*
X98160D01*
Y245725D01*
X89819D01*
X89727Y246189D01*
X89219Y246949D01*
X88459Y247457D01*
X87562Y247635D01*
X75857D01*
X74961Y247457D01*
X74201Y246949D01*
X73693Y246189D01*
X73515Y245292D01*
Y237388D01*
X73693Y236491D01*
X74201Y235731D01*
X74961Y235223D01*
X75857Y235045D01*
X87562D01*
X88459Y235223D01*
X89219Y235731D01*
X89629Y236345D01*
X98160D01*
Y232030D01*
X112660D01*
Y236040D01*
X134323D01*
Y145530D01*
X88760D01*
Y147570D01*
X80470D01*
Y150110D01*
X88760D01*
Y154380D01*
X88065D01*
X87125Y156111D01*
X87909Y158006D01*
X88010Y158770D01*
X61630D01*
X61730Y158006D01*
X62516Y156111D01*
X63764Y154484D01*
X65391Y153236D01*
X67286Y152451D01*
X68588Y152279D01*
X68700Y151571D01*
X68559Y150467D01*
X67073Y149852D01*
X65708Y148487D01*
X64970Y146705D01*
Y144775D01*
X65708Y142993D01*
X67073Y141628D01*
X68855Y140890D01*
X70785D01*
X71320Y141112D01*
X73120Y139909D01*
Y126240D01*
Y116240D01*
Y106240D01*
Y93771D01*
X71320Y92568D01*
X70785Y92790D01*
X68855D01*
X67073Y92052D01*
X65708Y90687D01*
X64970Y88905D01*
Y86975D01*
X65708Y85193D01*
X67073Y83828D01*
X68559Y83213D01*
X68700Y82109D01*
X68588Y81401D01*
X67286Y81229D01*
X65391Y80444D01*
X63764Y79196D01*
X62516Y77569D01*
X61730Y75674D01*
X61630Y74910D01*
X88010D01*
X87909Y75674D01*
X87125Y77569D01*
X88065Y79300D01*
X88760D01*
Y83570D01*
X80470D01*
Y86110D01*
X88760D01*
Y89679D01*
X101531D01*
X104445Y86765D01*
X105470Y86080D01*
X106680Y85839D01*
X108010D01*
Y82650D01*
X128210D01*
Y85839D01*
X136539D01*
Y81831D01*
X136413Y81806D01*
X135628Y81281D01*
X135103Y80496D01*
X134918Y79569D01*
Y68019D01*
X135103Y67092D01*
X135628Y66307D01*
X136413Y65782D01*
X137340Y65597D01*
X141990D01*
X142917Y65782D01*
X143702Y66307D01*
X144227Y67092D01*
X144411Y68019D01*
Y79569D01*
X144227Y80496D01*
X143702Y81281D01*
X142917Y81806D01*
X142861Y81817D01*
Y87243D01*
X142620Y88452D01*
X141935Y89478D01*
X140178Y91235D01*
X139152Y91920D01*
X137943Y92161D01*
X128210D01*
Y95350D01*
X128960Y96839D01*
X132310D01*
X132356Y96848D01*
X132662Y96542D01*
X134721Y95690D01*
X136948D01*
X139007Y96542D01*
X140582Y98118D01*
X141434Y100176D01*
Y102404D01*
X140582Y104462D01*
X139007Y106037D01*
X137475Y106672D01*
X136948Y108164D01*
X136947Y108690D01*
X139297Y111039D01*
X147359D01*
X156960Y101438D01*
Y99886D01*
X157813Y97828D01*
X159388Y96253D01*
X161446Y95400D01*
X163674D01*
X165732Y96253D01*
X167307Y97828D01*
X168160Y99886D01*
Y102114D01*
X167307Y104172D01*
X165732Y105747D01*
X163674Y106600D01*
X161446D01*
X160945Y106392D01*
X150903Y116435D01*
X149878Y117120D01*
X148668Y117361D01*
X137988D01*
X136778Y117120D01*
X135753Y116435D01*
X134768Y115450D01*
X133105Y116139D01*
Y120288D01*
X133117Y120293D01*
X134692Y121868D01*
X135544Y123926D01*
Y126154D01*
X135078Y127279D01*
X136177Y129079D01*
X243165D01*
X243403Y128697D01*
X243208Y126667D01*
X241633Y125092D01*
X240780Y123034D01*
Y120806D01*
X241633Y118748D01*
X243208Y117173D01*
X243219Y117168D01*
Y69147D01*
X238233Y64161D01*
X232384D01*
X232153Y64822D01*
X232085Y65961D01*
X232602Y66307D01*
X233127Y67092D01*
X233312Y68019D01*
Y79569D01*
X233127Y80496D01*
X232602Y81281D01*
X231817Y81806D01*
X230890Y81990D01*
X226240D01*
X225313Y81806D01*
X224528Y81281D01*
X224003Y80496D01*
X223818Y79569D01*
Y68019D01*
X224003Y67092D01*
X224528Y66307D01*
X225045Y65961D01*
X224977Y64822D01*
X224746Y64161D01*
X219684D01*
X219453Y64822D01*
X219385Y65961D01*
X219902Y66307D01*
X220427Y67092D01*
X220611Y68019D01*
Y79569D01*
X220427Y80496D01*
X219902Y81281D01*
X219117Y81806D01*
X218190Y81990D01*
X213540D01*
X212613Y81806D01*
X211828Y81281D01*
X211303Y80496D01*
X211118Y79569D01*
Y68019D01*
X211303Y67092D01*
X211828Y66307D01*
X212345Y65961D01*
X212277Y64822D01*
X212046Y64161D01*
X206984D01*
X206753Y64822D01*
X206685Y65961D01*
X207202Y66307D01*
X207727Y67092D01*
X207911Y68019D01*
Y79569D01*
X207727Y80496D01*
X207202Y81281D01*
X206417Y81806D01*
X205490Y81990D01*
X200840D01*
X199913Y81806D01*
X199128Y81281D01*
X198603Y80496D01*
X198418Y79569D01*
Y68019D01*
X198603Y67092D01*
X199128Y66307D01*
X199645Y65961D01*
X199577Y64822D01*
X199346Y64161D01*
X194284D01*
X194053Y64822D01*
X193985Y65961D01*
X194502Y66307D01*
X195027Y67092D01*
X195212Y68019D01*
Y79569D01*
X195027Y80496D01*
X194502Y81281D01*
X193717Y81806D01*
X192790Y81990D01*
X188140D01*
X187213Y81806D01*
X186428Y81281D01*
X185903Y80496D01*
X185718Y79569D01*
Y68019D01*
X185903Y67092D01*
X186428Y66307D01*
X186945Y65961D01*
X186877Y64822D01*
X186646Y64161D01*
X181584D01*
X181353Y64822D01*
X181285Y65961D01*
X181802Y66307D01*
X182327Y67092D01*
X182512Y68019D01*
Y79569D01*
X182327Y80496D01*
X181802Y81281D01*
X181017Y81806D01*
X180090Y81990D01*
X175440D01*
X174513Y81806D01*
X173728Y81281D01*
X173203Y80496D01*
X173018Y79569D01*
Y68019D01*
X173203Y67092D01*
X173728Y66307D01*
X174245Y65961D01*
X174177Y64822D01*
X173946Y64161D01*
X168884D01*
X168653Y64822D01*
X168585Y65961D01*
X169102Y66307D01*
X169627Y67092D01*
X169811Y68019D01*
Y79569D01*
X169627Y80496D01*
X169102Y81281D01*
X168317Y81806D01*
X167390Y81990D01*
X162740D01*
X161813Y81806D01*
X161028Y81281D01*
X160503Y80496D01*
X160318Y79569D01*
Y68019D01*
X160503Y67092D01*
X161028Y66307D01*
X161813Y65782D01*
X162740Y65597D01*
X164168D01*
X164408Y65280D01*
X164587Y63235D01*
X162830Y61478D01*
X162145Y60452D01*
X161904Y59243D01*
Y26824D01*
X161813Y26806D01*
X161028Y26281D01*
X160503Y25496D01*
X160318Y24569D01*
Y13019D01*
X160503Y12092D01*
X161028Y11307D01*
X161813Y10782D01*
X162740Y10597D01*
X167390D01*
X168317Y10782D01*
X169102Y11307D01*
X169627Y12092D01*
X169811Y13019D01*
Y24569D01*
X169627Y25496D01*
X169102Y26281D01*
X168317Y26806D01*
X168226Y26824D01*
Y57839D01*
X239543D01*
X240268Y57984D01*
X241227Y56397D01*
X239991Y55161D01*
X192257D01*
X191048Y54920D01*
X190022Y54235D01*
X188265Y52478D01*
X187580Y51452D01*
X187339Y50243D01*
Y26831D01*
X187213Y26806D01*
X186428Y26281D01*
X185903Y25496D01*
X185718Y24569D01*
Y13019D01*
X185903Y12092D01*
X186428Y11307D01*
X187213Y10782D01*
X188140Y10597D01*
X192790D01*
X193717Y10782D01*
X194502Y11307D01*
X195027Y12092D01*
X195212Y13019D01*
Y24569D01*
X195027Y25496D01*
X194502Y26281D01*
X193717Y26806D01*
X193661Y26817D01*
Y48839D01*
X200374D01*
X200732Y47039D01*
X200028Y46747D01*
X198453Y45172D01*
X197600Y43114D01*
Y40886D01*
X198453Y38828D01*
X200022Y37259D01*
Y26828D01*
X199913Y26806D01*
X199128Y26281D01*
X198603Y25496D01*
X198418Y24569D01*
Y13019D01*
X198603Y12092D01*
X199128Y11307D01*
X199913Y10782D01*
X200840Y10597D01*
X205490D01*
X206417Y10782D01*
X207202Y11307D01*
X207727Y12092D01*
X207911Y13019D01*
Y24569D01*
X207727Y25496D01*
X207202Y26281D01*
X206417Y26806D01*
X206343Y26821D01*
Y37241D01*
X206372Y37253D01*
X207947Y38828D01*
X208800Y40886D01*
Y43114D01*
X207947Y45172D01*
X206372Y46747D01*
X205668Y47039D01*
X206026Y48839D01*
X241300D01*
X242510Y49080D01*
X243535Y49765D01*
X257505Y63735D01*
X258190Y64760D01*
X258431Y65970D01*
Y88248D01*
X258442Y88253D01*
X260017Y89828D01*
X260870Y91886D01*
Y94114D01*
X260017Y96172D01*
X258442Y97747D01*
X256384Y98600D01*
X254156D01*
X252098Y97747D01*
X251341Y96990D01*
X249541Y97736D01*
Y117168D01*
X249552Y117173D01*
X251127Y118748D01*
X251552Y119773D01*
X253643Y120228D01*
X273927Y99944D01*
Y74814D01*
X269179D01*
Y53032D01*
X286937D01*
Y74814D01*
X280248D01*
Y101253D01*
X280008Y102463D01*
X279322Y103488D01*
X248336Y134475D01*
X247310Y135160D01*
X246101Y135401D01*
X144357D01*
X143612Y137201D01*
X143920Y137509D01*
X144772Y139567D01*
Y141795D01*
X143920Y143853D01*
X143703Y144070D01*
Y239075D01*
X156003Y251375D01*
X227875D01*
X229670Y251732D01*
X231192Y252749D01*
X234706Y256264D01*
X235723Y257785D01*
X236080Y259580D01*
Y263362D01*
X274559D01*
Y255632D01*
X292316D01*
Y277414D01*
X274559D01*
Y269683D01*
X236080D01*
Y275641D01*
X236323Y276860D01*
Y283030D01*
X248323Y295030D01*
X279059D01*
Y290071D01*
X291819D01*
Y309369D01*
X279059D01*
Y304410D01*
X260055D01*
X259366Y306073D01*
X292773Y339480D01*
X301571D01*
X301628Y339423D01*
X303686Y338570D01*
X305914D01*
X307972Y339423D01*
X309548Y340998D01*
X310400Y343056D01*
Y345284D01*
X309548Y347342D01*
X308540Y348350D01*
X309286Y350150D01*
X317571D01*
X318138Y349583D01*
X320196Y348730D01*
X322424D01*
X324482Y349583D01*
X326058Y351158D01*
X326910Y353216D01*
Y355444D01*
X326058Y357502D01*
X324482Y359078D01*
X322424Y359930D01*
X320196D01*
X318138Y359078D01*
X317571Y358510D01*
X289930D01*
Y365807D01*
X289663Y367149D01*
X289946Y367860D01*
X290746Y368949D01*
X381929D01*
Y362461D01*
X394689D01*
Y381759D01*
X381929D01*
Y375271D01*
X309536D01*
X308790Y377071D01*
X309547Y377828D01*
X310400Y379886D01*
Y382114D01*
X309547Y384172D01*
X309490Y384230D01*
Y435756D01*
X322640D01*
Y434370D01*
X342840D01*
Y437654D01*
X351498D01*
X352707Y437894D01*
X353733Y438579D01*
X355719Y440566D01*
X357519Y439821D01*
Y434012D01*
X357508Y434007D01*
X355933Y432432D01*
X355080Y430374D01*
Y428146D01*
X355933Y426088D01*
X356219Y425801D01*
X355200Y424275D01*
X354174Y424700D01*
X351946D01*
X349888Y423848D01*
X348313Y422272D01*
X347460Y420214D01*
Y417986D01*
X348313Y415928D01*
X349888Y414353D01*
X349899Y414348D01*
Y407610D01*
X346680D01*
Y401690D01*
X334010D01*
X332410Y401372D01*
X331054Y400466D01*
X320998Y390410D01*
X320196D01*
X318138Y389558D01*
X316563Y387982D01*
X315710Y385924D01*
Y383696D01*
X316563Y381638D01*
X318138Y380063D01*
X320196Y379210D01*
X322424D01*
X324482Y380063D01*
X326058Y381638D01*
X326910Y383696D01*
Y384498D01*
X335742Y393330D01*
X346680D01*
Y387410D01*
X359380D01*
Y407610D01*
X356221D01*
Y414348D01*
X356232Y414353D01*
X357808Y415928D01*
X359136Y414905D01*
X362255Y411785D01*
X363281Y411100D01*
X364490Y410859D01*
X426233D01*
X427442Y411100D01*
X428468Y411785D01*
X430225Y413543D01*
X430910Y414568D01*
X431151Y415778D01*
Y440690D01*
X430910Y441900D01*
X430788Y442083D01*
Y461373D01*
X430547Y462582D01*
X429862Y463608D01*
X407875Y485595D01*
X406850Y486280D01*
X405640Y486521D01*
X345214D01*
X342474Y489260D01*
Y493876D01*
X342975Y494011D01*
X345221Y495307D01*
X347055Y497141D01*
X348352Y499387D01*
X349023Y501893D01*
Y504486D01*
X348352Y506991D01*
X347055Y509237D01*
X345221Y511071D01*
X342975Y512368D01*
X340470Y513039D01*
X337877D01*
X335372Y512368D01*
X333125Y511071D01*
X331292Y509237D01*
X329995Y506991D01*
X329323Y504486D01*
Y501893D01*
X329995Y499387D01*
X331292Y497141D01*
X333125Y495307D01*
X335372Y494011D01*
X336153Y493801D01*
Y487951D01*
X336393Y486741D01*
X337078Y485716D01*
X341669Y481125D01*
X342695Y480440D01*
X343904Y480199D01*
X404331D01*
X424467Y460064D01*
Y451035D01*
X422804Y450347D01*
X417565Y455585D01*
X416540Y456270D01*
X415330Y456511D01*
X407180D01*
Y461450D01*
X401885D01*
X401580Y461511D01*
X381773D01*
X374202Y469082D01*
X373177Y469767D01*
X371967Y470007D01*
X314372D01*
X314014Y471807D01*
X314373Y471956D01*
X315948Y473532D01*
X316324Y474438D01*
X317438Y474569D01*
X318310Y474529D01*
X319757Y473081D01*
X321815Y472229D01*
X324043D01*
X326101Y473081D01*
X327677Y474656D01*
X328529Y476715D01*
Y478942D01*
X327677Y481001D01*
X326101Y482576D01*
X324043Y483429D01*
X321815D01*
X321229Y483186D01*
X296772Y507642D01*
X297461Y509305D01*
X306023D01*
Y527505D01*
X272813D01*
Y537708D01*
X273651Y538055D01*
X275226Y539630D01*
X276079Y541688D01*
Y543411D01*
X276846Y543792D01*
X277846Y543995D01*
X279224Y542617D01*
X281282Y541764D01*
X283510D01*
X285568Y542617D01*
X287144Y544192D01*
X287996Y546250D01*
Y548478D01*
X287144Y550537D01*
X285568Y552112D01*
X283510Y552964D01*
X281282D01*
X280450Y552620D01*
X279143Y553926D01*
X279889Y555726D01*
X301156D01*
X302365Y555967D01*
X303391Y556652D01*
X315555Y568816D01*
X316240Y569842D01*
X316481Y571051D01*
Y585113D01*
X321192Y589825D01*
X321877Y590850D01*
X322118Y592060D01*
Y603682D01*
X349792D01*
X351002Y603923D01*
X352027Y604608D01*
X372555Y625136D01*
X373240Y626161D01*
X373481Y627371D01*
Y808240D01*
X373240Y809450D01*
X372555Y810475D01*
X351035Y831995D01*
X351040Y832006D01*
Y834234D01*
X350187Y836292D01*
X348612Y837867D01*
X346554Y838720D01*
X344326D01*
X342268Y837867D01*
X340693Y836292D01*
X339840Y834234D01*
Y832006D01*
X340693Y829948D01*
X342268Y828373D01*
X344326Y827520D01*
X346554D01*
X346565Y827525D01*
X367159Y806931D01*
Y692035D01*
X365717Y691599D01*
X365359Y691580D01*
X363852Y693087D01*
X361794Y693940D01*
X359566D01*
X357726Y693178D01*
X356762Y693542D01*
X355926Y694051D01*
Y802963D01*
X355686Y804173D01*
X355000Y805198D01*
X349457Y810741D01*
X349462Y810753D01*
Y812980D01*
X348610Y815039D01*
X347034Y816614D01*
X344976Y817467D01*
X342748D01*
X340690Y816614D01*
X339115Y815039D01*
X338262Y812980D01*
Y810753D01*
X339115Y808694D01*
X340690Y807119D01*
X342748Y806266D01*
X344976D01*
X344987Y806271D01*
X349605Y801654D01*
Y685396D01*
X349020Y684991D01*
X348601Y685053D01*
X347220Y685933D01*
Y702370D01*
X328520D01*
Y683670D01*
X345634D01*
X346455Y683670D01*
X347200Y681870D01*
X320293Y654963D01*
X284106D01*
X282897Y654722D01*
X281871Y654037D01*
X281178Y653344D01*
X279378Y654089D01*
Y663667D01*
X279488Y663776D01*
X280378D01*
X282437Y664629D01*
X284012Y666204D01*
X284865Y668262D01*
Y670490D01*
X284012Y672549D01*
X282437Y674124D01*
X280378Y674976D01*
X278151D01*
X276092Y674124D01*
X274634Y672665D01*
X274075Y672717D01*
X272834Y673189D01*
Y680802D01*
X327355Y735323D01*
X328040Y736348D01*
X328281Y737558D01*
Y800428D01*
X328292Y800433D01*
X329867Y802008D01*
X330720Y804066D01*
Y806294D01*
X329867Y808352D01*
X328292Y809927D01*
X326234Y810780D01*
X324006D01*
X321948Y809927D01*
X320373Y808352D01*
X319520Y806294D01*
Y804066D01*
X320373Y802008D01*
X321948Y800433D01*
X321959Y800428D01*
Y738867D01*
X308285Y725193D01*
X306485Y725939D01*
Y829516D01*
X306245Y830725D01*
X305560Y831750D01*
X300054Y837256D01*
X300142Y837409D01*
X300730Y839604D01*
Y841876D01*
X300142Y844071D01*
X299006Y846039D01*
X297399Y847646D01*
X295431Y848782D01*
X293236Y849370D01*
X290964D01*
X288769Y848782D01*
X286801Y847646D01*
X285194Y846039D01*
X284058Y844071D01*
X283470Y841876D01*
Y839604D01*
X284058Y837409D01*
X285194Y835441D01*
X286801Y833834D01*
X288769Y832698D01*
X290964Y832110D01*
X293236D01*
X295431Y832698D01*
X295584Y832786D01*
X300164Y828206D01*
Y745826D01*
X298364Y745081D01*
X297399Y746046D01*
X295431Y747182D01*
X293236Y747770D01*
X290964D01*
X288769Y747182D01*
X286801Y746046D01*
X285194Y744439D01*
X284058Y742471D01*
X283470Y740276D01*
Y738004D01*
X284058Y735809D01*
X285194Y733841D01*
X286801Y732234D01*
X288769Y731098D01*
X290964Y730510D01*
X293236D01*
X295431Y731098D01*
X297399Y732234D01*
X298364Y733199D01*
X300164Y732454D01*
Y725487D01*
X261735Y687058D01*
X259935Y687803D01*
Y713334D01*
X259694Y714544D01*
X259009Y715569D01*
X245166Y729412D01*
X245111Y729586D01*
X245386Y731534D01*
X246599Y732234D01*
X248206Y733841D01*
X249342Y735809D01*
X249930Y738004D01*
Y740276D01*
X249342Y742471D01*
X248206Y744439D01*
X246599Y746046D01*
X244631Y747182D01*
X242436Y747770D01*
X240164D01*
X237969Y747182D01*
X236001Y746046D01*
X234394Y744439D01*
X233258Y742471D01*
X232670Y740276D01*
Y738004D01*
X233258Y735809D01*
X234394Y733841D01*
X236001Y732234D01*
X237969Y731098D01*
X238139Y731052D01*
Y728808D01*
X238380Y727599D01*
X239065Y726573D01*
X253613Y712025D01*
Y694293D01*
X253588Y694276D01*
X251813Y693741D01*
X250621Y694933D01*
X248563Y695786D01*
X246335D01*
X244277Y694933D01*
X242702Y693358D01*
X241849Y691299D01*
Y689867D01*
X241702Y689732D01*
X239902Y690525D01*
Y702370D01*
X221202D01*
Y683670D01*
X239064D01*
X239902Y683670D01*
X240864Y682269D01*
Y647276D01*
X240650Y647189D01*
X239064Y646976D01*
X238034Y648761D01*
X236293Y650502D01*
X234161Y651733D01*
X231783Y652370D01*
X229321D01*
X226943Y651733D01*
X224811Y650502D01*
X223070Y648761D01*
X221839Y646629D01*
X221202Y644251D01*
Y641789D01*
X221839Y639411D01*
X223070Y637279D01*
X224811Y635538D01*
X226943Y634307D01*
X229321Y633670D01*
X231783D01*
X234161Y634307D01*
X236293Y635538D01*
X238034Y637279D01*
X239064Y639064D01*
X240650Y638851D01*
X240864Y638764D01*
Y619358D01*
X240509Y619211D01*
X238934Y617635D01*
X238081Y615577D01*
Y613349D01*
X238934Y611291D01*
X240509Y609716D01*
X242568Y608863D01*
X244795D01*
X246854Y609716D01*
X248429Y611291D01*
X249281Y613349D01*
Y615577D01*
X248429Y617635D01*
X247186Y618879D01*
Y684585D01*
X248563D01*
X250621Y685438D01*
X251813Y686630D01*
X253588Y686095D01*
X253613Y686078D01*
Y596179D01*
X251813Y595434D01*
X241188Y606059D01*
X240162Y606744D01*
X238953Y606985D01*
X219672D01*
Y626265D01*
X219431Y627475D01*
X218746Y628500D01*
X208451Y638795D01*
Y713215D01*
X208211Y714424D01*
X207526Y715450D01*
X193661Y729314D01*
Y731052D01*
X193831Y731098D01*
X195799Y732234D01*
X197406Y733841D01*
X198542Y735809D01*
X199130Y738004D01*
Y740276D01*
X198542Y742471D01*
X197406Y744439D01*
X195799Y746046D01*
X193831Y747182D01*
X191636Y747770D01*
X189364D01*
X187169Y747182D01*
X185201Y746046D01*
X183594Y744439D01*
X182458Y742471D01*
X181870Y740276D01*
Y738004D01*
X182458Y735809D01*
X183594Y733841D01*
X185201Y732234D01*
X187169Y731098D01*
X187339Y731052D01*
Y728005D01*
X187580Y726796D01*
X188265Y725770D01*
X202130Y711905D01*
Y637486D01*
X202370Y636277D01*
X203056Y635251D01*
X213351Y624956D01*
Y603824D01*
X213591Y602614D01*
X214276Y601589D01*
X215302Y600904D01*
X216511Y600663D01*
X237644D01*
X247013Y591294D01*
Y585505D01*
X239823D01*
Y567305D01*
X297383D01*
Y566365D01*
X301812D01*
X302501Y564702D01*
X299846Y562048D01*
X258606D01*
X257397Y561807D01*
X256371Y561122D01*
X254614Y559365D01*
X254224Y558781D01*
X253113Y558490D01*
X252807Y558468D01*
X252135Y558546D01*
X250625Y560056D01*
X249599Y560741D01*
X248390Y560981D01*
X211402D01*
X209946Y562438D01*
X207888Y563290D01*
X205660D01*
X203602Y562438D01*
X203177Y562013D01*
X201947Y560938D01*
X200825Y562013D01*
X200346Y562492D01*
X198288Y563344D01*
X196060D01*
X194002Y562492D01*
X192426Y560916D01*
X192342Y560713D01*
X190394D01*
X190310Y560916D01*
X188734Y562492D01*
X186676Y563344D01*
X184448D01*
X182390Y562492D01*
X181693Y561794D01*
X180348Y561178D01*
X179308Y561762D01*
X171030Y570040D01*
X170005Y570725D01*
X168795Y570966D01*
X125845D01*
Y634282D01*
X125939Y634307D01*
X128071Y635538D01*
X129812Y637279D01*
X131043Y639411D01*
X131680Y641789D01*
Y644251D01*
X131043Y646629D01*
X129812Y648761D01*
X128071Y650502D01*
X125939Y651733D01*
X123561Y652370D01*
X121099D01*
X118721Y651733D01*
X116589Y650502D01*
X114848Y648761D01*
X113617Y646629D01*
X112980Y644251D01*
Y641789D01*
X113617Y639411D01*
X114848Y637279D01*
X116589Y635538D01*
X118721Y634307D01*
X119523Y634092D01*
Y569562D01*
X119764Y568353D01*
X120449Y567327D01*
X122206Y565570D01*
X123232Y564885D01*
X124441Y564644D01*
X167486D01*
X174639Y557491D01*
Y516788D01*
X174880Y515578D01*
X175565Y514553D01*
X197820Y492298D01*
Y471331D01*
X196930Y469900D01*
X176741D01*
Y507453D01*
X176500Y508662D01*
X175815Y509688D01*
X174058Y511445D01*
X173032Y512130D01*
X171823Y512371D01*
X148931D01*
Y518859D01*
X145711D01*
Y522929D01*
X145471Y524139D01*
X144786Y525164D01*
X108754Y561196D01*
X107728Y561881D01*
X106519Y562122D01*
X105376D01*
Y565588D01*
X85176D01*
Y562399D01*
X51142D01*
X50198Y562211D01*
X48828Y563582D01*
X46667Y564829D01*
X44257Y565475D01*
X41762D01*
X39353Y564829D01*
X37192Y563582D01*
X35428Y561818D01*
X34181Y559657D01*
X33535Y557247D01*
Y554753D01*
X34181Y552343D01*
X35428Y550182D01*
X37192Y548418D01*
X39353Y547171D01*
X41762Y546525D01*
X44257D01*
X46667Y547171D01*
X48828Y548418D01*
X50592Y550182D01*
X51839Y552343D01*
X52485Y554753D01*
Y556077D01*
X85176D01*
Y552888D01*
X105376D01*
Y553282D01*
X107039Y553971D01*
X139390Y521620D01*
Y518859D01*
X136170D01*
Y499561D01*
X148931D01*
Y506049D01*
X170419D01*
Y482433D01*
X169547Y481914D01*
X168619Y481568D01*
X166765Y482336D01*
X164537D01*
X163793Y482028D01*
X162077Y482250D01*
X161703Y482962D01*
X161141Y484319D01*
X159565Y485894D01*
X157507Y486747D01*
X155279D01*
X153221Y485894D01*
X151646Y484319D01*
X150793Y482261D01*
Y480033D01*
X150931Y479701D01*
X149499Y478744D01*
X149337Y478750D01*
X147265Y480821D01*
X147412Y481175D01*
Y483403D01*
X146560Y485461D01*
X144984Y487037D01*
X142926Y487889D01*
X140698D01*
X138640Y487037D01*
X137065Y485461D01*
X136212Y483403D01*
Y481175D01*
X137065Y479117D01*
X138640Y477542D01*
X140698Y476689D01*
X142457D01*
X144419Y474727D01*
Y469900D01*
X130730D01*
Y451700D01*
X149602D01*
X150348Y449900D01*
X139189Y438741D01*
X113069D01*
Y441930D01*
X92869D01*
Y438741D01*
X88016D01*
Y441741D01*
X68718D01*
Y428980D01*
X88016D01*
Y432419D01*
X92869D01*
Y429230D01*
X113069D01*
Y432419D01*
X120604D01*
X121349Y430619D01*
X115531Y424801D01*
X54868D01*
X52238Y427430D01*
X52984Y429230D01*
X58360D01*
Y441930D01*
X38160D01*
Y438741D01*
X34369D01*
Y441741D01*
X15071D01*
Y428980D01*
X34369D01*
Y432419D01*
X38160D01*
Y429230D01*
X45255D01*
Y426782D01*
X45496Y425573D01*
X46181Y424548D01*
X51323Y419405D01*
X52349Y418720D01*
X53558Y418479D01*
X116840D01*
X118050Y418720D01*
X119075Y419405D01*
X125769Y426099D01*
X140825D01*
X142034Y426340D01*
X143060Y427025D01*
X162600Y446565D01*
X163285Y447590D01*
X163526Y448800D01*
Y451700D01*
X176919D01*
Y448797D01*
X177160Y447588D01*
X177845Y446562D01*
X179602Y444805D01*
X180628Y444120D01*
X181837Y443879D01*
X218541D01*
X218899Y442079D01*
X217808Y441627D01*
X216233Y440052D01*
X215380Y437994D01*
Y435766D01*
X216233Y433708D01*
X217808Y432133D01*
X217819Y432128D01*
Y428749D01*
X214289D01*
X212981Y429938D01*
X211452Y431467D01*
X209394Y432320D01*
X207166D01*
X205108Y431467D01*
X203533Y429892D01*
X202680Y427834D01*
Y425606D01*
X202685Y425595D01*
X197223Y420133D01*
X168569D01*
X167360Y419892D01*
X166334Y419207D01*
X164577Y417450D01*
X163892Y416424D01*
X163651Y415215D01*
Y411900D01*
X130730D01*
Y393700D01*
X137809D01*
Y386701D01*
X100002D01*
X99998Y386712D01*
X98422Y388288D01*
X96364Y389140D01*
X94136D01*
X92078Y388288D01*
X90503Y386712D01*
X89650Y384654D01*
Y382426D01*
X90503Y380368D01*
X92078Y378793D01*
X94136Y377940D01*
X96364D01*
X98422Y378793D01*
X99998Y380368D01*
X100002Y380379D01*
X139213D01*
X140422Y380620D01*
X141448Y381305D01*
X142619Y382477D01*
X144419Y381731D01*
Y377489D01*
X139661Y372731D01*
X100002D01*
X99998Y372742D01*
X98422Y374318D01*
X96364Y375170D01*
X94136D01*
X92078Y374318D01*
X90503Y372742D01*
X89650Y370684D01*
Y368456D01*
X90503Y366398D01*
X92078Y364823D01*
X94136Y363970D01*
X96364D01*
X98422Y364823D01*
X99998Y366398D01*
X100002Y366409D01*
X140970D01*
X141818Y366578D01*
X142715Y365460D01*
X142879Y365094D01*
X132951Y355165D01*
X131151Y355469D01*
Y361439D01*
X118391D01*
Y342141D01*
X131151D01*
Y348629D01*
X134046D01*
X135255Y348870D01*
X136281Y349555D01*
X151726Y365001D01*
X152112Y364841D01*
X154339D01*
X155619Y365372D01*
X157419Y364364D01*
Y337149D01*
X152361Y332091D01*
X131151D01*
Y338579D01*
X118391D01*
Y319281D01*
X131151D01*
Y325769D01*
X148251D01*
X149454Y323969D01*
X149340Y323694D01*
Y321466D01*
X150193Y319408D01*
X151768Y317833D01*
X153826Y316980D01*
X156054D01*
X158112Y317833D01*
X159687Y319408D01*
X160540Y321466D01*
Y323694D01*
X159687Y325752D01*
X158112Y327327D01*
X158376Y329166D01*
X162815Y333605D01*
X163500Y334630D01*
X163741Y335840D01*
Y367724D01*
X165541Y368470D01*
X174295Y359715D01*
X174295Y359715D01*
X181349Y352661D01*
X180604Y350861D01*
X175771D01*
Y338101D01*
X195069D01*
Y350861D01*
X188581D01*
Y353060D01*
X188340Y354270D01*
X187655Y355295D01*
X178765Y364185D01*
X178765Y364185D01*
X170241Y372709D01*
Y380041D01*
X172041Y380787D01*
X177179Y375648D01*
Y373380D01*
X177420Y372171D01*
X178105Y371145D01*
X179131Y370460D01*
X180340Y370219D01*
X181550Y370460D01*
X182575Y371145D01*
X183260Y372171D01*
X183501Y373380D01*
Y376958D01*
X183260Y378167D01*
X182575Y379193D01*
X177993Y383774D01*
X178023Y383922D01*
X179976Y384515D01*
X206045Y358445D01*
X207071Y357760D01*
X208280Y357519D01*
X214600D01*
Y350580D01*
X227300D01*
Y370780D01*
X214600D01*
Y363841D01*
X209589D01*
X192311Y381119D01*
X193056Y382919D01*
X214600D01*
Y374710D01*
X227300D01*
Y394910D01*
X227300D01*
X227770Y396516D01*
X228093Y396916D01*
X240302D01*
X241660Y395850D01*
X241660Y395116D01*
Y386080D01*
X248950D01*
Y384810D01*
X250220D01*
Y373770D01*
X256240D01*
Y381900D01*
X269500D01*
X271100Y382218D01*
X272456Y383124D01*
X273362Y384480D01*
X273680Y386080D01*
X273362Y387680D01*
X272456Y389036D01*
X271100Y389942D01*
X269500Y390260D01*
X256240D01*
X256240Y395850D01*
X257598Y396916D01*
X275870D01*
Y371507D01*
X276188Y369907D01*
X277094Y368551D01*
X281570Y364075D01*
Y356062D01*
X223639Y298130D01*
X188581D01*
Y312079D01*
X195069D01*
Y324840D01*
X175771D01*
Y312079D01*
X182259D01*
Y298130D01*
X173875D01*
X169146Y302860D01*
X167790Y303766D01*
X166190Y304084D01*
X133766D01*
X133362Y304785D01*
X131882Y306266D01*
X130069Y307312D01*
X128047Y307854D01*
X125954D01*
X123932Y307312D01*
X122119Y306266D01*
X120639Y304785D01*
X119592Y302972D01*
X119495Y302611D01*
X109701D01*
X97571Y314741D01*
X94694Y317618D01*
X95383Y319281D01*
X105129D01*
Y338579D01*
X92369D01*
Y333110D01*
X85460D01*
Y348880D01*
X92369D01*
Y342141D01*
X105129D01*
Y361439D01*
X92369D01*
Y357240D01*
X85460D01*
Y378460D01*
X85142Y380060D01*
X84236Y381416D01*
X61376Y404276D01*
X41691Y423961D01*
X40335Y424867D01*
X38735Y425185D01*
X12281D01*
X11800Y425666D01*
Y458221D01*
X15071D01*
Y455002D01*
X34369D01*
Y467762D01*
X15071D01*
Y464543D01*
X11800D01*
Y492139D01*
X52031D01*
X74608Y469562D01*
X73862Y467762D01*
X68718D01*
Y455002D01*
X88016D01*
Y467762D01*
X81528D01*
Y470273D01*
X81287Y471483D01*
X80602Y472508D01*
X55575Y497535D01*
X54550Y498220D01*
X53340Y498461D01*
X11800D01*
Y527320D01*
X33535D01*
Y521525D01*
X52485D01*
Y540475D01*
X33535D01*
Y535681D01*
X7620D01*
X6020Y535363D01*
X4726Y534498D01*
X4355Y534570D01*
X2926Y535095D01*
Y818384D01*
X4615Y819007D01*
X5348Y818148D01*
X8732Y815258D01*
X12526Y812933D01*
X16637Y811230D01*
X20964Y810192D01*
X25400Y809843D01*
X29836Y810192D01*
X34163Y811230D01*
X38274Y812933D01*
X42068Y815258D01*
X45452Y818148D01*
X48342Y821532D01*
X50667Y825326D01*
X52369Y829437D01*
X53408Y833764D01*
X53757Y838200D01*
X53408Y842636D01*
X52369Y846963D01*
X50667Y851074D01*
X48342Y854868D01*
X45452Y858252D01*
X44593Y858985D01*
X45216Y860674D01*
X399284D01*
X399907Y858985D01*
D02*
G37*
G36*
X378229Y456115D02*
X379254Y455430D01*
X380464Y455189D01*
X395980D01*
Y452390D01*
X395040D01*
Y449620D01*
X401580D01*
Y447080D01*
X395040D01*
Y444310D01*
X395980D01*
Y440250D01*
X401275D01*
X401580Y440189D01*
X408319D01*
Y438189D01*
X396201Y426071D01*
X393372D01*
X393368Y426082D01*
X391792Y427658D01*
X389734Y428510D01*
X387506D01*
X385448Y427658D01*
X383873Y426082D01*
X383020Y424024D01*
Y421796D01*
X383873Y419738D01*
X384630Y418981D01*
X383884Y417181D01*
X365799D01*
X361645Y421335D01*
X360859Y421860D01*
X360881Y422815D01*
X361159Y423660D01*
X361794D01*
X363852Y424513D01*
X365427Y426088D01*
X366280Y428146D01*
Y430374D01*
X365427Y432432D01*
X363852Y434007D01*
X363841Y434012D01*
Y440189D01*
X370580D01*
X370885Y440250D01*
X376180D01*
Y445250D01*
Y455812D01*
X377843Y456501D01*
X378229Y456115D01*
D02*
G37*
G36*
X424829Y439381D02*
Y417181D01*
X394517D01*
X393617Y418981D01*
X394194Y419749D01*
X397510D01*
X398720Y419990D01*
X399745Y420675D01*
X411736Y432667D01*
X413399Y431978D01*
Y424180D01*
X413640Y422971D01*
X414325Y421945D01*
X415351Y421260D01*
X416560Y421019D01*
X417770Y421260D01*
X418795Y421945D01*
X419480Y422971D01*
X419721Y424180D01*
Y442138D01*
X421384Y442826D01*
X424829Y439381D01*
D02*
G37*
G36*
X7593Y418049D02*
X8949Y417143D01*
X10549Y416825D01*
X37004D01*
X55259Y398569D01*
Y397549D01*
X40905Y383195D01*
X40504Y382594D01*
X39176Y382130D01*
X38371Y382100D01*
X37592Y382620D01*
X36383Y382861D01*
X22800D01*
Y386050D01*
X2926D01*
Y400410D01*
X11430D01*
Y407700D01*
Y414990D01*
X2926D01*
Y420339D01*
X4461Y420903D01*
X4726Y420916D01*
X7593Y418049D01*
D02*
G37*
G36*
X57041Y370405D02*
X56630Y369414D01*
Y367186D01*
X57483Y365128D01*
X59058Y363553D01*
X59069Y363548D01*
Y339677D01*
X57573Y338181D01*
X51240D01*
Y340620D01*
X42180D01*
Y341560D01*
X39410D01*
Y335020D01*
X36870D01*
Y341560D01*
X34100D01*
Y340620D01*
X30040D01*
Y335325D01*
X29979Y335020D01*
Y330359D01*
X24254Y324634D01*
X22591Y325323D01*
Y359524D01*
X25927Y362859D01*
X30040D01*
Y360420D01*
X51240D01*
Y365715D01*
X51301Y366020D01*
Y367211D01*
X55515Y371425D01*
X57041Y370405D01*
D02*
G37*
G36*
X48909Y319513D02*
Y316260D01*
X43240D01*
Y303560D01*
X63440D01*
Y306749D01*
X92740D01*
X93573Y306915D01*
X104955Y295534D01*
X104994Y295475D01*
X105234Y295315D01*
X104688Y293515D01*
X74941D01*
X73732Y293274D01*
X72706Y292589D01*
X70949Y290832D01*
X70264Y289806D01*
X70023Y288596D01*
Y278963D01*
X66180Y275120D01*
X64380Y275865D01*
Y280640D01*
X53340D01*
Y281910D01*
X52070D01*
Y289200D01*
X42300D01*
Y285101D01*
X34290D01*
X33081Y284860D01*
X32055Y284175D01*
X31370Y283150D01*
X31129Y281940D01*
X31370Y280731D01*
X32055Y279705D01*
X33081Y279020D01*
X34290Y278779D01*
X41027D01*
X42300Y277507D01*
X42300Y274620D01*
X40893Y273671D01*
X27291D01*
Y318731D01*
X30545Y321985D01*
X31943Y320838D01*
X31370Y319980D01*
X31129Y318770D01*
Y308610D01*
X31370Y307401D01*
X32055Y306375D01*
X33081Y305690D01*
X34290Y305449D01*
X35500Y305690D01*
X36525Y306375D01*
X37210Y307401D01*
X37451Y308610D01*
Y317461D01*
X40375Y320385D01*
X41060Y321411D01*
X41301Y322620D01*
Y324770D01*
X42964Y325459D01*
X48909Y319513D01*
D02*
G37*
%LPC*%
G36*
X254960Y497830D02*
X248940D01*
Y488060D01*
X254960D01*
Y497830D01*
D02*
G37*
G36*
X246400D02*
X240380D01*
Y488060D01*
X246400D01*
Y497830D01*
D02*
G37*
G36*
X254960Y485520D02*
X247670D01*
X240380D01*
Y475750D01*
X243503D01*
Y466309D01*
X243821Y464709D01*
X244727Y463353D01*
X251547Y456533D01*
Y456181D01*
X251865Y454581D01*
X252771Y453225D01*
X254127Y452319D01*
X255727Y452001D01*
X257327Y452319D01*
X258683Y453225D01*
X259589Y454581D01*
X259907Y456181D01*
Y458265D01*
X259589Y459864D01*
X258683Y461221D01*
X251864Y468040D01*
Y475750D01*
X254960D01*
Y485520D01*
D02*
G37*
G36*
X267836Y849370D02*
X265564D01*
X263369Y848782D01*
X261401Y847646D01*
X259794Y846039D01*
X258658Y844071D01*
X258070Y841876D01*
Y839604D01*
X258658Y837409D01*
X259794Y835441D01*
X261401Y833834D01*
X263369Y832698D01*
X265564Y832110D01*
X267836D01*
X270031Y832698D01*
X271999Y833834D01*
X273606Y835441D01*
X274742Y837409D01*
X275330Y839604D01*
Y841876D01*
X274742Y844071D01*
X273606Y846039D01*
X271999Y847646D01*
X270031Y848782D01*
X267836Y849370D01*
D02*
G37*
G36*
X242436D02*
X240164D01*
X237969Y848782D01*
X236001Y847646D01*
X234394Y846039D01*
X233258Y844071D01*
X232670Y841876D01*
Y839604D01*
X233258Y837409D01*
X234394Y835441D01*
X236001Y833834D01*
X237969Y832698D01*
X240164Y832110D01*
X242436D01*
X244631Y832698D01*
X246599Y833834D01*
X248206Y835441D01*
X249342Y837409D01*
X249930Y839604D01*
Y841876D01*
X249342Y844071D01*
X248206Y846039D01*
X246599Y847646D01*
X244631Y848782D01*
X242436Y849370D01*
D02*
G37*
G36*
X217036D02*
X214764D01*
X212569Y848782D01*
X210601Y847646D01*
X208994Y846039D01*
X207858Y844071D01*
X207270Y841876D01*
Y839604D01*
X207858Y837409D01*
X208994Y835441D01*
X210601Y833834D01*
X212569Y832698D01*
X214764Y832110D01*
X217036D01*
X219231Y832698D01*
X221199Y833834D01*
X222806Y835441D01*
X223942Y837409D01*
X224530Y839604D01*
Y841876D01*
X223942Y844071D01*
X222806Y846039D01*
X221199Y847646D01*
X219231Y848782D01*
X217036Y849370D01*
D02*
G37*
G36*
X191636D02*
X189364D01*
X187169Y848782D01*
X185201Y847646D01*
X183594Y846039D01*
X182458Y844071D01*
X181870Y841876D01*
Y839604D01*
X182458Y837409D01*
X183594Y835441D01*
X185201Y833834D01*
X187169Y832698D01*
X189364Y832110D01*
X191636D01*
X193831Y832698D01*
X195799Y833834D01*
X197406Y835441D01*
X198542Y837409D01*
X199130Y839604D01*
Y841876D01*
X198542Y844071D01*
X197406Y846039D01*
X195799Y847646D01*
X193831Y848782D01*
X191636Y849370D01*
D02*
G37*
G36*
X166236D02*
X163964D01*
X161769Y848782D01*
X159801Y847646D01*
X158194Y846039D01*
X157058Y844071D01*
X156470Y841876D01*
Y839604D01*
X157058Y837409D01*
X158194Y835441D01*
X159801Y833834D01*
X161769Y832698D01*
X163964Y832110D01*
X166236D01*
X168431Y832698D01*
X170399Y833834D01*
X172006Y835441D01*
X173142Y837409D01*
X173730Y839604D01*
Y841876D01*
X173142Y844071D01*
X172006Y846039D01*
X170399Y847646D01*
X168431Y848782D01*
X166236Y849370D01*
D02*
G37*
G36*
X267836Y747770D02*
X265564D01*
X263369Y747182D01*
X261401Y746046D01*
X259794Y744439D01*
X258658Y742471D01*
X258070Y740276D01*
Y738004D01*
X258658Y735809D01*
X259794Y733841D01*
X261401Y732234D01*
X263369Y731098D01*
X265564Y730510D01*
X267836D01*
X270031Y731098D01*
X271999Y732234D01*
X273606Y733841D01*
X274742Y735809D01*
X275330Y738004D01*
Y740276D01*
X274742Y742471D01*
X273606Y744439D01*
X271999Y746046D01*
X270031Y747182D01*
X267836Y747770D01*
D02*
G37*
G36*
X217036D02*
X214764D01*
X212569Y747182D01*
X210601Y746046D01*
X208994Y744439D01*
X207858Y742471D01*
X207270Y740276D01*
Y738004D01*
X207858Y735809D01*
X208994Y733841D01*
X210601Y732234D01*
X212569Y731098D01*
X214764Y730510D01*
X217036D01*
X219231Y731098D01*
X221199Y732234D01*
X222806Y733841D01*
X223942Y735809D01*
X224530Y738004D01*
Y740276D01*
X223942Y742471D01*
X222806Y744439D01*
X221199Y746046D01*
X219231Y747182D01*
X217036Y747770D01*
D02*
G37*
G36*
X166236D02*
X163964D01*
X161769Y747182D01*
X159801Y746046D01*
X158194Y744439D01*
X157058Y742471D01*
X156470Y740276D01*
Y738004D01*
X157058Y735809D01*
X158194Y733841D01*
X159801Y732234D01*
X161769Y731098D01*
X163964Y730510D01*
X166236D01*
X168431Y731098D01*
X170399Y732234D01*
X172006Y733841D01*
X173142Y735809D01*
X173730Y738004D01*
Y740276D01*
X173142Y742471D01*
X172006Y744439D01*
X170399Y746046D01*
X168431Y747182D01*
X166236Y747770D01*
D02*
G37*
G36*
X131680Y702370D02*
X112980D01*
Y683670D01*
X131680D01*
Y702370D01*
D02*
G37*
G36*
X343298Y589352D02*
X335048D01*
X332815Y588907D01*
X330921Y587642D01*
X329656Y585748D01*
X329211Y583514D01*
Y575264D01*
X329656Y573031D01*
X330921Y571137D01*
X332815Y569871D01*
X335048Y569427D01*
X343298D01*
X345532Y569871D01*
X347426Y571137D01*
X348691Y573031D01*
X349136Y575264D01*
Y583514D01*
X348691Y585748D01*
X347426Y587642D01*
X345532Y588907D01*
X343298Y589352D01*
D02*
G37*
G36*
X340470Y563839D02*
X337877D01*
X335372Y563168D01*
X333125Y561871D01*
X331292Y560037D01*
X329995Y557791D01*
X329323Y555286D01*
Y552692D01*
X329995Y550187D01*
X331292Y547941D01*
X333125Y546107D01*
X335372Y544811D01*
X337877Y544139D01*
X340470D01*
X342975Y544811D01*
X345221Y546107D01*
X347055Y547941D01*
X348352Y550187D01*
X349023Y552692D01*
Y555286D01*
X348352Y557791D01*
X347055Y560037D01*
X345221Y561871D01*
X342975Y563168D01*
X340470Y563839D01*
D02*
G37*
G36*
X106316Y538528D02*
X96546D01*
Y532508D01*
X106316D01*
Y538528D01*
D02*
G37*
G36*
X94006D02*
X84236D01*
Y532508D01*
X94006D01*
Y538528D01*
D02*
G37*
G36*
X340594Y539379D02*
X340443D01*
Y529859D01*
X349963D01*
Y530010D01*
X349228Y532754D01*
X347808Y535215D01*
X345799Y537224D01*
X343338Y538644D01*
X340594Y539379D01*
D02*
G37*
G36*
X337903D02*
X337753D01*
X335009Y538644D01*
X332548Y537224D01*
X330539Y535215D01*
X329119Y532754D01*
X328383Y530010D01*
Y529859D01*
X337903D01*
Y539379D01*
D02*
G37*
G36*
X349963Y527319D02*
X340443D01*
Y517799D01*
X340594D01*
X343338Y518535D01*
X345799Y519955D01*
X347808Y521964D01*
X349228Y524425D01*
X349963Y527169D01*
Y527319D01*
D02*
G37*
G36*
X337903D02*
X328383D01*
Y527169D01*
X329119Y524425D01*
X330539Y521964D01*
X332548Y519955D01*
X335009Y518535D01*
X337753Y517799D01*
X337903D01*
Y527319D01*
D02*
G37*
G36*
X123849Y519799D02*
X117799D01*
Y510480D01*
X123849D01*
Y519799D01*
D02*
G37*
G36*
Y507940D02*
X117799D01*
Y498621D01*
X123849D01*
Y507940D01*
D02*
G37*
G36*
X106316Y529968D02*
X95276D01*
X84236D01*
Y523948D01*
X90190D01*
Y509210D01*
X90508Y507610D01*
X91414Y506254D01*
X92770Y505348D01*
X94370Y505029D01*
X109209D01*
Y498621D01*
X115259D01*
Y509210D01*
Y519799D01*
X109209D01*
Y513390D01*
X98550D01*
Y523948D01*
X106316D01*
Y529968D01*
D02*
G37*
G36*
X103027Y487112D02*
X101427Y486793D01*
X100071Y485887D01*
X99164Y484531D01*
X98846Y482931D01*
Y470870D01*
X91929D01*
Y464850D01*
X102969D01*
X114009D01*
Y470870D01*
X107207D01*
Y482931D01*
X106889Y484531D01*
X105983Y485887D01*
X104626Y486793D01*
X103027Y487112D01*
D02*
G37*
G36*
X48260Y486780D02*
X46660Y486462D01*
X45304Y485556D01*
X44398Y484200D01*
X44080Y482600D01*
Y470870D01*
X37220D01*
Y464850D01*
X48260D01*
X59300D01*
Y470870D01*
X52440D01*
Y482600D01*
X52122Y484200D01*
X51216Y485556D01*
X49860Y486462D01*
X48260Y486780D01*
D02*
G37*
G36*
X114009Y462310D02*
X104239D01*
Y456290D01*
X114009D01*
Y462310D01*
D02*
G37*
G36*
X101699D02*
X91929D01*
Y456290D01*
X101699D01*
Y462310D01*
D02*
G37*
G36*
X59300D02*
X49530D01*
Y456290D01*
X59300D01*
Y462310D01*
D02*
G37*
G36*
X46990D02*
X37220D01*
Y456290D01*
X46990D01*
Y462310D01*
D02*
G37*
G36*
X343780Y420010D02*
X334010D01*
Y413990D01*
X343780D01*
Y420010D01*
D02*
G37*
G36*
X331470D02*
X321700D01*
Y413990D01*
X331470D01*
Y420010D01*
D02*
G37*
G36*
X343780Y411450D02*
X334010D01*
Y405430D01*
X343780D01*
Y411450D01*
D02*
G37*
G36*
X331470D02*
X321700D01*
Y405430D01*
X331470D01*
Y411450D01*
D02*
G37*
G36*
X379760Y408550D02*
X373740D01*
Y398780D01*
X379760D01*
Y408550D01*
D02*
G37*
G36*
X388320D02*
X382300D01*
Y397510D01*
Y386470D01*
X388320D01*
Y393330D01*
X406400D01*
X408000Y393648D01*
X409356Y394554D01*
X410262Y395910D01*
X410580Y397510D01*
X410262Y399110D01*
X409356Y400466D01*
X408000Y401372D01*
X406400Y401690D01*
X388320D01*
Y408550D01*
D02*
G37*
G36*
X379760Y396240D02*
X373740D01*
Y386470D01*
X379760D01*
Y396240D01*
D02*
G37*
G36*
X247680Y383540D02*
X241660D01*
Y373770D01*
X247680D01*
Y383540D01*
D02*
G37*
G36*
Y371720D02*
X241660D01*
Y361950D01*
X247680D01*
Y371720D01*
D02*
G37*
G36*
X402170Y360170D02*
X396900D01*
Y354900D01*
X402170D01*
Y360170D01*
D02*
G37*
G36*
X394360D02*
X389090D01*
Y354900D01*
X394360D01*
Y360170D01*
D02*
G37*
G36*
X256240Y371720D02*
X250220D01*
Y360680D01*
Y349640D01*
X256240D01*
Y357379D01*
X269680D01*
X271280Y357697D01*
X272636Y358604D01*
X273542Y359960D01*
X273860Y361560D01*
X273542Y363159D01*
X272636Y364515D01*
X271280Y365422D01*
X269680Y365740D01*
X256240D01*
Y371720D01*
D02*
G37*
G36*
X247680Y359410D02*
X241660D01*
Y349640D01*
X247680D01*
Y359410D01*
D02*
G37*
G36*
X420711Y381759D02*
X407951D01*
Y362461D01*
X411469D01*
Y359230D01*
X409030D01*
Y349684D01*
X409030Y348687D01*
X407292Y347879D01*
X402812Y352360D01*
X396900D01*
Y346448D01*
X406455Y336893D01*
X405766Y335230D01*
X399530D01*
Y324030D01*
X399565D01*
X400310Y322230D01*
X388537Y310457D01*
X387852Y309431D01*
X387611Y308222D01*
Y306070D01*
X384580D01*
Y302881D01*
X380930D01*
Y308820D01*
X362730D01*
Y290620D01*
X380930D01*
Y296559D01*
X384580D01*
Y293370D01*
X387722D01*
Y277892D01*
X360641Y250811D01*
X307340D01*
X306130Y250570D01*
X305105Y249885D01*
X282211Y226991D01*
X199420D01*
Y235330D01*
X176420D01*
Y212330D01*
X199420D01*
Y220669D01*
X283520D01*
X284729Y220910D01*
X285755Y221595D01*
X308649Y244489D01*
X361950D01*
X363160Y244730D01*
X364185Y245415D01*
X393118Y274348D01*
X393803Y275373D01*
X394044Y276583D01*
Y293370D01*
X396780D01*
Y306070D01*
X395636D01*
X394890Y307870D01*
X407250Y320230D01*
X407740Y320185D01*
X409050Y319626D01*
Y252402D01*
X387654Y231006D01*
X386748Y229650D01*
X386429Y228050D01*
X386748Y226450D01*
X387654Y225094D01*
X389010Y224188D01*
X390610Y223869D01*
X392210Y224188D01*
X393566Y225094D01*
X416186Y247714D01*
X417092Y249070D01*
X417410Y250670D01*
Y279769D01*
X419210Y280514D01*
X419585Y280139D01*
X421643Y279286D01*
X423871D01*
X425930Y280139D01*
X427505Y281714D01*
X428357Y283773D01*
Y286000D01*
X427505Y288059D01*
X425930Y289634D01*
X425918Y289639D01*
Y293370D01*
X428280D01*
Y306070D01*
X417410D01*
Y336030D01*
X417092Y337630D01*
X416186Y338986D01*
X408880Y346292D01*
X409687Y348030D01*
X410558Y348030D01*
X420230D01*
Y359230D01*
X417791D01*
Y362461D01*
X420711D01*
Y381759D01*
D02*
G37*
G36*
X394360Y352360D02*
X389090D01*
Y347090D01*
X394360D01*
Y352360D01*
D02*
G37*
G36*
X317841Y309369D02*
X305081D01*
Y290071D01*
X317841D01*
Y296559D01*
X327730D01*
Y290620D01*
X345930D01*
Y308820D01*
X327730D01*
Y302881D01*
X317841D01*
Y309369D01*
D02*
G37*
G36*
X104140Y274370D02*
X97220D01*
Y269260D01*
X86737D01*
X86690Y269292D01*
X85090Y269610D01*
X83490Y269292D01*
X82134Y268386D01*
X81228Y267030D01*
X80910Y265430D01*
X81228Y263830D01*
X82134Y262474D01*
X82484Y262124D01*
X83840Y261218D01*
X85440Y260900D01*
X97220D01*
Y255090D01*
X104140D01*
Y264730D01*
Y274370D01*
D02*
G37*
G36*
X323281Y278354D02*
X314732D01*
Y267793D01*
X323281D01*
Y278354D01*
D02*
G37*
G36*
X312192D02*
X303644D01*
Y267793D01*
X312192D01*
Y278354D01*
D02*
G37*
G36*
X113600Y274370D02*
X106680D01*
Y266000D01*
X113600D01*
Y274370D01*
D02*
G37*
G36*
Y263460D02*
X106680D01*
Y255090D01*
X113600D01*
Y263460D01*
D02*
G37*
G36*
X323281Y265253D02*
X314732D01*
Y254692D01*
X323281D01*
Y265253D01*
D02*
G37*
G36*
X312192D02*
X303644D01*
Y254692D01*
X312192D01*
Y265253D01*
D02*
G37*
G36*
X112660Y227710D02*
X98160D01*
Y222620D01*
X89860D01*
X89727Y223289D01*
X89219Y224049D01*
X88459Y224557D01*
X87562Y224735D01*
X75857D01*
X74961Y224557D01*
X74201Y224049D01*
X73693Y223289D01*
X73515Y222393D01*
Y214487D01*
X73693Y213591D01*
X74201Y212831D01*
X74961Y212323D01*
X75857Y212145D01*
X87562D01*
X88459Y212323D01*
X89219Y212831D01*
X89727Y213591D01*
X89860Y214260D01*
X98160D01*
Y210310D01*
X112660D01*
Y214545D01*
X121710D01*
X122562Y213693D01*
X124620Y212840D01*
X126848D01*
X128906Y213693D01*
X130481Y215268D01*
X131334Y217326D01*
Y219554D01*
X130481Y221612D01*
X128906Y223188D01*
X126848Y224040D01*
X124620D01*
X122562Y223188D01*
X122280Y222905D01*
X112660D01*
Y227710D01*
D02*
G37*
G36*
X311434Y235330D02*
X308406D01*
X305481Y234546D01*
X302859Y233032D01*
X300718Y230891D01*
X299204Y228269D01*
X298420Y225344D01*
Y222316D01*
X299204Y219391D01*
X300718Y216769D01*
X302859Y214628D01*
X305481Y213114D01*
X308406Y212330D01*
X309245D01*
X312978Y208597D01*
X314879Y207139D01*
X317092Y206222D01*
X319468Y205909D01*
X374220D01*
X374592Y205536D01*
X377009Y204141D01*
X379705Y203418D01*
X382496D01*
X385192Y204141D01*
X387609Y205536D01*
X389583Y207510D01*
X390978Y209927D01*
X391701Y212623D01*
Y215414D01*
X390978Y218110D01*
X389583Y220527D01*
X387609Y222500D01*
X385192Y223896D01*
X382496Y224618D01*
X379705D01*
X378390Y224266D01*
X323270D01*
X321138Y226398D01*
X320636Y228269D01*
X319122Y230891D01*
X316981Y233032D01*
X314359Y234546D01*
X311434Y235330D01*
D02*
G37*
G36*
X20377Y236291D02*
X9242D01*
X8235Y236090D01*
X7380Y235519D01*
X6810Y234665D01*
X6609Y233657D01*
Y203223D01*
X6810Y202215D01*
X7380Y201361D01*
X8235Y200790D01*
X9242Y200589D01*
X20377D01*
X21385Y200790D01*
X22239Y201361D01*
X22810Y202215D01*
X23010Y203223D01*
Y233657D01*
X22810Y234665D01*
X22239Y235519D01*
X21385Y236090D01*
X20377Y236291D01*
D02*
G37*
G36*
X87562Y202793D02*
X82980D01*
Y196810D01*
X90863D01*
Y199492D01*
X90612Y200756D01*
X89896Y201827D01*
X88826Y202542D01*
X87562Y202793D01*
D02*
G37*
G36*
X80440D02*
X75857D01*
X74594Y202542D01*
X73523Y201827D01*
X72808Y200756D01*
X72557Y199492D01*
Y196810D01*
X80440D01*
Y202793D01*
D02*
G37*
G36*
X113600Y204650D02*
X106680D01*
Y196280D01*
X113600D01*
Y204650D01*
D02*
G37*
G36*
X104140D02*
X97220D01*
Y196280D01*
X104140D01*
Y204650D01*
D02*
G37*
G36*
X90863Y194270D02*
X82980D01*
Y188287D01*
X87562D01*
X88826Y188538D01*
X89896Y189253D01*
X90612Y190324D01*
X90863Y191588D01*
Y194270D01*
D02*
G37*
G36*
X80440D02*
X72557D01*
Y191588D01*
X72808Y190324D01*
X73523Y189253D01*
X74594Y188538D01*
X75857Y188287D01*
X80440D01*
Y194270D01*
D02*
G37*
G36*
X113600Y193740D02*
X106680D01*
Y185370D01*
X113600D01*
Y193740D01*
D02*
G37*
G36*
X104140D02*
X97220D01*
Y185370D01*
X104140D01*
Y193740D01*
D02*
G37*
G36*
X80320Y167897D02*
X76090D01*
Y161310D01*
X88010D01*
X87909Y162074D01*
X87125Y163969D01*
X85876Y165596D01*
X84249Y166845D01*
X82354Y167630D01*
X80320Y167897D01*
D02*
G37*
G36*
X73550D02*
X69320D01*
X67286Y167630D01*
X65391Y166845D01*
X63764Y165596D01*
X62516Y163969D01*
X61730Y162074D01*
X61630Y161310D01*
X73550D01*
Y167897D01*
D02*
G37*
G36*
X37020D02*
X34290D01*
Y161310D01*
X44710D01*
X44609Y162074D01*
X43825Y163969D01*
X42576Y165596D01*
X40949Y166845D01*
X39054Y167630D01*
X37020Y167897D01*
D02*
G37*
G36*
X31750D02*
X29020D01*
X26986Y167630D01*
X25091Y166845D01*
X23464Y165596D01*
X22215Y163969D01*
X21430Y162074D01*
X21330Y161310D01*
X31750D01*
Y167897D01*
D02*
G37*
G36*
X169404Y175105D02*
X166436D01*
X163568Y174337D01*
X160997Y172852D01*
X158898Y170753D01*
X157413Y168182D01*
X156645Y165314D01*
Y162346D01*
X157413Y159478D01*
X158898Y156907D01*
X160997Y154808D01*
X163568Y153323D01*
X166436Y152555D01*
X169404D01*
X172272Y153323D01*
X174843Y154808D01*
X175601Y155566D01*
X374563D01*
X374592Y155536D01*
X377009Y154141D01*
X379705Y153418D01*
X382496D01*
X385192Y154141D01*
X387609Y155536D01*
X389583Y157510D01*
X390978Y159927D01*
X391701Y162623D01*
Y165414D01*
X390978Y168110D01*
X389583Y170527D01*
X387609Y172500D01*
X385192Y173896D01*
X382496Y174618D01*
X379705D01*
X377109Y173923D01*
X172989D01*
X172272Y174337D01*
X169404Y175105D01*
D02*
G37*
G36*
X44710Y158770D02*
X34290D01*
Y152183D01*
X37020D01*
X39054Y152451D01*
X40949Y153236D01*
X42576Y154484D01*
X43825Y156111D01*
X44609Y158006D01*
X44710Y158770D01*
D02*
G37*
G36*
X31750D02*
X21330D01*
X21430Y158006D01*
X22215Y156111D01*
X23464Y154484D01*
X25091Y153236D01*
X26986Y152451D01*
X29020Y152183D01*
X31750D01*
Y158770D01*
D02*
G37*
G36*
X391701Y124618D02*
X370501D01*
Y123197D01*
X321107D01*
X318731Y122884D01*
X316518Y121967D01*
X314617Y120508D01*
X309438Y115330D01*
X308406D01*
X305481Y114546D01*
X302859Y113032D01*
X300718Y110891D01*
X299204Y108269D01*
X298420Y105344D01*
Y102316D01*
X299204Y99391D01*
X300718Y96769D01*
X302859Y94628D01*
X305481Y93114D01*
X308406Y92330D01*
X311434D01*
X314359Y93114D01*
X316981Y94628D01*
X319122Y96769D01*
X320636Y99391D01*
X321067Y100998D01*
X324909Y104840D01*
X370501D01*
Y103418D01*
X391701D01*
Y124618D01*
D02*
G37*
G36*
X189434Y115330D02*
X186406D01*
X183481Y114546D01*
X180859Y113032D01*
X178718Y110891D01*
X177204Y108269D01*
X176420Y105344D01*
Y102316D01*
X177204Y99391D01*
X178718Y96769D01*
X180859Y94628D01*
X183481Y93114D01*
X186406Y92330D01*
X189434D01*
X192359Y93114D01*
X194981Y94628D01*
X197122Y96769D01*
X198522Y99194D01*
X209731D01*
X209883Y98828D01*
X211458Y97253D01*
X213516Y96400D01*
X215744D01*
X217802Y97253D01*
X219377Y98828D01*
X220230Y100886D01*
Y103114D01*
X219377Y105172D01*
X217802Y106747D01*
X215744Y107600D01*
X213516D01*
X211458Y106747D01*
X210226Y105515D01*
X199374D01*
X198636Y108269D01*
X197122Y110891D01*
X194981Y113032D01*
X192359Y114546D01*
X189434Y115330D01*
D02*
G37*
G36*
X37020Y81497D02*
X34290D01*
Y74910D01*
X44710D01*
X44609Y75674D01*
X43825Y77569D01*
X42576Y79196D01*
X40949Y80444D01*
X39054Y81229D01*
X37020Y81497D01*
D02*
G37*
G36*
X31750D02*
X29020D01*
X26986Y81229D01*
X25091Y80444D01*
X23464Y79196D01*
X22215Y77569D01*
X21430Y75674D01*
X21330Y74910D01*
X31750D01*
Y81497D01*
D02*
G37*
G36*
X88010Y72370D02*
X76090D01*
Y65783D01*
X80320D01*
X82354Y66051D01*
X84249Y66835D01*
X85876Y68084D01*
X87125Y69711D01*
X87909Y71606D01*
X88010Y72370D01*
D02*
G37*
G36*
X73550D02*
X61630D01*
X61730Y71606D01*
X62516Y69711D01*
X63764Y68084D01*
X65391Y66835D01*
X67286Y66051D01*
X69320Y65783D01*
X73550D01*
Y72370D01*
D02*
G37*
G36*
X44710D02*
X34290D01*
Y65783D01*
X37020D01*
X39054Y66051D01*
X40949Y66835D01*
X42576Y68084D01*
X43825Y69711D01*
X44609Y71606D01*
X44710Y72370D01*
D02*
G37*
G36*
X31750D02*
X21330D01*
X21430Y71606D01*
X22215Y69711D01*
X23464Y68084D01*
X25091Y66835D01*
X26986Y66051D01*
X29020Y65783D01*
X31750D01*
Y72370D01*
D02*
G37*
G36*
X154690Y81990D02*
X150040D01*
X149113Y81806D01*
X148328Y81281D01*
X147803Y80496D01*
X147618Y79569D01*
Y68019D01*
X147803Y67092D01*
X148328Y66307D01*
X149113Y65782D01*
X150040Y65597D01*
X154690D01*
X155617Y65782D01*
X156402Y66307D01*
X156927Y67092D01*
X157112Y68019D01*
Y79569D01*
X156927Y80496D01*
X156402Y81281D01*
X155617Y81806D01*
X154690Y81990D01*
D02*
G37*
G36*
X306813Y75754D02*
X298264D01*
Y65193D01*
X306813D01*
Y75754D01*
D02*
G37*
G36*
X129150Y68290D02*
X119380D01*
Y62270D01*
X129150D01*
Y68290D01*
D02*
G37*
G36*
X116840D02*
X107070D01*
Y62270D01*
X116840D01*
Y68290D01*
D02*
G37*
G36*
X317901Y75754D02*
X309353D01*
Y63923D01*
Y52092D01*
X317901D01*
Y59820D01*
X337820D01*
X339420Y60138D01*
X340776Y61044D01*
X341682Y62400D01*
X342000Y64000D01*
X341682Y65600D01*
X340776Y66956D01*
X339420Y67862D01*
X337820Y68180D01*
X317901D01*
Y75754D01*
D02*
G37*
G36*
X306813Y62653D02*
X298264D01*
Y52092D01*
X306813D01*
Y62653D01*
D02*
G37*
G36*
X138395Y27949D02*
X137340D01*
X136046Y27692D01*
X134950Y26959D01*
X134217Y25862D01*
X133960Y24569D01*
Y24077D01*
X125964D01*
X124790Y24862D01*
X123190Y25180D01*
X121590Y24862D01*
X120234Y23956D01*
X119328Y22600D01*
X119010Y21000D01*
X119328Y19400D01*
X120234Y18044D01*
X121337Y16941D01*
X122693Y16035D01*
X124293Y15717D01*
X133960D01*
Y13019D01*
X134217Y11725D01*
X134950Y10629D01*
X136046Y9896D01*
X137340Y9639D01*
X138395D01*
Y18794D01*
Y27949D01*
D02*
G37*
G36*
X141990D02*
X140935D01*
Y20064D01*
X145370D01*
Y24569D01*
X145113Y25862D01*
X144380Y26959D01*
X143283Y27692D01*
X141990Y27949D01*
D02*
G37*
G36*
X230890Y26990D02*
X226240D01*
X225313Y26806D01*
X224528Y26281D01*
X224003Y25496D01*
X223818Y24569D01*
Y13019D01*
X224003Y12092D01*
X224528Y11307D01*
X225313Y10782D01*
X226240Y10597D01*
X230890D01*
X231817Y10782D01*
X232602Y11307D01*
X233127Y12092D01*
X233312Y13019D01*
Y24569D01*
X233127Y25496D01*
X232602Y26281D01*
X231817Y26806D01*
X230890Y26990D01*
D02*
G37*
G36*
X218190D02*
X213540D01*
X212613Y26806D01*
X211828Y26281D01*
X211303Y25496D01*
X211118Y24569D01*
Y13019D01*
X211303Y12092D01*
X211828Y11307D01*
X212613Y10782D01*
X213540Y10597D01*
X218190D01*
X219117Y10782D01*
X219902Y11307D01*
X220427Y12092D01*
X220611Y13019D01*
Y24569D01*
X220427Y25496D01*
X219902Y26281D01*
X219117Y26806D01*
X218190Y26990D01*
D02*
G37*
G36*
X180090D02*
X175440D01*
X174513Y26806D01*
X173728Y26281D01*
X173203Y25496D01*
X173018Y24569D01*
Y13019D01*
X173203Y12092D01*
X173728Y11307D01*
X174513Y10782D01*
X175440Y10597D01*
X180090D01*
X181017Y10782D01*
X181802Y11307D01*
X182327Y12092D01*
X182512Y13019D01*
Y24569D01*
X182327Y25496D01*
X181802Y26281D01*
X181017Y26806D01*
X180090Y26990D01*
D02*
G37*
G36*
X153514Y39600D02*
X151286D01*
X149228Y38747D01*
X147653Y37172D01*
X146800Y35114D01*
Y32886D01*
X147653Y30828D01*
X149222Y29259D01*
Y26828D01*
X149113Y26806D01*
X148328Y26281D01*
X147803Y25496D01*
X147618Y24569D01*
Y13019D01*
X147803Y12092D01*
X148328Y11307D01*
X149113Y10782D01*
X150040Y10597D01*
X154690D01*
X155617Y10782D01*
X156402Y11307D01*
X156927Y12092D01*
X157112Y13019D01*
Y24569D01*
X156927Y25496D01*
X156402Y26281D01*
X155617Y26806D01*
X155543Y26821D01*
Y29241D01*
X155572Y29253D01*
X157147Y30828D01*
X158000Y32886D01*
Y35114D01*
X157147Y37172D01*
X155572Y38747D01*
X153514Y39600D01*
D02*
G37*
G36*
X129150Y59730D02*
X118110D01*
X107070D01*
Y53710D01*
X111453D01*
Y38317D01*
X94353Y21217D01*
X93295Y19839D01*
X92630Y18233D01*
X92403Y16510D01*
X92630Y14787D01*
X93295Y13182D01*
X94353Y11803D01*
X95731Y10745D01*
X97337Y10080D01*
X99060Y9853D01*
X100783Y10080D01*
X102388Y10745D01*
X103767Y11803D01*
X122817Y30853D01*
X123875Y32232D01*
X124540Y33837D01*
X124767Y35560D01*
Y53710D01*
X129150D01*
Y59730D01*
D02*
G37*
G36*
X145370Y17524D02*
X140935D01*
Y9639D01*
X141990D01*
X143283Y9896D01*
X144380Y10629D01*
X145113Y11725D01*
X145370Y13019D01*
Y17524D01*
D02*
G37*
G36*
X23740Y414990D02*
X13970D01*
Y407700D01*
Y400410D01*
X23740D01*
Y402760D01*
X33294D01*
X40591Y395464D01*
X42112Y394447D01*
X43907Y394090D01*
X45720D01*
X47515Y394447D01*
X49036Y395464D01*
X50053Y396985D01*
X50410Y398780D01*
X50053Y400575D01*
X49036Y402096D01*
X47515Y403113D01*
X45882Y403438D01*
X38553Y410766D01*
X37032Y411783D01*
X35237Y412140D01*
X23740D01*
Y414990D01*
D02*
G37*
G36*
X64380Y289200D02*
X54610D01*
Y283180D01*
X64380D01*
Y289200D01*
D02*
G37*
%LPD*%
D18*
X160580Y402800D02*
D03*
X193080D02*
D03*
X134580D02*
D03*
X141080D02*
D03*
X147580D02*
D03*
X154080D02*
D03*
X167080D02*
D03*
X180080D02*
D03*
X193080Y460800D02*
D03*
X186580D02*
D03*
X167080D02*
D03*
X147580D02*
D03*
X141080D02*
D03*
X134580D02*
D03*
X180080D02*
D03*
X160580D02*
D03*
X154080D02*
D03*
X173580D02*
D03*
Y402800D02*
D03*
X186580D02*
D03*
X302173Y576405D02*
D03*
X276173D02*
D03*
X243673D02*
D03*
X295673D02*
D03*
X289173D02*
D03*
X282673D02*
D03*
X269673D02*
D03*
X256673D02*
D03*
X243673Y518405D02*
D03*
X250173D02*
D03*
X269673D02*
D03*
X289173D02*
D03*
X295673D02*
D03*
X302173D02*
D03*
X256673D02*
D03*
X276173D02*
D03*
X282673D02*
D03*
X263173D02*
D03*
Y576405D02*
D03*
X250173D02*
D03*
D19*
X78367Y435360D02*
D03*
X185420Y344481D02*
D03*
X24720Y435360D02*
D03*
X78367Y461382D02*
D03*
X24720D02*
D03*
X185420Y318459D02*
D03*
D20*
X102969Y435580D02*
D03*
X48260D02*
D03*
X118110Y61000D02*
D03*
X53340Y281910D02*
D03*
X12700Y407700D02*
D03*
X102969Y463580D02*
D03*
X48260D02*
D03*
X332740Y412720D02*
D03*
X95276Y531238D02*
D03*
Y559238D02*
D03*
X118110Y89000D02*
D03*
X53340Y309910D02*
D03*
X12700Y379700D02*
D03*
X332740Y440720D02*
D03*
D21*
X124771Y351790D02*
D03*
Y328930D02*
D03*
X116529Y509210D02*
D03*
X142551D02*
D03*
X220669Y419100D02*
D03*
X388309Y372110D02*
D03*
X414331D02*
D03*
X311461Y299720D02*
D03*
X285439D02*
D03*
X98749Y351790D02*
D03*
Y328930D02*
D03*
X246691Y419100D02*
D03*
D22*
X81710Y195540D02*
D03*
Y218440D02*
D03*
Y241340D02*
D03*
D23*
X248950Y360680D02*
D03*
X247670Y486790D02*
D03*
X248950Y384810D02*
D03*
X381030Y397510D02*
D03*
X220950Y360680D02*
D03*
X275670Y486790D02*
D03*
X220950Y384810D02*
D03*
X353030Y397510D02*
D03*
D24*
X105410Y264730D02*
D03*
Y195010D02*
D03*
Y240730D02*
D03*
Y219010D02*
D03*
D25*
X139665Y18794D02*
D03*
Y73794D02*
D03*
X152365D02*
D03*
X165065D02*
D03*
X177765D02*
D03*
X190465D02*
D03*
X203165D02*
D03*
X215865D02*
D03*
X228565D02*
D03*
Y18794D02*
D03*
X215865D02*
D03*
X190465D02*
D03*
X177765D02*
D03*
X165065D02*
D03*
X152365D02*
D03*
X203165D02*
D03*
D26*
X80470Y148840D02*
D03*
Y84840D02*
D03*
Y140840D02*
D03*
Y92840D02*
D03*
D27*
X308083Y63923D02*
D03*
X313463Y266523D02*
D03*
X278058Y63923D02*
D03*
X283438Y266523D02*
D03*
D28*
X395630Y353630D02*
D03*
X405130Y329630D02*
D03*
X414630Y353630D02*
D03*
D29*
X14810Y218440D02*
D03*
D30*
X80470Y134340D02*
D03*
Y129340D02*
D03*
Y124340D02*
D03*
Y119340D02*
D03*
Y114340D02*
D03*
Y109340D02*
D03*
Y104340D02*
D03*
Y99340D02*
D03*
D31*
X422180Y299720D02*
D03*
X390680Y299720D02*
D03*
D32*
X336830Y299720D02*
D03*
X371830D02*
D03*
D33*
X401580Y458350D02*
D03*
X370580D02*
D03*
X401580Y448350D02*
D03*
X370580Y453350D02*
D03*
X401580D02*
D03*
X370580Y448350D02*
D03*
X401580Y443350D02*
D03*
X370580D02*
D03*
D34*
X48140Y335020D02*
D03*
X38140D02*
D03*
X48140Y366020D02*
D03*
X43140D02*
D03*
Y335020D02*
D03*
X38140Y366020D02*
D03*
X33140Y335020D02*
D03*
Y366020D02*
D03*
D35*
X122330Y643020D02*
D03*
X230552D02*
D03*
X337870D02*
D03*
D36*
X122330Y693020D02*
D03*
X230552D02*
D03*
X337870D02*
D03*
D37*
X156393Y479794D02*
Y481147D01*
X79407Y435580D02*
X140498D01*
X154080Y477481D02*
X156393Y479794D01*
X154080Y449162D02*
Y477481D01*
X140498Y435580D02*
X154080Y449162D01*
X297038Y479432D02*
X309623Y466847D01*
X371967D01*
X380464Y458350D02*
X401580D01*
X371967Y466847D02*
X380464Y458350D01*
X154080Y402800D02*
X154129Y402751D01*
Y371345D02*
Y402751D01*
X153225Y370441D02*
X154129Y371345D01*
X152697Y370441D02*
X153225D01*
X153195Y370410D02*
X153225Y370441D01*
X134046Y351790D02*
X152697Y370441D01*
X124771Y351790D02*
X134046D01*
X153670Y328930D02*
X154470Y328130D01*
X124771Y328930D02*
X153670D01*
X154470Y323050D02*
X154940Y322580D01*
X153670Y328930D02*
X160580Y335840D01*
X154470Y323050D02*
Y328130D01*
X160580Y335840D02*
Y402800D01*
X122330Y643020D02*
X122684Y642666D01*
Y569562D02*
X124441Y567805D01*
X122684Y569562D02*
Y642666D01*
X124441Y567805D02*
X168795D01*
X177800Y558800D01*
Y516788D02*
Y558800D01*
X202738Y454285D02*
X238730D01*
X200981Y456043D02*
X202738Y454285D01*
X200981Y456043D02*
Y493607D01*
X177800Y516788D02*
X200981Y493607D01*
X167080Y371400D02*
X176530Y361950D01*
Y361950D02*
Y361950D01*
X185420Y344481D02*
Y353060D01*
X176530Y361950D02*
X185420Y353060D01*
X166812Y403068D02*
Y415215D01*
Y403068D02*
X167080Y402800D01*
X166812Y415215D02*
X168569Y416972D01*
X198532D01*
X185420Y344481D02*
X185731Y344170D01*
X167080Y371400D02*
Y402800D01*
X198532Y416972D02*
X208280Y426720D01*
X185562Y515531D02*
Y557744D01*
Y515531D02*
X208901Y492192D01*
Y463048D02*
Y492192D01*
X160365Y460585D02*
X160580Y460800D01*
X160365Y448800D02*
Y460585D01*
X140825Y429260D02*
X160365Y448800D01*
X124460Y429260D02*
X140825D01*
X116840Y421640D02*
X124460Y429260D01*
X24720Y435360D02*
X24940Y435580D01*
X48416D01*
Y426782D02*
X53558Y421640D01*
X116840D01*
X48416Y426782D02*
Y435580D01*
X160580Y460842D02*
Y472727D01*
X308693Y457200D02*
X309843Y458350D01*
X307340Y457200D02*
X308693D01*
X309843Y458350D02*
X370580D01*
X160580Y472727D02*
X164589Y476736D01*
X165651D01*
X48140Y335020D02*
X58882D01*
X62230Y338368D02*
Y368300D01*
X58882Y335020D02*
X62230Y338368D01*
X147580Y376180D02*
Y402800D01*
X140970Y369570D02*
X147580Y376180D01*
X95250Y369570D02*
X140970D01*
X416560Y424180D02*
Y444890D01*
X307027Y598204D02*
Y600829D01*
X302173Y576405D02*
Y593350D01*
X307027Y598204D01*
X53310Y281940D02*
X53340Y281910D01*
X34290Y318770D02*
X38140Y322620D01*
X34290Y308610D02*
Y318770D01*
Y281940D02*
X53310D01*
X38140Y322620D02*
Y335020D01*
X180340Y373380D02*
Y376958D01*
X173580Y383717D02*
X180340Y376958D01*
X173580Y383717D02*
Y402800D01*
X401580Y448350D02*
X413100D01*
X416560Y444890D01*
X50344Y558439D02*
X51142Y559238D01*
X45450Y558439D02*
X50344D01*
X43010Y556000D02*
X45450Y558439D01*
X51142Y559238D02*
X95276D01*
X142551Y509210D02*
Y513882D01*
Y522929D01*
X106519Y558961D02*
X142551Y522929D01*
X95553Y558961D02*
X106519D01*
X95276Y559238D02*
X95553Y558961D01*
X142551Y509210D02*
X171823D01*
X173580Y460800D02*
Y507453D01*
X171823Y509210D02*
X173580Y507453D01*
X140970Y402690D02*
X141080Y402800D01*
X139213Y383540D02*
X140970Y385298D01*
Y402690D01*
X95250Y383540D02*
X139213D01*
X48140Y366020D02*
Y368520D01*
X62230Y382610D01*
Y383540D01*
X193080Y402800D02*
X198330D01*
X214100Y418570D02*
X220415D01*
X198330Y402800D02*
X214100Y418570D01*
X220669Y419100D02*
X220980Y419411D01*
Y436880D01*
X197174Y514159D02*
Y557744D01*
Y514159D02*
X197212Y514121D01*
X220980Y490353D01*
X220688Y463795D02*
X220980Y464087D01*
Y490353D01*
X147580Y460800D02*
Y476036D01*
X141812Y481804D02*
Y482289D01*
Y481804D02*
X147580Y476036D01*
X221502Y360680D02*
X221842Y361020D01*
X180080Y388880D02*
Y402800D01*
X208280Y360680D02*
X221502D01*
X180080Y388880D02*
X208280Y360680D01*
X285750Y373867D02*
X287507Y372110D01*
X389145D01*
X285750Y373867D02*
Y401320D01*
X180080Y448797D02*
Y460800D01*
Y448797D02*
X181837Y447040D01*
X240030D01*
X285750Y401320D01*
X52070Y311180D02*
Y320823D01*
Y311180D02*
X53340Y309910D01*
X92740D02*
X94615Y311785D01*
X53340Y309910D02*
X92740D01*
X43140Y329753D02*
Y335020D01*
Y329753D02*
X52070Y320823D01*
X81280Y330200D02*
X82550Y328930D01*
X7620Y462280D02*
X8518Y461382D01*
X24720D01*
X43140Y366020D02*
Y380960D01*
X58420Y396240D01*
X7620Y495300D02*
X53340D01*
X78367Y470273D01*
X58420Y396240D02*
Y401320D01*
X78367Y461382D02*
Y470273D01*
X185420Y293950D02*
Y318459D01*
X186580Y390800D02*
X191300Y386080D01*
X221842D01*
X186580Y390800D02*
Y402800D01*
X353060Y397540D02*
Y419100D01*
X353030Y397510D02*
X353060Y397540D01*
X347980Y449580D02*
X348467D01*
X352237Y453350D01*
X353060Y419100D02*
X359410D01*
X426233Y414020D02*
X427990Y415778D01*
X359410Y419100D02*
X364490Y414020D01*
X427990Y415778D02*
Y440690D01*
X352237Y453350D02*
X370580D01*
X401580Y453350D02*
X415330D01*
X364490Y414020D02*
X426233D01*
X343904Y483360D02*
X405640D01*
X415330Y453350D02*
X427990Y440690D01*
X427627Y441053D02*
Y461373D01*
X405640Y483360D02*
X427627Y461373D01*
X339313Y487951D02*
Y503049D01*
Y487951D02*
X343904Y483360D01*
X190500Y728005D02*
X205291Y713215D01*
X216511Y603824D02*
Y626265D01*
X205291Y637486D02*
Y713215D01*
Y637486D02*
X216511Y626265D01*
Y603824D02*
X238953D01*
X250173Y592603D01*
X311201Y476704D02*
Y477118D01*
X282734Y505584D02*
Y518344D01*
Y505584D02*
X311201Y477118D01*
X322116Y477829D02*
X322929D01*
X289923Y510021D02*
X322116Y477829D01*
X289173Y518405D02*
X289923Y517655D01*
Y510021D02*
Y517655D01*
X295673Y576405D02*
Y610283D01*
X297793Y612403D01*
X313320Y586423D02*
X318957Y592060D01*
X301156Y558887D02*
X313320Y571051D01*
X318957Y592060D02*
Y605085D01*
X313320Y571051D02*
Y586423D01*
X258606Y558887D02*
X301156D01*
X318957Y605085D02*
X320714Y606843D01*
X349792D01*
X370320Y627371D01*
X297793Y612403D02*
X347570D01*
X360633Y625466D01*
X345077Y617215D02*
X351850Y623988D01*
X290851Y617215D02*
X345077D01*
X289093Y615458D02*
X290851Y617215D01*
X360633Y625466D02*
Y688293D01*
X343862Y811867D02*
X352765Y802963D01*
Y682965D02*
Y802963D01*
X321602Y651802D02*
X352765Y682965D01*
X370320Y627371D02*
Y808240D01*
X264928Y552794D02*
X275805D01*
X281235Y547364D02*
X282396D01*
X275805Y552794D02*
X281235Y547364D01*
X256849Y557130D02*
X258606Y558887D01*
X263170Y551037D02*
X264928Y552794D01*
X263170Y518408D02*
Y551037D01*
X351850Y623988D02*
Y656027D01*
X289093Y576485D02*
Y615458D01*
X282349Y576730D02*
Y650045D01*
Y576730D02*
X282673Y576405D01*
X282349Y650045D02*
X284106Y651802D01*
X321602D01*
X276217Y576449D02*
Y664976D01*
X279265Y668023D01*
Y669376D01*
X269673Y682111D02*
X325120Y737558D01*
X269673Y576405D02*
Y682111D01*
X263173Y576405D02*
Y684027D01*
X303325Y724178D01*
X325120Y737558D02*
Y805180D01*
X303325Y724178D02*
Y829516D01*
X292100Y840740D02*
X303325Y829516D01*
X269653Y541976D02*
X270479Y542802D01*
X269653Y518426D02*
Y541976D01*
X248390Y557821D02*
X250147Y556063D01*
Y546912D02*
Y556063D01*
X206904Y557821D02*
X248390D01*
X250147Y546912D02*
X250173Y546886D01*
Y518405D02*
Y546886D01*
X256849Y535582D02*
Y557130D01*
X256673Y535407D02*
X256849Y535582D01*
X256673Y518405D02*
Y535407D01*
X332579Y440814D02*
X351498D01*
X256774Y576405D02*
Y713334D01*
X241300Y728808D02*
Y739140D01*
Y728808D02*
X256774Y713334D01*
X244025Y685928D02*
X247449Y689352D01*
X243681Y614463D02*
X244025Y614807D01*
Y685928D01*
X247449Y689352D02*
Y690185D01*
X250173Y576405D02*
Y592603D01*
X190500Y728005D02*
Y739140D01*
X388620Y422910D02*
X397510D01*
X411480Y436880D01*
X401580Y443350D02*
X409723D01*
X411480Y436880D02*
Y441593D01*
X409723Y443350D02*
X411480Y441593D01*
X345440Y833120D02*
X370320Y808240D01*
X351498Y440814D02*
X359033Y448350D01*
X370580D01*
X233087Y266523D02*
X283438D01*
X231390Y268220D02*
X233087Y266523D01*
X38140Y366020D02*
Y377943D01*
X36383Y379700D02*
X38140Y377943D01*
X12700Y379700D02*
X36383D01*
X134878Y100333D02*
X135835Y101290D01*
X139665Y73794D02*
X139700Y73829D01*
Y87243D01*
X118110Y89000D02*
X137943D01*
X139700Y87243D01*
X132643Y100333D02*
X134878D01*
X119867Y100000D02*
X132310D01*
X132643Y100333D01*
X118110Y98243D02*
X119867Y100000D01*
X118110Y89000D02*
Y98243D01*
X106680Y89000D02*
X118110D01*
X102840Y92840D02*
X106680Y89000D01*
X80600Y92840D02*
X102840D01*
X362437Y443350D02*
X370580D01*
X360680Y441593D02*
X362437Y443350D01*
X360680Y429260D02*
Y441593D01*
X100841Y127371D02*
X113800D01*
X86029Y124640D02*
X98109D01*
X113800Y127371D02*
X122722Y118449D01*
X85729Y124340D02*
X86029Y124640D01*
X80600Y124340D02*
X85729D01*
X98109Y124640D02*
X100841Y127371D01*
X114763Y110490D02*
X122722Y118449D01*
X105410Y110490D02*
X114763D01*
X80600Y114340D02*
X101560D01*
X105410Y110490D01*
X203183Y41982D02*
X203200Y42000D01*
X203165Y18794D02*
X203183Y18811D01*
Y41982D01*
X129944Y106157D02*
X133770Y109982D01*
Y109982D01*
X137988Y114200D01*
X129944Y105431D02*
Y125040D01*
X137988Y114200D02*
X148668D01*
X108289Y119340D02*
X109118Y118511D01*
X80600Y119340D02*
X108289D01*
X148668Y114200D02*
X161868Y101000D01*
X162560D01*
X103303Y105431D02*
X129944D01*
X192257Y52000D02*
X241300D01*
X190465Y18794D02*
X190500Y18829D01*
Y50243D01*
X192257Y52000D01*
X241300D02*
X255270Y65970D01*
Y93000D01*
X99393Y109340D02*
X103303Y105431D01*
X80600Y109340D02*
X99393D01*
X277088Y63923D02*
Y101253D01*
X93750Y132240D02*
X246101D01*
X277088Y101253D01*
X90850Y129340D02*
X93750Y132240D01*
X80600Y129340D02*
X90850D01*
X422180Y299720D02*
X422757Y299143D01*
Y284886D02*
Y299143D01*
X187920Y103830D02*
X189396Y102354D01*
X214276D02*
X214630Y102000D01*
X189396Y102354D02*
X214276D01*
X246380Y67837D02*
Y121920D01*
X239543Y61000D02*
X246380Y67837D01*
X78740Y275590D02*
Y282723D01*
X80497Y284480D01*
X142240D02*
X161290Y265430D01*
X80497Y284480D02*
X142240D01*
X68580Y265430D02*
X78740Y275590D01*
X21188Y265430D02*
X68580D01*
X166822Y61000D02*
X239543D01*
X165065Y18794D02*
Y59243D01*
X166822Y61000D01*
X19430Y360833D02*
X24618Y366020D01*
X33140D01*
X19430Y267188D02*
X21188Y265430D01*
X19430Y267188D02*
Y360833D01*
X66040Y270510D02*
X73184Y277654D01*
Y288596D02*
X74941Y290354D01*
X73184Y277654D02*
Y288596D01*
X152365Y18794D02*
X152382Y18811D01*
Y33983D01*
X152400Y34000D01*
X24130Y272268D02*
X25887Y270510D01*
X66040D01*
X24130Y320040D02*
X33140Y329050D01*
Y335020D01*
X24130Y272268D02*
Y320040D01*
X151443Y290097D02*
X152400Y289140D01*
X148400Y290097D02*
X151443D01*
X148143Y290354D02*
X148400Y290097D01*
X74941Y290354D02*
X148143D01*
X414630Y372711D02*
X415167Y373248D01*
X414630Y353630D02*
Y372711D01*
X311461Y299720D02*
X336901D01*
X390772Y308222D02*
X405130Y322580D01*
X390772Y299812D02*
Y308222D01*
X391133Y296720D02*
X391460D01*
X390883Y276583D02*
Y296470D01*
X391133Y296720D01*
X361950Y247650D02*
X390883Y276583D01*
X372330Y299720D02*
X390680D01*
X307340Y247650D02*
X361950D01*
X187920Y223830D02*
X283520D01*
X307340Y247650D01*
X405130Y322580D02*
Y329630D01*
D38*
X247683Y466309D02*
X255727Y458265D01*
Y456181D02*
Y458265D01*
X247683Y466309D02*
Y487096D01*
X394284Y353060D02*
X396200D01*
X80793Y149033D02*
X80836Y149077D01*
X81710Y195540D02*
X81742Y195572D01*
X105414Y195600D02*
X105417Y195604D01*
X85090Y265430D02*
X85440Y265080D01*
X105060D01*
X105410Y264730D01*
X48260Y463580D02*
X48260Y463580D01*
Y482600D01*
X94370Y509210D02*
X113989D01*
X102969Y463580D02*
X103027Y463638D01*
Y482931D01*
X94370Y530332D02*
X95276Y531238D01*
X94370Y509210D02*
Y530332D01*
X124293Y19897D02*
X139065D01*
X123190Y21000D02*
X124293Y19897D01*
X139065D02*
X139665Y19297D01*
Y18794D02*
Y19297D01*
X249984Y361020D02*
X250524Y361560D01*
X269680D01*
X308083Y63923D02*
X308160Y64000D01*
X337820D01*
X249842Y386080D02*
X269500D01*
X381030Y397510D02*
X381030Y397510D01*
X406400D01*
X413230Y250670D02*
Y336030D01*
X396200Y353060D02*
X413230Y336030D01*
X390610Y228050D02*
X413230Y250670D01*
X106296Y218725D02*
X125449D01*
X125734Y218440D01*
X105417Y219604D02*
X106296Y218725D01*
X81280Y325120D02*
X94615Y311785D01*
X81280Y353060D02*
Y378460D01*
Y325120D02*
Y330200D01*
Y353060D01*
X104254Y218440D02*
X105417Y219604D01*
X81710Y218440D02*
X104254D01*
X107950Y298431D02*
X125750D01*
X81280Y353060D02*
X98749D01*
X94615Y311785D02*
X107950Y298450D01*
X7620Y423934D02*
Y462280D01*
Y423934D02*
X10549Y421005D01*
X38735D01*
X7620Y495300D02*
Y531501D01*
X42509D01*
X7620Y462280D02*
Y495300D01*
X38735Y421005D02*
X58420Y401320D01*
X81280Y378460D01*
X42509Y531501D02*
X43010Y531000D01*
X166190Y299904D02*
X172143Y293950D01*
X185420D01*
X128362Y298542D02*
X129724Y299904D01*
X166190D01*
X127000Y298431D02*
Y299904D01*
X185420Y293950D02*
X225370D01*
X285750Y354330D01*
X280050Y371507D02*
X285750Y365807D01*
Y354330D02*
Y365807D01*
Y354330D02*
X321310D01*
X280050Y371507D02*
Y398959D01*
X321310Y384810D02*
X334010Y397510D01*
X247644Y419517D02*
X259492D01*
X334010Y397510D02*
X353030D01*
X82550Y328930D02*
X98749D01*
X221842Y386080D02*
Y398168D01*
X224771Y401097D01*
X277913D02*
X280050Y398959D01*
X259492Y419517D02*
X277913Y401097D01*
X224771D02*
X277913D01*
X275670Y486790D02*
X276119Y487239D01*
D39*
X99060Y16510D02*
X118110Y35560D01*
Y55566D01*
D40*
X35237Y407450D02*
X43907Y398780D01*
X45720D01*
X16200Y407450D02*
X35237D01*
X275670Y466931D02*
X302155Y440446D01*
X275670Y466931D02*
Y486790D01*
X8890Y297180D02*
Y381000D01*
X302155Y440446D02*
X304800D01*
X290830Y344170D02*
X304800D01*
X246380Y299720D02*
X290830Y344170D01*
X246380Y299720D02*
X285439D01*
X231633Y284973D02*
X246380Y299720D01*
X231390Y276860D02*
X231633D01*
Y284973D01*
X216441Y276860D02*
X231390D01*
Y268220D02*
Y276860D01*
Y259580D02*
Y268220D01*
X154060Y256065D02*
X227875D01*
X231390Y259580D01*
X138725Y240730D02*
X154060Y256065D01*
X82015Y241035D02*
X105105D01*
X105410Y240730D02*
X138725D01*
X105105Y241035D02*
X105410Y240730D01*
X139013Y140840D02*
Y240442D01*
X80600Y140840D02*
X139013D01*
X81710Y241340D02*
X82015Y241035D01*
X139013Y140840D02*
X139172Y140681D01*
X304800Y381000D02*
Y440446D01*
X332466D01*
D41*
X276119Y487239D02*
Y513405D01*
D42*
X310155Y224401D02*
X319468Y215087D01*
X308856Y224401D02*
X310155D01*
X319468Y215087D02*
X380231D01*
X166856Y164401D02*
X167199Y164744D01*
X379888D01*
X380231Y165087D01*
X321107Y114018D02*
X381101D01*
X310155Y104401D02*
X311489D01*
X321107Y114018D01*
D43*
X339173Y579389D02*
D03*
D44*
X74820Y160040D02*
D03*
Y73640D02*
D03*
D45*
X33020Y160040D02*
D03*
Y73640D02*
D03*
D46*
X339173Y528589D02*
D03*
Y553989D02*
D03*
Y503189D02*
D03*
D47*
X43010Y556000D02*
D03*
D48*
X215900Y840740D02*
D03*
X241300D02*
D03*
X266700D02*
D03*
X190500D02*
D03*
X165100Y739140D02*
D03*
X292100Y840740D02*
D03*
Y739140D02*
D03*
X165100Y840740D02*
D03*
X241300Y739140D02*
D03*
X215900D02*
D03*
X266700D02*
D03*
X190500D02*
D03*
D49*
X187920Y223830D02*
D03*
D50*
X309920D02*
D03*
Y103830D02*
D03*
X187920D02*
D03*
D51*
X167920Y163830D02*
D03*
D52*
X69820Y87940D02*
D03*
Y145740D02*
D03*
D53*
X43010Y531000D02*
D03*
D54*
X381101Y164018D02*
D03*
Y214018D02*
D03*
D55*
Y114018D02*
D03*
D56*
X297038Y479432D02*
D03*
X156393Y481147D02*
D03*
X153225Y370441D02*
D03*
X154940Y322580D02*
D03*
X238730Y454285D02*
D03*
X208280Y426720D02*
D03*
X185562Y557744D02*
D03*
X208901Y463048D02*
D03*
X307340Y457200D02*
D03*
X165651Y476736D02*
D03*
X62230Y368300D02*
D03*
X95250Y369570D02*
D03*
Y383540D02*
D03*
X62230D02*
D03*
X220980Y436880D02*
D03*
X197174Y557744D02*
D03*
X220688Y463795D02*
D03*
X141812Y482289D02*
D03*
X125734Y218440D02*
D03*
X321310Y354330D02*
D03*
Y384810D02*
D03*
X347980Y449580D02*
D03*
X353060Y419100D02*
D03*
X311201Y476704D02*
D03*
X322929Y477829D02*
D03*
X360680Y688340D02*
D03*
X282396Y547364D02*
D03*
X279265Y669376D02*
D03*
X270479Y542802D02*
D03*
X243681Y614463D02*
D03*
X247449Y690185D02*
D03*
X206774Y557690D02*
D03*
X351850Y656027D02*
D03*
X325120Y805180D02*
D03*
X388620Y422910D02*
D03*
X345440Y833120D02*
D03*
X304800Y381000D02*
D03*
X304800Y344170D02*
D03*
X215900Y276860D02*
D03*
X8890Y297180D02*
D03*
X139172Y140681D02*
D03*
X135835Y101290D02*
D03*
X343862Y811867D02*
D03*
X360680Y429260D02*
D03*
X122722Y118449D02*
D03*
X203200Y42000D02*
D03*
X109118Y118511D02*
D03*
X255270Y93000D02*
D03*
X162560Y101000D02*
D03*
X129944Y125040D02*
D03*
X422757Y284886D02*
D03*
X214630Y102000D02*
D03*
X246380Y121920D02*
D03*
X161290Y265430D02*
D03*
X152400Y34000D02*
D03*
X152400Y289140D02*
D03*
D57*
X420760Y804410D02*
D03*
Y774410D02*
D03*
Y744410D02*
D03*
Y714410D02*
D03*
Y684410D02*
D03*
Y654410D02*
D03*
Y624410D02*
D03*
Y594410D02*
D03*
Y564410D02*
D03*
Y534410D02*
D03*
Y504410D02*
D03*
Y324410D02*
D03*
Y264410D02*
D03*
Y234410D02*
D03*
Y204410D02*
D03*
Y174410D02*
D03*
Y144410D02*
D03*
Y114410D02*
D03*
Y84410D02*
D03*
X390760Y804410D02*
D03*
Y774410D02*
D03*
Y744410D02*
D03*
Y714410D02*
D03*
Y684410D02*
D03*
Y654410D02*
D03*
Y624410D02*
D03*
Y594410D02*
D03*
Y564410D02*
D03*
Y534410D02*
D03*
Y504410D02*
D03*
Y474410D02*
D03*
Y324410D02*
D03*
Y264410D02*
D03*
Y204410D02*
D03*
Y174410D02*
D03*
Y144410D02*
D03*
Y84410D02*
D03*
Y54410D02*
D03*
X360760Y834410D02*
D03*
Y804410D02*
D03*
Y594410D02*
D03*
Y564410D02*
D03*
Y534410D02*
D03*
Y504410D02*
D03*
Y384410D02*
D03*
Y354410D02*
D03*
Y324410D02*
D03*
Y264410D02*
D03*
Y234410D02*
D03*
Y144410D02*
D03*
Y84410D02*
D03*
Y54410D02*
D03*
Y24410D02*
D03*
X330760Y834410D02*
D03*
Y714410D02*
D03*
Y594410D02*
D03*
Y354410D02*
D03*
Y324410D02*
D03*
Y264410D02*
D03*
Y234410D02*
D03*
Y144410D02*
D03*
Y84410D02*
D03*
Y54410D02*
D03*
Y24410D02*
D03*
X300760Y684410D02*
D03*
Y534410D02*
D03*
Y324410D02*
D03*
Y294410D02*
D03*
Y204410D02*
D03*
Y144410D02*
D03*
Y84410D02*
D03*
Y24410D02*
D03*
X270760Y714410D02*
D03*
Y444410D02*
D03*
Y234410D02*
D03*
Y204410D02*
D03*
Y144410D02*
D03*
Y84410D02*
D03*
Y24410D02*
D03*
X240760Y714410D02*
D03*
Y534410D02*
D03*
Y324410D02*
D03*
Y234410D02*
D03*
Y204410D02*
D03*
Y144410D02*
D03*
Y24410D02*
D03*
X210760Y534410D02*
D03*
Y354410D02*
D03*
Y324410D02*
D03*
Y234410D02*
D03*
Y204410D02*
D03*
Y114410D02*
D03*
Y84410D02*
D03*
X180760Y804410D02*
D03*
Y774410D02*
D03*
Y684410D02*
D03*
Y654410D02*
D03*
Y624410D02*
D03*
Y594410D02*
D03*
Y504410D02*
D03*
Y204410D02*
D03*
Y144410D02*
D03*
Y54410D02*
D03*
X150760Y834410D02*
D03*
Y804410D02*
D03*
Y774410D02*
D03*
Y534410D02*
D03*
Y354410D02*
D03*
Y264410D02*
D03*
Y234410D02*
D03*
Y204410D02*
D03*
Y174410D02*
D03*
Y144410D02*
D03*
Y54410D02*
D03*
X120760Y834410D02*
D03*
Y804410D02*
D03*
Y774410D02*
D03*
Y744410D02*
D03*
Y714410D02*
D03*
Y534410D02*
D03*
Y204410D02*
D03*
Y174410D02*
D03*
X90760Y834410D02*
D03*
Y804410D02*
D03*
Y774410D02*
D03*
Y744410D02*
D03*
Y714410D02*
D03*
Y684410D02*
D03*
Y654410D02*
D03*
Y624410D02*
D03*
Y594410D02*
D03*
Y474410D02*
D03*
Y444410D02*
D03*
Y414410D02*
D03*
Y174410D02*
D03*
Y24410D02*
D03*
X60760Y834410D02*
D03*
Y804410D02*
D03*
Y774410D02*
D03*
Y744410D02*
D03*
Y714410D02*
D03*
Y684410D02*
D03*
Y654410D02*
D03*
Y624410D02*
D03*
Y594410D02*
D03*
Y534410D02*
D03*
Y504410D02*
D03*
Y474410D02*
D03*
Y444410D02*
D03*
Y414410D02*
D03*
Y294410D02*
D03*
Y234410D02*
D03*
Y204410D02*
D03*
Y174410D02*
D03*
Y144410D02*
D03*
Y114410D02*
D03*
Y84410D02*
D03*
Y54410D02*
D03*
Y24410D02*
D03*
X30760Y804410D02*
D03*
Y774410D02*
D03*
Y744410D02*
D03*
Y714410D02*
D03*
Y684410D02*
D03*
Y654410D02*
D03*
Y624410D02*
D03*
Y594410D02*
D03*
Y564410D02*
D03*
Y504410D02*
D03*
Y474410D02*
D03*
Y354410D02*
D03*
Y294410D02*
D03*
Y234410D02*
D03*
Y204410D02*
D03*
Y174410D02*
D03*
Y144410D02*
D03*
Y114410D02*
D03*
D58*
X416560Y424180D02*
D03*
X255727Y456181D02*
D03*
X307027Y600829D02*
D03*
X34290Y281940D02*
D03*
Y308610D02*
D03*
X99060Y16510D02*
D03*
X85090Y265430D02*
D03*
X45720Y398780D02*
D03*
X48260Y482600D02*
D03*
X103027Y482931D02*
D03*
X94370Y509210D02*
D03*
X123190Y21000D02*
D03*
X180340Y373380D02*
D03*
X337820Y64000D02*
D03*
X269680Y361560D02*
D03*
X269500Y386080D02*
D03*
X406400Y397510D02*
D03*
X390610Y228050D02*
D03*
X127000Y299904D02*
D03*
M02*
