G04*
G04 #@! TF.GenerationSoftware,Altium Limited,Altium Designer,25.8.1 (18)*
G04*
G04 Layer_Color=8388736*
%FSLAX25Y25*%
%MOIN*%
G70*
G04*
G04 #@! TF.SameCoordinates,86F4F43E-E320-487D-8728-FE8D576B5409*
G04*
G04*
G04 #@! TF.FilePolarity,Negative*
G04*
G01*
G75*
%ADD16R,0.01772X0.05906*%
%ADD17R,0.05709X0.07480*%
%ADD18R,0.05906X0.07480*%
G04:AMPARAMS|DCode=19|XSize=67.21mil|YSize=24.25mil|CornerRadius=12.12mil|HoleSize=0mil|Usage=FLASHONLY|Rotation=0.000|XOffset=0mil|YOffset=0mil|HoleType=Round|Shape=RoundedRectangle|*
%AMROUNDEDRECTD19*
21,1,0.06721,0.00000,0,0,0.0*
21,1,0.04296,0.02425,0,0,0.0*
1,1,0.02425,0.02148,0.00000*
1,1,0.02425,-0.02148,0.00000*
1,1,0.02425,-0.02148,0.00000*
1,1,0.02425,0.02148,0.00000*
%
%ADD19ROUNDEDRECTD19*%
%ADD20R,0.05906X0.05906*%
G04:AMPARAMS|DCode=21|XSize=51.58mil|YSize=24.41mil|CornerRadius=3.05mil|HoleSize=0mil|Usage=FLASHONLY|Rotation=90.000|XOffset=0mil|YOffset=0mil|HoleType=Round|Shape=RoundedRectangle|*
%AMROUNDEDRECTD21*
21,1,0.05158,0.01831,0,0,90.0*
21,1,0.04547,0.02441,0,0,90.0*
1,1,0.00610,0.00915,0.02274*
1,1,0.00610,0.00915,-0.02274*
1,1,0.00610,-0.00915,-0.02274*
1,1,0.00610,-0.00915,0.02274*
%
%ADD21ROUNDEDRECTD21*%
%ADD22R,0.02362X0.04528*%
G04:AMPARAMS|DCode=23|XSize=47.64mil|YSize=23.23mil|CornerRadius=2.9mil|HoleSize=0mil|Usage=FLASHONLY|Rotation=90.000|XOffset=0mil|YOffset=0mil|HoleType=Round|Shape=RoundedRectangle|*
%AMROUNDEDRECTD23*
21,1,0.04764,0.01742,0,0,90.0*
21,1,0.04183,0.02323,0,0,90.0*
1,1,0.00581,0.00871,0.02092*
1,1,0.00581,0.00871,-0.02092*
1,1,0.00581,-0.00871,-0.02092*
1,1,0.00581,-0.00871,0.02092*
%
%ADD23ROUNDEDRECTD23*%
%ADD24R,0.07480X0.05709*%
%ADD25R,0.03150X0.03150*%
%ADD26R,0.07480X0.05906*%
%ADD27R,0.06721X0.02425*%
%ADD28R,0.03740X0.03543*%
G04:AMPARAMS|DCode=29|XSize=66.93mil|YSize=24.02mil|CornerRadius=3mil|HoleSize=0mil|Usage=FLASHONLY|Rotation=180.000|XOffset=0mil|YOffset=0mil|HoleType=Round|Shape=RoundedRectangle|*
%AMROUNDEDRECTD29*
21,1,0.06693,0.01801,0,0,180.0*
21,1,0.06093,0.02402,0,0,180.0*
1,1,0.00600,-0.03046,0.00901*
1,1,0.00600,0.03046,0.00901*
1,1,0.00600,0.03046,-0.00901*
1,1,0.00600,-0.03046,-0.00901*
%
%ADD29ROUNDEDRECTD29*%
%ADD30R,0.05906X0.05906*%
%ADD31R,0.01181X0.04528*%
%ADD32R,0.03543X0.03740*%
%ADD33R,0.03150X0.03150*%
%ADD34C,0.06201*%
%ADD35R,0.06201X0.06201*%
%ADD36C,0.05709*%
%ADD37R,0.06102X0.06102*%
%ADD38O,0.04134X0.07284*%
%ADD39O,0.04134X0.08465*%
%ADD40C,0.07795*%
%ADD41C,0.07618*%
%ADD42R,0.07795X0.07795*%
%ADD43R,0.05709X0.05709*%
%ADD44C,0.06102*%
%ADD45C,0.02559*%
%ADD46C,0.07087*%
%ADD47R,0.07087X0.07087*%
%ADD48C,0.05535*%
D16*
X44871Y193065D02*
D03*
Y170231D02*
D03*
X37194Y193065D02*
D03*
X39753D02*
D03*
X47430D02*
D03*
X29517D02*
D03*
X32076D02*
D03*
X34635D02*
D03*
X42312D02*
D03*
X49989D02*
D03*
X52548D02*
D03*
X47430Y170231D02*
D03*
X42312D02*
D03*
X37194D02*
D03*
X34635D02*
D03*
X32076D02*
D03*
X29517D02*
D03*
X52548D02*
D03*
X39753D02*
D03*
X49989D02*
D03*
D17*
X49550Y298250D02*
D03*
X165801Y143900D02*
D03*
X53480Y260299D02*
D03*
X65488D02*
D03*
X177809Y143900D02*
D03*
X127137Y100291D02*
D03*
X115129D02*
D03*
Y128749D02*
D03*
X127137D02*
D03*
X177923Y131868D02*
D03*
X165915D02*
D03*
X92538Y100291D02*
D03*
X104546D02*
D03*
X92559Y128749D02*
D03*
X104567D02*
D03*
X61558Y298250D02*
D03*
X49550Y278294D02*
D03*
X61558D02*
D03*
X36648Y226738D02*
D03*
X24641D02*
D03*
X36587Y214823D02*
D03*
X24579D02*
D03*
X36530Y203127D02*
D03*
X24522D02*
D03*
X34918Y18277D02*
D03*
X22910D02*
D03*
X22910Y30994D02*
D03*
X34918D02*
D03*
D18*
X49649Y310521D02*
D03*
X27938Y159310D02*
D03*
X61460Y310521D02*
D03*
X61927Y159512D02*
D03*
X49744Y51041D02*
D03*
X98816Y51657D02*
D03*
X34297Y112151D02*
D03*
X34190Y100291D02*
D03*
X73260Y95057D02*
D03*
X39749Y159310D02*
D03*
X50116Y159512D02*
D03*
X61554Y51041D02*
D03*
X87005Y51657D02*
D03*
X22486Y112151D02*
D03*
X22379Y100291D02*
D03*
X61449Y95057D02*
D03*
D19*
X32357Y127552D02*
D03*
X41810Y131292D02*
D03*
Y123812D02*
D03*
X32357D02*
D03*
D20*
X21877Y240611D02*
D03*
X47844Y2070D02*
D03*
X35656Y240611D02*
D03*
X34064Y2070D02*
D03*
D21*
X59850Y63558D02*
D03*
Y85211D02*
D03*
X74850Y63558D02*
D03*
X84850D02*
D03*
X64850D02*
D03*
X69850D02*
D03*
X79850D02*
D03*
X89850D02*
D03*
X94850D02*
D03*
Y85211D02*
D03*
X89850D02*
D03*
X84850D02*
D03*
X79850D02*
D03*
X74850D02*
D03*
X69850D02*
D03*
X64850D02*
D03*
D22*
X87221Y18893D02*
D03*
X62024D02*
D03*
X84072D02*
D03*
X65174D02*
D03*
D23*
X74623Y34429D02*
D03*
X70883Y44311D02*
D03*
X74623D02*
D03*
X78363D02*
D03*
Y34429D02*
D03*
X70883D02*
D03*
D24*
X102793Y-3013D02*
D03*
X116976D02*
D03*
X208535Y50728D02*
D03*
Y62736D02*
D03*
X104499Y64818D02*
D03*
Y76825D02*
D03*
X102793Y8995D02*
D03*
X116976D02*
D03*
X108200Y170634D02*
D03*
Y158626D02*
D03*
X81357Y170479D02*
D03*
Y158471D02*
D03*
X49693Y64818D02*
D03*
Y76825D02*
D03*
X108240Y181271D02*
D03*
Y193279D02*
D03*
X81292Y193279D02*
D03*
Y181271D02*
D03*
D25*
X171908Y122700D02*
D03*
X113858Y119266D02*
D03*
X117598Y109817D02*
D03*
X121338Y119266D02*
D03*
X175648Y113251D02*
D03*
X179388Y122700D02*
D03*
X91287Y119266D02*
D03*
X95027Y109817D02*
D03*
X98767Y119266D02*
D03*
D26*
X61140Y187897D02*
D03*
X67876Y118947D02*
D03*
X55649Y118989D02*
D03*
X129530Y187145D02*
D03*
X61140Y176086D02*
D03*
X67876Y130758D02*
D03*
X55649Y130800D02*
D03*
X129530Y175334D02*
D03*
D27*
X32357Y131292D02*
D03*
D28*
X22748Y86716D02*
D03*
Y74314D02*
D03*
D29*
X140940Y153987D02*
D03*
Y158987D02*
D03*
Y163987D02*
D03*
Y168987D02*
D03*
Y173987D02*
D03*
Y178987D02*
D03*
Y183987D02*
D03*
Y188987D02*
D03*
Y193987D02*
D03*
Y198987D02*
D03*
X178420D02*
D03*
Y193987D02*
D03*
Y188987D02*
D03*
Y183987D02*
D03*
Y178987D02*
D03*
Y173987D02*
D03*
Y168987D02*
D03*
Y163987D02*
D03*
Y158987D02*
D03*
Y153987D02*
D03*
D30*
X208073Y76640D02*
D03*
Y90420D02*
D03*
D31*
X81512Y18893D02*
D03*
X79544D02*
D03*
X77575D02*
D03*
X75607D02*
D03*
X73638D02*
D03*
X71670D02*
D03*
X69701D02*
D03*
X67733D02*
D03*
D32*
X146096Y114432D02*
D03*
X158497Y114432D02*
D03*
X65685Y248175D02*
D03*
X53283D02*
D03*
D33*
X90263Y160579D02*
D03*
X99712Y164319D02*
D03*
X90263Y168059D02*
D03*
X90303Y183637D02*
D03*
X99752Y187378D02*
D03*
X90303Y191118D02*
D03*
D34*
X32999Y298616D02*
D03*
D35*
Y308458D02*
D03*
D36*
X27559Y261653D02*
D03*
Y251654D02*
D03*
Y271654D02*
D03*
D37*
X174078Y246413D02*
D03*
X131353Y246083D02*
D03*
X89515Y246083D02*
D03*
D38*
X91631Y212D02*
D03*
X57615D02*
D03*
D39*
X91631Y16668D02*
D03*
X57615D02*
D03*
D40*
X146135Y91434D02*
D03*
Y43402D02*
D03*
X193379D02*
D03*
D41*
X169757Y99308D02*
D03*
D42*
X193379Y91434D02*
D03*
D43*
X27559Y281653D02*
D03*
D44*
X174078Y226728D02*
D03*
X131353Y226398D02*
D03*
X89515Y226398D02*
D03*
D45*
X63245Y14700D02*
D03*
X86001D02*
D03*
D46*
X189339Y9955D02*
D03*
X169653D02*
D03*
D47*
X149969D02*
D03*
D48*
X114921Y279213D02*
D03*
X144921D02*
D03*
X124921D02*
D03*
X134921D02*
D03*
X104921Y319213D02*
D03*
X154921Y279213D02*
D03*
Y319213D02*
D03*
X104921Y279213D02*
D03*
X114921Y319213D02*
D03*
X144921D02*
D03*
X134921D02*
D03*
X124921D02*
D03*
M02*
