G04*
G04 #@! TF.GenerationSoftware,Altium Limited,Altium Designer,25.8.1 (18)*
G04*
G04 Layer_Color=65535*
%FSLAX25Y25*%
%MOIN*%
G70*
G04*
G04 #@! TF.SameCoordinates,86F4F43E-E320-487D-8728-FE8D576B5409*
G04*
G04*
G04 #@! TF.FilePolarity,Positive*
G04*
G01*
G75*
%ADD10C,0.00984*%
%ADD11C,0.00787*%
%ADD12C,0.00197*%
%ADD13C,0.00500*%
%ADD14C,0.01000*%
%ADD15R,0.02000X0.06248*%
G36*
X15229Y281957D02*
X15268D01*
X15374Y281945D01*
X15490Y281929D01*
X15612Y281901D01*
X15746Y281868D01*
X15868Y281823D01*
X15873D01*
X15884Y281818D01*
X15901Y281807D01*
X15923Y281796D01*
X15979Y281768D01*
X16051Y281718D01*
X16134Y281662D01*
X16217Y281590D01*
X16295Y281507D01*
X16367Y281413D01*
Y281407D01*
X16373Y281401D01*
X16384Y281385D01*
X16395Y281368D01*
X16423Y281313D01*
X16456Y281241D01*
X16495Y281152D01*
X16523Y281046D01*
X16550Y280935D01*
X16561Y280813D01*
X16073Y280774D01*
Y280780D01*
Y280791D01*
X16068Y280808D01*
X16062Y280835D01*
X16045Y280896D01*
X16023Y280980D01*
X15990Y281068D01*
X15940Y281157D01*
X15879Y281241D01*
X15801Y281318D01*
X15790Y281324D01*
X15762Y281346D01*
X15707Y281379D01*
X15635Y281413D01*
X15540Y281446D01*
X15429Y281479D01*
X15291Y281501D01*
X15135Y281507D01*
X15057D01*
X15024Y281501D01*
X14980Y281496D01*
X14880Y281485D01*
X14769Y281463D01*
X14658Y281435D01*
X14552Y281390D01*
X14508Y281363D01*
X14464Y281335D01*
X14452Y281329D01*
X14430Y281307D01*
X14397Y281268D01*
X14364Y281224D01*
X14325Y281163D01*
X14291Y281096D01*
X14269Y281019D01*
X14258Y280930D01*
Y280919D01*
Y280896D01*
X14264Y280858D01*
X14275Y280813D01*
X14291Y280758D01*
X14319Y280702D01*
X14353Y280647D01*
X14402Y280591D01*
X14408Y280586D01*
X14436Y280569D01*
X14458Y280552D01*
X14480Y280541D01*
X14514Y280525D01*
X14552Y280502D01*
X14602Y280486D01*
X14658Y280464D01*
X14719Y280441D01*
X14791Y280414D01*
X14869Y280391D01*
X14957Y280364D01*
X15057Y280342D01*
X15168Y280314D01*
X15174D01*
X15196Y280308D01*
X15229Y280303D01*
X15268Y280292D01*
X15318Y280280D01*
X15379Y280264D01*
X15440Y280247D01*
X15507Y280230D01*
X15651Y280192D01*
X15790Y280153D01*
X15857Y280131D01*
X15918Y280108D01*
X15973Y280092D01*
X16017Y280069D01*
X16023D01*
X16034Y280064D01*
X16051Y280053D01*
X16073Y280042D01*
X16134Y280009D01*
X16206Y279964D01*
X16289Y279903D01*
X16373Y279836D01*
X16451Y279759D01*
X16517Y279676D01*
X16523Y279664D01*
X16545Y279637D01*
X16567Y279587D01*
X16600Y279520D01*
X16628Y279442D01*
X16656Y279348D01*
X16672Y279243D01*
X16678Y279132D01*
Y279126D01*
Y279120D01*
Y279104D01*
Y279082D01*
X16667Y279021D01*
X16656Y278943D01*
X16634Y278854D01*
X16606Y278760D01*
X16561Y278660D01*
X16500Y278554D01*
Y278549D01*
X16495Y278543D01*
X16467Y278510D01*
X16428Y278460D01*
X16373Y278404D01*
X16301Y278338D01*
X16212Y278266D01*
X16112Y278199D01*
X15995Y278138D01*
X15990D01*
X15979Y278133D01*
X15962Y278127D01*
X15940Y278116D01*
X15906Y278105D01*
X15868Y278088D01*
X15779Y278066D01*
X15673Y278038D01*
X15546Y278011D01*
X15407Y277994D01*
X15257Y277988D01*
X15168D01*
X15124Y277994D01*
X15074D01*
X15019Y277999D01*
X14952Y278005D01*
X14813Y278027D01*
X14669Y278049D01*
X14525Y278088D01*
X14386Y278138D01*
X14380D01*
X14369Y278144D01*
X14353Y278155D01*
X14330Y278166D01*
X14264Y278199D01*
X14186Y278249D01*
X14097Y278316D01*
X14003Y278393D01*
X13914Y278488D01*
X13831Y278593D01*
Y278599D01*
X13820Y278610D01*
X13814Y278626D01*
X13798Y278649D01*
X13786Y278677D01*
X13770Y278710D01*
X13731Y278793D01*
X13692Y278899D01*
X13659Y279015D01*
X13637Y279148D01*
X13625Y279287D01*
X14103Y279331D01*
Y279326D01*
Y279320D01*
X14108Y279304D01*
Y279281D01*
X14119Y279232D01*
X14136Y279159D01*
X14158Y279087D01*
X14180Y279004D01*
X14219Y278926D01*
X14258Y278854D01*
X14264Y278849D01*
X14280Y278826D01*
X14308Y278787D01*
X14353Y278749D01*
X14408Y278699D01*
X14469Y278649D01*
X14552Y278599D01*
X14641Y278554D01*
X14647D01*
X14652Y278549D01*
X14669Y278543D01*
X14686Y278538D01*
X14741Y278521D01*
X14813Y278499D01*
X14902Y278477D01*
X15002Y278460D01*
X15113Y278449D01*
X15235Y278443D01*
X15285D01*
X15340Y278449D01*
X15407Y278454D01*
X15485Y278466D01*
X15574Y278477D01*
X15662Y278499D01*
X15746Y278527D01*
X15757Y278532D01*
X15785Y278543D01*
X15823Y278566D01*
X15873Y278588D01*
X15923Y278626D01*
X15979Y278665D01*
X16034Y278710D01*
X16079Y278765D01*
X16084Y278771D01*
X16095Y278793D01*
X16112Y278821D01*
X16134Y278865D01*
X16156Y278910D01*
X16173Y278965D01*
X16184Y279026D01*
X16190Y279093D01*
Y279098D01*
Y279126D01*
X16184Y279159D01*
X16179Y279204D01*
X16162Y279248D01*
X16145Y279304D01*
X16117Y279359D01*
X16079Y279409D01*
X16073Y279415D01*
X16056Y279431D01*
X16034Y279453D01*
X15995Y279487D01*
X15951Y279520D01*
X15890Y279559D01*
X15818Y279598D01*
X15734Y279631D01*
X15729Y279637D01*
X15701Y279642D01*
X15657Y279659D01*
X15629Y279664D01*
X15590Y279676D01*
X15551Y279692D01*
X15501Y279703D01*
X15446Y279720D01*
X15379Y279736D01*
X15313Y279753D01*
X15235Y279775D01*
X15146Y279798D01*
X15052Y279820D01*
X15046D01*
X15030Y279825D01*
X15002Y279831D01*
X14969Y279842D01*
X14924Y279853D01*
X14874Y279864D01*
X14763Y279897D01*
X14641Y279936D01*
X14514Y279975D01*
X14402Y280014D01*
X14353Y280036D01*
X14308Y280058D01*
X14303D01*
X14297Y280064D01*
X14264Y280086D01*
X14214Y280114D01*
X14158Y280158D01*
X14092Y280208D01*
X14025Y280269D01*
X13959Y280342D01*
X13903Y280419D01*
X13897Y280430D01*
X13881Y280458D01*
X13859Y280502D01*
X13836Y280558D01*
X13814Y280630D01*
X13792Y280713D01*
X13775Y280802D01*
X13770Y280896D01*
Y280902D01*
Y280908D01*
Y280924D01*
Y280946D01*
X13781Y281002D01*
X13792Y281074D01*
X13809Y281157D01*
X13836Y281252D01*
X13875Y281346D01*
X13931Y281440D01*
Y281446D01*
X13936Y281452D01*
X13964Y281485D01*
X14003Y281529D01*
X14053Y281585D01*
X14119Y281646D01*
X14203Y281712D01*
X14303Y281773D01*
X14414Y281829D01*
X14419D01*
X14430Y281834D01*
X14447Y281840D01*
X14469Y281851D01*
X14497Y281862D01*
X14536Y281873D01*
X14619Y281895D01*
X14724Y281918D01*
X14846Y281940D01*
X14974Y281957D01*
X15119Y281962D01*
X15191D01*
X15229Y281957D01*
D02*
G37*
G36*
X20130Y281440D02*
X18865D01*
Y278055D01*
X18354D01*
Y281440D01*
X17089D01*
Y281895D01*
X20130D01*
Y281440D01*
D02*
G37*
G36*
X11755Y281890D02*
X11805D01*
X11922Y281884D01*
X12044Y281868D01*
X12177Y281851D01*
X12299Y281823D01*
X12360Y281807D01*
X12410Y281790D01*
X12416D01*
X12421Y281785D01*
X12454Y281768D01*
X12504Y281746D01*
X12565Y281707D01*
X12632Y281657D01*
X12704Y281590D01*
X12771Y281512D01*
X12837Y281424D01*
Y281418D01*
X12843Y281413D01*
X12865Y281379D01*
X12887Y281324D01*
X12921Y281252D01*
X12948Y281168D01*
X12976Y281068D01*
X12993Y280963D01*
X12998Y280847D01*
Y280841D01*
Y280830D01*
Y280808D01*
X12993Y280780D01*
Y280741D01*
X12987Y280702D01*
X12965Y280608D01*
X12932Y280497D01*
X12887Y280380D01*
X12821Y280264D01*
X12776Y280208D01*
X12732Y280153D01*
X12726Y280147D01*
X12721Y280142D01*
X12704Y280125D01*
X12682Y280108D01*
X12654Y280086D01*
X12621Y280064D01*
X12577Y280036D01*
X12532Y280003D01*
X12477Y279975D01*
X12416Y279947D01*
X12349Y279914D01*
X12277Y279886D01*
X12194Y279864D01*
X12110Y279836D01*
X12016Y279820D01*
X11916Y279803D01*
X11927Y279798D01*
X11949Y279786D01*
X11983Y279764D01*
X12027Y279742D01*
X12127Y279681D01*
X12177Y279642D01*
X12221Y279609D01*
X12233Y279598D01*
X12260Y279570D01*
X12305Y279526D01*
X12360Y279470D01*
X12421Y279392D01*
X12493Y279309D01*
X12565Y279209D01*
X12643Y279098D01*
X13304Y278055D01*
X12671D01*
X12166Y278854D01*
Y278860D01*
X12155Y278871D01*
X12144Y278887D01*
X12127Y278910D01*
X12088Y278971D01*
X12038Y279048D01*
X11977Y279132D01*
X11916Y279220D01*
X11855Y279304D01*
X11800Y279381D01*
X11794Y279387D01*
X11777Y279409D01*
X11750Y279442D01*
X11711Y279481D01*
X11627Y279564D01*
X11583Y279603D01*
X11539Y279637D01*
X11533Y279642D01*
X11522Y279648D01*
X11500Y279659D01*
X11467Y279676D01*
X11433Y279692D01*
X11394Y279709D01*
X11306Y279736D01*
X11300D01*
X11289Y279742D01*
X11267D01*
X11239Y279748D01*
X11200Y279753D01*
X11156D01*
X11095Y279759D01*
X10440D01*
Y278055D01*
X9929D01*
Y281895D01*
X11711D01*
X11755Y281890D01*
D02*
G37*
G36*
X8086Y273737D02*
X8125D01*
X8231Y273726D01*
X8347Y273710D01*
X8469Y273682D01*
X8602Y273649D01*
X8725Y273604D01*
X8730D01*
X8741Y273599D01*
X8758Y273587D01*
X8780Y273576D01*
X8836Y273549D01*
X8908Y273499D01*
X8991Y273443D01*
X9074Y273371D01*
X9152Y273288D01*
X9224Y273193D01*
Y273188D01*
X9230Y273182D01*
X9241Y273166D01*
X9252Y273149D01*
X9280Y273094D01*
X9313Y273021D01*
X9352Y272933D01*
X9380Y272827D01*
X9407Y272716D01*
X9418Y272594D01*
X8930Y272555D01*
Y272561D01*
Y272572D01*
X8924Y272588D01*
X8919Y272616D01*
X8902Y272677D01*
X8880Y272761D01*
X8847Y272849D01*
X8797Y272938D01*
X8736Y273021D01*
X8658Y273099D01*
X8647Y273105D01*
X8619Y273127D01*
X8564Y273160D01*
X8491Y273193D01*
X8397Y273227D01*
X8286Y273260D01*
X8147Y273282D01*
X7992Y273288D01*
X7914D01*
X7881Y273282D01*
X7837Y273277D01*
X7737Y273266D01*
X7626Y273243D01*
X7515Y273216D01*
X7409Y273171D01*
X7365Y273143D01*
X7321Y273116D01*
X7309Y273110D01*
X7287Y273088D01*
X7254Y273049D01*
X7221Y273005D01*
X7182Y272944D01*
X7148Y272877D01*
X7126Y272799D01*
X7115Y272710D01*
Y272699D01*
Y272677D01*
X7121Y272638D01*
X7132Y272594D01*
X7148Y272538D01*
X7176Y272483D01*
X7209Y272428D01*
X7259Y272372D01*
X7265Y272366D01*
X7293Y272350D01*
X7315Y272333D01*
X7337Y272322D01*
X7370Y272305D01*
X7409Y272283D01*
X7459Y272267D01*
X7515Y272244D01*
X7576Y272222D01*
X7648Y272194D01*
X7726Y272172D01*
X7814Y272144D01*
X7914Y272122D01*
X8025Y272094D01*
X8031D01*
X8053Y272089D01*
X8086Y272083D01*
X8125Y272072D01*
X8175Y272061D01*
X8236Y272044D01*
X8297Y272028D01*
X8364Y272011D01*
X8508Y271972D01*
X8647Y271934D01*
X8714Y271911D01*
X8775Y271889D01*
X8830Y271872D01*
X8874Y271850D01*
X8880D01*
X8891Y271845D01*
X8908Y271834D01*
X8930Y271823D01*
X8991Y271789D01*
X9063Y271745D01*
X9146Y271684D01*
X9230Y271617D01*
X9307Y271539D01*
X9374Y271456D01*
X9380Y271445D01*
X9402Y271417D01*
X9424Y271367D01*
X9457Y271301D01*
X9485Y271223D01*
X9513Y271129D01*
X9529Y271023D01*
X9535Y270912D01*
Y270907D01*
Y270901D01*
Y270885D01*
Y270862D01*
X9524Y270801D01*
X9513Y270724D01*
X9490Y270635D01*
X9463Y270540D01*
X9418Y270441D01*
X9357Y270335D01*
Y270330D01*
X9352Y270324D01*
X9324Y270291D01*
X9285Y270241D01*
X9230Y270185D01*
X9157Y270119D01*
X9069Y270046D01*
X8969Y269980D01*
X8852Y269919D01*
X8847D01*
X8836Y269913D01*
X8819Y269908D01*
X8797Y269897D01*
X8764Y269886D01*
X8725Y269869D01*
X8636Y269847D01*
X8530Y269819D01*
X8403Y269791D01*
X8264Y269775D01*
X8114Y269769D01*
X8025D01*
X7981Y269775D01*
X7931D01*
X7875Y269780D01*
X7809Y269786D01*
X7670Y269808D01*
X7526Y269830D01*
X7382Y269869D01*
X7243Y269919D01*
X7237D01*
X7226Y269924D01*
X7209Y269935D01*
X7187Y269947D01*
X7121Y269980D01*
X7043Y270030D01*
X6954Y270096D01*
X6860Y270174D01*
X6771Y270269D01*
X6688Y270374D01*
Y270379D01*
X6677Y270391D01*
X6671Y270407D01*
X6655Y270429D01*
X6643Y270457D01*
X6627Y270491D01*
X6588Y270574D01*
X6549Y270679D01*
X6516Y270796D01*
X6493Y270929D01*
X6482Y271068D01*
X6960Y271112D01*
Y271107D01*
Y271101D01*
X6965Y271084D01*
Y271062D01*
X6976Y271012D01*
X6993Y270940D01*
X7015Y270868D01*
X7037Y270785D01*
X7076Y270707D01*
X7115Y270635D01*
X7121Y270629D01*
X7137Y270607D01*
X7165Y270568D01*
X7209Y270529D01*
X7265Y270479D01*
X7326Y270429D01*
X7409Y270379D01*
X7498Y270335D01*
X7504D01*
X7509Y270330D01*
X7526Y270324D01*
X7542Y270319D01*
X7598Y270302D01*
X7670Y270280D01*
X7759Y270257D01*
X7859Y270241D01*
X7970Y270230D01*
X8092Y270224D01*
X8142D01*
X8197Y270230D01*
X8264Y270235D01*
X8342Y270246D01*
X8431Y270257D01*
X8519Y270280D01*
X8602Y270307D01*
X8614Y270313D01*
X8641Y270324D01*
X8680Y270346D01*
X8730Y270368D01*
X8780Y270407D01*
X8836Y270446D01*
X8891Y270491D01*
X8935Y270546D01*
X8941Y270552D01*
X8952Y270574D01*
X8969Y270602D01*
X8991Y270646D01*
X9013Y270690D01*
X9030Y270746D01*
X9041Y270807D01*
X9047Y270873D01*
Y270879D01*
Y270907D01*
X9041Y270940D01*
X9035Y270985D01*
X9019Y271029D01*
X9002Y271084D01*
X8974Y271140D01*
X8935Y271190D01*
X8930Y271195D01*
X8913Y271212D01*
X8891Y271234D01*
X8852Y271268D01*
X8808Y271301D01*
X8747Y271340D01*
X8675Y271378D01*
X8591Y271412D01*
X8586Y271417D01*
X8558Y271423D01*
X8514Y271440D01*
X8486Y271445D01*
X8447Y271456D01*
X8408Y271473D01*
X8358Y271484D01*
X8303Y271501D01*
X8236Y271517D01*
X8170Y271534D01*
X8092Y271556D01*
X8003Y271578D01*
X7909Y271601D01*
X7903D01*
X7887Y271606D01*
X7859Y271612D01*
X7825Y271623D01*
X7781Y271634D01*
X7731Y271645D01*
X7620Y271678D01*
X7498Y271717D01*
X7370Y271756D01*
X7259Y271795D01*
X7209Y271817D01*
X7165Y271839D01*
X7159D01*
X7154Y271845D01*
X7121Y271867D01*
X7071Y271895D01*
X7015Y271939D01*
X6949Y271989D01*
X6882Y272050D01*
X6815Y272122D01*
X6760Y272200D01*
X6754Y272211D01*
X6738Y272239D01*
X6716Y272283D01*
X6693Y272339D01*
X6671Y272411D01*
X6649Y272494D01*
X6632Y272583D01*
X6627Y272677D01*
Y272683D01*
Y272688D01*
Y272705D01*
Y272727D01*
X6638Y272783D01*
X6649Y272855D01*
X6666Y272938D01*
X6693Y273032D01*
X6732Y273127D01*
X6788Y273221D01*
Y273227D01*
X6793Y273232D01*
X6821Y273266D01*
X6860Y273310D01*
X6910Y273365D01*
X6976Y273427D01*
X7060Y273493D01*
X7159Y273554D01*
X7271Y273610D01*
X7276D01*
X7287Y273615D01*
X7304Y273621D01*
X7326Y273632D01*
X7354Y273643D01*
X7393Y273654D01*
X7476Y273676D01*
X7581Y273698D01*
X7703Y273721D01*
X7831Y273737D01*
X7975Y273743D01*
X8048D01*
X8086Y273737D01*
D02*
G37*
G36*
X20441Y269836D02*
X19952D01*
Y273049D01*
X18831Y269836D01*
X18376D01*
X17266Y273105D01*
Y269836D01*
X16778D01*
Y273676D01*
X17538D01*
X18448Y270951D01*
Y270946D01*
X18454Y270935D01*
X18459Y270918D01*
X18470Y270890D01*
X18493Y270824D01*
X18520Y270740D01*
X18548Y270646D01*
X18581Y270552D01*
X18609Y270463D01*
X18631Y270385D01*
X18637Y270396D01*
X18643Y270424D01*
X18659Y270474D01*
X18681Y270540D01*
X18709Y270629D01*
X18748Y270735D01*
X18787Y270857D01*
X18837Y271001D01*
X19758Y273676D01*
X20441D01*
Y269836D01*
D02*
G37*
G36*
X13770D02*
X13270D01*
X12465Y272761D01*
Y272766D01*
X12460Y272777D01*
X12454Y272794D01*
X12449Y272821D01*
X12432Y272883D01*
X12415Y272955D01*
X12393Y273032D01*
X12371Y273105D01*
X12354Y273166D01*
X12349Y273193D01*
X12343Y273210D01*
Y273204D01*
X12338Y273199D01*
X12332Y273166D01*
X12321Y273116D01*
X12304Y273055D01*
X12288Y272988D01*
X12265Y272910D01*
X12249Y272833D01*
X12227Y272761D01*
X11416Y269836D01*
X10884D01*
X9879Y273676D01*
X10406D01*
X10978Y271157D01*
Y271151D01*
X10983Y271140D01*
X10989Y271118D01*
X10995Y271090D01*
X11000Y271051D01*
X11011Y271012D01*
X11022Y270962D01*
X11033Y270907D01*
X11061Y270790D01*
X11089Y270657D01*
X11117Y270513D01*
X11144Y270368D01*
Y270374D01*
X11150Y270396D01*
X11161Y270424D01*
X11167Y270468D01*
X11178Y270513D01*
X11194Y270568D01*
X11222Y270690D01*
X11255Y270812D01*
X11266Y270873D01*
X11283Y270929D01*
X11294Y270979D01*
X11305Y271023D01*
X11316Y271057D01*
X11322Y271079D01*
X12049Y273676D01*
X12665D01*
X13209Y271728D01*
Y271723D01*
X13220Y271695D01*
X13231Y271656D01*
X13242Y271606D01*
X13259Y271539D01*
X13281Y271467D01*
X13303Y271384D01*
X13326Y271290D01*
X13353Y271184D01*
X13375Y271079D01*
X13426Y270851D01*
X13475Y270613D01*
X13514Y270368D01*
Y270374D01*
X13520Y270385D01*
Y270407D01*
X13531Y270435D01*
X13536Y270468D01*
X13548Y270507D01*
X13553Y270557D01*
X13570Y270613D01*
X13598Y270735D01*
X13631Y270879D01*
X13664Y271034D01*
X13709Y271206D01*
X14308Y273676D01*
X14824D01*
X13770Y269836D01*
D02*
G37*
G36*
X15895D02*
X15385D01*
Y273676D01*
X15895D01*
Y269836D01*
D02*
G37*
G36*
X14915Y253950D02*
X14987Y253939D01*
X15076Y253922D01*
X15176Y253894D01*
X15276Y253861D01*
X15376Y253816D01*
X15381D01*
X15387Y253811D01*
X15420Y253794D01*
X15470Y253761D01*
X15526Y253722D01*
X15592Y253667D01*
X15659Y253606D01*
X15725Y253533D01*
X15781Y253450D01*
X15786Y253439D01*
X15803Y253411D01*
X15825Y253361D01*
X15853Y253300D01*
X15881Y253228D01*
X15903Y253145D01*
X15920Y253051D01*
X15925Y252956D01*
Y252945D01*
Y252912D01*
X15920Y252867D01*
X15909Y252806D01*
X15892Y252734D01*
X15864Y252657D01*
X15831Y252579D01*
X15786Y252501D01*
X15781Y252490D01*
X15764Y252468D01*
X15731Y252429D01*
X15687Y252384D01*
X15631Y252335D01*
X15564Y252279D01*
X15487Y252229D01*
X15392Y252179D01*
X15398D01*
X15409Y252174D01*
X15426Y252168D01*
X15448Y252163D01*
X15509Y252140D01*
X15587Y252107D01*
X15675Y252063D01*
X15764Y252007D01*
X15847Y251935D01*
X15925Y251852D01*
X15931Y251841D01*
X15953Y251807D01*
X15986Y251752D01*
X16019Y251680D01*
X16053Y251591D01*
X16086Y251485D01*
X16108Y251363D01*
X16114Y251230D01*
Y251225D01*
Y251208D01*
Y251180D01*
X16108Y251147D01*
X16103Y251102D01*
X16092Y251053D01*
X16081Y250997D01*
X16069Y250936D01*
X16025Y250803D01*
X15992Y250731D01*
X15958Y250664D01*
X15914Y250592D01*
X15864Y250520D01*
X15809Y250448D01*
X15742Y250381D01*
X15736Y250376D01*
X15725Y250364D01*
X15703Y250348D01*
X15675Y250325D01*
X15642Y250298D01*
X15598Y250270D01*
X15548Y250237D01*
X15487Y250209D01*
X15426Y250176D01*
X15353Y250142D01*
X15281Y250115D01*
X15198Y250087D01*
X15109Y250065D01*
X15015Y250048D01*
X14921Y250037D01*
X14815Y250031D01*
X14765D01*
X14732Y250037D01*
X14687Y250043D01*
X14638Y250048D01*
X14582Y250059D01*
X14521Y250070D01*
X14388Y250103D01*
X14249Y250159D01*
X14177Y250192D01*
X14110Y250231D01*
X14044Y250281D01*
X13977Y250331D01*
X13972Y250337D01*
X13960Y250348D01*
X13944Y250364D01*
X13927Y250387D01*
X13899Y250414D01*
X13872Y250453D01*
X13838Y250492D01*
X13805Y250542D01*
X13772Y250597D01*
X13738Y250653D01*
X13677Y250786D01*
X13627Y250942D01*
X13611Y251025D01*
X13600Y251114D01*
X14071Y251175D01*
Y251169D01*
X14077Y251158D01*
X14083Y251136D01*
X14088Y251108D01*
X14094Y251075D01*
X14105Y251036D01*
X14132Y250953D01*
X14171Y250853D01*
X14221Y250758D01*
X14277Y250670D01*
X14343Y250592D01*
X14355Y250586D01*
X14377Y250564D01*
X14421Y250536D01*
X14477Y250509D01*
X14543Y250475D01*
X14626Y250448D01*
X14721Y250425D01*
X14821Y250420D01*
X14854D01*
X14876Y250425D01*
X14937Y250431D01*
X15015Y250448D01*
X15104Y250475D01*
X15198Y250514D01*
X15292Y250570D01*
X15381Y250647D01*
X15392Y250658D01*
X15420Y250692D01*
X15453Y250742D01*
X15498Y250808D01*
X15542Y250892D01*
X15575Y250986D01*
X15603Y251097D01*
X15614Y251219D01*
Y251225D01*
Y251236D01*
Y251252D01*
X15609Y251274D01*
X15603Y251336D01*
X15587Y251408D01*
X15564Y251497D01*
X15526Y251585D01*
X15470Y251674D01*
X15398Y251757D01*
X15387Y251768D01*
X15359Y251791D01*
X15315Y251824D01*
X15254Y251863D01*
X15176Y251902D01*
X15081Y251935D01*
X14976Y251957D01*
X14860Y251968D01*
X14810D01*
X14771Y251963D01*
X14721Y251957D01*
X14665Y251946D01*
X14599Y251935D01*
X14526Y251918D01*
X14582Y252335D01*
X14610D01*
X14632Y252329D01*
X14704D01*
X14765Y252340D01*
X14837Y252351D01*
X14921Y252368D01*
X15015Y252396D01*
X15104Y252434D01*
X15198Y252484D01*
X15204D01*
X15209Y252490D01*
X15237Y252512D01*
X15276Y252551D01*
X15320Y252601D01*
X15365Y252673D01*
X15403Y252756D01*
X15431Y252851D01*
X15442Y252906D01*
Y252967D01*
Y252973D01*
Y252978D01*
Y253012D01*
X15431Y253056D01*
X15420Y253117D01*
X15398Y253184D01*
X15370Y253256D01*
X15326Y253328D01*
X15265Y253395D01*
X15259Y253400D01*
X15231Y253422D01*
X15192Y253450D01*
X15143Y253483D01*
X15076Y253511D01*
X14998Y253539D01*
X14909Y253561D01*
X14810Y253567D01*
X14765D01*
X14715Y253556D01*
X14649Y253544D01*
X14577Y253522D01*
X14504Y253495D01*
X14427Y253450D01*
X14355Y253395D01*
X14349Y253389D01*
X14327Y253361D01*
X14293Y253323D01*
X14255Y253267D01*
X14216Y253195D01*
X14177Y253106D01*
X14144Y253001D01*
X14121Y252878D01*
X13650Y252962D01*
Y252967D01*
X13655Y252984D01*
X13661Y253006D01*
X13666Y253039D01*
X13677Y253078D01*
X13694Y253123D01*
X13727Y253228D01*
X13783Y253350D01*
X13849Y253472D01*
X13933Y253589D01*
X14038Y253694D01*
X14044Y253700D01*
X14055Y253706D01*
X14071Y253717D01*
X14094Y253733D01*
X14121Y253755D01*
X14160Y253778D01*
X14199Y253800D01*
X14249Y253828D01*
X14360Y253872D01*
X14488Y253916D01*
X14638Y253944D01*
X14715Y253955D01*
X14854D01*
X14915Y253950D01*
D02*
G37*
G36*
X10436D02*
X10508Y253939D01*
X10597Y253922D01*
X10697Y253894D01*
X10797Y253861D01*
X10897Y253816D01*
X10902D01*
X10908Y253811D01*
X10941Y253794D01*
X10991Y253761D01*
X11047Y253722D01*
X11113Y253667D01*
X11180Y253606D01*
X11247Y253533D01*
X11302Y253450D01*
X11308Y253439D01*
X11324Y253411D01*
X11346Y253361D01*
X11374Y253300D01*
X11402Y253228D01*
X11424Y253145D01*
X11441Y253051D01*
X11446Y252956D01*
Y252945D01*
Y252912D01*
X11441Y252867D01*
X11430Y252806D01*
X11413Y252734D01*
X11385Y252657D01*
X11352Y252579D01*
X11308Y252501D01*
X11302Y252490D01*
X11285Y252468D01*
X11252Y252429D01*
X11208Y252384D01*
X11152Y252335D01*
X11085Y252279D01*
X11008Y252229D01*
X10914Y252179D01*
X10919D01*
X10930Y252174D01*
X10947Y252168D01*
X10969Y252163D01*
X11030Y252140D01*
X11108Y252107D01*
X11197Y252063D01*
X11285Y252007D01*
X11369Y251935D01*
X11446Y251852D01*
X11452Y251841D01*
X11474Y251807D01*
X11507Y251752D01*
X11541Y251680D01*
X11574Y251591D01*
X11607Y251485D01*
X11629Y251363D01*
X11635Y251230D01*
Y251225D01*
Y251208D01*
Y251180D01*
X11629Y251147D01*
X11624Y251102D01*
X11613Y251053D01*
X11602Y250997D01*
X11591Y250936D01*
X11546Y250803D01*
X11513Y250731D01*
X11480Y250664D01*
X11435Y250592D01*
X11385Y250520D01*
X11330Y250448D01*
X11263Y250381D01*
X11258Y250376D01*
X11247Y250364D01*
X11224Y250348D01*
X11197Y250325D01*
X11163Y250298D01*
X11119Y250270D01*
X11069Y250237D01*
X11008Y250209D01*
X10947Y250176D01*
X10875Y250142D01*
X10802Y250115D01*
X10719Y250087D01*
X10630Y250065D01*
X10536Y250048D01*
X10442Y250037D01*
X10336Y250031D01*
X10286D01*
X10253Y250037D01*
X10209Y250043D01*
X10159Y250048D01*
X10103Y250059D01*
X10042Y250070D01*
X9909Y250103D01*
X9770Y250159D01*
X9698Y250192D01*
X9631Y250231D01*
X9565Y250281D01*
X9498Y250331D01*
X9493Y250337D01*
X9482Y250348D01*
X9465Y250364D01*
X9448Y250387D01*
X9420Y250414D01*
X9393Y250453D01*
X9359Y250492D01*
X9326Y250542D01*
X9293Y250597D01*
X9260Y250653D01*
X9199Y250786D01*
X9149Y250942D01*
X9132Y251025D01*
X9121Y251114D01*
X9593Y251175D01*
Y251169D01*
X9598Y251158D01*
X9604Y251136D01*
X9609Y251108D01*
X9615Y251075D01*
X9626Y251036D01*
X9654Y250953D01*
X9692Y250853D01*
X9742Y250758D01*
X9798Y250670D01*
X9865Y250592D01*
X9876Y250586D01*
X9898Y250564D01*
X9942Y250536D01*
X9998Y250509D01*
X10064Y250475D01*
X10148Y250448D01*
X10242Y250425D01*
X10342Y250420D01*
X10375D01*
X10397Y250425D01*
X10458Y250431D01*
X10536Y250448D01*
X10625Y250475D01*
X10719Y250514D01*
X10814Y250570D01*
X10902Y250647D01*
X10914Y250658D01*
X10941Y250692D01*
X10975Y250742D01*
X11019Y250808D01*
X11063Y250892D01*
X11097Y250986D01*
X11124Y251097D01*
X11135Y251219D01*
Y251225D01*
Y251236D01*
Y251252D01*
X11130Y251274D01*
X11124Y251336D01*
X11108Y251408D01*
X11085Y251497D01*
X11047Y251585D01*
X10991Y251674D01*
X10919Y251757D01*
X10908Y251768D01*
X10880Y251791D01*
X10836Y251824D01*
X10775Y251863D01*
X10697Y251902D01*
X10603Y251935D01*
X10497Y251957D01*
X10381Y251968D01*
X10331D01*
X10292Y251963D01*
X10242Y251957D01*
X10186Y251946D01*
X10120Y251935D01*
X10048Y251918D01*
X10103Y252335D01*
X10131D01*
X10153Y252329D01*
X10225D01*
X10286Y252340D01*
X10358Y252351D01*
X10442Y252368D01*
X10536Y252396D01*
X10625Y252434D01*
X10719Y252484D01*
X10725D01*
X10730Y252490D01*
X10758Y252512D01*
X10797Y252551D01*
X10841Y252601D01*
X10886Y252673D01*
X10925Y252756D01*
X10952Y252851D01*
X10963Y252906D01*
Y252967D01*
Y252973D01*
Y252978D01*
Y253012D01*
X10952Y253056D01*
X10941Y253117D01*
X10919Y253184D01*
X10891Y253256D01*
X10847Y253328D01*
X10786Y253395D01*
X10780Y253400D01*
X10752Y253422D01*
X10714Y253450D01*
X10664Y253483D01*
X10597Y253511D01*
X10519Y253539D01*
X10431Y253561D01*
X10331Y253567D01*
X10286D01*
X10236Y253556D01*
X10170Y253544D01*
X10098Y253522D01*
X10025Y253495D01*
X9948Y253450D01*
X9876Y253395D01*
X9870Y253389D01*
X9848Y253361D01*
X9815Y253323D01*
X9776Y253267D01*
X9737Y253195D01*
X9698Y253106D01*
X9665Y253001D01*
X9642Y252878D01*
X9171Y252962D01*
Y252967D01*
X9176Y252984D01*
X9182Y253006D01*
X9187Y253039D01*
X9199Y253078D01*
X9215Y253123D01*
X9249Y253228D01*
X9304Y253350D01*
X9371Y253472D01*
X9454Y253589D01*
X9559Y253694D01*
X9565Y253700D01*
X9576Y253706D01*
X9593Y253717D01*
X9615Y253733D01*
X9642Y253755D01*
X9681Y253778D01*
X9720Y253800D01*
X9770Y253828D01*
X9881Y253872D01*
X10009Y253916D01*
X10159Y253944D01*
X10236Y253955D01*
X10375D01*
X10436Y253950D01*
D02*
G37*
G36*
X7539Y252213D02*
X8583D01*
Y251774D01*
X7539D01*
Y250719D01*
X7095D01*
Y251774D01*
X6052D01*
Y252213D01*
X7095D01*
Y253256D01*
X7539D01*
Y252213D01*
D02*
G37*
G36*
X18389Y250098D02*
X17862D01*
X16375Y253939D01*
X16930D01*
X17929Y251147D01*
Y251141D01*
X17934Y251130D01*
X17940Y251114D01*
X17951Y251091D01*
X17956Y251058D01*
X17967Y251025D01*
X17995Y250942D01*
X18029Y250847D01*
X18062Y250742D01*
X18128Y250520D01*
Y250525D01*
X18134Y250536D01*
X18140Y250553D01*
X18145Y250575D01*
X18162Y250636D01*
X18190Y250719D01*
X18217Y250814D01*
X18251Y250919D01*
X18289Y251030D01*
X18334Y251147D01*
X19377Y253939D01*
X19893D01*
X18389Y250098D01*
D02*
G37*
G36*
X12906D02*
X12368D01*
Y250636D01*
X12906D01*
Y250098D01*
D02*
G37*
G36*
X9887Y263927D02*
X9931D01*
X10037Y263916D01*
X10153Y263899D01*
X10275Y263872D01*
X10409Y263838D01*
X10536Y263794D01*
X10542D01*
X10553Y263789D01*
X10570Y263783D01*
X10592Y263772D01*
X10653Y263738D01*
X10730Y263700D01*
X10814Y263644D01*
X10903Y263578D01*
X10986Y263505D01*
X11063Y263417D01*
X11075Y263405D01*
X11097Y263372D01*
X11130Y263322D01*
X11174Y263250D01*
X11219Y263161D01*
X11269Y263050D01*
X11319Y262928D01*
X11358Y262790D01*
X10897Y262667D01*
Y262673D01*
X10891Y262679D01*
X10886Y262695D01*
X10880Y262717D01*
X10864Y262767D01*
X10842Y262834D01*
X10808Y262912D01*
X10769Y262984D01*
X10730Y263061D01*
X10680Y263128D01*
X10675Y263134D01*
X10658Y263156D01*
X10625Y263183D01*
X10586Y263222D01*
X10536Y263267D01*
X10470Y263311D01*
X10397Y263356D01*
X10314Y263394D01*
X10303Y263400D01*
X10275Y263411D01*
X10225Y263428D01*
X10159Y263450D01*
X10081Y263467D01*
X9992Y263483D01*
X9892Y263494D01*
X9787Y263500D01*
X9726D01*
X9698Y263494D01*
X9665D01*
X9582Y263489D01*
X9487Y263472D01*
X9382Y263456D01*
X9282Y263428D01*
X9182Y263389D01*
X9171Y263383D01*
X9138Y263372D01*
X9093Y263345D01*
X9038Y263317D01*
X8971Y263272D01*
X8899Y263228D01*
X8832Y263172D01*
X8771Y263111D01*
X8766Y263106D01*
X8744Y263084D01*
X8716Y263045D01*
X8682Y263000D01*
X8644Y262945D01*
X8605Y262878D01*
X8566Y262806D01*
X8527Y262728D01*
Y262723D01*
X8522Y262712D01*
X8516Y262695D01*
X8505Y262667D01*
X8494Y262634D01*
X8483Y262595D01*
X8466Y262551D01*
X8455Y262501D01*
X8427Y262384D01*
X8405Y262251D01*
X8388Y262112D01*
X8383Y261957D01*
Y261951D01*
Y261935D01*
Y261907D01*
X8388Y261874D01*
Y261829D01*
X8394Y261774D01*
X8399Y261718D01*
X8405Y261657D01*
X8427Y261519D01*
X8455Y261374D01*
X8499Y261230D01*
X8555Y261091D01*
Y261086D01*
X8566Y261074D01*
X8572Y261058D01*
X8588Y261036D01*
X8627Y260975D01*
X8688Y260897D01*
X8760Y260814D01*
X8849Y260730D01*
X8954Y260653D01*
X9071Y260581D01*
X9077D01*
X9088Y260575D01*
X9104Y260564D01*
X9132Y260553D01*
X9160Y260542D01*
X9199Y260531D01*
X9287Y260497D01*
X9398Y260470D01*
X9521Y260442D01*
X9654Y260420D01*
X9792Y260414D01*
X9848D01*
X9881Y260420D01*
X9915D01*
X9998Y260431D01*
X10098Y260442D01*
X10203Y260464D01*
X10320Y260497D01*
X10436Y260536D01*
X10442D01*
X10453Y260542D01*
X10464Y260547D01*
X10486Y260558D01*
X10547Y260586D01*
X10614Y260619D01*
X10692Y260658D01*
X10775Y260703D01*
X10853Y260753D01*
X10919Y260808D01*
Y261530D01*
X9787D01*
Y261985D01*
X11419D01*
Y260558D01*
X11413Y260553D01*
X11402Y260547D01*
X11380Y260531D01*
X11352Y260508D01*
X11319Y260486D01*
X11280Y260458D01*
X11230Y260425D01*
X11180Y260392D01*
X11063Y260320D01*
X10930Y260242D01*
X10791Y260170D01*
X10642Y260109D01*
X10636D01*
X10625Y260103D01*
X10603Y260098D01*
X10575Y260087D01*
X10536Y260075D01*
X10492Y260059D01*
X10442Y260048D01*
X10392Y260037D01*
X10270Y260009D01*
X10131Y259981D01*
X9981Y259964D01*
X9826Y259959D01*
X9770D01*
X9731Y259964D01*
X9681D01*
X9621Y259970D01*
X9554Y259981D01*
X9482Y259987D01*
X9321Y260020D01*
X9149Y260059D01*
X8971Y260120D01*
X8882Y260153D01*
X8794Y260198D01*
X8788Y260203D01*
X8771Y260209D01*
X8749Y260225D01*
X8716Y260242D01*
X8677Y260270D01*
X8638Y260297D01*
X8533Y260375D01*
X8422Y260475D01*
X8305Y260597D01*
X8194Y260736D01*
X8094Y260897D01*
Y260903D01*
X8083Y260919D01*
X8072Y260941D01*
X8055Y260980D01*
X8039Y261019D01*
X8022Y261074D01*
X8000Y261130D01*
X7978Y261197D01*
X7955Y261269D01*
X7933Y261352D01*
X7917Y261435D01*
X7900Y261524D01*
X7872Y261718D01*
X7861Y261924D01*
Y261929D01*
Y261951D01*
Y261979D01*
X7867Y262018D01*
Y262068D01*
X7872Y262129D01*
X7883Y262190D01*
X7889Y262262D01*
X7905Y262340D01*
X7917Y262423D01*
X7961Y262601D01*
X8016Y262784D01*
X8094Y262967D01*
X8100Y262973D01*
X8105Y262989D01*
X8116Y263012D01*
X8139Y263045D01*
X8161Y263089D01*
X8189Y263134D01*
X8266Y263239D01*
X8361Y263361D01*
X8477Y263478D01*
X8610Y263594D01*
X8688Y263644D01*
X8766Y263694D01*
X8771Y263700D01*
X8788Y263705D01*
X8810Y263716D01*
X8844Y263733D01*
X8888Y263750D01*
X8938Y263772D01*
X8993Y263794D01*
X9060Y263816D01*
X9132Y263838D01*
X9210Y263855D01*
X9293Y263877D01*
X9382Y263894D01*
X9576Y263922D01*
X9676Y263933D01*
X9854D01*
X9887Y263927D01*
D02*
G37*
G36*
X15187Y260026D02*
X14660D01*
X12651Y263039D01*
Y260026D01*
X12162D01*
Y263866D01*
X12684D01*
X14699Y260847D01*
Y263866D01*
X15187D01*
Y260026D01*
D02*
G37*
G36*
X17618Y263861D02*
X17729Y263855D01*
X17840Y263844D01*
X17951Y263827D01*
X18045Y263811D01*
X18051D01*
X18062Y263805D01*
X18079D01*
X18101Y263794D01*
X18162Y263777D01*
X18240Y263750D01*
X18328Y263711D01*
X18423Y263661D01*
X18517Y263605D01*
X18606Y263533D01*
X18611Y263528D01*
X18617Y263522D01*
X18634Y263505D01*
X18656Y263489D01*
X18711Y263433D01*
X18778Y263356D01*
X18850Y263261D01*
X18928Y263150D01*
X19000Y263023D01*
X19061Y262878D01*
Y262873D01*
X19067Y262862D01*
X19078Y262839D01*
X19083Y262806D01*
X19100Y262767D01*
X19111Y262723D01*
X19122Y262673D01*
X19139Y262612D01*
X19155Y262551D01*
X19166Y262479D01*
X19194Y262323D01*
X19211Y262151D01*
X19216Y261963D01*
Y261957D01*
Y261946D01*
Y261918D01*
Y261890D01*
X19211Y261852D01*
Y261807D01*
X19205Y261702D01*
X19189Y261580D01*
X19172Y261452D01*
X19144Y261319D01*
X19111Y261186D01*
Y261180D01*
X19105Y261169D01*
X19100Y261152D01*
X19094Y261130D01*
X19072Y261069D01*
X19039Y260991D01*
X19005Y260903D01*
X18961Y260814D01*
X18906Y260719D01*
X18850Y260630D01*
X18845Y260619D01*
X18822Y260592D01*
X18789Y260553D01*
X18745Y260503D01*
X18695Y260447D01*
X18634Y260392D01*
X18573Y260331D01*
X18500Y260281D01*
X18489Y260275D01*
X18467Y260259D01*
X18428Y260237D01*
X18373Y260209D01*
X18306Y260175D01*
X18228Y260148D01*
X18140Y260114D01*
X18040Y260087D01*
X18029D01*
X18012Y260081D01*
X17995Y260075D01*
X17940Y260070D01*
X17862Y260059D01*
X17773Y260048D01*
X17668Y260037D01*
X17551Y260031D01*
X17424Y260026D01*
X16042D01*
Y263866D01*
X17518D01*
X17618Y263861D01*
D02*
G37*
G36*
X19484Y235953D02*
X19509D01*
X19578Y235946D01*
X19655Y235935D01*
X19735Y235916D01*
X19822Y235895D01*
X19902Y235865D01*
X19906D01*
X19913Y235862D01*
X19924Y235855D01*
X19939Y235847D01*
X19975Y235829D01*
X20022Y235796D01*
X20077Y235760D01*
X20131Y235713D01*
X20182Y235658D01*
X20230Y235596D01*
Y235593D01*
X20233Y235589D01*
X20241Y235578D01*
X20248Y235567D01*
X20266Y235531D01*
X20288Y235483D01*
X20313Y235425D01*
X20332Y235356D01*
X20350Y235283D01*
X20357Y235203D01*
X20037Y235178D01*
Y235181D01*
Y235189D01*
X20033Y235199D01*
X20030Y235218D01*
X20019Y235258D01*
X20004Y235312D01*
X19982Y235370D01*
X19949Y235429D01*
X19909Y235483D01*
X19858Y235534D01*
X19851Y235538D01*
X19833Y235553D01*
X19796Y235574D01*
X19749Y235596D01*
X19687Y235618D01*
X19614Y235640D01*
X19523Y235654D01*
X19422Y235658D01*
X19371D01*
X19349Y235654D01*
X19320Y235651D01*
X19254Y235644D01*
X19181Y235629D01*
X19109Y235611D01*
X19039Y235582D01*
X19010Y235563D01*
X18981Y235545D01*
X18974Y235542D01*
X18959Y235527D01*
X18937Y235502D01*
X18916Y235472D01*
X18890Y235432D01*
X18868Y235389D01*
X18854Y235338D01*
X18846Y235279D01*
Y235272D01*
Y235258D01*
X18850Y235232D01*
X18857Y235203D01*
X18868Y235167D01*
X18887Y235130D01*
X18908Y235094D01*
X18941Y235057D01*
X18945Y235054D01*
X18963Y235043D01*
X18978Y235032D01*
X18992Y235025D01*
X19014Y235014D01*
X19039Y234999D01*
X19072Y234988D01*
X19109Y234974D01*
X19149Y234959D01*
X19196Y234941D01*
X19247Y234926D01*
X19305Y234908D01*
X19371Y234894D01*
X19443Y234875D01*
X19447D01*
X19462Y234872D01*
X19484Y234868D01*
X19509Y234861D01*
X19542Y234854D01*
X19582Y234843D01*
X19622Y234832D01*
X19666Y234821D01*
X19760Y234795D01*
X19851Y234770D01*
X19895Y234755D01*
X19935Y234741D01*
X19971Y234730D01*
X20000Y234715D01*
X20004D01*
X20011Y234712D01*
X20022Y234704D01*
X20037Y234697D01*
X20077Y234675D01*
X20124Y234646D01*
X20179Y234606D01*
X20233Y234562D01*
X20284Y234511D01*
X20328Y234457D01*
X20332Y234450D01*
X20346Y234431D01*
X20361Y234399D01*
X20383Y234355D01*
X20401Y234304D01*
X20419Y234242D01*
X20430Y234173D01*
X20434Y234100D01*
Y234097D01*
Y234093D01*
Y234082D01*
Y234067D01*
X20426Y234027D01*
X20419Y233976D01*
X20404Y233918D01*
X20386Y233856D01*
X20357Y233791D01*
X20317Y233722D01*
Y233718D01*
X20313Y233714D01*
X20295Y233693D01*
X20270Y233660D01*
X20233Y233623D01*
X20186Y233580D01*
X20128Y233532D01*
X20062Y233489D01*
X19986Y233449D01*
X19982D01*
X19975Y233445D01*
X19964Y233441D01*
X19949Y233434D01*
X19928Y233427D01*
X19902Y233416D01*
X19844Y233401D01*
X19775Y233383D01*
X19691Y233365D01*
X19600Y233354D01*
X19502Y233350D01*
X19443D01*
X19414Y233354D01*
X19382D01*
X19345Y233358D01*
X19301Y233361D01*
X19210Y233376D01*
X19116Y233390D01*
X19021Y233416D01*
X18930Y233449D01*
X18927D01*
X18919Y233452D01*
X18908Y233459D01*
X18894Y233467D01*
X18850Y233489D01*
X18799Y233521D01*
X18741Y233565D01*
X18679Y233616D01*
X18621Y233678D01*
X18566Y233747D01*
Y233751D01*
X18559Y233758D01*
X18555Y233769D01*
X18544Y233783D01*
X18537Y233802D01*
X18526Y233823D01*
X18501Y233878D01*
X18475Y233947D01*
X18453Y234024D01*
X18439Y234111D01*
X18431Y234202D01*
X18745Y234231D01*
Y234227D01*
Y234224D01*
X18748Y234213D01*
Y234198D01*
X18756Y234166D01*
X18766Y234118D01*
X18781Y234071D01*
X18796Y234016D01*
X18821Y233965D01*
X18846Y233918D01*
X18850Y233914D01*
X18861Y233900D01*
X18879Y233874D01*
X18908Y233849D01*
X18945Y233816D01*
X18985Y233783D01*
X19039Y233751D01*
X19098Y233722D01*
X19101D01*
X19105Y233718D01*
X19116Y233714D01*
X19127Y233711D01*
X19163Y233700D01*
X19210Y233685D01*
X19269Y233671D01*
X19334Y233660D01*
X19407Y233652D01*
X19487Y233649D01*
X19520D01*
X19556Y233652D01*
X19600Y233656D01*
X19651Y233663D01*
X19709Y233671D01*
X19767Y233685D01*
X19822Y233703D01*
X19829Y233707D01*
X19848Y233714D01*
X19873Y233729D01*
X19906Y233743D01*
X19939Y233769D01*
X19975Y233794D01*
X20011Y233823D01*
X20040Y233860D01*
X20044Y233863D01*
X20051Y233878D01*
X20062Y233896D01*
X20077Y233925D01*
X20091Y233955D01*
X20102Y233991D01*
X20110Y234031D01*
X20113Y234075D01*
Y234078D01*
Y234097D01*
X20110Y234118D01*
X20106Y234147D01*
X20095Y234177D01*
X20084Y234213D01*
X20066Y234249D01*
X20040Y234282D01*
X20037Y234286D01*
X20026Y234297D01*
X20011Y234311D01*
X19986Y234333D01*
X19957Y234355D01*
X19917Y234380D01*
X19869Y234406D01*
X19815Y234428D01*
X19811Y234431D01*
X19793Y234435D01*
X19764Y234446D01*
X19746Y234450D01*
X19720Y234457D01*
X19695Y234468D01*
X19662Y234475D01*
X19625Y234486D01*
X19582Y234497D01*
X19538Y234508D01*
X19487Y234522D01*
X19429Y234537D01*
X19367Y234552D01*
X19363D01*
X19352Y234555D01*
X19334Y234559D01*
X19312Y234566D01*
X19283Y234573D01*
X19251Y234581D01*
X19178Y234602D01*
X19098Y234628D01*
X19014Y234653D01*
X18941Y234679D01*
X18908Y234693D01*
X18879Y234708D01*
X18876D01*
X18872Y234712D01*
X18850Y234726D01*
X18817Y234744D01*
X18781Y234773D01*
X18737Y234806D01*
X18694Y234846D01*
X18650Y234894D01*
X18613Y234945D01*
X18610Y234952D01*
X18599Y234970D01*
X18584Y234999D01*
X18570Y235036D01*
X18555Y235083D01*
X18541Y235138D01*
X18530Y235196D01*
X18526Y235258D01*
Y235261D01*
Y235265D01*
Y235276D01*
Y235290D01*
X18533Y235327D01*
X18541Y235374D01*
X18552Y235429D01*
X18570Y235491D01*
X18595Y235553D01*
X18632Y235614D01*
Y235618D01*
X18635Y235622D01*
X18654Y235644D01*
X18679Y235673D01*
X18712Y235709D01*
X18756Y235749D01*
X18810Y235793D01*
X18876Y235833D01*
X18948Y235869D01*
X18952D01*
X18959Y235873D01*
X18970Y235876D01*
X18985Y235884D01*
X19003Y235891D01*
X19028Y235898D01*
X19083Y235913D01*
X19152Y235927D01*
X19232Y235942D01*
X19316Y235953D01*
X19411Y235957D01*
X19458D01*
X19484Y235953D01*
D02*
G37*
G36*
X29486Y234890D02*
X30589Y233394D01*
X30149D01*
X29253Y234664D01*
X28842Y234268D01*
Y233394D01*
X28507D01*
Y235913D01*
X28842D01*
Y234661D01*
X30087Y235913D01*
X30542D01*
X29486Y234890D01*
D02*
G37*
G36*
X27961Y233394D02*
X27615D01*
X26298Y235370D01*
Y233394D01*
X25977D01*
Y235913D01*
X26319D01*
X27641Y233933D01*
Y235913D01*
X27961D01*
Y233394D01*
D02*
G37*
G36*
X37494D02*
X37167D01*
X36639Y235312D01*
Y235316D01*
X36635Y235323D01*
X36632Y235334D01*
X36628Y235352D01*
X36617Y235392D01*
X36606Y235440D01*
X36592Y235491D01*
X36577Y235538D01*
X36566Y235578D01*
X36562Y235596D01*
X36559Y235607D01*
Y235603D01*
X36555Y235600D01*
X36551Y235578D01*
X36544Y235545D01*
X36533Y235505D01*
X36522Y235461D01*
X36508Y235410D01*
X36497Y235360D01*
X36482Y235312D01*
X35951Y233394D01*
X35601D01*
X34943Y235913D01*
X35288D01*
X35663Y234260D01*
Y234257D01*
X35667Y234249D01*
X35671Y234235D01*
X35674Y234217D01*
X35678Y234191D01*
X35685Y234166D01*
X35692Y234133D01*
X35700Y234097D01*
X35718Y234020D01*
X35736Y233933D01*
X35754Y233838D01*
X35772Y233743D01*
Y233747D01*
X35776Y233762D01*
X35783Y233780D01*
X35787Y233809D01*
X35794Y233838D01*
X35805Y233874D01*
X35823Y233955D01*
X35845Y234035D01*
X35853Y234075D01*
X35864Y234111D01*
X35871Y234144D01*
X35878Y234173D01*
X35885Y234195D01*
X35889Y234209D01*
X36366Y235913D01*
X36770D01*
X37127Y234635D01*
Y234632D01*
X37134Y234613D01*
X37141Y234588D01*
X37148Y234555D01*
X37159Y234511D01*
X37174Y234464D01*
X37188Y234409D01*
X37203Y234348D01*
X37221Y234278D01*
X37236Y234209D01*
X37268Y234060D01*
X37301Y233904D01*
X37327Y233743D01*
Y233747D01*
X37330Y233754D01*
Y233769D01*
X37338Y233787D01*
X37341Y233809D01*
X37349Y233834D01*
X37352Y233867D01*
X37363Y233904D01*
X37381Y233984D01*
X37403Y234078D01*
X37425Y234180D01*
X37454Y234293D01*
X37847Y235913D01*
X38186D01*
X37494Y233394D01*
D02*
G37*
G36*
X39700Y235909D02*
X39733D01*
X39809Y235906D01*
X39889Y235895D01*
X39977Y235884D01*
X40057Y235865D01*
X40097Y235855D01*
X40130Y235844D01*
X40133D01*
X40137Y235840D01*
X40159Y235829D01*
X40191Y235815D01*
X40231Y235789D01*
X40275Y235756D01*
X40323Y235713D01*
X40366Y235662D01*
X40410Y235603D01*
Y235600D01*
X40413Y235596D01*
X40428Y235574D01*
X40443Y235538D01*
X40464Y235491D01*
X40483Y235436D01*
X40501Y235370D01*
X40512Y235301D01*
X40515Y235225D01*
Y235221D01*
Y235214D01*
Y235199D01*
X40512Y235181D01*
Y235156D01*
X40508Y235130D01*
X40494Y235068D01*
X40472Y234996D01*
X40443Y234919D01*
X40399Y234843D01*
X40370Y234806D01*
X40341Y234770D01*
X40337Y234766D01*
X40333Y234763D01*
X40323Y234752D01*
X40308Y234741D01*
X40290Y234726D01*
X40268Y234712D01*
X40239Y234693D01*
X40210Y234672D01*
X40173Y234653D01*
X40133Y234635D01*
X40089Y234613D01*
X40042Y234595D01*
X39988Y234581D01*
X39933Y234562D01*
X39871Y234552D01*
X39806Y234541D01*
X39813Y234537D01*
X39827Y234530D01*
X39849Y234515D01*
X39878Y234501D01*
X39944Y234460D01*
X39977Y234435D01*
X40006Y234413D01*
X40013Y234406D01*
X40031Y234388D01*
X40060Y234359D01*
X40097Y234322D01*
X40137Y234271D01*
X40184Y234217D01*
X40231Y234151D01*
X40282Y234078D01*
X40716Y233394D01*
X40301D01*
X39969Y233918D01*
Y233922D01*
X39962Y233929D01*
X39955Y233940D01*
X39944Y233955D01*
X39918Y233995D01*
X39886Y234046D01*
X39846Y234100D01*
X39806Y234158D01*
X39766Y234213D01*
X39729Y234264D01*
X39726Y234268D01*
X39715Y234282D01*
X39696Y234304D01*
X39671Y234329D01*
X39616Y234384D01*
X39587Y234409D01*
X39558Y234431D01*
X39554Y234435D01*
X39547Y234439D01*
X39533Y234446D01*
X39511Y234457D01*
X39489Y234468D01*
X39463Y234479D01*
X39405Y234497D01*
X39402D01*
X39394Y234501D01*
X39380D01*
X39362Y234504D01*
X39336Y234508D01*
X39307D01*
X39267Y234511D01*
X38837D01*
Y233394D01*
X38502D01*
Y235913D01*
X39671D01*
X39700Y235909D01*
D02*
G37*
G36*
X33916D02*
X33978Y235906D01*
X34043Y235902D01*
X34105Y235895D01*
X34160Y235887D01*
X34167D01*
X34193Y235880D01*
X34225Y235873D01*
X34269Y235862D01*
X34317Y235844D01*
X34367Y235822D01*
X34422Y235796D01*
X34469Y235767D01*
X34477Y235764D01*
X34491Y235753D01*
X34513Y235731D01*
X34542Y235705D01*
X34575Y235673D01*
X34608Y235629D01*
X34644Y235582D01*
X34673Y235527D01*
X34677Y235520D01*
X34684Y235502D01*
X34699Y235469D01*
X34713Y235425D01*
X34724Y235374D01*
X34739Y235316D01*
X34746Y235250D01*
X34750Y235181D01*
Y235178D01*
Y235167D01*
Y235152D01*
X34746Y235127D01*
X34742Y235101D01*
X34739Y235068D01*
X34731Y235032D01*
X34724Y234992D01*
X34699Y234908D01*
X34684Y234864D01*
X34662Y234817D01*
X34637Y234770D01*
X34611Y234726D01*
X34579Y234682D01*
X34542Y234639D01*
X34538Y234635D01*
X34531Y234628D01*
X34520Y234617D01*
X34502Y234606D01*
X34480Y234588D01*
X34451Y234570D01*
X34415Y234548D01*
X34375Y234530D01*
X34327Y234508D01*
X34273Y234486D01*
X34215Y234468D01*
X34145Y234453D01*
X34073Y234439D01*
X33992Y234428D01*
X33902Y234420D01*
X33807Y234417D01*
X33163D01*
Y233394D01*
X32828D01*
Y235913D01*
X33862D01*
X33916Y235909D01*
D02*
G37*
G36*
X25391Y233394D02*
X25056D01*
Y235913D01*
X25391D01*
Y233394D01*
D02*
G37*
G36*
X23364Y233693D02*
X24605D01*
Y233394D01*
X23029D01*
Y235913D01*
X23364D01*
Y233693D01*
D02*
G37*
G36*
X22698Y235614D02*
X21868D01*
Y233394D01*
X21533D01*
Y235614D01*
X20703D01*
Y235913D01*
X22698D01*
Y235614D01*
D02*
G37*
G36*
X32591Y232695D02*
X30542D01*
Y232917D01*
X32591D01*
Y232695D01*
D02*
G37*
G36*
X211917Y70207D02*
Y69141D01*
X211582D01*
Y70207D01*
X210611Y71660D01*
X211015D01*
X211510Y70895D01*
Y70892D01*
X211517Y70885D01*
X211524Y70874D01*
X211535Y70859D01*
X211546Y70841D01*
X211561Y70819D01*
X211597Y70764D01*
X211637Y70699D01*
X211677Y70626D01*
X211724Y70550D01*
X211768Y70469D01*
Y70473D01*
X211772Y70480D01*
X211779Y70491D01*
X211790Y70506D01*
X211801Y70524D01*
X211815Y70546D01*
X211848Y70600D01*
X211888Y70666D01*
X211935Y70742D01*
X211990Y70826D01*
X212048Y70917D01*
X212532Y71660D01*
X212922D01*
X211917Y70207D01*
D02*
G37*
G36*
X219849Y69141D02*
X219521D01*
X218993Y71059D01*
Y71063D01*
X218990Y71070D01*
X218986Y71081D01*
X218983Y71099D01*
X218972Y71139D01*
X218961Y71187D01*
X218946Y71237D01*
X218932Y71285D01*
X218921Y71325D01*
X218917Y71343D01*
X218913Y71354D01*
Y71350D01*
X218910Y71347D01*
X218906Y71325D01*
X218899Y71292D01*
X218888Y71252D01*
X218877Y71208D01*
X218862Y71157D01*
X218851Y71106D01*
X218837Y71059D01*
X218305Y69141D01*
X217956D01*
X217297Y71660D01*
X217643D01*
X218018Y70007D01*
Y70004D01*
X218021Y69996D01*
X218025Y69982D01*
X218029Y69964D01*
X218033Y69938D01*
X218040Y69913D01*
X218047Y69880D01*
X218054Y69843D01*
X218073Y69767D01*
X218091Y69680D01*
X218109Y69585D01*
X218127Y69490D01*
Y69494D01*
X218131Y69509D01*
X218138Y69527D01*
X218142Y69556D01*
X218149Y69585D01*
X218160Y69621D01*
X218178Y69701D01*
X218200Y69782D01*
X218207Y69822D01*
X218218Y69858D01*
X218225Y69891D01*
X218233Y69920D01*
X218240Y69942D01*
X218244Y69956D01*
X218720Y71660D01*
X219125D01*
X219481Y70382D01*
Y70379D01*
X219489Y70360D01*
X219496Y70335D01*
X219503Y70302D01*
X219514Y70258D01*
X219529Y70211D01*
X219543Y70157D01*
X219558Y70095D01*
X219576Y70025D01*
X219590Y69956D01*
X219623Y69807D01*
X219656Y69651D01*
X219681Y69490D01*
Y69494D01*
X219685Y69501D01*
Y69516D01*
X219692Y69534D01*
X219696Y69556D01*
X219703Y69581D01*
X219707Y69614D01*
X219718Y69651D01*
X219736Y69731D01*
X219758Y69825D01*
X219780Y69927D01*
X219809Y70040D01*
X220202Y71660D01*
X220540D01*
X219849Y69141D01*
D02*
G37*
G36*
X222055Y71656D02*
X222087D01*
X222164Y71653D01*
X222244Y71642D01*
X222331Y71631D01*
X222411Y71613D01*
X222451Y71601D01*
X222484Y71591D01*
X222488D01*
X222492Y71587D01*
X222513Y71576D01*
X222546Y71561D01*
X222586Y71536D01*
X222630Y71503D01*
X222677Y71460D01*
X222721Y71409D01*
X222764Y71350D01*
Y71347D01*
X222768Y71343D01*
X222783Y71321D01*
X222797Y71285D01*
X222819Y71237D01*
X222837Y71183D01*
X222855Y71117D01*
X222866Y71048D01*
X222870Y70972D01*
Y70968D01*
Y70961D01*
Y70946D01*
X222866Y70928D01*
Y70903D01*
X222863Y70877D01*
X222848Y70815D01*
X222826Y70742D01*
X222797Y70666D01*
X222754Y70590D01*
X222724Y70553D01*
X222695Y70517D01*
X222692Y70513D01*
X222688Y70510D01*
X222677Y70499D01*
X222663Y70488D01*
X222644Y70473D01*
X222622Y70459D01*
X222593Y70440D01*
X222564Y70419D01*
X222528Y70400D01*
X222488Y70382D01*
X222444Y70360D01*
X222397Y70342D01*
X222342Y70328D01*
X222288Y70309D01*
X222226Y70298D01*
X222160Y70288D01*
X222167Y70284D01*
X222182Y70277D01*
X222204Y70262D01*
X222233Y70248D01*
X222299Y70207D01*
X222331Y70182D01*
X222360Y70160D01*
X222368Y70153D01*
X222386Y70135D01*
X222415Y70105D01*
X222451Y70069D01*
X222492Y70018D01*
X222539Y69964D01*
X222586Y69898D01*
X222637Y69825D01*
X223070Y69141D01*
X222655D01*
X222324Y69665D01*
Y69669D01*
X222317Y69676D01*
X222309Y69687D01*
X222299Y69701D01*
X222273Y69741D01*
X222240Y69792D01*
X222200Y69847D01*
X222160Y69905D01*
X222120Y69960D01*
X222084Y70011D01*
X222080Y70015D01*
X222069Y70029D01*
X222051Y70051D01*
X222026Y70076D01*
X221971Y70131D01*
X221942Y70157D01*
X221913Y70178D01*
X221909Y70182D01*
X221902Y70186D01*
X221887Y70193D01*
X221865Y70204D01*
X221844Y70215D01*
X221818Y70226D01*
X221760Y70244D01*
X221756D01*
X221749Y70248D01*
X221734D01*
X221716Y70251D01*
X221691Y70255D01*
X221661D01*
X221621Y70258D01*
X221192D01*
Y69141D01*
X220857D01*
Y71660D01*
X222026D01*
X222055Y71656D01*
D02*
G37*
G36*
X216271D02*
X216333Y71653D01*
X216398Y71649D01*
X216460Y71642D01*
X216515Y71634D01*
X216522D01*
X216547Y71627D01*
X216580Y71620D01*
X216624Y71609D01*
X216671Y71591D01*
X216722Y71569D01*
X216777Y71543D01*
X216824Y71514D01*
X216831Y71511D01*
X216846Y71500D01*
X216868Y71478D01*
X216897Y71452D01*
X216930Y71420D01*
X216962Y71376D01*
X216999Y71329D01*
X217028Y71274D01*
X217032Y71267D01*
X217039Y71249D01*
X217053Y71216D01*
X217068Y71172D01*
X217079Y71121D01*
X217093Y71063D01*
X217101Y70997D01*
X217104Y70928D01*
Y70925D01*
Y70914D01*
Y70899D01*
X217101Y70874D01*
X217097Y70848D01*
X217093Y70815D01*
X217086Y70779D01*
X217079Y70739D01*
X217053Y70655D01*
X217039Y70612D01*
X217017Y70564D01*
X216991Y70517D01*
X216966Y70473D01*
X216933Y70429D01*
X216897Y70386D01*
X216893Y70382D01*
X216886Y70375D01*
X216875Y70364D01*
X216857Y70353D01*
X216835Y70335D01*
X216806Y70317D01*
X216769Y70295D01*
X216729Y70277D01*
X216682Y70255D01*
X216627Y70233D01*
X216569Y70215D01*
X216500Y70200D01*
X216427Y70186D01*
X216347Y70175D01*
X216256Y70167D01*
X216161Y70164D01*
X215517D01*
Y69141D01*
X215182D01*
Y71660D01*
X216216D01*
X216271Y71656D01*
D02*
G37*
G36*
X210607Y69141D02*
X210228D01*
X209933Y69905D01*
X208878D01*
X208605Y69141D01*
X208252D01*
X209213Y71660D01*
X209577D01*
X210607Y69141D01*
D02*
G37*
G36*
X206890Y69439D02*
X208132D01*
Y69141D01*
X206556D01*
Y71660D01*
X206890D01*
Y69439D01*
D02*
G37*
G36*
X206050Y71361D02*
X204561D01*
Y70593D01*
X205955D01*
Y70295D01*
X204561D01*
Y69439D01*
X206108D01*
Y69141D01*
X204226D01*
Y71660D01*
X206050D01*
Y71361D01*
D02*
G37*
G36*
X202883Y71656D02*
X202916D01*
X202992Y71653D01*
X203072Y71642D01*
X203159Y71631D01*
X203239Y71613D01*
X203279Y71601D01*
X203312Y71591D01*
X203316D01*
X203320Y71587D01*
X203341Y71576D01*
X203374Y71561D01*
X203414Y71536D01*
X203458Y71503D01*
X203505Y71460D01*
X203549Y71409D01*
X203593Y71350D01*
Y71347D01*
X203596Y71343D01*
X203611Y71321D01*
X203625Y71285D01*
X203647Y71237D01*
X203665Y71183D01*
X203684Y71117D01*
X203695Y71048D01*
X203698Y70972D01*
Y70968D01*
Y70961D01*
Y70946D01*
X203695Y70928D01*
Y70903D01*
X203691Y70877D01*
X203676Y70815D01*
X203655Y70742D01*
X203625Y70666D01*
X203582Y70590D01*
X203553Y70553D01*
X203523Y70517D01*
X203520Y70513D01*
X203516Y70510D01*
X203505Y70499D01*
X203491Y70488D01*
X203472Y70473D01*
X203451Y70459D01*
X203421Y70440D01*
X203392Y70419D01*
X203356Y70400D01*
X203316Y70382D01*
X203272Y70360D01*
X203225Y70342D01*
X203170Y70328D01*
X203116Y70309D01*
X203054Y70298D01*
X202988Y70288D01*
X202996Y70284D01*
X203010Y70277D01*
X203032Y70262D01*
X203061Y70248D01*
X203127Y70207D01*
X203159Y70182D01*
X203189Y70160D01*
X203196Y70153D01*
X203214Y70135D01*
X203243Y70105D01*
X203279Y70069D01*
X203320Y70018D01*
X203367Y69964D01*
X203414Y69898D01*
X203465Y69825D01*
X203898Y69141D01*
X203483D01*
X203152Y69665D01*
Y69669D01*
X203145Y69676D01*
X203138Y69687D01*
X203127Y69701D01*
X203101Y69741D01*
X203068Y69792D01*
X203028Y69847D01*
X202988Y69905D01*
X202948Y69960D01*
X202912Y70011D01*
X202908Y70015D01*
X202897Y70029D01*
X202879Y70051D01*
X202854Y70076D01*
X202799Y70131D01*
X202770Y70157D01*
X202741Y70178D01*
X202737Y70182D01*
X202730Y70186D01*
X202715Y70193D01*
X202694Y70204D01*
X202672Y70215D01*
X202646Y70226D01*
X202588Y70244D01*
X202584D01*
X202577Y70248D01*
X202562D01*
X202544Y70251D01*
X202519Y70255D01*
X202490D01*
X202450Y70258D01*
X202020D01*
Y69141D01*
X201685D01*
Y71660D01*
X202854D01*
X202883Y71656D01*
D02*
G37*
G36*
X214946Y68442D02*
X212896D01*
Y68664D01*
X214946D01*
Y68442D01*
D02*
G37*
G36*
X35811Y-3282D02*
X35836D01*
X35906Y-3289D01*
X35982Y-3300D01*
X36062Y-3318D01*
X36150Y-3340D01*
X36230Y-3369D01*
X36233D01*
X36241Y-3373D01*
X36252Y-3380D01*
X36266Y-3387D01*
X36303Y-3406D01*
X36350Y-3438D01*
X36404Y-3475D01*
X36459Y-3522D01*
X36510Y-3577D01*
X36557Y-3639D01*
Y-3642D01*
X36561Y-3646D01*
X36568Y-3657D01*
X36575Y-3668D01*
X36594Y-3704D01*
X36615Y-3751D01*
X36641Y-3810D01*
X36659Y-3879D01*
X36677Y-3952D01*
X36685Y-4032D01*
X36364Y-4057D01*
Y-4054D01*
Y-4046D01*
X36361Y-4035D01*
X36357Y-4017D01*
X36346Y-3977D01*
X36332Y-3923D01*
X36310Y-3864D01*
X36277Y-3806D01*
X36237Y-3751D01*
X36186Y-3700D01*
X36179Y-3697D01*
X36160Y-3682D01*
X36124Y-3661D01*
X36077Y-3639D01*
X36015Y-3617D01*
X35942Y-3595D01*
X35851Y-3580D01*
X35749Y-3577D01*
X35698D01*
X35676Y-3580D01*
X35647Y-3584D01*
X35582Y-3591D01*
X35509Y-3606D01*
X35436Y-3624D01*
X35367Y-3653D01*
X35338Y-3671D01*
X35309Y-3690D01*
X35302Y-3693D01*
X35287Y-3708D01*
X35265Y-3733D01*
X35243Y-3762D01*
X35218Y-3802D01*
X35196Y-3846D01*
X35181Y-3897D01*
X35174Y-3955D01*
Y-3963D01*
Y-3977D01*
X35178Y-4003D01*
X35185Y-4032D01*
X35196Y-4068D01*
X35214Y-4104D01*
X35236Y-4141D01*
X35269Y-4177D01*
X35272Y-4181D01*
X35291Y-4192D01*
X35305Y-4203D01*
X35320Y-4210D01*
X35342Y-4221D01*
X35367Y-4236D01*
X35400Y-4247D01*
X35436Y-4261D01*
X35476Y-4276D01*
X35524Y-4294D01*
X35574Y-4308D01*
X35633Y-4327D01*
X35698Y-4341D01*
X35771Y-4359D01*
X35775D01*
X35789Y-4363D01*
X35811Y-4367D01*
X35836Y-4374D01*
X35869Y-4381D01*
X35909Y-4392D01*
X35949Y-4403D01*
X35993Y-4414D01*
X36088Y-4439D01*
X36179Y-4465D01*
X36222Y-4479D01*
X36262Y-4494D01*
X36299Y-4505D01*
X36328Y-4519D01*
X36332D01*
X36339Y-4523D01*
X36350Y-4530D01*
X36364Y-4538D01*
X36404Y-4560D01*
X36452Y-4589D01*
X36506Y-4629D01*
X36561Y-4672D01*
X36612Y-4723D01*
X36656Y-4778D01*
X36659Y-4785D01*
X36674Y-4803D01*
X36688Y-4836D01*
X36710Y-4880D01*
X36728Y-4931D01*
X36746Y-4993D01*
X36757Y-5062D01*
X36761Y-5135D01*
Y-5138D01*
Y-5142D01*
Y-5153D01*
Y-5167D01*
X36754Y-5207D01*
X36746Y-5258D01*
X36732Y-5317D01*
X36714Y-5378D01*
X36685Y-5444D01*
X36645Y-5513D01*
Y-5517D01*
X36641Y-5520D01*
X36623Y-5542D01*
X36597Y-5575D01*
X36561Y-5612D01*
X36514Y-5655D01*
X36455Y-5703D01*
X36390Y-5746D01*
X36313Y-5786D01*
X36310D01*
X36303Y-5790D01*
X36292Y-5793D01*
X36277Y-5801D01*
X36255Y-5808D01*
X36230Y-5819D01*
X36171Y-5833D01*
X36102Y-5852D01*
X36018Y-5870D01*
X35928Y-5881D01*
X35829Y-5884D01*
X35771D01*
X35742Y-5881D01*
X35709D01*
X35673Y-5877D01*
X35629Y-5874D01*
X35538Y-5859D01*
X35443Y-5844D01*
X35349Y-5819D01*
X35258Y-5786D01*
X35254D01*
X35247Y-5783D01*
X35236Y-5775D01*
X35221Y-5768D01*
X35178Y-5746D01*
X35127Y-5713D01*
X35069Y-5670D01*
X35007Y-5619D01*
X34948Y-5557D01*
X34894Y-5488D01*
Y-5484D01*
X34887Y-5477D01*
X34883Y-5466D01*
X34872Y-5451D01*
X34865Y-5433D01*
X34854Y-5411D01*
X34828Y-5357D01*
X34803Y-5288D01*
X34781Y-5211D01*
X34766Y-5124D01*
X34759Y-5033D01*
X35072Y-5004D01*
Y-5007D01*
Y-5011D01*
X35076Y-5022D01*
Y-5036D01*
X35083Y-5069D01*
X35094Y-5116D01*
X35109Y-5164D01*
X35123Y-5218D01*
X35149Y-5269D01*
X35174Y-5317D01*
X35178Y-5320D01*
X35189Y-5335D01*
X35207Y-5360D01*
X35236Y-5386D01*
X35272Y-5419D01*
X35312Y-5451D01*
X35367Y-5484D01*
X35425Y-5513D01*
X35429D01*
X35432Y-5517D01*
X35443Y-5520D01*
X35454Y-5524D01*
X35491Y-5535D01*
X35538Y-5550D01*
X35596Y-5564D01*
X35662Y-5575D01*
X35735Y-5582D01*
X35815Y-5586D01*
X35847D01*
X35884Y-5582D01*
X35928Y-5579D01*
X35978Y-5571D01*
X36037Y-5564D01*
X36095Y-5550D01*
X36150Y-5531D01*
X36157Y-5528D01*
X36175Y-5520D01*
X36200Y-5506D01*
X36233Y-5491D01*
X36266Y-5466D01*
X36303Y-5440D01*
X36339Y-5411D01*
X36368Y-5375D01*
X36372Y-5371D01*
X36379Y-5357D01*
X36390Y-5339D01*
X36404Y-5309D01*
X36419Y-5280D01*
X36430Y-5244D01*
X36437Y-5204D01*
X36441Y-5160D01*
Y-5156D01*
Y-5138D01*
X36437Y-5116D01*
X36434Y-5087D01*
X36423Y-5058D01*
X36412Y-5022D01*
X36393Y-4985D01*
X36368Y-4953D01*
X36364Y-4949D01*
X36353Y-4938D01*
X36339Y-4924D01*
X36313Y-4902D01*
X36284Y-4880D01*
X36244Y-4854D01*
X36197Y-4829D01*
X36142Y-4807D01*
X36139Y-4803D01*
X36121Y-4800D01*
X36091Y-4789D01*
X36073Y-4785D01*
X36048Y-4778D01*
X36022Y-4767D01*
X35989Y-4760D01*
X35953Y-4749D01*
X35909Y-4738D01*
X35866Y-4727D01*
X35815Y-4712D01*
X35756Y-4698D01*
X35695Y-4683D01*
X35691D01*
X35680Y-4680D01*
X35662Y-4676D01*
X35640Y-4669D01*
X35611Y-4662D01*
X35578Y-4654D01*
X35505Y-4632D01*
X35425Y-4607D01*
X35342Y-4581D01*
X35269Y-4556D01*
X35236Y-4541D01*
X35207Y-4527D01*
X35203D01*
X35199Y-4523D01*
X35178Y-4509D01*
X35145Y-4490D01*
X35109Y-4461D01*
X35065Y-4428D01*
X35021Y-4389D01*
X34977Y-4341D01*
X34941Y-4290D01*
X34938Y-4283D01*
X34927Y-4265D01*
X34912Y-4236D01*
X34897Y-4199D01*
X34883Y-4152D01*
X34868Y-4097D01*
X34857Y-4039D01*
X34854Y-3977D01*
Y-3974D01*
Y-3970D01*
Y-3959D01*
Y-3944D01*
X34861Y-3908D01*
X34868Y-3861D01*
X34879Y-3806D01*
X34897Y-3744D01*
X34923Y-3682D01*
X34959Y-3620D01*
Y-3617D01*
X34963Y-3613D01*
X34981Y-3591D01*
X35007Y-3562D01*
X35039Y-3526D01*
X35083Y-3486D01*
X35138Y-3442D01*
X35203Y-3402D01*
X35276Y-3366D01*
X35280D01*
X35287Y-3362D01*
X35298Y-3358D01*
X35312Y-3351D01*
X35331Y-3344D01*
X35356Y-3337D01*
X35411Y-3322D01*
X35480Y-3307D01*
X35560Y-3293D01*
X35644Y-3282D01*
X35738Y-3278D01*
X35786D01*
X35811Y-3282D01*
D02*
G37*
G36*
X46192Y-5841D02*
X45865D01*
X45337Y-3923D01*
Y-3919D01*
X45333Y-3912D01*
X45330Y-3901D01*
X45326Y-3883D01*
X45315Y-3842D01*
X45304Y-3795D01*
X45290Y-3744D01*
X45275Y-3697D01*
X45264Y-3657D01*
X45261Y-3639D01*
X45257Y-3628D01*
Y-3631D01*
X45253Y-3635D01*
X45250Y-3657D01*
X45242Y-3690D01*
X45231Y-3730D01*
X45221Y-3773D01*
X45206Y-3824D01*
X45195Y-3875D01*
X45180Y-3923D01*
X44649Y-5841D01*
X44300D01*
X43641Y-3322D01*
X43986D01*
X44361Y-4975D01*
Y-4978D01*
X44365Y-4985D01*
X44369Y-5000D01*
X44372Y-5018D01*
X44376Y-5044D01*
X44383Y-5069D01*
X44390Y-5102D01*
X44398Y-5138D01*
X44416Y-5215D01*
X44434Y-5302D01*
X44452Y-5397D01*
X44471Y-5491D01*
Y-5488D01*
X44474Y-5473D01*
X44482Y-5455D01*
X44485Y-5426D01*
X44493Y-5397D01*
X44503Y-5360D01*
X44522Y-5280D01*
X44543Y-5200D01*
X44551Y-5160D01*
X44562Y-5124D01*
X44569Y-5091D01*
X44576Y-5062D01*
X44583Y-5040D01*
X44587Y-5026D01*
X45064Y-3322D01*
X45468D01*
X45825Y-4600D01*
Y-4603D01*
X45832Y-4621D01*
X45839Y-4647D01*
X45847Y-4680D01*
X45858Y-4723D01*
X45872Y-4771D01*
X45887Y-4825D01*
X45901Y-4887D01*
X45919Y-4956D01*
X45934Y-5026D01*
X45967Y-5175D01*
X45999Y-5331D01*
X46025Y-5491D01*
Y-5488D01*
X46029Y-5480D01*
Y-5466D01*
X46036Y-5448D01*
X46040Y-5426D01*
X46047Y-5400D01*
X46050Y-5368D01*
X46061Y-5331D01*
X46079Y-5251D01*
X46101Y-5156D01*
X46123Y-5055D01*
X46152Y-4942D01*
X46545Y-3322D01*
X46884D01*
X46192Y-5841D01*
D02*
G37*
G36*
X34315Y-4778D02*
Y-4782D01*
Y-4796D01*
Y-4814D01*
Y-4840D01*
X34311Y-4873D01*
Y-4909D01*
X34308Y-4953D01*
X34304Y-4996D01*
X34293Y-5095D01*
X34279Y-5196D01*
X34257Y-5295D01*
X34242Y-5342D01*
X34228Y-5386D01*
Y-5390D01*
X34224Y-5397D01*
X34217Y-5408D01*
X34209Y-5422D01*
X34188Y-5462D01*
X34155Y-5513D01*
X34111Y-5571D01*
X34060Y-5630D01*
X33995Y-5692D01*
X33915Y-5746D01*
X33911D01*
X33904Y-5754D01*
X33893Y-5757D01*
X33875Y-5768D01*
X33853Y-5779D01*
X33824Y-5790D01*
X33795Y-5801D01*
X33758Y-5815D01*
X33718Y-5830D01*
X33674Y-5841D01*
X33627Y-5852D01*
X33573Y-5863D01*
X33518Y-5870D01*
X33460Y-5877D01*
X33329Y-5884D01*
X33296D01*
X33270Y-5881D01*
X33241D01*
X33205Y-5877D01*
X33165Y-5874D01*
X33125Y-5870D01*
X33034Y-5855D01*
X32936Y-5833D01*
X32841Y-5804D01*
X32750Y-5764D01*
X32746D01*
X32739Y-5757D01*
X32728Y-5750D01*
X32713Y-5742D01*
X32673Y-5713D01*
X32626Y-5673D01*
X32572Y-5622D01*
X32520Y-5564D01*
X32469Y-5491D01*
X32430Y-5411D01*
Y-5408D01*
X32426Y-5400D01*
X32422Y-5386D01*
X32415Y-5368D01*
X32408Y-5346D01*
X32400Y-5317D01*
X32390Y-5284D01*
X32382Y-5244D01*
X32375Y-5200D01*
X32364Y-5153D01*
X32357Y-5102D01*
X32349Y-5047D01*
X32342Y-4985D01*
X32339Y-4920D01*
X32335Y-4851D01*
Y-4778D01*
Y-3322D01*
X32670D01*
Y-4778D01*
Y-4782D01*
Y-4792D01*
Y-4811D01*
Y-4832D01*
X32673Y-4858D01*
Y-4891D01*
X32677Y-4960D01*
X32684Y-5040D01*
X32695Y-5120D01*
X32710Y-5196D01*
X32717Y-5229D01*
X32728Y-5262D01*
X32732Y-5269D01*
X32739Y-5288D01*
X32757Y-5313D01*
X32779Y-5349D01*
X32804Y-5386D01*
X32841Y-5426D01*
X32884Y-5466D01*
X32936Y-5499D01*
X32943Y-5502D01*
X32961Y-5513D01*
X32994Y-5524D01*
X33037Y-5539D01*
X33088Y-5557D01*
X33154Y-5568D01*
X33223Y-5579D01*
X33299Y-5582D01*
X33336D01*
X33358Y-5579D01*
X33391D01*
X33423Y-5575D01*
X33503Y-5561D01*
X33591Y-5542D01*
X33674Y-5513D01*
X33755Y-5473D01*
X33791Y-5448D01*
X33824Y-5419D01*
X33827Y-5415D01*
X33831Y-5411D01*
X33838Y-5400D01*
X33849Y-5386D01*
X33860Y-5364D01*
X33875Y-5342D01*
X33889Y-5309D01*
X33904Y-5277D01*
X33918Y-5237D01*
X33929Y-5189D01*
X33944Y-5135D01*
X33955Y-5076D01*
X33966Y-5011D01*
X33973Y-4942D01*
X33980Y-4862D01*
Y-4778D01*
Y-3322D01*
X34315D01*
Y-4778D01*
D02*
G37*
G36*
X48398Y-3326D02*
X48431D01*
X48507Y-3329D01*
X48588Y-3340D01*
X48675Y-3351D01*
X48755Y-3369D01*
X48795Y-3380D01*
X48828Y-3391D01*
X48831D01*
X48835Y-3395D01*
X48857Y-3406D01*
X48890Y-3420D01*
X48930Y-3446D01*
X48973Y-3478D01*
X49021Y-3522D01*
X49064Y-3573D01*
X49108Y-3631D01*
Y-3635D01*
X49112Y-3639D01*
X49126Y-3661D01*
X49141Y-3697D01*
X49163Y-3744D01*
X49181Y-3799D01*
X49199Y-3864D01*
X49210Y-3934D01*
X49213Y-4010D01*
Y-4013D01*
Y-4021D01*
Y-4035D01*
X49210Y-4054D01*
Y-4079D01*
X49206Y-4104D01*
X49192Y-4166D01*
X49170Y-4239D01*
X49141Y-4316D01*
X49097Y-4392D01*
X49068Y-4428D01*
X49039Y-4465D01*
X49035Y-4468D01*
X49031Y-4472D01*
X49021Y-4483D01*
X49006Y-4494D01*
X48988Y-4509D01*
X48966Y-4523D01*
X48937Y-4541D01*
X48908Y-4563D01*
X48871Y-4581D01*
X48831Y-4600D01*
X48788Y-4621D01*
X48740Y-4640D01*
X48686Y-4654D01*
X48631Y-4672D01*
X48569Y-4683D01*
X48504Y-4694D01*
X48511Y-4698D01*
X48526Y-4705D01*
X48547Y-4720D01*
X48577Y-4734D01*
X48642Y-4774D01*
X48675Y-4800D01*
X48704Y-4822D01*
X48711Y-4829D01*
X48729Y-4847D01*
X48759Y-4876D01*
X48795Y-4913D01*
X48835Y-4964D01*
X48882Y-5018D01*
X48930Y-5084D01*
X48981Y-5156D01*
X49414Y-5841D01*
X48999D01*
X48667Y-5317D01*
Y-5313D01*
X48660Y-5306D01*
X48653Y-5295D01*
X48642Y-5280D01*
X48617Y-5240D01*
X48584Y-5189D01*
X48544Y-5135D01*
X48504Y-5076D01*
X48464Y-5022D01*
X48427Y-4971D01*
X48424Y-4967D01*
X48413Y-4953D01*
X48395Y-4931D01*
X48369Y-4905D01*
X48314Y-4851D01*
X48285Y-4825D01*
X48256Y-4803D01*
X48253Y-4800D01*
X48245Y-4796D01*
X48231Y-4789D01*
X48209Y-4778D01*
X48187Y-4767D01*
X48162Y-4756D01*
X48103Y-4738D01*
X48100D01*
X48092Y-4734D01*
X48078D01*
X48060Y-4731D01*
X48034Y-4727D01*
X48005D01*
X47965Y-4723D01*
X47535D01*
Y-5841D01*
X47201D01*
Y-3322D01*
X48369D01*
X48398Y-3326D01*
D02*
G37*
G36*
X42614D02*
X42676Y-3329D01*
X42742Y-3333D01*
X42803Y-3340D01*
X42858Y-3347D01*
X42865D01*
X42891Y-3355D01*
X42924Y-3362D01*
X42967Y-3373D01*
X43015Y-3391D01*
X43066Y-3413D01*
X43120Y-3438D01*
X43167Y-3467D01*
X43175Y-3471D01*
X43189Y-3482D01*
X43211Y-3504D01*
X43240Y-3529D01*
X43273Y-3562D01*
X43306Y-3606D01*
X43342Y-3653D01*
X43371Y-3708D01*
X43375Y-3715D01*
X43382Y-3733D01*
X43397Y-3766D01*
X43411Y-3810D01*
X43422Y-3861D01*
X43437Y-3919D01*
X43444Y-3984D01*
X43448Y-4054D01*
Y-4057D01*
Y-4068D01*
Y-4083D01*
X43444Y-4108D01*
X43440Y-4134D01*
X43437Y-4166D01*
X43430Y-4203D01*
X43422Y-4243D01*
X43397Y-4327D01*
X43382Y-4370D01*
X43360Y-4418D01*
X43335Y-4465D01*
X43310Y-4509D01*
X43277Y-4552D01*
X43240Y-4596D01*
X43237Y-4600D01*
X43229Y-4607D01*
X43218Y-4618D01*
X43200Y-4629D01*
X43178Y-4647D01*
X43149Y-4665D01*
X43113Y-4687D01*
X43073Y-4705D01*
X43025Y-4727D01*
X42971Y-4749D01*
X42913Y-4767D01*
X42843Y-4782D01*
X42771Y-4796D01*
X42691Y-4807D01*
X42600Y-4814D01*
X42505Y-4818D01*
X41861D01*
Y-5841D01*
X41526D01*
Y-3322D01*
X42560D01*
X42614Y-3326D01*
D02*
G37*
G36*
X38221D02*
X38250D01*
X38315Y-3333D01*
X38388Y-3340D01*
X38465Y-3355D01*
X38541Y-3373D01*
X38610Y-3398D01*
X38614D01*
X38618Y-3402D01*
X38639Y-3413D01*
X38672Y-3431D01*
X38708Y-3457D01*
X38752Y-3489D01*
X38800Y-3529D01*
X38843Y-3580D01*
X38883Y-3635D01*
X38887Y-3642D01*
X38898Y-3664D01*
X38916Y-3693D01*
X38934Y-3737D01*
X38952Y-3788D01*
X38971Y-3842D01*
X38982Y-3904D01*
X38985Y-3966D01*
Y-3974D01*
Y-3992D01*
X38982Y-4025D01*
X38974Y-4064D01*
X38963Y-4112D01*
X38945Y-4163D01*
X38923Y-4214D01*
X38894Y-4268D01*
X38890Y-4276D01*
X38880Y-4290D01*
X38858Y-4319D01*
X38829Y-4348D01*
X38792Y-4385D01*
X38748Y-4425D01*
X38694Y-4461D01*
X38632Y-4498D01*
X38636D01*
X38643Y-4501D01*
X38654Y-4505D01*
X38669Y-4512D01*
X38712Y-4527D01*
X38763Y-4552D01*
X38818Y-4585D01*
X38880Y-4625D01*
X38934Y-4672D01*
X38985Y-4731D01*
X38989Y-4738D01*
X39003Y-4760D01*
X39025Y-4792D01*
X39047Y-4836D01*
X39069Y-4894D01*
X39091Y-4956D01*
X39105Y-5029D01*
X39109Y-5109D01*
Y-5113D01*
Y-5116D01*
Y-5138D01*
X39105Y-5175D01*
X39098Y-5218D01*
X39091Y-5269D01*
X39076Y-5324D01*
X39058Y-5382D01*
X39033Y-5440D01*
X39029Y-5448D01*
X39018Y-5466D01*
X39003Y-5491D01*
X38982Y-5528D01*
X38952Y-5564D01*
X38923Y-5604D01*
X38887Y-5644D01*
X38847Y-5677D01*
X38843Y-5681D01*
X38829Y-5692D01*
X38803Y-5706D01*
X38770Y-5721D01*
X38730Y-5742D01*
X38683Y-5764D01*
X38632Y-5783D01*
X38570Y-5801D01*
X38563D01*
X38541Y-5808D01*
X38505Y-5812D01*
X38457Y-5819D01*
X38399Y-5826D01*
X38330Y-5833D01*
X38254Y-5837D01*
X38166Y-5841D01*
X37205D01*
Y-3322D01*
X38195D01*
X38221Y-3326D01*
D02*
G37*
G36*
X41289Y-6540D02*
X39240D01*
Y-6318D01*
X41289D01*
Y-6540D01*
D02*
G37*
%LPC*%
G36*
X11650Y281468D02*
X10440D01*
Y280197D01*
X11583D01*
X11650Y280203D01*
X11727Y280208D01*
X11816Y280214D01*
X11905Y280225D01*
X11994Y280242D01*
X12071Y280264D01*
X12083Y280269D01*
X12105Y280280D01*
X12138Y280297D01*
X12183Y280319D01*
X12233Y280353D01*
X12282Y280391D01*
X12332Y280441D01*
X12371Y280497D01*
X12377Y280502D01*
X12388Y280525D01*
X12404Y280558D01*
X12427Y280602D01*
X12443Y280652D01*
X12460Y280708D01*
X12471Y280774D01*
X12477Y280841D01*
Y280847D01*
Y280852D01*
X12471Y280885D01*
X12466Y280935D01*
X12454Y281002D01*
X12427Y281068D01*
X12393Y281146D01*
X12343Y281218D01*
X12277Y281291D01*
X12266Y281296D01*
X12238Y281318D01*
X12194Y281346D01*
X12122Y281379D01*
X12038Y281413D01*
X11927Y281440D01*
X11800Y281463D01*
X11650Y281468D01*
D02*
G37*
G36*
X17440Y263411D02*
X16552D01*
Y260481D01*
X17463D01*
X17502Y260486D01*
X17585Y260492D01*
X17679Y260497D01*
X17779Y260508D01*
X17879Y260525D01*
X17962Y260547D01*
X17973Y260553D01*
X18001Y260558D01*
X18040Y260575D01*
X18090Y260597D01*
X18145Y260630D01*
X18201Y260664D01*
X18256Y260703D01*
X18312Y260747D01*
X18317Y260758D01*
X18339Y260780D01*
X18373Y260819D01*
X18412Y260875D01*
X18456Y260947D01*
X18506Y261030D01*
X18550Y261124D01*
X18589Y261230D01*
Y261235D01*
X18595Y261247D01*
X18600Y261263D01*
X18606Y261285D01*
X18611Y261313D01*
X18623Y261352D01*
X18634Y261391D01*
X18645Y261435D01*
X18661Y261546D01*
X18678Y261674D01*
X18689Y261818D01*
X18695Y261974D01*
Y261979D01*
Y262001D01*
Y262029D01*
X18689Y262073D01*
Y262123D01*
X18684Y262179D01*
X18678Y262246D01*
X18673Y262312D01*
X18645Y262462D01*
X18611Y262617D01*
X18562Y262762D01*
X18528Y262834D01*
X18495Y262895D01*
Y262900D01*
X18484Y262912D01*
X18473Y262928D01*
X18462Y262950D01*
X18417Y263006D01*
X18362Y263072D01*
X18290Y263145D01*
X18206Y263217D01*
X18112Y263278D01*
X18012Y263328D01*
X18001Y263333D01*
X17973Y263339D01*
X17923Y263356D01*
X17851Y263372D01*
X17762Y263383D01*
X17651Y263400D01*
X17585Y263405D01*
X17513D01*
X17440Y263411D01*
D02*
G37*
G36*
X39631Y235633D02*
X38837D01*
Y234799D01*
X39587D01*
X39631Y234803D01*
X39682Y234806D01*
X39740Y234810D01*
X39798Y234817D01*
X39857Y234828D01*
X39908Y234843D01*
X39915Y234846D01*
X39929Y234854D01*
X39951Y234864D01*
X39980Y234879D01*
X40013Y234901D01*
X40046Y234926D01*
X40079Y234959D01*
X40104Y234996D01*
X40108Y234999D01*
X40115Y235014D01*
X40126Y235036D01*
X40141Y235065D01*
X40151Y235098D01*
X40162Y235134D01*
X40170Y235178D01*
X40173Y235221D01*
Y235225D01*
Y235228D01*
X40170Y235250D01*
X40166Y235283D01*
X40159Y235327D01*
X40141Y235370D01*
X40119Y235421D01*
X40086Y235469D01*
X40042Y235516D01*
X40035Y235520D01*
X40017Y235534D01*
X39988Y235553D01*
X39940Y235574D01*
X39886Y235596D01*
X39813Y235614D01*
X39729Y235629D01*
X39631Y235633D01*
D02*
G37*
G36*
X33883Y235614D02*
X33163D01*
Y234715D01*
X33840D01*
X33865Y234719D01*
X33891D01*
X33920Y234723D01*
X33989Y234730D01*
X34065Y234744D01*
X34142Y234766D01*
X34211Y234795D01*
X34244Y234814D01*
X34269Y234835D01*
X34276Y234843D01*
X34291Y234857D01*
X34313Y234886D01*
X34338Y234923D01*
X34364Y234970D01*
X34386Y235028D01*
X34400Y235094D01*
X34407Y235170D01*
Y235174D01*
Y235178D01*
Y235196D01*
X34404Y235228D01*
X34397Y235265D01*
X34389Y235305D01*
X34375Y235352D01*
X34353Y235396D01*
X34327Y235440D01*
X34324Y235443D01*
X34313Y235458D01*
X34295Y235476D01*
X34273Y235502D01*
X34240Y235527D01*
X34204Y235549D01*
X34164Y235571D01*
X34116Y235589D01*
X34113D01*
X34098Y235593D01*
X34076Y235596D01*
X34047Y235603D01*
X34003Y235607D01*
X33949Y235611D01*
X33883Y235614D01*
D02*
G37*
G36*
X221986Y71380D02*
X221192D01*
Y70546D01*
X221942D01*
X221986Y70550D01*
X222037Y70553D01*
X222095Y70557D01*
X222153Y70564D01*
X222211Y70575D01*
X222262Y70590D01*
X222269Y70593D01*
X222284Y70600D01*
X222306Y70612D01*
X222335Y70626D01*
X222368Y70648D01*
X222400Y70673D01*
X222433Y70706D01*
X222459Y70742D01*
X222462Y70746D01*
X222470Y70761D01*
X222481Y70783D01*
X222495Y70812D01*
X222506Y70844D01*
X222517Y70881D01*
X222524Y70925D01*
X222528Y70968D01*
Y70972D01*
Y70976D01*
X222524Y70997D01*
X222521Y71030D01*
X222513Y71074D01*
X222495Y71117D01*
X222473Y71168D01*
X222441Y71216D01*
X222397Y71263D01*
X222390Y71267D01*
X222371Y71281D01*
X222342Y71299D01*
X222295Y71321D01*
X222240Y71343D01*
X222167Y71361D01*
X222084Y71376D01*
X221986Y71380D01*
D02*
G37*
G36*
X216238Y71361D02*
X215517D01*
Y70462D01*
X216194D01*
X216220Y70466D01*
X216245D01*
X216274Y70469D01*
X216343Y70477D01*
X216420Y70491D01*
X216496Y70513D01*
X216565Y70542D01*
X216598Y70560D01*
X216624Y70582D01*
X216631Y70590D01*
X216646Y70604D01*
X216668Y70633D01*
X216693Y70670D01*
X216718Y70717D01*
X216740Y70775D01*
X216755Y70841D01*
X216762Y70917D01*
Y70921D01*
Y70925D01*
Y70943D01*
X216758Y70976D01*
X216751Y71012D01*
X216744Y71052D01*
X216729Y71099D01*
X216707Y71143D01*
X216682Y71187D01*
X216678Y71190D01*
X216668Y71205D01*
X216649Y71223D01*
X216627Y71249D01*
X216595Y71274D01*
X216558Y71296D01*
X216518Y71318D01*
X216471Y71336D01*
X216467D01*
X216453Y71339D01*
X216431Y71343D01*
X216402Y71350D01*
X216358Y71354D01*
X216303Y71358D01*
X216238Y71361D01*
D02*
G37*
G36*
X209387Y71398D02*
Y71394D01*
X209384Y71387D01*
Y71372D01*
X209377Y71358D01*
X209373Y71332D01*
X209366Y71307D01*
X209351Y71245D01*
X209333Y71172D01*
X209307Y71092D01*
X209282Y71005D01*
X209249Y70914D01*
X208976Y70178D01*
X209828D01*
X209566Y70870D01*
Y70874D01*
X209562Y70885D01*
X209555Y70903D01*
X209548Y70925D01*
X209537Y70950D01*
X209526Y70983D01*
X209515Y71019D01*
X209500Y71056D01*
X209471Y71139D01*
X209442Y71227D01*
X209413Y71314D01*
X209387Y71398D01*
D02*
G37*
G36*
X202814Y71380D02*
X202020D01*
Y70546D01*
X202770D01*
X202814Y70550D01*
X202865Y70553D01*
X202923Y70557D01*
X202981Y70564D01*
X203039Y70575D01*
X203090Y70590D01*
X203098Y70593D01*
X203112Y70600D01*
X203134Y70612D01*
X203163Y70626D01*
X203196Y70648D01*
X203229Y70673D01*
X203261Y70706D01*
X203287Y70742D01*
X203291Y70746D01*
X203298Y70761D01*
X203309Y70783D01*
X203323Y70812D01*
X203334Y70844D01*
X203345Y70881D01*
X203352Y70925D01*
X203356Y70968D01*
Y70972D01*
Y70976D01*
X203352Y70997D01*
X203349Y71030D01*
X203341Y71074D01*
X203323Y71117D01*
X203301Y71168D01*
X203269Y71216D01*
X203225Y71263D01*
X203218Y71267D01*
X203200Y71281D01*
X203170Y71299D01*
X203123Y71321D01*
X203068Y71343D01*
X202996Y71361D01*
X202912Y71376D01*
X202814Y71380D01*
D02*
G37*
G36*
X48329Y-3602D02*
X47535D01*
Y-4436D01*
X48285D01*
X48329Y-4432D01*
X48380Y-4428D01*
X48438Y-4425D01*
X48496Y-4418D01*
X48555Y-4407D01*
X48606Y-4392D01*
X48613Y-4389D01*
X48627Y-4381D01*
X48649Y-4370D01*
X48678Y-4356D01*
X48711Y-4334D01*
X48744Y-4308D01*
X48777Y-4276D01*
X48802Y-4239D01*
X48806Y-4236D01*
X48813Y-4221D01*
X48824Y-4199D01*
X48839Y-4170D01*
X48849Y-4137D01*
X48860Y-4101D01*
X48868Y-4057D01*
X48871Y-4013D01*
Y-4010D01*
Y-4006D01*
X48868Y-3984D01*
X48864Y-3952D01*
X48857Y-3908D01*
X48839Y-3864D01*
X48817Y-3813D01*
X48784Y-3766D01*
X48740Y-3719D01*
X48733Y-3715D01*
X48715Y-3700D01*
X48686Y-3682D01*
X48638Y-3661D01*
X48584Y-3639D01*
X48511Y-3620D01*
X48427Y-3606D01*
X48329Y-3602D01*
D02*
G37*
G36*
X42581Y-3620D02*
X41861D01*
Y-4519D01*
X42538D01*
X42563Y-4516D01*
X42589D01*
X42618Y-4512D01*
X42687Y-4505D01*
X42764Y-4490D01*
X42840Y-4468D01*
X42909Y-4439D01*
X42942Y-4421D01*
X42967Y-4399D01*
X42975Y-4392D01*
X42989Y-4377D01*
X43011Y-4348D01*
X43036Y-4312D01*
X43062Y-4265D01*
X43084Y-4206D01*
X43098Y-4141D01*
X43106Y-4064D01*
Y-4061D01*
Y-4057D01*
Y-4039D01*
X43102Y-4006D01*
X43095Y-3970D01*
X43087Y-3930D01*
X43073Y-3883D01*
X43051Y-3839D01*
X43025Y-3795D01*
X43022Y-3791D01*
X43011Y-3777D01*
X42993Y-3759D01*
X42971Y-3733D01*
X42938Y-3708D01*
X42902Y-3686D01*
X42862Y-3664D01*
X42814Y-3646D01*
X42811D01*
X42796Y-3642D01*
X42774Y-3639D01*
X42745Y-3631D01*
X42702Y-3628D01*
X42647Y-3624D01*
X42581Y-3620D01*
D02*
G37*
G36*
X38137D02*
X37540D01*
Y-4377D01*
X38159D01*
X38206Y-4374D01*
X38257Y-4370D01*
X38308Y-4367D01*
X38359Y-4359D01*
X38399Y-4352D01*
X38406Y-4348D01*
X38421Y-4345D01*
X38443Y-4334D01*
X38472Y-4319D01*
X38501Y-4305D01*
X38534Y-4283D01*
X38566Y-4254D01*
X38592Y-4225D01*
X38596Y-4221D01*
X38603Y-4210D01*
X38614Y-4188D01*
X38625Y-4163D01*
X38636Y-4134D01*
X38647Y-4097D01*
X38654Y-4054D01*
X38658Y-4006D01*
Y-3999D01*
Y-3984D01*
X38654Y-3963D01*
X38650Y-3934D01*
X38643Y-3897D01*
X38632Y-3861D01*
X38618Y-3824D01*
X38596Y-3788D01*
X38592Y-3784D01*
X38585Y-3773D01*
X38570Y-3755D01*
X38552Y-3737D01*
X38526Y-3715D01*
X38497Y-3693D01*
X38461Y-3671D01*
X38421Y-3657D01*
X38417D01*
X38399Y-3650D01*
X38374Y-3646D01*
X38334Y-3639D01*
X38279Y-3631D01*
X38217Y-3628D01*
X38137Y-3620D01*
D02*
G37*
G36*
X38203Y-4676D02*
X37540D01*
Y-5542D01*
X38257D01*
X38334Y-5539D01*
X38366Y-5535D01*
X38396Y-5531D01*
X38399D01*
X38414Y-5528D01*
X38436Y-5524D01*
X38461Y-5517D01*
X38523Y-5495D01*
X38585Y-5466D01*
X38588Y-5462D01*
X38599Y-5455D01*
X38614Y-5444D01*
X38632Y-5429D01*
X38650Y-5408D01*
X38676Y-5386D01*
X38694Y-5357D01*
X38716Y-5324D01*
X38719Y-5320D01*
X38723Y-5309D01*
X38730Y-5288D01*
X38741Y-5262D01*
X38752Y-5233D01*
X38759Y-5196D01*
X38763Y-5153D01*
X38767Y-5109D01*
Y-5102D01*
Y-5087D01*
X38763Y-5058D01*
X38756Y-5026D01*
X38748Y-4989D01*
X38734Y-4949D01*
X38716Y-4909D01*
X38690Y-4869D01*
X38687Y-4865D01*
X38676Y-4851D01*
X38661Y-4832D01*
X38639Y-4811D01*
X38610Y-4785D01*
X38574Y-4760D01*
X38534Y-4738D01*
X38486Y-4720D01*
X38479Y-4716D01*
X38465Y-4712D01*
X38432Y-4705D01*
X38392Y-4698D01*
X38341Y-4691D01*
X38279Y-4683D01*
X38203Y-4676D01*
D02*
G37*
%LPD*%
D10*
X25945Y131292D02*
G03*
X25945Y131292I-492J0D01*
G01*
X23339Y90653D02*
G03*
X23339Y90653I-492J0D01*
G01*
X17054Y240709D02*
G03*
X17054Y240709I-492J0D01*
G01*
X208664Y95735D02*
G03*
X208664Y95735I-492J0D01*
G01*
X53651Y1972D02*
G03*
X53651Y1972I-492J0D01*
G01*
X70114Y248077D02*
G03*
X70114Y248077I-492J0D01*
G01*
D11*
X186097Y153987D02*
G03*
X186097Y153987I-394J0D01*
G01*
X71296Y29311D02*
G03*
X71296Y29311I-394J0D01*
G01*
X31571Y134442D02*
X42595D01*
X31571Y120662D02*
X42595D01*
X26095Y77562D02*
Y83468D01*
X19402Y77562D02*
Y83468D01*
X26306Y237264D02*
X31227D01*
X26306Y243957D02*
X31227D01*
X204727Y81069D02*
Y85991D01*
X211420Y81069D02*
Y85991D01*
X38494Y5416D02*
X43415D01*
X38494Y-1276D02*
X43415D01*
X158330Y220822D02*
Y252318D01*
Y220822D02*
X189826D01*
Y252318D01*
X158330D02*
X189826D01*
X115605Y220493D02*
Y251989D01*
Y220493D02*
X147101D01*
Y251989D01*
X115605D02*
X147101D01*
X73767Y220493D02*
Y251989D01*
Y220493D02*
X105263D01*
Y251989D01*
X73767D02*
X105263D01*
X149796Y111381D02*
X154796D01*
X149796Y117483D02*
X154796D01*
X149796Y111381D02*
Y117483D01*
X56531Y244829D02*
X62437D01*
X56531Y251522D02*
X62437D01*
X57909Y263646D02*
X61059D01*
X57909Y256953D02*
X61059D01*
X170230Y147247D02*
X173380D01*
X170230Y140554D02*
X173380D01*
X119559Y96945D02*
X122708D01*
X119559Y103638D02*
X122708D01*
X119559Y132095D02*
X122708D01*
X119559Y125402D02*
X122708D01*
X205188Y55158D02*
Y58307D01*
X211881Y55158D02*
Y58307D01*
X170344Y128522D02*
X173494D01*
X170344Y135215D02*
X173494D01*
X96967Y103638D02*
X100117D01*
X96967Y96945D02*
X100117D01*
X96988Y132095D02*
X100137D01*
X96988Y125402D02*
X100137D01*
X53979Y294903D02*
X57129D01*
X53979Y301596D02*
X57129D01*
X53979Y281640D02*
X57129D01*
X53979Y274947D02*
X57129D01*
X29070Y223392D02*
X32219D01*
X29070Y230084D02*
X32219D01*
X29008Y211476D02*
X32158D01*
X29008Y218169D02*
X32158D01*
X28951Y199781D02*
X32101D01*
X28951Y206474D02*
X32101D01*
X101153Y69247D02*
Y72396D01*
X107846Y69247D02*
Y72396D01*
X99446Y1416D02*
Y4566D01*
X106139Y1416D02*
Y4566D01*
X113629Y1416D02*
Y4566D01*
X120322Y1416D02*
Y4566D01*
X111547Y163055D02*
Y166205D01*
X104854Y163055D02*
Y166205D01*
X84703Y162900D02*
Y166050D01*
X78010Y162900D02*
Y166050D01*
X46347Y69247D02*
Y72396D01*
X53040Y69247D02*
Y72396D01*
X104894Y185700D02*
Y188850D01*
X111587Y185700D02*
Y188850D01*
X84639Y185700D02*
Y188850D01*
X77946Y185700D02*
Y188850D01*
X27339Y14930D02*
X30489D01*
X27339Y21623D02*
X30489D01*
X27339Y34341D02*
X30489D01*
X27339Y27648D02*
X30489D01*
X123700Y110998D02*
Y116215D01*
X111496Y110998D02*
X114547D01*
X120649D02*
X123700D01*
X111496D02*
Y116215D01*
X116909Y118085D02*
X118287D01*
X181750Y114432D02*
Y119649D01*
X169545Y114432D02*
X172597D01*
X178699D02*
X181750D01*
X169545D02*
Y119649D01*
X174959Y121519D02*
X176337D01*
X101130Y110998D02*
Y116215D01*
X88925Y110998D02*
X91976D01*
X98078D02*
X101130D01*
X88925D02*
Y116215D01*
X94338Y118085D02*
X95716D01*
X93314Y170421D02*
X98530D01*
Y158217D02*
Y161268D01*
Y167370D02*
Y170421D01*
X93314Y158217D02*
X98530D01*
X91444Y163630D02*
Y165008D01*
X93354Y193480D02*
X98571D01*
Y181275D02*
Y184326D01*
Y190429D02*
Y193480D01*
X93354Y181275D02*
X98571D01*
X91484Y186689D02*
Y188066D01*
X32465Y162657D02*
X35221D01*
X32465Y155964D02*
X35221D01*
X64486Y180614D02*
Y183370D01*
X57793Y180614D02*
Y183370D01*
X54176Y313868D02*
X56932D01*
X54176Y307175D02*
X56932D01*
X54644Y156166D02*
X57399D01*
X54644Y162858D02*
X57399D01*
X54271Y54387D02*
X57027D01*
X54271Y47694D02*
X57027D01*
X91533Y48311D02*
X94289D01*
X91533Y55003D02*
X94289D01*
X64530Y123474D02*
Y126230D01*
X71223Y123474D02*
Y126230D01*
X52302Y123517D02*
Y126272D01*
X58995Y123517D02*
Y126272D01*
X27014Y108804D02*
X29770D01*
X27014Y115497D02*
X29770D01*
X26907Y96945D02*
X29663D01*
X26907Y103638D02*
X29663D01*
X65977Y91710D02*
X68732D01*
X65977Y98403D02*
X68732D01*
X132876Y179862D02*
Y182618D01*
X126183Y179862D02*
Y182618D01*
X140126Y-3037D02*
Y26884D01*
X199181D01*
X140126Y-3037D02*
X199181D01*
X146031Y-1856D02*
X153905D01*
X165717D02*
X173591D01*
X185401D02*
X193275D01*
X199181Y-3037D02*
Y26884D01*
D12*
X31677Y176924D02*
G03*
X31677Y176924I-880J0D01*
G01*
D02*
G03*
X31677Y176924I-880J0D01*
G01*
D13*
X19613Y288970D02*
Y318104D01*
Y288970D02*
X42251D01*
Y318104D01*
X19613D02*
X42251D01*
X144916Y201290D02*
X174444D01*
X144916Y151684D02*
X174444D01*
X139245Y29820D02*
Y105016D01*
Y29820D02*
X200269D01*
Y105016D01*
X139245D02*
X200269D01*
X22559Y246654D02*
Y286653D01*
X32559Y246654D02*
Y286653D01*
X22559Y246654D02*
X32559D01*
X22559Y286653D02*
X32559D01*
X57024Y-10025D02*
X92221D01*
X57024D02*
Y-4690D01*
Y5113D02*
Y11176D01*
X92221Y-10025D02*
Y-4690D01*
Y5113D02*
Y11176D01*
X80784Y36171D02*
Y42569D01*
X68461Y36171D02*
Y42569D01*
D14*
X70866Y271654D02*
X188976D01*
X70866Y326772D02*
X188976D01*
Y271654D02*
Y326772D01*
X70866Y271654D02*
Y326772D01*
X59259Y197822D02*
X58604Y198478D01*
X57292D01*
X56636Y197822D01*
Y195198D01*
X57292Y194542D01*
X58604D01*
X59259Y195198D01*
X60571Y194542D02*
X61883D01*
X61227D01*
Y198478D01*
X60571Y197822D01*
X63851Y194542D02*
X65163D01*
X64507D01*
Y198478D01*
X63851Y197822D01*
X81921Y304209D02*
X84421Y306708D01*
X89419D01*
X91918Y304209D01*
Y301709D01*
X89419Y299210D01*
X91918Y296711D01*
Y294212D01*
X89419Y291713D01*
X84421D01*
X81921Y294212D01*
Y296711D01*
X84421Y299210D01*
X81921Y301709D01*
Y304209D01*
X84421Y299210D02*
X89419D01*
X96916Y291713D02*
Y294212D01*
X99416D01*
Y291713D01*
X96916D01*
X109412Y304209D02*
X111912Y306708D01*
X116910D01*
X119409Y304209D01*
Y301709D01*
X116910Y299210D01*
X119409Y296711D01*
Y294212D01*
X116910Y291713D01*
X111912D01*
X109412Y294212D01*
Y296711D01*
X111912Y299210D01*
X109412Y301709D01*
Y304209D01*
X111912Y299210D02*
X116910D01*
X124407Y291713D02*
Y294212D01*
X126907D01*
Y291713D01*
X124407D01*
X136904Y304209D02*
X139403Y306708D01*
X144401D01*
X146900Y304209D01*
Y301709D01*
X144401Y299210D01*
X146900Y296711D01*
Y294212D01*
X144401Y291713D01*
X139403D01*
X136904Y294212D01*
Y296711D01*
X139403Y299210D01*
X136904Y301709D01*
Y304209D01*
X139403Y299210D02*
X144401D01*
X151899Y291713D02*
Y294212D01*
X154398D01*
Y291713D01*
X151899D01*
X164395Y304209D02*
X166894Y306708D01*
X171892D01*
X174391Y304209D01*
Y301709D01*
X171892Y299210D01*
X174391Y296711D01*
Y294212D01*
X171892Y291713D01*
X166894D01*
X164395Y294212D01*
Y296711D01*
X166894Y299210D01*
X164395Y301709D01*
Y304209D01*
X166894Y299210D02*
X171892D01*
X179390Y291713D02*
Y294212D01*
X181889D01*
Y291713D01*
X179390D01*
X86529Y260043D02*
Y256763D01*
X87185Y256107D01*
X88497D01*
X89152Y256763D01*
Y260043D01*
X90465Y256107D02*
Y260043D01*
X92432D01*
X93088Y259386D01*
Y258075D01*
X92432Y257419D01*
X90465D01*
X166692Y260170D02*
Y256234D01*
X168660D01*
X169316Y256890D01*
Y259514D01*
X168660Y260170D01*
X166692D01*
X172596D02*
X171284D01*
X170628Y259514D01*
Y256890D01*
X171284Y256234D01*
X172596D01*
X173252Y256890D01*
Y259514D01*
X172596Y260170D01*
X174564D02*
Y256234D01*
X175876Y257546D01*
X177188Y256234D01*
Y260170D01*
X178500Y256234D02*
Y260170D01*
X181123Y256234D01*
Y260170D01*
X128345Y259778D02*
X127689Y260434D01*
X126377D01*
X125721Y259778D01*
Y259122D01*
X126377Y258466D01*
X127689D01*
X128345Y257810D01*
Y257154D01*
X127689Y256498D01*
X126377D01*
X125721Y257154D01*
X132280Y260434D02*
X129656D01*
Y256498D01*
X132280D01*
X129656Y258466D02*
X130968D01*
X133592Y260434D02*
X136216D01*
X134904D01*
Y256498D01*
X186886Y-8104D02*
Y-4758D01*
X189117Y-8104D01*
Y-4758D01*
X192462Y-5316D02*
X191904Y-4758D01*
X190789D01*
X190232Y-5316D01*
Y-7546D01*
X190789Y-8104D01*
X191904D01*
X192462Y-7546D01*
X167672Y-5316D02*
X167114Y-4758D01*
X165999D01*
X165442Y-5316D01*
Y-7546D01*
X165999Y-8104D01*
X167114D01*
X167672Y-7546D01*
X170460Y-4758D02*
X169345D01*
X168787Y-5316D01*
Y-7546D01*
X169345Y-8104D01*
X170460D01*
X171018Y-7546D01*
Y-5316D01*
X170460Y-4758D01*
X172133Y-8104D02*
Y-4758D01*
X173248Y-5873D01*
X174363Y-4758D01*
Y-8104D01*
X147343D02*
Y-4758D01*
X149573Y-8104D01*
Y-4758D01*
X152361D02*
X151246D01*
X150688Y-5316D01*
Y-7546D01*
X151246Y-8104D01*
X152361D01*
X152918Y-7546D01*
Y-5316D01*
X152361Y-4758D01*
X60473Y338191D02*
X63097D01*
X61785D01*
Y334255D01*
X64409Y338191D02*
Y334255D01*
Y336223D01*
X65065Y336879D01*
X66377D01*
X67032Y336223D01*
Y334255D01*
X70312D02*
X69000D01*
X68344Y334911D01*
Y336223D01*
X69000Y336879D01*
X70312D01*
X70968Y336223D01*
Y335567D01*
X68344D01*
X72280Y336879D02*
Y334255D01*
Y335567D01*
X72936Y336223D01*
X73592Y336879D01*
X74248D01*
X76216Y334255D02*
Y336879D01*
X76872D01*
X77528Y336223D01*
Y334255D01*
Y336223D01*
X78184Y336879D01*
X78840Y336223D01*
Y334255D01*
X80808D02*
X82120D01*
X82775Y334911D01*
Y336223D01*
X82120Y336879D01*
X80808D01*
X80152Y336223D01*
Y334911D01*
X80808Y334255D01*
X84087D02*
X86055D01*
X86711Y334911D01*
X86055Y335567D01*
X84743D01*
X84087Y336223D01*
X84743Y336879D01*
X86711D01*
X88679Y337535D02*
Y336879D01*
X88023D01*
X89335D01*
X88679D01*
Y334911D01*
X89335Y334255D01*
X91959Y336879D02*
X93271D01*
X93927Y336223D01*
Y334255D01*
X91959D01*
X91303Y334911D01*
X91959Y335567D01*
X93927D01*
X95895Y337535D02*
Y336879D01*
X95239D01*
X96551D01*
X95895D01*
Y334911D01*
X96551Y334255D01*
X102454Y338191D02*
Y334255D01*
X104422D01*
X105078Y334911D01*
Y335567D01*
Y336223D01*
X104422Y336879D01*
X102454D01*
X106390D02*
Y334911D01*
X107046Y334255D01*
X109014D01*
Y333599D01*
X108358Y332943D01*
X107702D01*
X109014Y334255D02*
Y336879D01*
X114261Y338191D02*
X116885D01*
X115573D01*
Y334255D01*
X118197D02*
Y338191D01*
Y335567D02*
X120165Y336879D01*
X118197Y335567D02*
X120165Y334255D01*
X122789Y336879D02*
X124101D01*
X124757Y336223D01*
Y334255D01*
X122789D01*
X122133Y334911D01*
X122789Y335567D01*
X124757D01*
X128692Y336879D02*
X126725D01*
X126069Y336223D01*
Y334911D01*
X126725Y334255D01*
X128692D01*
X130004Y338191D02*
Y334255D01*
Y336223D01*
X130660Y336879D01*
X131972D01*
X132628Y336223D01*
Y334255D01*
X137876Y336879D02*
Y334255D01*
Y335567D01*
X138532Y336223D01*
X139188Y336879D01*
X139844D01*
X143780Y334255D02*
X142468D01*
X141812Y334911D01*
Y336223D01*
X142468Y336879D01*
X143780D01*
X144435Y336223D01*
Y335567D01*
X141812D01*
X145747Y336879D02*
X147059Y334255D01*
X148371Y336879D01*
X149683Y334255D02*
Y334911D01*
X150339D01*
Y334255D01*
X149683D01*
X152963Y336879D02*
X154275Y334255D01*
X155587Y336879D01*
X156899Y334255D02*
Y334911D01*
X157555D01*
Y334255D01*
X156899D01*
X160178D02*
X161490D01*
X160834D01*
Y338191D01*
X160178Y337535D01*
X163458Y334255D02*
Y334911D01*
X164114D01*
Y334255D01*
X163458D01*
X166738Y337535D02*
X167394Y338191D01*
X168706D01*
X169362Y337535D01*
Y334911D01*
X168706Y334255D01*
X167394D01*
X166738Y334911D01*
Y337535D01*
X25433Y144800D02*
Y139802D01*
X26433Y138802D01*
X28432D01*
X29432Y139802D01*
Y144800D01*
X31431Y138802D02*
X33430D01*
X32431D01*
Y144800D01*
X31431Y143800D01*
X19545Y69842D02*
Y65907D01*
X21513D01*
X22169Y66562D01*
Y69186D01*
X21513Y69842D01*
X19545D01*
X26104D02*
X24792Y69186D01*
X23480Y67874D01*
Y66562D01*
X24136Y65907D01*
X25448D01*
X26104Y66562D01*
Y67218D01*
X25448Y67874D01*
X23480D01*
X162453Y159995D02*
Y154997D01*
X163453Y153997D01*
X165453D01*
X166452Y154997D01*
Y159995D01*
X172450Y153997D02*
X168452D01*
X172450Y157996D01*
Y158996D01*
X171451Y159995D01*
X169451D01*
X168452Y158996D01*
X74722Y323717D02*
Y317719D01*
X77721D01*
X78720Y318719D01*
Y322717D01*
X77721Y323717D01*
X74722D01*
X80720Y317719D02*
Y323717D01*
X83719D01*
X84719Y322717D01*
Y320718D01*
X83719Y319718D01*
X80720D01*
X86718Y317719D02*
X88717D01*
X87718D01*
Y323717D01*
X86718Y322717D01*
X129368Y196925D02*
X128712Y197581D01*
X127400D01*
X126744Y196925D01*
Y194301D01*
X127400Y193645D01*
X128712D01*
X129368Y194301D01*
X130680Y193645D02*
X131992D01*
X131336D01*
Y197581D01*
X130680Y196925D01*
X82219Y95975D02*
X81563Y96631D01*
X80251D01*
X79595Y95975D01*
Y93352D01*
X80251Y92696D01*
X81563D01*
X82219Y93352D01*
X86155Y92696D02*
X83531D01*
X86155Y95319D01*
Y95975D01*
X85499Y96631D01*
X84187D01*
X83531Y95975D01*
X43738Y101046D02*
X43082Y101702D01*
X41771D01*
X41115Y101046D01*
Y98422D01*
X41771Y97766D01*
X43082D01*
X43738Y98422D01*
X45050Y101046D02*
X45706Y101702D01*
X47018D01*
X47674Y101046D01*
Y100390D01*
X47018Y99734D01*
X46362D01*
X47018D01*
X47674Y99078D01*
Y98422D01*
X47018Y97766D01*
X45706D01*
X45050Y98422D01*
X43587Y113476D02*
X42931Y114131D01*
X41619D01*
X40963Y113476D01*
Y110852D01*
X41619Y110196D01*
X42931D01*
X43587Y110852D01*
X46867Y110196D02*
Y114131D01*
X44899Y112164D01*
X47523D01*
X55250Y140288D02*
X54594Y140944D01*
X53282D01*
X52626Y140288D01*
Y137664D01*
X53282Y137009D01*
X54594D01*
X55250Y137664D01*
X59185Y140944D02*
X56561D01*
Y138976D01*
X57873Y139632D01*
X58529D01*
X59185Y138976D01*
Y137664D01*
X58529Y137009D01*
X57217D01*
X56561Y137664D01*
X67447Y140429D02*
X66791Y141085D01*
X65479D01*
X64823Y140429D01*
Y137805D01*
X65479Y137149D01*
X66791D01*
X67447Y137805D01*
X71383Y141085D02*
X70071Y140429D01*
X68759Y139117D01*
Y137805D01*
X69415Y137149D01*
X70727D01*
X71383Y137805D01*
Y138461D01*
X70727Y139117D01*
X68759D01*
X108399Y52985D02*
X107743Y53641D01*
X106431D01*
X105775Y52985D01*
Y50361D01*
X106431Y49705D01*
X107743D01*
X108399Y50361D01*
X109711Y53641D02*
X112335D01*
Y52985D01*
X109711Y50361D01*
Y49705D01*
X39256Y52238D02*
X38600Y52894D01*
X37288D01*
X36632Y52238D01*
Y49614D01*
X37288Y48958D01*
X38600D01*
X39256Y49614D01*
X40568Y52238D02*
X41224Y52894D01*
X42536D01*
X43192Y52238D01*
Y51582D01*
X42536Y50926D01*
X43192Y50270D01*
Y49614D01*
X42536Y48958D01*
X41224D01*
X40568Y49614D01*
Y50270D01*
X41224Y50926D01*
X40568Y51582D01*
Y52238D01*
X41224Y50926D02*
X42536D01*
X62483Y151186D02*
X61827Y151842D01*
X60515D01*
X59859Y151186D01*
Y148562D01*
X60515Y147906D01*
X61827D01*
X62483Y148562D01*
X63795D02*
X64451Y147906D01*
X65763D01*
X66419Y148562D01*
Y151186D01*
X65763Y151842D01*
X64451D01*
X63795Y151186D01*
Y150530D01*
X64451Y149874D01*
X66419D01*
X58688Y320501D02*
X58032Y321157D01*
X56720D01*
X56064Y320501D01*
Y317878D01*
X56720Y317221D01*
X58032D01*
X58688Y317878D01*
X60000Y317221D02*
X61312D01*
X60656D01*
Y321157D01*
X60000Y320501D01*
X63280D02*
X63936Y321157D01*
X65248D01*
X65904Y320501D01*
Y317878D01*
X65248Y317221D01*
X63936D01*
X63280Y317878D01*
Y320501D01*
X37427Y151859D02*
X36771Y152515D01*
X35459D01*
X34803Y151859D01*
Y149235D01*
X35459Y148579D01*
X36771D01*
X37427Y149235D01*
X38739Y148579D02*
X40051D01*
X39395D01*
Y152515D01*
X38739Y151859D01*
X44642Y148579D02*
X42019D01*
X44642Y151203D01*
Y151859D01*
X43986Y152515D01*
X42674D01*
X42019Y151859D01*
X44895Y11756D02*
Y7820D01*
X46863D01*
X47518Y8476D01*
Y11100D01*
X46863Y11756D01*
X44895D01*
X48830Y7820D02*
X50142D01*
X49486D01*
Y11756D01*
X48830Y11100D01*
X204497Y101847D02*
Y97911D01*
X206465D01*
X207121Y98567D01*
Y101191D01*
X206465Y101847D01*
X204497D01*
X211056Y97911D02*
X208433D01*
X211056Y100535D01*
Y101191D01*
X210400Y101847D01*
X209088D01*
X208433Y101191D01*
X144637Y123671D02*
Y119736D01*
X146605D01*
X147261Y120392D01*
Y123015D01*
X146605Y123671D01*
X144637D01*
X148573Y123015D02*
X149229Y123671D01*
X150540D01*
X151196Y123015D01*
Y122359D01*
X150540Y121704D01*
X149884D01*
X150540D01*
X151196Y121047D01*
Y120392D01*
X150540Y119736D01*
X149229D01*
X148573Y120392D01*
X43554Y250063D02*
Y246127D01*
X45522D01*
X46178Y246783D01*
Y249407D01*
X45522Y250063D01*
X43554D01*
X49458Y246127D02*
Y250063D01*
X47490Y248095D01*
X50114D01*
X13585Y33525D02*
X10961D01*
Y31558D01*
X12273D01*
X10961D01*
Y29590D01*
X14897D02*
X16209D01*
X15553D01*
Y33525D01*
X14897Y32869D01*
X74623Y7211D02*
X72623D01*
X73623D01*
Y2212D01*
X72623Y1213D01*
X71624D01*
X70624Y2212D01*
X76622Y1213D02*
X78622D01*
X77622D01*
Y7211D01*
X76622Y6211D01*
X23987Y294478D02*
X22675D01*
X23331D01*
Y291198D01*
X22675Y290542D01*
X22019D01*
X21363Y291198D01*
X27923Y290542D02*
X25299D01*
X27923Y293166D01*
Y293822D01*
X27267Y294478D01*
X25955D01*
X25299Y293822D01*
X144587Y24189D02*
X143275D01*
X143931D01*
Y20909D01*
X143275Y20253D01*
X142619D01*
X141963Y20909D01*
X145899Y23533D02*
X146555Y24189D01*
X147866D01*
X148522Y23533D01*
Y22877D01*
X147866Y22221D01*
X147211D01*
X147866D01*
X148522Y21565D01*
Y20909D01*
X147866Y20253D01*
X146555D01*
X145899Y20909D01*
X166919Y68758D02*
Y62760D01*
Y64759D01*
X170917Y68758D01*
X167918Y65759D01*
X170917Y62760D01*
X172917D02*
X174916D01*
X173916D01*
Y68758D01*
X172917Y67758D01*
X91309Y196599D02*
Y199223D01*
X90653Y199879D01*
X89341D01*
X88685Y199223D01*
Y196599D01*
X89341Y195943D01*
X90653D01*
X89997Y197255D02*
X91309Y195943D01*
X90653D02*
X91309Y196599D01*
X92621Y195943D02*
X93933D01*
X93277D01*
Y199879D01*
X92621Y199223D01*
X91073Y173116D02*
Y175739D01*
X90417Y176395D01*
X89105D01*
X88449Y175739D01*
Y173116D01*
X89105Y172460D01*
X90417D01*
X89761Y173772D02*
X91073Y172460D01*
X90417D02*
X91073Y173116D01*
X95009Y172460D02*
X92385D01*
X95009Y175083D01*
Y175739D01*
X94353Y176395D01*
X93041D01*
X92385Y175739D01*
X105689Y108886D02*
Y111510D01*
X105033Y112165D01*
X103721D01*
X103066Y111510D01*
Y108886D01*
X103721Y108230D01*
X105033D01*
X104377Y109542D02*
X105689Y108230D01*
X105033D02*
X105689Y108886D01*
X107001Y111510D02*
X107657Y112165D01*
X108969D01*
X109625Y111510D01*
Y110854D01*
X108969Y110198D01*
X108313D01*
X108969D01*
X109625Y109542D01*
Y108886D01*
X108969Y108230D01*
X107657D01*
X107001Y108886D01*
X187195Y111973D02*
Y114596D01*
X186539Y115252D01*
X185227D01*
X184571Y114596D01*
Y111973D01*
X185227Y111317D01*
X186539D01*
X185883Y112629D02*
X187195Y111317D01*
X186539D02*
X187195Y111973D01*
X190474Y111317D02*
Y115252D01*
X188507Y113285D01*
X191130D01*
X128793Y108936D02*
Y111560D01*
X128137Y112216D01*
X126825D01*
X126169Y111560D01*
Y108936D01*
X126825Y108280D01*
X128137D01*
X127481Y109592D02*
X128793Y108280D01*
X128137D02*
X128793Y108936D01*
X132729Y112216D02*
X130105D01*
Y110248D01*
X131417Y110904D01*
X132073D01*
X132729Y110248D01*
Y108936D01*
X132073Y108280D01*
X130761D01*
X130105Y108936D01*
X11328Y17095D02*
Y21030D01*
X13296D01*
X13952Y20374D01*
Y19062D01*
X13296Y18406D01*
X11328D01*
X12640D02*
X13952Y17095D01*
X15263D02*
X16575D01*
X15919D01*
Y21030D01*
X15263Y20374D01*
X78141Y199348D02*
Y203284D01*
X80109D01*
X80765Y202628D01*
Y201316D01*
X80109Y200660D01*
X78141D01*
X79453D02*
X80765Y199348D01*
X84700D02*
X82077D01*
X84700Y201972D01*
Y202628D01*
X84044Y203284D01*
X82733D01*
X82077Y202628D01*
X104768Y199352D02*
Y203287D01*
X106736D01*
X107392Y202631D01*
Y201320D01*
X106736Y200664D01*
X104768D01*
X106080D02*
X107392Y199352D01*
X108704Y202631D02*
X109360Y203287D01*
X110672D01*
X111328Y202631D01*
Y201975D01*
X110672Y201320D01*
X110016D01*
X110672D01*
X111328Y200664D01*
Y200008D01*
X110672Y199352D01*
X109360D01*
X108704Y200008D01*
X46021Y82888D02*
Y86823D01*
X47989D01*
X48645Y86167D01*
Y84855D01*
X47989Y84199D01*
X46021D01*
X47333D02*
X48645Y82888D01*
X51924D02*
Y86823D01*
X49956Y84855D01*
X52580D01*
X78218Y148413D02*
Y152349D01*
X80186D01*
X80842Y151693D01*
Y150381D01*
X80186Y149725D01*
X78218D01*
X79530D02*
X80842Y148413D01*
X84777Y152349D02*
X82154D01*
Y150381D01*
X83465Y151037D01*
X84121D01*
X84777Y150381D01*
Y149069D01*
X84121Y148413D01*
X82810D01*
X82154Y149069D01*
X104998Y148441D02*
Y152376D01*
X106966D01*
X107622Y151720D01*
Y150408D01*
X106966Y149752D01*
X104998D01*
X106310D02*
X107622Y148441D01*
X111558Y152376D02*
X110246Y151720D01*
X108934Y150408D01*
Y149096D01*
X109590Y148441D01*
X110902D01*
X111558Y149096D01*
Y149752D01*
X110902Y150408D01*
X108934D01*
X111776Y15592D02*
Y19528D01*
X113743D01*
X114400Y18872D01*
Y17560D01*
X113743Y16904D01*
X111776D01*
X113088D02*
X114400Y15592D01*
X115711Y19528D02*
X118335D01*
Y18872D01*
X115711Y16248D01*
Y15592D01*
X98894Y15784D02*
Y19719D01*
X100862D01*
X101518Y19063D01*
Y17752D01*
X100862Y17096D01*
X98894D01*
X100206D02*
X101518Y15784D01*
X102830Y19063D02*
X103486Y19719D01*
X104798D01*
X105454Y19063D01*
Y18407D01*
X104798Y17752D01*
X105454Y17096D01*
Y16440D01*
X104798Y15784D01*
X103486D01*
X102830Y16440D01*
Y17096D01*
X103486Y17752D01*
X102830Y18407D01*
Y19063D01*
X103486Y17752D02*
X104798D01*
X112100Y61083D02*
Y65019D01*
X114068D01*
X114724Y64363D01*
Y63051D01*
X114068Y62395D01*
X112100D01*
X113412D02*
X114724Y61083D01*
X116036Y61739D02*
X116692Y61083D01*
X118003D01*
X118659Y61739D01*
Y64363D01*
X118003Y65019D01*
X116692D01*
X116036Y64363D01*
Y63707D01*
X116692Y63051D01*
X118659D01*
X42164Y201730D02*
Y205666D01*
X44132D01*
X44788Y205010D01*
Y203698D01*
X44132Y203042D01*
X42164D01*
X43476D02*
X44788Y201730D01*
X46100D02*
X47412D01*
X46755D01*
Y205666D01*
X46100Y205010D01*
X49379D02*
X50035Y205666D01*
X51347D01*
X52003Y205010D01*
Y202386D01*
X51347Y201730D01*
X50035D01*
X49379Y202386D01*
Y205010D01*
X42285Y212973D02*
Y216909D01*
X44253D01*
X44909Y216253D01*
Y214941D01*
X44253Y214285D01*
X42285D01*
X43597D02*
X44909Y212973D01*
X46221D02*
X47533D01*
X46877D01*
Y216909D01*
X46221Y216253D01*
X49501Y212973D02*
X50813D01*
X50157D01*
Y216909D01*
X49501Y216253D01*
X42277Y228533D02*
Y224597D01*
Y228533D02*
X43964D01*
X44526Y228346D01*
X44713Y228158D01*
X44901Y227783D01*
Y227409D01*
X44713Y227034D01*
X44526Y226846D01*
X43964Y226659D01*
X42277D01*
X43589D02*
X44901Y224597D01*
X45782Y227783D02*
X46157Y227971D01*
X46719Y228533D01*
Y224597D01*
X48856Y227596D02*
Y227783D01*
X49043Y228158D01*
X49231Y228346D01*
X49606Y228533D01*
X50355D01*
X50730Y228346D01*
X50918Y228158D01*
X51105Y227783D01*
Y227409D01*
X50918Y227034D01*
X50543Y226471D01*
X48668Y224597D01*
X51292D01*
X57642Y267509D02*
Y271444D01*
X59610D01*
X60266Y270789D01*
Y269477D01*
X59610Y268821D01*
X57642D01*
X58954D02*
X60266Y267509D01*
X61578D02*
X62890D01*
X62234D01*
Y271444D01*
X61578Y270789D01*
X64858D02*
X65514Y271444D01*
X66825D01*
X67481Y270789D01*
Y270132D01*
X66825Y269477D01*
X66170D01*
X66825D01*
X67481Y268821D01*
Y268165D01*
X66825Y267509D01*
X65514D01*
X64858Y268165D01*
X55911Y287131D02*
Y291067D01*
X57879D01*
X58534Y290410D01*
Y289099D01*
X57879Y288443D01*
X55911D01*
X57223D02*
X58534Y287131D01*
X59846D02*
X61158D01*
X60502D01*
Y291067D01*
X59846Y290410D01*
X65094Y287131D02*
Y291067D01*
X63126Y289099D01*
X65750D01*
X98660Y136240D02*
Y140175D01*
X100628D01*
X101284Y139519D01*
Y138207D01*
X100628Y137551D01*
X98660D01*
X99972D02*
X101284Y136240D01*
X102596D02*
X103908D01*
X103252D01*
Y140175D01*
X102596Y139519D01*
X108499Y140175D02*
X105875D01*
Y138207D01*
X107187Y138864D01*
X107843D01*
X108499Y138207D01*
Y136896D01*
X107843Y136240D01*
X106531D01*
X105875Y136896D01*
X98595Y89288D02*
Y93224D01*
X100563D01*
X101218Y92567D01*
Y91256D01*
X100563Y90600D01*
X98595D01*
X99906D02*
X101218Y89288D01*
X102530D02*
X103842D01*
X103186D01*
Y93224D01*
X102530Y92567D01*
X108434Y93224D02*
X107122Y92567D01*
X105810Y91256D01*
Y89944D01*
X106466Y89288D01*
X107778D01*
X108434Y89944D01*
Y90600D01*
X107778Y91256D01*
X105810D01*
X185052Y129767D02*
Y133703D01*
X187020D01*
X187676Y133047D01*
Y131735D01*
X187020Y131079D01*
X185052D01*
X186364D02*
X187676Y129767D01*
X188988D02*
X190299D01*
X189643D01*
Y133703D01*
X188988Y133047D01*
X192267Y133703D02*
X194891D01*
Y133047D01*
X192267Y130423D01*
Y129767D01*
X203427Y39612D02*
Y43547D01*
X205395D01*
X206051Y42891D01*
Y41579D01*
X205395Y40924D01*
X203427D01*
X204739D02*
X206051Y39612D01*
X207363D02*
X208675D01*
X208019D01*
Y43547D01*
X207363Y42891D01*
X210643D02*
X211299Y43547D01*
X212611D01*
X213267Y42891D01*
Y42235D01*
X212611Y41579D01*
X213267Y40924D01*
Y40268D01*
X212611Y39612D01*
X211299D01*
X210643Y40268D01*
Y40924D01*
X211299Y41579D01*
X210643Y42235D01*
Y42891D01*
X211299Y41579D02*
X212611D01*
X121043Y136240D02*
Y140175D01*
X123010D01*
X123666Y139519D01*
Y138207D01*
X123010Y137551D01*
X121043D01*
X122354D02*
X123666Y136240D01*
X124978D02*
X126290D01*
X125634D01*
Y140175D01*
X124978Y139519D01*
X128258Y136896D02*
X128914Y136240D01*
X130226D01*
X130882Y136896D01*
Y139519D01*
X130226Y140175D01*
X128914D01*
X128258Y139519D01*
Y138864D01*
X128914Y138207D01*
X130882D01*
X120376Y89158D02*
Y93094D01*
X122344D01*
X123000Y92438D01*
Y91126D01*
X122344Y90470D01*
X120376D01*
X121688D02*
X123000Y89158D01*
X126936D02*
X124312D01*
X126936Y91782D01*
Y92438D01*
X126280Y93094D01*
X124968D01*
X124312Y92438D01*
X128248D02*
X128904Y93094D01*
X130216D01*
X130872Y92438D01*
Y89814D01*
X130216Y89158D01*
X128904D01*
X128248Y89814D01*
Y92438D01*
X185207Y141457D02*
Y145393D01*
X187175D01*
X187831Y144737D01*
Y143425D01*
X187175Y142769D01*
X185207D01*
X186519D02*
X187831Y141457D01*
X191767D02*
X189143D01*
X191767Y144081D01*
Y144737D01*
X191111Y145393D01*
X189799D01*
X189143Y144737D01*
X193078Y141457D02*
X194390D01*
X193735D01*
Y145393D01*
X193078Y144737D01*
X36312Y259145D02*
Y263081D01*
X38280D01*
X38936Y262425D01*
Y261113D01*
X38280Y260457D01*
X36312D01*
X37624D02*
X38936Y259145D01*
X42872D02*
X40248D01*
X42872Y261769D01*
Y262425D01*
X42216Y263081D01*
X40904D01*
X40248Y262425D01*
X46807Y259145D02*
X44183D01*
X46807Y261769D01*
Y262425D01*
X46151Y263081D01*
X44839D01*
X44183Y262425D01*
X86516Y237740D02*
X85516Y238740D01*
X83517D01*
X82517Y237740D01*
Y236740D01*
X83517Y235741D01*
X85516D01*
X86516Y234741D01*
Y233741D01*
X85516Y232742D01*
X83517D01*
X82517Y233741D01*
X88515Y238740D02*
Y232742D01*
X90514Y234741D01*
X92514Y232742D01*
Y238740D01*
X94513Y232742D02*
X96513D01*
X95513D01*
Y238740D01*
X94513Y237740D01*
X127284Y238623D02*
X126285Y239623D01*
X124285D01*
X123285Y238623D01*
Y237624D01*
X124285Y236624D01*
X126285D01*
X127284Y235624D01*
Y234625D01*
X126285Y233625D01*
X124285D01*
X123285Y234625D01*
X129284Y239623D02*
Y233625D01*
X131283Y235624D01*
X133282Y233625D01*
Y239623D01*
X139280Y233625D02*
X135282D01*
X139280Y237624D01*
Y238623D01*
X138281Y239623D01*
X136281D01*
X135282Y238623D01*
X170720Y238953D02*
X169721Y239952D01*
X167721D01*
X166722Y238953D01*
Y237953D01*
X167721Y236953D01*
X169721D01*
X170720Y235954D01*
Y234954D01*
X169721Y233954D01*
X167721D01*
X166722Y234954D01*
X172720Y239952D02*
Y233954D01*
X174719Y235954D01*
X176718Y233954D01*
Y239952D01*
X178718Y238953D02*
X179717Y239952D01*
X181717D01*
X182716Y238953D01*
Y237953D01*
X181717Y236953D01*
X180717D01*
X181717D01*
X182716Y235954D01*
Y234954D01*
X181717Y233954D01*
X179717D01*
X178718Y234954D01*
X71084Y77310D02*
Y72312D01*
X72084Y71312D01*
X74083D01*
X75083Y72312D01*
Y77310D01*
X77082Y76310D02*
X78082Y77310D01*
X80081D01*
X81081Y76310D01*
Y75311D01*
X80081Y74311D01*
X79082D01*
X80081D01*
X81081Y73311D01*
Y72312D01*
X80081Y71312D01*
X78082D01*
X77082Y72312D01*
X82803Y38871D02*
Y35592D01*
X83459Y34936D01*
X84771D01*
X85427Y35592D01*
Y38871D01*
X88706Y34936D02*
Y38871D01*
X86739Y36904D01*
X89363D01*
X36236Y184968D02*
Y179970D01*
X37236Y178970D01*
X39235D01*
X40235Y179970D01*
Y184968D01*
X46233D02*
X42234D01*
Y181969D01*
X44234Y182969D01*
X45233D01*
X46233Y181969D01*
Y179970D01*
X45233Y178970D01*
X43234D01*
X42234Y179970D01*
D15*
X150796Y114556D02*
D03*
M02*
