G04*
G04 #@! TF.GenerationSoftware,Altium Limited,Altium Designer,25.8.1 (18)*
G04*
G04 Layer_Color=16711935*
%FSLAX25Y25*%
%MOIN*%
G70*
G04*
G04 #@! TF.SameCoordinates,86F4F43E-E320-487D-8728-FE8D576B5409*
G04*
G04*
G04 #@! TF.FilePolarity,Negative*
G04*
G01*
G75*
%ADD34C,0.06201*%
%ADD35R,0.06201X0.06201*%
%ADD36C,0.05709*%
%ADD37R,0.06102X0.06102*%
%ADD38O,0.04134X0.07284*%
%ADD39O,0.04134X0.08465*%
%ADD40C,0.07795*%
%ADD41C,0.07618*%
%ADD42R,0.07795X0.07795*%
%ADD43R,0.05709X0.05709*%
%ADD44C,0.06102*%
%ADD45C,0.02559*%
%ADD46C,0.07087*%
%ADD47R,0.07087X0.07087*%
%ADD48C,0.05535*%
D34*
X32999Y298616D02*
D03*
D35*
Y308458D02*
D03*
D36*
X27559Y261653D02*
D03*
Y251654D02*
D03*
Y271654D02*
D03*
D37*
X174078Y246413D02*
D03*
X131353Y246083D02*
D03*
X89515Y246083D02*
D03*
D38*
X91631Y212D02*
D03*
X57615D02*
D03*
D39*
X91631Y16668D02*
D03*
X57615D02*
D03*
D40*
X146135Y91434D02*
D03*
Y43402D02*
D03*
X193379D02*
D03*
D41*
X169757Y99308D02*
D03*
D42*
X193379Y91434D02*
D03*
D43*
X27559Y281653D02*
D03*
D44*
X174078Y226728D02*
D03*
X131353Y226398D02*
D03*
X89515Y226398D02*
D03*
D45*
X63245Y14700D02*
D03*
X86001D02*
D03*
D46*
X189339Y9955D02*
D03*
X169653D02*
D03*
D47*
X149969D02*
D03*
D48*
X114921Y279213D02*
D03*
X144921D02*
D03*
X124921D02*
D03*
X134921D02*
D03*
X104921Y319213D02*
D03*
X154921Y279213D02*
D03*
Y319213D02*
D03*
X104921Y279213D02*
D03*
X114921Y319213D02*
D03*
X144921D02*
D03*
X134921D02*
D03*
X124921D02*
D03*
M02*
