G04*
G04 #@! TF.GenerationSoftware,Altium Limited,Altium Designer,25.8.1 (18)*
G04*
G04 Layer_Physical_Order=1*
G04 Layer_Color=255*
%FSLAX25Y25*%
%MOIN*%
G70*
G04*
G04 #@! TF.SameCoordinates,86F4F43E-E320-487D-8728-FE8D576B5409*
G04*
G04*
G04 #@! TF.FilePolarity,Positive*
G04*
G01*
G75*
%ADD16R,0.01772X0.05906*%
%ADD17R,0.05709X0.07480*%
%ADD18R,0.05906X0.07480*%
G04:AMPARAMS|DCode=19|XSize=67.21mil|YSize=24.25mil|CornerRadius=12.12mil|HoleSize=0mil|Usage=FLASHONLY|Rotation=0.000|XOffset=0mil|YOffset=0mil|HoleType=Round|Shape=RoundedRectangle|*
%AMROUNDEDRECTD19*
21,1,0.06721,0.00000,0,0,0.0*
21,1,0.04296,0.02425,0,0,0.0*
1,1,0.02425,0.02148,0.00000*
1,1,0.02425,-0.02148,0.00000*
1,1,0.02425,-0.02148,0.00000*
1,1,0.02425,0.02148,0.00000*
%
%ADD19ROUNDEDRECTD19*%
%ADD20R,0.05906X0.05906*%
G04:AMPARAMS|DCode=21|XSize=51.58mil|YSize=24.41mil|CornerRadius=3.05mil|HoleSize=0mil|Usage=FLASHONLY|Rotation=90.000|XOffset=0mil|YOffset=0mil|HoleType=Round|Shape=RoundedRectangle|*
%AMROUNDEDRECTD21*
21,1,0.05158,0.01831,0,0,90.0*
21,1,0.04547,0.02441,0,0,90.0*
1,1,0.00610,0.00915,0.02274*
1,1,0.00610,0.00915,-0.02274*
1,1,0.00610,-0.00915,-0.02274*
1,1,0.00610,-0.00915,0.02274*
%
%ADD21ROUNDEDRECTD21*%
%ADD22R,0.02362X0.04528*%
G04:AMPARAMS|DCode=23|XSize=47.64mil|YSize=23.23mil|CornerRadius=2.9mil|HoleSize=0mil|Usage=FLASHONLY|Rotation=90.000|XOffset=0mil|YOffset=0mil|HoleType=Round|Shape=RoundedRectangle|*
%AMROUNDEDRECTD23*
21,1,0.04764,0.01742,0,0,90.0*
21,1,0.04183,0.02323,0,0,90.0*
1,1,0.00581,0.00871,0.02092*
1,1,0.00581,0.00871,-0.02092*
1,1,0.00581,-0.00871,-0.02092*
1,1,0.00581,-0.00871,0.02092*
%
%ADD23ROUNDEDRECTD23*%
%ADD24R,0.07480X0.05709*%
%ADD25R,0.03150X0.03150*%
%ADD26R,0.07480X0.05906*%
%ADD27R,0.06721X0.02425*%
%ADD28R,0.03740X0.03543*%
G04:AMPARAMS|DCode=29|XSize=66.93mil|YSize=24.02mil|CornerRadius=3mil|HoleSize=0mil|Usage=FLASHONLY|Rotation=180.000|XOffset=0mil|YOffset=0mil|HoleType=Round|Shape=RoundedRectangle|*
%AMROUNDEDRECTD29*
21,1,0.06693,0.01801,0,0,180.0*
21,1,0.06093,0.02402,0,0,180.0*
1,1,0.00600,-0.03046,0.00901*
1,1,0.00600,0.03046,0.00901*
1,1,0.00600,0.03046,-0.00901*
1,1,0.00600,-0.03046,-0.00901*
%
%ADD29ROUNDEDRECTD29*%
%ADD30R,0.05906X0.05906*%
%ADD31R,0.01181X0.04528*%
%ADD32R,0.03543X0.03740*%
%ADD33R,0.03150X0.03150*%
%ADD34C,0.06201*%
%ADD35R,0.06201X0.06201*%
%ADD36C,0.05709*%
%ADD37R,0.06102X0.06102*%
%ADD38O,0.04134X0.07284*%
%ADD39O,0.04134X0.08465*%
%ADD40C,0.07795*%
%ADD41C,0.07618*%
%ADD42R,0.07795X0.07795*%
%ADD43R,0.05709X0.05709*%
%ADD44C,0.06102*%
%ADD45C,0.02559*%
%ADD46C,0.07087*%
%ADD47R,0.07087X0.07087*%
%ADD48C,0.05535*%
%ADD49C,0.01181*%
%ADD50C,0.01968*%
%ADD51C,0.02362*%
%ADD52C,0.05906*%
%ADD53C,0.01575*%
%ADD54C,0.02362*%
%ADD55C,0.03150*%
G36*
X206325Y340761D02*
X205612Y340324D01*
X204194Y339113D01*
X202983Y337695D01*
X202008Y336104D01*
X201295Y334382D01*
X200859Y332568D01*
X200713Y330709D01*
X200859Y328849D01*
X201295Y327036D01*
X202008Y325313D01*
X202983Y323723D01*
X204194Y322304D01*
X205612Y321093D01*
X207203Y320119D01*
X208926Y319405D01*
X210739Y318969D01*
X212598Y318823D01*
X214458Y318969D01*
X216271Y319405D01*
X217994Y320119D01*
X219584Y321093D01*
X221003Y322304D01*
X222214Y323723D01*
X222651Y324435D01*
X223359Y324235D01*
X223359Y6473D01*
X222651Y6273D01*
X222214Y6986D01*
X221003Y8404D01*
X219584Y9616D01*
X217994Y10590D01*
X216271Y11304D01*
X214458Y11739D01*
X212598Y11885D01*
X210739Y11739D01*
X208926Y11304D01*
X207203Y10590D01*
X205612Y9616D01*
X204194Y8404D01*
X202983Y6986D01*
X202008Y5396D01*
X201295Y3673D01*
X200859Y1859D01*
X200713Y0D01*
X200859Y-1859D01*
X201295Y-3673D01*
X202008Y-5396D01*
X202983Y-6986D01*
X204194Y-8404D01*
X205612Y-9616D01*
X206325Y-10052D01*
X206125Y-10761D01*
X22221D01*
X22021Y-10052D01*
X22734Y-9616D01*
X24152Y-8404D01*
X25364Y-6986D01*
X26338Y-5396D01*
X27052Y-3673D01*
X27487Y-1859D01*
X27634Y0D01*
X27487Y1859D01*
X27052Y3673D01*
X26338Y5396D01*
X25364Y6986D01*
X24152Y8404D01*
X22734Y9616D01*
X21144Y10590D01*
X19421Y11304D01*
X17607Y11739D01*
X15748Y11885D01*
X13889Y11739D01*
X12075Y11304D01*
X10352Y10590D01*
X8762Y9616D01*
X7344Y8404D01*
X6132Y6986D01*
X5696Y6273D01*
X4987Y6473D01*
X4987Y324235D01*
X5696Y324435D01*
X6132Y323723D01*
X7344Y322304D01*
X8762Y321093D01*
X10352Y320119D01*
X12075Y319405D01*
X13889Y318969D01*
X15748Y318823D01*
X17607Y318969D01*
X19421Y319405D01*
X21144Y320119D01*
X22734Y321093D01*
X24152Y322304D01*
X25364Y323723D01*
X26338Y325313D01*
X27052Y327036D01*
X27487Y328849D01*
X27634Y330709D01*
X27487Y332568D01*
X27052Y334382D01*
X26338Y336104D01*
X25364Y337695D01*
X24152Y339113D01*
X22734Y340324D01*
X22021Y340761D01*
X22221Y341470D01*
X206125D01*
X206325Y340761D01*
D02*
G37*
%LPC*%
G36*
X125355Y322510D02*
X124487D01*
X123648Y322286D01*
X122897Y321851D01*
X122283Y321237D01*
X121848Y320485D01*
X121624Y319647D01*
Y318778D01*
X121848Y317940D01*
X122283Y317188D01*
X122897Y316574D01*
X123648Y316140D01*
X124487Y315915D01*
X125355D01*
X126194Y316140D01*
X126946Y316574D01*
X127560Y317188D01*
X127994Y317940D01*
X128219Y318778D01*
Y319647D01*
X127994Y320485D01*
X127560Y321237D01*
X126946Y321851D01*
X126194Y322286D01*
X125355Y322510D01*
D02*
G37*
G36*
X115355D02*
X114487D01*
X113648Y322286D01*
X112897Y321851D01*
X112283Y321237D01*
X111848Y320485D01*
X111624Y319647D01*
Y318778D01*
X111848Y317940D01*
X112283Y317188D01*
X112897Y316574D01*
X113648Y316140D01*
X114487Y315915D01*
X115355D01*
X116194Y316140D01*
X116946Y316574D01*
X117560Y317188D01*
X117994Y317940D01*
X118219Y318778D01*
Y319647D01*
X117994Y320485D01*
X117560Y321237D01*
X116946Y321851D01*
X116194Y322286D01*
X115355Y322510D01*
D02*
G37*
G36*
X65412Y315261D02*
X61960D01*
Y311021D01*
X65412D01*
Y315261D01*
D02*
G37*
G36*
X60960D02*
X57507D01*
Y311021D01*
X60960D01*
Y315261D01*
D02*
G37*
G36*
X37100Y312559D02*
X33499D01*
Y308958D01*
X37100D01*
Y312559D01*
D02*
G37*
G36*
X32499D02*
X28899D01*
Y308958D01*
X32499D01*
Y312559D01*
D02*
G37*
G36*
X145355Y322510D02*
X144487D01*
X143648Y322286D01*
X142896Y321851D01*
X142282Y321237D01*
X141848Y320485D01*
X141624Y319647D01*
Y318778D01*
X141848Y317940D01*
X142282Y317188D01*
X142896Y316574D01*
X143648Y316140D01*
X143966Y316055D01*
Y305917D01*
X143943Y305894D01*
X135237D01*
X135017Y306550D01*
X135015Y306603D01*
X135695Y307282D01*
X135943Y307653D01*
X136030Y308090D01*
Y316096D01*
X136194Y316140D01*
X136946Y316574D01*
X137560Y317188D01*
X137994Y317940D01*
X138219Y318778D01*
Y319647D01*
X137994Y320485D01*
X137560Y321237D01*
X136946Y321851D01*
X136194Y322286D01*
X135355Y322510D01*
X134487D01*
X133648Y322286D01*
X132896Y321851D01*
X132282Y321237D01*
X131848Y320485D01*
X131624Y319647D01*
Y318778D01*
X131848Y317940D01*
X132282Y317188D01*
X132896Y316574D01*
X133648Y316140D01*
X133745Y316114D01*
Y308563D01*
X133722Y308541D01*
X116463D01*
X116025Y308454D01*
X115655Y308206D01*
X93759Y286310D01*
X93662Y286165D01*
X92953Y286380D01*
Y287774D01*
X105676Y300497D01*
X105924Y300867D01*
X106011Y301305D01*
Y316091D01*
X106194Y316140D01*
X106946Y316574D01*
X107560Y317188D01*
X107994Y317940D01*
X108219Y318778D01*
Y319647D01*
X107994Y320485D01*
X107560Y321237D01*
X106946Y321851D01*
X106194Y322286D01*
X105355Y322510D01*
X104487D01*
X103648Y322286D01*
X102896Y321851D01*
X102283Y321237D01*
X101848Y320485D01*
X101624Y319647D01*
Y318778D01*
X101848Y317940D01*
X102283Y317188D01*
X102896Y316574D01*
X103648Y316140D01*
X103726Y316119D01*
Y301778D01*
X91003Y289055D01*
X90755Y288684D01*
X90668Y288247D01*
Y277151D01*
X90755Y276714D01*
X91003Y276343D01*
X118761Y248585D01*
Y241986D01*
X118571Y241908D01*
X117979Y241316D01*
X117659Y240542D01*
Y239705D01*
X117979Y238931D01*
X118571Y238339D01*
X119345Y238019D01*
X120182D01*
X120956Y238339D01*
X121548Y238931D01*
X121868Y239705D01*
Y240542D01*
X121548Y241316D01*
X121046Y241817D01*
Y249059D01*
X120959Y249496D01*
X120711Y249866D01*
X116006Y254571D01*
X116356Y255224D01*
X116404Y255214D01*
X154231D01*
X154511Y254934D01*
X155285Y254613D01*
X156122D01*
X156896Y254934D01*
X157488Y255526D01*
X157808Y256299D01*
Y257137D01*
X157488Y257910D01*
X156896Y258502D01*
X156122Y258822D01*
X155285D01*
X154511Y258502D01*
X153919Y257910D01*
X153749Y257499D01*
X151467D01*
X151085Y258208D01*
X151289Y258700D01*
Y259538D01*
X150968Y260311D01*
X150376Y260903D01*
X149603Y261224D01*
X148765D01*
X147992Y260903D01*
X147400Y260311D01*
X147351Y260194D01*
X117870D01*
X98475Y279590D01*
Y282759D01*
X119325Y303609D01*
X144416D01*
X144854Y303696D01*
X145224Y303944D01*
X145916Y304636D01*
X146164Y305007D01*
X146251Y305444D01*
Y316173D01*
X146946Y316574D01*
X147560Y317188D01*
X147994Y317940D01*
X148219Y318778D01*
Y319647D01*
X147994Y320485D01*
X147560Y321237D01*
X146946Y321851D01*
X146194Y322286D01*
X145355Y322510D01*
D02*
G37*
G36*
X65412Y310021D02*
X61960D01*
Y305781D01*
X65412D01*
Y310021D01*
D02*
G37*
G36*
X60960D02*
X57507D01*
Y305781D01*
X60960D01*
Y310021D01*
D02*
G37*
G36*
X37100Y307958D02*
X33499D01*
Y304358D01*
X37100D01*
Y307958D01*
D02*
G37*
G36*
X32499D02*
X28899D01*
Y304358D01*
X32499D01*
Y307958D01*
D02*
G37*
G36*
X53131Y314791D02*
X46166D01*
Y306251D01*
X48006D01*
Y302520D01*
X46166D01*
Y300160D01*
X36300D01*
X35904Y300845D01*
X35228Y301521D01*
X34401Y301999D01*
X33477Y302246D01*
X32521D01*
X31598Y301999D01*
X30770Y301521D01*
X30094Y300845D01*
X29616Y300017D01*
X29369Y299094D01*
Y298138D01*
X29616Y297215D01*
X30094Y296387D01*
X30770Y295711D01*
X31598Y295233D01*
X32521Y294986D01*
X33477D01*
X34401Y295233D01*
X35228Y295711D01*
X35904Y296387D01*
X36300Y297072D01*
X46166D01*
Y293980D01*
X48474D01*
Y291548D01*
X48424Y291527D01*
X47832Y290935D01*
X47512Y290162D01*
Y289324D01*
X47832Y288551D01*
X48424Y287959D01*
X49198Y287638D01*
X50035D01*
X50809Y287959D01*
X51401Y288551D01*
X51721Y289324D01*
Y290162D01*
X51401Y290935D01*
X50809Y291527D01*
X50759Y291548D01*
Y293980D01*
X52934D01*
Y302520D01*
X51094D01*
Y306251D01*
X53131D01*
Y314791D01*
D02*
G37*
G36*
X155355Y322510D02*
X154487D01*
X153648Y322286D01*
X152896Y321851D01*
X152283Y321237D01*
X151848Y320485D01*
X151624Y319647D01*
Y318778D01*
X151848Y317940D01*
X152283Y317188D01*
X152896Y316574D01*
X153648Y316140D01*
X154004Y316044D01*
Y297085D01*
X153587Y296668D01*
X153266Y295894D01*
Y295057D01*
X153587Y294283D01*
X154179Y293691D01*
X154952Y293371D01*
X155790D01*
X156563Y293691D01*
X157155Y294283D01*
X157476Y295057D01*
Y295894D01*
X157155Y296668D01*
X156563Y297260D01*
X156289Y297374D01*
Y316194D01*
X156946Y316574D01*
X157560Y317188D01*
X157994Y317940D01*
X158219Y318778D01*
Y319647D01*
X157994Y320485D01*
X157560Y321237D01*
X156946Y321851D01*
X156194Y322286D01*
X155355Y322510D01*
D02*
G37*
G36*
Y282510D02*
X154487D01*
X153648Y282285D01*
X152896Y281851D01*
X152283Y281237D01*
X151848Y280485D01*
X151624Y279647D01*
Y278779D01*
X151848Y277940D01*
X152283Y277188D01*
X152896Y276574D01*
X153648Y276140D01*
X154487Y275915D01*
X155355D01*
X156194Y276140D01*
X156946Y276574D01*
X157560Y277188D01*
X157994Y277940D01*
X158219Y278779D01*
Y279647D01*
X157994Y280485D01*
X157560Y281237D01*
X156946Y281851D01*
X156194Y282285D01*
X155355Y282510D01*
D02*
G37*
G36*
X145355D02*
X144487D01*
X143648Y282285D01*
X142896Y281851D01*
X142282Y281237D01*
X141848Y280485D01*
X141624Y279647D01*
Y278779D01*
X141848Y277940D01*
X142282Y277188D01*
X142896Y276574D01*
X143648Y276140D01*
X144487Y275915D01*
X145355D01*
X146194Y276140D01*
X146946Y276574D01*
X147560Y277188D01*
X147994Y277940D01*
X148219Y278779D01*
Y279647D01*
X147994Y280485D01*
X147560Y281237D01*
X146946Y281851D01*
X146194Y282285D01*
X145355Y282510D01*
D02*
G37*
G36*
X115355D02*
X114487D01*
X113648Y282285D01*
X112897Y281851D01*
X112283Y281237D01*
X111848Y280485D01*
X111624Y279647D01*
Y278779D01*
X111848Y277940D01*
X112283Y277188D01*
X112897Y276574D01*
X113648Y276140D01*
X114487Y275915D01*
X115355D01*
X116194Y276140D01*
X116946Y276574D01*
X117560Y277188D01*
X117994Y277940D01*
X118219Y278779D01*
Y279647D01*
X117994Y280485D01*
X117560Y281237D01*
X116946Y281851D01*
X116194Y282285D01*
X115355Y282510D01*
D02*
G37*
G36*
X105355D02*
X104487D01*
X103648Y282285D01*
X102896Y281851D01*
X102283Y281237D01*
X101848Y280485D01*
X101624Y279647D01*
Y278779D01*
X101848Y277940D01*
X102283Y277188D01*
X102896Y276574D01*
X103648Y276140D01*
X104487Y275915D01*
X105355D01*
X106194Y276140D01*
X106946Y276574D01*
X107560Y277188D01*
X107994Y277940D01*
X108219Y278779D01*
Y279647D01*
X107994Y280485D01*
X107560Y281237D01*
X106946Y281851D01*
X106194Y282285D01*
X105355Y282510D01*
D02*
G37*
G36*
X30943Y285038D02*
X24175D01*
Y278269D01*
X30943D01*
Y280561D01*
X38525D01*
X41629Y277457D01*
Y259061D01*
X41716Y258623D01*
X41964Y258253D01*
X44557Y255660D01*
Y254872D01*
X44877Y254099D01*
X45469Y253507D01*
X46243Y253186D01*
X47080D01*
X47853Y253507D01*
X48446Y254099D01*
X48766Y254872D01*
Y255710D01*
X48446Y256483D01*
X47853Y257075D01*
X47080Y257396D01*
X46243D01*
X46108Y257340D01*
X43914Y259534D01*
Y265874D01*
X44094Y265973D01*
X44623Y266091D01*
X45103Y265611D01*
X45876Y265290D01*
X46714D01*
X47487Y265611D01*
X48079Y266203D01*
X48400Y266976D01*
Y267814D01*
X48379Y267863D01*
X49358Y268843D01*
X63340D01*
X64414Y267769D01*
Y264569D01*
X62104D01*
Y256029D01*
X68872D01*
Y264569D01*
X66698D01*
Y268242D01*
X66611Y268679D01*
X66364Y269050D01*
X64621Y270793D01*
X64250Y271041D01*
X63813Y271128D01*
X48885D01*
X48448Y271041D01*
X48077Y270793D01*
X46764Y269479D01*
X46714Y269500D01*
X45876D01*
X45103Y269179D01*
X44623Y268699D01*
X44094Y268817D01*
X43914Y268916D01*
Y276764D01*
X46166D01*
Y274024D01*
X52934D01*
Y282564D01*
X46166D01*
Y279049D01*
X43268D01*
X39806Y282511D01*
X39436Y282758D01*
X38998Y282845D01*
X30943D01*
Y285038D01*
D02*
G37*
G36*
X28005Y275038D02*
X27114D01*
X26253Y274807D01*
X25481Y274362D01*
X24851Y273731D01*
X24406Y272960D01*
X24175Y272099D01*
Y271208D01*
X24406Y270347D01*
X24851Y269576D01*
X25481Y268946D01*
X26253Y268500D01*
X27114Y268269D01*
X28005D01*
X28865Y268500D01*
X29637Y268946D01*
X30267Y269576D01*
X30713Y270347D01*
X30943Y271208D01*
Y272099D01*
X30713Y272960D01*
X30267Y273731D01*
X29637Y274362D01*
X28865Y274807D01*
X28005Y275038D01*
D02*
G37*
G36*
X28067Y265508D02*
X28059D01*
Y262154D01*
X31413D01*
Y262161D01*
X31151Y263141D01*
X30643Y264020D01*
X29926Y264738D01*
X29047Y265245D01*
X28067Y265508D01*
D02*
G37*
G36*
X27059D02*
X27052D01*
X26071Y265245D01*
X25192Y264738D01*
X24475Y264020D01*
X23967Y263141D01*
X23705Y262161D01*
Y262154D01*
X27059D01*
Y265508D01*
D02*
G37*
G36*
X31413Y261154D02*
X28059D01*
Y257799D01*
X28067D01*
X29047Y258062D01*
X29926Y258569D01*
X30643Y259287D01*
X31151Y260166D01*
X31413Y261146D01*
Y261154D01*
D02*
G37*
G36*
X27059D02*
X23705D01*
Y261146D01*
X23967Y260166D01*
X24475Y259287D01*
X25192Y258569D01*
X26071Y258062D01*
X27052Y257799D01*
X27059D01*
Y261154D01*
D02*
G37*
G36*
X64942Y302520D02*
X58174D01*
Y293980D01*
X60215D01*
Y282564D01*
X58174D01*
Y274024D01*
X64942D01*
Y278185D01*
X66913D01*
X74984Y270113D01*
Y249917D01*
X74923Y249892D01*
X74516Y249484D01*
X67987D01*
Y250575D01*
X63383D01*
Y245775D01*
X67987D01*
Y246798D01*
X74448D01*
X74923Y246323D01*
X75697Y246003D01*
X76534D01*
X77308Y246323D01*
X77900Y246915D01*
X78220Y247689D01*
Y248526D01*
X77900Y249300D01*
X77670Y249529D01*
Y270669D01*
X77568Y271183D01*
X77277Y271619D01*
X68419Y280477D01*
X67983Y280768D01*
X67469Y280871D01*
X64942D01*
Y282564D01*
X62901D01*
Y293980D01*
X64942D01*
Y302520D01*
D02*
G37*
G36*
X56865Y264569D02*
X50096D01*
Y256029D01*
X52338D01*
Y250575D01*
X50982D01*
Y249289D01*
X31441D01*
X30592Y250139D01*
X30713Y250347D01*
X30943Y251208D01*
Y252099D01*
X30713Y252960D01*
X30267Y253731D01*
X29637Y254362D01*
X28865Y254807D01*
X28005Y255038D01*
X27114D01*
X26253Y254807D01*
X25481Y254362D01*
X24851Y253731D01*
X24406Y252960D01*
X24175Y252099D01*
Y251208D01*
X24406Y250347D01*
X24851Y249576D01*
X25481Y248945D01*
X26253Y248500D01*
X27114Y248269D01*
X28005D01*
X28865Y248500D01*
X28951Y248549D01*
X30160Y247339D01*
X30531Y247092D01*
X30968Y247005D01*
X50982D01*
Y245775D01*
X55585D01*
Y250575D01*
X54623D01*
Y256029D01*
X56865D01*
Y264569D01*
D02*
G37*
G36*
X178129Y250464D02*
X174578D01*
Y246913D01*
X178129D01*
Y250464D01*
D02*
G37*
G36*
X173578D02*
X170027D01*
Y246913D01*
X173578D01*
Y250464D01*
D02*
G37*
G36*
X93566Y250134D02*
X90015D01*
Y246583D01*
X93566D01*
Y250134D01*
D02*
G37*
G36*
X89015D02*
X85464D01*
Y246583D01*
X89015D01*
Y250134D01*
D02*
G37*
G36*
X135405Y250134D02*
X131853D01*
Y246583D01*
X135405D01*
Y250134D01*
D02*
G37*
G36*
X130853D02*
X127302D01*
Y246583D01*
X130853D01*
Y250134D01*
D02*
G37*
G36*
X178129Y245913D02*
X174578D01*
Y242362D01*
X178129D01*
Y245913D01*
D02*
G37*
G36*
X173578D02*
X170027D01*
Y242362D01*
X173578D01*
Y245913D01*
D02*
G37*
G36*
X93566Y245583D02*
X90015D01*
Y242032D01*
X93566D01*
Y245583D01*
D02*
G37*
G36*
X89015D02*
X85464D01*
Y242032D01*
X89015D01*
Y245583D01*
D02*
G37*
G36*
X135405Y245583D02*
X131853D01*
Y242032D01*
X135405D01*
Y245583D01*
D02*
G37*
G36*
X130853D02*
X127302D01*
Y242032D01*
X130853D01*
Y245583D01*
D02*
G37*
G36*
X44105Y244429D02*
X43268D01*
X42494Y244108D01*
X41902Y243516D01*
X41582Y242743D01*
Y242368D01*
X40782Y241568D01*
X39139D01*
Y244093D01*
X32174D01*
Y237128D01*
X39139D01*
Y239283D01*
X41255D01*
X41693Y239370D01*
X42063Y239618D01*
X42841Y240396D01*
X43268Y240219D01*
X44105D01*
X44879Y240540D01*
X45470Y241132D01*
X45791Y241905D01*
Y242743D01*
X45470Y243516D01*
X44879Y244108D01*
X44105Y244429D01*
D02*
G37*
G36*
X25830Y244563D02*
X22377D01*
Y241111D01*
X25830D01*
Y244563D01*
D02*
G37*
G36*
X21377D02*
X17924D01*
Y241111D01*
X21377D01*
Y244563D01*
D02*
G37*
G36*
X25830Y240111D02*
X22377D01*
Y236658D01*
X25830D01*
Y240111D01*
D02*
G37*
G36*
X21377D02*
X17924D01*
Y236658D01*
X21377D01*
Y240111D01*
D02*
G37*
G36*
X173155Y235594D02*
X70719Y235594D01*
X70205Y235492D01*
X69769Y235201D01*
X62872Y228303D01*
X46963D01*
X46522Y228745D01*
X45748Y229065D01*
X44911D01*
X44138Y228745D01*
X43696Y228303D01*
X40033D01*
Y231008D01*
X33264D01*
Y222468D01*
X40033D01*
Y225617D01*
X43696D01*
X44138Y225176D01*
X44911Y224856D01*
X45748D01*
X46522Y225176D01*
X46963Y225617D01*
X63428D01*
X63942Y225719D01*
X64378Y226011D01*
X71275Y232908D01*
X165196Y232908D01*
X165348Y232246D01*
X165349Y232199D01*
X164765Y231615D01*
X164744Y231565D01*
X162600D01*
X162163Y231478D01*
X161793Y231231D01*
X158290Y227728D01*
X158042Y227357D01*
X157955Y226920D01*
Y225208D01*
X157247Y224914D01*
X157145Y225015D01*
X156372Y225336D01*
X155534D01*
X154761Y225015D01*
X154169Y224424D01*
X153848Y223650D01*
Y222813D01*
X154169Y222039D01*
X154761Y221447D01*
X154780Y221439D01*
Y211558D01*
X154699Y211524D01*
X154107Y210932D01*
X153787Y210159D01*
Y209321D01*
X154107Y208548D01*
X154699Y207956D01*
X155473Y207635D01*
X156310D01*
X157084Y207956D01*
X157247Y208119D01*
X157955Y207825D01*
Y194995D01*
X157933Y194972D01*
X144816D01*
X144768Y195211D01*
X144585Y195486D01*
X144310Y195669D01*
X143986Y195734D01*
X137894D01*
X137570Y195669D01*
X137295Y195486D01*
X137112Y195211D01*
X137047Y194887D01*
Y193086D01*
X137112Y192762D01*
X137295Y192488D01*
X137570Y192304D01*
X137894Y192240D01*
X143986D01*
X144310Y192304D01*
X144585Y192488D01*
X144718Y192687D01*
X158406D01*
X158843Y192774D01*
X159214Y193022D01*
X159905Y193714D01*
X160153Y194085D01*
X160240Y194522D01*
Y221921D01*
X160949Y222282D01*
X161252Y222062D01*
Y190773D01*
X161339Y190336D01*
X161586Y189965D01*
X163372Y188179D01*
X163743Y187931D01*
X164180Y187844D01*
X174576D01*
X174592Y187762D01*
X174776Y187488D01*
X175050Y187304D01*
X175374Y187240D01*
X181466D01*
X181790Y187304D01*
X182065Y187488D01*
X182248Y187762D01*
X182313Y188086D01*
Y189887D01*
X182248Y190211D01*
X182065Y190486D01*
X181790Y190669D01*
X181466Y190734D01*
X175374D01*
X175050Y190669D01*
X174776Y190486D01*
X174592Y190211D01*
X174576Y190129D01*
X164653D01*
X163537Y191246D01*
Y222411D01*
X163586Y222431D01*
X164178Y223023D01*
X164499Y223797D01*
Y224634D01*
X164178Y225408D01*
X163586Y226000D01*
X162813Y226320D01*
X161975D01*
X161299Y226040D01*
X160854Y226178D01*
X160539Y226340D01*
X160488Y226695D01*
X163074Y229280D01*
X164744D01*
X164765Y229231D01*
X165357Y228639D01*
X166130Y228318D01*
X166968D01*
X167741Y228639D01*
X168333Y229231D01*
X168654Y230004D01*
Y230842D01*
X168333Y231615D01*
X167749Y232199D01*
X167750Y232246D01*
X167902Y232908D01*
X172082D01*
X172735Y232255D01*
Y230075D01*
X172696Y230065D01*
X171879Y229593D01*
X171212Y228927D01*
X170741Y228110D01*
X170497Y227199D01*
Y226256D01*
X170741Y225346D01*
X171212Y224529D01*
X171879Y223862D01*
X172696Y223391D01*
X173606Y223147D01*
X174549D01*
X175460Y223391D01*
X176277Y223862D01*
X176943Y224529D01*
X177415Y225346D01*
X177659Y226256D01*
Y227199D01*
X177415Y228110D01*
X176943Y228927D01*
X176277Y229593D01*
X175460Y230065D01*
X175421Y230075D01*
Y233328D01*
X175319Y233842D01*
X175028Y234278D01*
X174105Y235201D01*
X173669Y235492D01*
X173155Y235594D01*
D02*
G37*
G36*
X89986Y229979D02*
X89043D01*
X88133Y229735D01*
X87316Y229264D01*
X86649Y228597D01*
X86178Y227781D01*
X86067Y227366D01*
X68053D01*
X67539Y227264D01*
X67103Y226973D01*
X61920Y221789D01*
X61211Y222083D01*
Y222585D01*
X60891Y223358D01*
X60299Y223950D01*
X59525Y224271D01*
X58688D01*
X57914Y223950D01*
X57322Y223358D01*
X57002Y222585D01*
Y221961D01*
X51359Y216318D01*
X39971D01*
Y219093D01*
X33202D01*
Y210553D01*
X39971D01*
Y213631D01*
X51915D01*
X52429Y213734D01*
X52865Y214025D01*
X58563Y219723D01*
X58803Y219675D01*
X59036Y218906D01*
X51694Y211563D01*
X49284D01*
X48770Y211461D01*
X48334Y211170D01*
X42355Y205191D01*
X39914D01*
Y207397D01*
X33146D01*
Y199564D01*
X31126Y197545D01*
X30835Y197109D01*
X30733Y196595D01*
Y196548D01*
X28101D01*
Y194129D01*
X24270D01*
X23829Y194570D01*
X23056Y194891D01*
X22218D01*
X21445Y194570D01*
X20853Y193978D01*
X20532Y193205D01*
Y192367D01*
X20853Y191594D01*
X21445Y191002D01*
X22218Y190681D01*
X23056D01*
X23829Y191002D01*
X24270Y191443D01*
X28101D01*
Y189583D01*
X33485D01*
Y188572D01*
X32677Y187764D01*
X24546D01*
X24525Y187814D01*
X23933Y188406D01*
X23159Y188726D01*
X22322D01*
X21548Y188406D01*
X20956Y187814D01*
X20636Y187040D01*
Y186203D01*
X20956Y185430D01*
X21548Y184838D01*
X21196Y184264D01*
X21068Y184136D01*
X20748Y183363D01*
Y182525D01*
X21068Y181752D01*
X21314Y181507D01*
X21651Y181144D01*
X21314Y180581D01*
X21168Y180435D01*
X20847Y179661D01*
Y178824D01*
X21168Y178051D01*
X21339Y177879D01*
X21702Y177389D01*
X21339Y176953D01*
X21141Y176756D01*
X20821Y175982D01*
Y175145D01*
X21141Y174371D01*
X21733Y173779D01*
X22507Y173459D01*
X23344D01*
X24117Y173779D01*
X24579Y174240D01*
X27663D01*
X28101Y173713D01*
Y166748D01*
X36052D01*
Y162652D01*
X36139Y162215D01*
X36266Y162024D01*
Y155040D01*
X43232D01*
Y163580D01*
X38337D01*
Y166748D01*
X42985D01*
Y166278D01*
X44371D01*
Y170231D01*
Y174183D01*
X42985D01*
Y173713D01*
X38385D01*
Y177636D01*
X38298Y178074D01*
X38050Y178444D01*
X32743Y183752D01*
X32372Y184000D01*
X31935Y184086D01*
X24658D01*
X24637Y184136D01*
X24045Y184728D01*
X24397Y185302D01*
X24525Y185430D01*
X24546Y185479D01*
X33150D01*
X33587Y185566D01*
X33958Y185814D01*
X35343Y187199D01*
X35716Y187131D01*
X36052Y186939D01*
Y182793D01*
X36139Y182356D01*
X36386Y181986D01*
X39632Y178740D01*
X39611Y178690D01*
Y177853D01*
X39931Y177079D01*
X40524Y176488D01*
X41297Y176167D01*
X42134D01*
X42908Y176488D01*
X43500Y177079D01*
X43821Y177853D01*
Y178690D01*
X43500Y179464D01*
X42908Y180056D01*
X42134Y180376D01*
X41297D01*
X41247Y180356D01*
X38337Y183267D01*
Y186287D01*
X38593Y186455D01*
X39045Y186560D01*
X43853Y181752D01*
X44224Y181504D01*
X44661Y181418D01*
X47415D01*
X47435Y181368D01*
X48027Y180776D01*
X48801Y180455D01*
X49638D01*
X50412Y180776D01*
X51004Y181368D01*
X51324Y182141D01*
Y182979D01*
X51004Y183752D01*
X50412Y184344D01*
X49638Y184665D01*
X48801D01*
X48027Y184344D01*
X47435Y183752D01*
X47415Y183702D01*
X45134D01*
X40880Y187957D01*
Y189583D01*
X53964D01*
Y196548D01*
X48659D01*
Y198167D01*
X49981Y199489D01*
X52651D01*
X52672Y199439D01*
X53264Y198847D01*
X54038Y198527D01*
X54875D01*
X55648Y198847D01*
X56241Y199439D01*
X56561Y200213D01*
Y201050D01*
X56241Y201823D01*
X55690Y202374D01*
X55672Y202715D01*
X55705Y203147D01*
X56297Y203739D01*
X56618Y204513D01*
Y205350D01*
X56297Y206123D01*
X56058Y206362D01*
X55834Y206931D01*
X56051Y207295D01*
X59249Y210494D01*
X59474D01*
X60247Y210814D01*
X60839Y211406D01*
X61160Y212180D01*
Y213017D01*
X60839Y213791D01*
X60247Y214383D01*
X59588Y214656D01*
X59401Y215092D01*
X59341Y215412D01*
X68609Y224680D01*
X74793D01*
X74934Y223971D01*
X74795Y223913D01*
X74203Y223321D01*
X73883Y222548D01*
Y221924D01*
X72305Y220346D01*
X72014Y219911D01*
X71912Y219397D01*
Y193467D01*
X71471Y193026D01*
X71150Y192253D01*
Y191415D01*
X71471Y190642D01*
X72063Y190050D01*
X72836Y189729D01*
X73674D01*
X74447Y190050D01*
X74841Y190444D01*
X77022D01*
Y189894D01*
X85562D01*
Y190507D01*
X88198D01*
Y189013D01*
X92408D01*
Y193222D01*
X88198D01*
Y193193D01*
X85562D01*
Y196663D01*
X77022D01*
Y193130D01*
X74935D01*
X74598Y193467D01*
Y218840D01*
X75782Y220024D01*
X76406D01*
X77179Y220345D01*
X77772Y220937D01*
X78092Y221710D01*
Y222548D01*
X77772Y223321D01*
X77179Y223913D01*
X77040Y223971D01*
X77181Y224680D01*
X86372D01*
X86649Y224200D01*
X87316Y223533D01*
X88133Y223061D01*
X89043Y222817D01*
X89986D01*
X90897Y223061D01*
X91714Y223533D01*
X92380Y224200D01*
X92852Y225016D01*
X93096Y225927D01*
Y226870D01*
X92852Y227781D01*
X92380Y228597D01*
X91714Y229264D01*
X90897Y229735D01*
X89986Y229979D01*
D02*
G37*
G36*
X131825Y229979D02*
X130882D01*
X129971Y229735D01*
X129155Y229264D01*
X128488Y228597D01*
X128016Y227781D01*
X128006Y227741D01*
X107902D01*
X107388Y227639D01*
X106952Y227348D01*
X93239Y213635D01*
X81929D01*
X81487Y214076D01*
X80714Y214397D01*
X79877D01*
X79103Y214076D01*
X78511Y213484D01*
X78190Y212710D01*
Y211873D01*
X78511Y211100D01*
X79103Y210508D01*
X79877Y210187D01*
X80714D01*
X81487Y210508D01*
X81929Y210949D01*
X93795D01*
X94309Y211051D01*
X94745Y211342D01*
X108458Y225055D01*
X118105D01*
X118399Y224346D01*
X118061Y224009D01*
X117741Y223235D01*
Y222398D01*
X118061Y221624D01*
X118653Y221032D01*
X118703Y221012D01*
Y214415D01*
X118790Y213978D01*
X119038Y213607D01*
X121452Y211193D01*
X121431Y211143D01*
Y210306D01*
X121752Y209532D01*
X122344Y208940D01*
X123117Y208620D01*
X123955D01*
X124728Y208940D01*
X125320Y209532D01*
X125641Y210306D01*
Y211143D01*
X125320Y211917D01*
X124728Y212509D01*
X123955Y212829D01*
X123117D01*
X123068Y212809D01*
X120988Y214888D01*
Y221012D01*
X121038Y221032D01*
X121630Y221624D01*
X121950Y222398D01*
Y223235D01*
X121630Y224009D01*
X121292Y224346D01*
X121586Y225055D01*
X128006D01*
X128016Y225016D01*
X128488Y224200D01*
X129155Y223533D01*
X129971Y223061D01*
X130882Y222817D01*
X131825D01*
X132736Y223061D01*
X133552Y223533D01*
X134219Y224200D01*
X134690Y225016D01*
X134934Y225927D01*
Y226870D01*
X134690Y227781D01*
X134219Y228597D01*
X133552Y229264D01*
X132736Y229735D01*
X131825Y229979D01*
D02*
G37*
G36*
X28025Y231008D02*
X21256D01*
Y222468D01*
X23520D01*
Y219093D01*
X21195D01*
Y210553D01*
X23319D01*
Y207397D01*
X21138D01*
Y204118D01*
X13124D01*
X12683Y204560D01*
X11909Y204880D01*
X11072D01*
X10299Y204560D01*
X9706Y203968D01*
X9386Y203194D01*
Y202357D01*
X9706Y201583D01*
X10299Y200991D01*
X11072Y200671D01*
X11909D01*
X12683Y200991D01*
X13124Y201432D01*
X21138D01*
Y198857D01*
X27906D01*
Y207397D01*
X26005D01*
Y210553D01*
X27963D01*
Y219093D01*
X26207D01*
Y222468D01*
X28025D01*
Y231008D01*
D02*
G37*
G36*
X149332Y231361D02*
X148495D01*
X147721Y231040D01*
X147129Y230448D01*
X146809Y229675D01*
Y228837D01*
X147129Y228064D01*
X147721Y227472D01*
X147771Y227451D01*
Y208121D01*
X147858Y207684D01*
X148105Y207313D01*
X150295Y205124D01*
X150275Y205074D01*
Y204237D01*
X150595Y203463D01*
X151187Y202871D01*
X151961Y202550D01*
X152798D01*
X153572Y202871D01*
X154164Y203463D01*
X154484Y204237D01*
Y205074D01*
X154164Y205847D01*
X153572Y206439D01*
X152798Y206760D01*
X151961D01*
X151911Y206739D01*
X150056Y208594D01*
Y227451D01*
X150105Y227472D01*
X150698Y228064D01*
X151018Y228837D01*
Y229675D01*
X150698Y230448D01*
X150105Y231040D01*
X149332Y231361D01*
D02*
G37*
G36*
X181466Y200734D02*
X175374D01*
X175050Y200669D01*
X174776Y200486D01*
X174592Y200211D01*
X174528Y199887D01*
Y198086D01*
X174592Y197762D01*
X174776Y197488D01*
X175050Y197304D01*
X175374Y197240D01*
X181466D01*
X181790Y197304D01*
X182065Y197488D01*
X182248Y197762D01*
X182313Y198086D01*
Y199887D01*
X182248Y200211D01*
X182065Y200486D01*
X181790Y200669D01*
X181466Y200734D01*
D02*
G37*
G36*
X143986D02*
X137894D01*
X137570Y200669D01*
X137295Y200486D01*
X137112Y200211D01*
X137047Y199887D01*
Y198086D01*
X137112Y197762D01*
X137295Y197488D01*
X137570Y197304D01*
X137894Y197240D01*
X143986D01*
X144310Y197304D01*
X144585Y197488D01*
X144768Y197762D01*
X144833Y198086D01*
Y199887D01*
X144768Y200211D01*
X144585Y200486D01*
X144310Y200669D01*
X143986Y200734D01*
D02*
G37*
G36*
X125355Y282510D02*
X124487D01*
X123648Y282285D01*
X122897Y281851D01*
X122283Y281237D01*
X121848Y280485D01*
X121624Y279647D01*
Y278779D01*
X121848Y277940D01*
X122283Y277188D01*
X122897Y276574D01*
X123648Y276140D01*
X124030Y276037D01*
Y272363D01*
X124117Y271926D01*
X124365Y271555D01*
X125059Y270861D01*
X125429Y270614D01*
X125867Y270527D01*
X181104D01*
X198627Y253003D01*
Y195116D01*
X198605Y195093D01*
X182272D01*
X182248Y195211D01*
X182065Y195486D01*
X181790Y195669D01*
X181466Y195734D01*
X175374D01*
X175050Y195669D01*
X174776Y195486D01*
X174592Y195211D01*
X174528Y194887D01*
Y193086D01*
X174592Y192762D01*
X174776Y192488D01*
X175050Y192304D01*
X175374Y192240D01*
X181466D01*
X181790Y192304D01*
X182065Y192488D01*
X182248Y192762D01*
X182257Y192808D01*
X199078D01*
X199515Y192895D01*
X199886Y193143D01*
X200578Y193835D01*
X200825Y194205D01*
X200912Y194643D01*
Y253476D01*
X200825Y253913D01*
X200578Y254284D01*
X182385Y272477D01*
X182014Y272725D01*
X181577Y272812D01*
X126340D01*
X126315Y272836D01*
Y276209D01*
X126946Y276574D01*
X127560Y277188D01*
X127994Y277940D01*
X128219Y278779D01*
Y279647D01*
X127994Y280485D01*
X127560Y281237D01*
X126946Y281851D01*
X126194Y282285D01*
X125355Y282510D01*
D02*
G37*
G36*
X112511Y196663D02*
X103970D01*
Y194323D01*
X102341D01*
X101903Y194236D01*
X101533Y193989D01*
X99055Y191510D01*
X98807Y191140D01*
X98720Y190703D01*
Y189482D01*
X97647D01*
Y185273D01*
X101856D01*
Y189482D01*
X101005D01*
Y190229D01*
X102814Y192038D01*
X103970D01*
Y189894D01*
X112511D01*
Y191975D01*
X117282D01*
X117303Y191926D01*
X117895Y191334D01*
X118668Y191013D01*
X119505D01*
X120279Y191334D01*
X120871Y191926D01*
X121192Y192699D01*
Y193536D01*
X120871Y194310D01*
X120279Y194902D01*
X119505Y195223D01*
X118668D01*
X117895Y194902D01*
X117303Y194310D01*
X117282Y194260D01*
X112511D01*
Y196663D01*
D02*
G37*
G36*
X153221Y190840D02*
X152383D01*
X151610Y190519D01*
X151094Y190003D01*
X144809D01*
X144768Y190211D01*
X144585Y190486D01*
X144310Y190669D01*
X143986Y190734D01*
X137894D01*
X137570Y190669D01*
X137295Y190486D01*
X137112Y190211D01*
X137047Y189887D01*
Y188086D01*
X137112Y187762D01*
X137295Y187488D01*
X137570Y187304D01*
X137894Y187240D01*
X143986D01*
X144310Y187304D01*
X144585Y187488D01*
X144739Y187718D01*
X150945D01*
X151018Y187543D01*
X151610Y186951D01*
X152383Y186630D01*
X153221D01*
X153994Y186951D01*
X154586Y187543D01*
X154907Y188316D01*
Y189154D01*
X154586Y189927D01*
X153994Y190519D01*
X153221Y190840D01*
D02*
G37*
G36*
X65880Y191850D02*
X61640D01*
Y188397D01*
X65880D01*
Y191850D01*
D02*
G37*
G36*
X60640D02*
X56400D01*
Y188397D01*
X60640D01*
Y191850D01*
D02*
G37*
G36*
X134270Y191098D02*
X130030D01*
Y187645D01*
X134270D01*
Y191098D01*
D02*
G37*
G36*
X129030D02*
X124789D01*
Y187645D01*
X129030D01*
Y191098D01*
D02*
G37*
G36*
X156490Y186332D02*
X155652D01*
X154879Y186012D01*
X154287Y185419D01*
X154216Y185249D01*
X144743D01*
X144585Y185486D01*
X144310Y185669D01*
X143986Y185734D01*
X137894D01*
X137570Y185669D01*
X137295Y185486D01*
X137112Y185211D01*
X137047Y184887D01*
Y183086D01*
X137112Y182762D01*
X137295Y182488D01*
X137570Y182304D01*
X137894Y182240D01*
X143986D01*
X144310Y182304D01*
X144585Y182488D01*
X144768Y182762D01*
X144808Y182965D01*
X154357D01*
X154879Y182443D01*
X155652Y182123D01*
X156490D01*
X157263Y182443D01*
X157855Y183035D01*
X158176Y183809D01*
Y184646D01*
X157855Y185419D01*
X157263Y186012D01*
X156490Y186332D01*
D02*
G37*
G36*
X65880Y187397D02*
X61640D01*
Y183944D01*
X65880D01*
Y187397D01*
D02*
G37*
G36*
X60640D02*
X56400D01*
Y183944D01*
X60640D01*
Y187397D01*
D02*
G37*
G36*
X92408Y185742D02*
X88198D01*
Y184601D01*
X87648D01*
X87211Y184514D01*
X86840Y184266D01*
X86271Y183697D01*
X85562Y183991D01*
Y184655D01*
X77022D01*
Y182413D01*
X72341D01*
Y182545D01*
X72021Y183318D01*
X71429Y183910D01*
X70655Y184231D01*
X69818D01*
X69044Y183910D01*
X68452Y183318D01*
X68132Y182545D01*
Y181707D01*
X68452Y180934D01*
X69044Y180342D01*
X69818Y180021D01*
X70655D01*
X71163Y180232D01*
X71187Y180215D01*
X71624Y180128D01*
X77022D01*
Y177887D01*
X85562D01*
Y180780D01*
X86112D01*
X86550Y180867D01*
X86920Y181115D01*
X87489Y181684D01*
X88198Y181533D01*
Y181533D01*
X92408D01*
Y185742D01*
D02*
G37*
G36*
X134270Y186645D02*
X130030D01*
Y183192D01*
X134270D01*
Y186645D01*
D02*
G37*
G36*
X129030D02*
X124789D01*
Y183192D01*
X129030D01*
Y186645D01*
D02*
G37*
G36*
X191832Y181422D02*
X190995D01*
X190221Y181102D01*
X189629Y180510D01*
X189540Y180295D01*
X182193D01*
X182065Y180486D01*
X181790Y180669D01*
X181466Y180734D01*
X175374D01*
X175050Y180669D01*
X174776Y180486D01*
X174592Y180211D01*
X174528Y179887D01*
Y178086D01*
X174592Y177762D01*
X174776Y177488D01*
X175050Y177304D01*
X175374Y177240D01*
X181466D01*
X181790Y177304D01*
X182065Y177488D01*
X182248Y177762D01*
X182298Y178010D01*
X189745D01*
X190221Y177533D01*
X190995Y177213D01*
X191832D01*
X192606Y177533D01*
X193198Y178125D01*
X193518Y178899D01*
Y179736D01*
X193198Y180510D01*
X192606Y181102D01*
X191832Y181422D01*
D02*
G37*
G36*
X159881Y180997D02*
X159043D01*
X158270Y180676D01*
X157678Y180084D01*
X157677Y180082D01*
X144794D01*
X144768Y180211D01*
X144585Y180486D01*
X144310Y180669D01*
X143986Y180734D01*
X137894D01*
X137570Y180669D01*
X137295Y180486D01*
X137112Y180211D01*
X137047Y179887D01*
Y178086D01*
X137112Y177762D01*
X137295Y177488D01*
X137570Y177304D01*
X137894Y177240D01*
X143986D01*
X144310Y177304D01*
X144585Y177488D01*
X144768Y177762D01*
X144775Y177797D01*
X157637D01*
X157678Y177700D01*
X158270Y177108D01*
X159043Y176787D01*
X159881D01*
X160654Y177108D01*
X161246Y177700D01*
X161567Y178473D01*
Y179311D01*
X161246Y180084D01*
X160654Y180676D01*
X159881Y180997D01*
D02*
G37*
G36*
X195953Y176310D02*
X195116D01*
X194342Y175989D01*
X193750Y175397D01*
X193684Y175238D01*
X182230D01*
X182065Y175486D01*
X181790Y175669D01*
X181466Y175734D01*
X175374D01*
X175050Y175669D01*
X174776Y175486D01*
X174592Y175211D01*
X174528Y174887D01*
Y173086D01*
X174592Y172762D01*
X174776Y172488D01*
X175050Y172304D01*
X175374Y172240D01*
X181466D01*
X181790Y172304D01*
X182065Y172488D01*
X182248Y172762D01*
X182286Y172953D01*
X193809D01*
X194342Y172421D01*
X195116Y172100D01*
X195953D01*
X196727Y172421D01*
X197319Y173013D01*
X197639Y173786D01*
Y174624D01*
X197319Y175397D01*
X196727Y175989D01*
X195953Y176310D01*
D02*
G37*
G36*
X65410Y179569D02*
X56870D01*
Y177228D01*
X48471D01*
X48034Y177141D01*
X47663Y176894D01*
X46623Y175853D01*
X46375Y175483D01*
X46288Y175046D01*
Y174183D01*
X45371D01*
Y170231D01*
Y166278D01*
X46757D01*
Y166748D01*
X48646D01*
Y163782D01*
X46633D01*
Y155242D01*
X48237D01*
Y152780D01*
X47795Y152339D01*
X47475Y151566D01*
Y150728D01*
X47795Y149955D01*
X48388Y149363D01*
X49161Y149042D01*
X49998D01*
X50772Y149363D01*
X51364Y149955D01*
X51684Y150728D01*
Y151566D01*
X51364Y152339D01*
X50923Y152780D01*
Y155242D01*
X53599D01*
Y163782D01*
X51333D01*
Y166748D01*
X53964D01*
Y173713D01*
X48573D01*
Y174572D01*
X48944Y174944D01*
X56870D01*
Y172603D01*
X65410D01*
Y179569D01*
D02*
G37*
G36*
X112511Y184655D02*
X103970D01*
Y177887D01*
X106496D01*
Y174018D01*
X103930D01*
Y167250D01*
X112470D01*
Y174017D01*
X118441D01*
X118480Y173977D01*
X119254Y173657D01*
X120091D01*
X120597Y173866D01*
X125259D01*
Y171852D01*
X133800D01*
Y172237D01*
X140935D01*
X140948Y172240D01*
X143986D01*
X144310Y172304D01*
X144585Y172488D01*
X144768Y172762D01*
X144833Y173086D01*
Y174887D01*
X144768Y175211D01*
X144585Y175486D01*
X144310Y175669D01*
X143986Y175734D01*
X137894D01*
X137856Y175726D01*
X133800D01*
Y178817D01*
X125259D01*
Y177355D01*
X121055D01*
X120865Y177546D01*
X120091Y177866D01*
X119254D01*
X118480Y177546D01*
X118441Y177506D01*
X113061D01*
X112511Y177887D01*
Y184655D01*
D02*
G37*
G36*
X85627Y173863D02*
X77087D01*
Y171646D01*
X74973D01*
X74532Y172087D01*
X73758Y172407D01*
X72921D01*
X72147Y172087D01*
X71555Y171495D01*
X71235Y170721D01*
Y169884D01*
X71416Y169447D01*
X71144Y169154D01*
X70844Y168975D01*
X70167Y169255D01*
X69330D01*
X68556Y168935D01*
X67964Y168343D01*
X67644Y167569D01*
Y166732D01*
X67964Y165958D01*
X68556Y165366D01*
X68606Y165346D01*
Y164118D01*
X68693Y163681D01*
X68941Y163310D01*
X74588Y157663D01*
X74958Y157416D01*
X75396Y157329D01*
X77087D01*
Y155087D01*
X85627D01*
Y159436D01*
X88158D01*
Y158474D01*
X92367D01*
Y162683D01*
X88158D01*
Y161721D01*
X85627D01*
Y161855D01*
X77087D01*
Y159613D01*
X75869D01*
X70891Y164591D01*
Y165346D01*
X70941Y165366D01*
X71533Y165958D01*
X71853Y166732D01*
Y167569D01*
X71672Y168006D01*
X71944Y168299D01*
X72244Y168478D01*
X72921Y168198D01*
X73758D01*
X74532Y168518D01*
X74973Y168959D01*
X77087D01*
Y167095D01*
X85627D01*
Y167497D01*
X88158D01*
Y165954D01*
X92367D01*
Y170164D01*
X89578D01*
X89482Y170183D01*
X85627D01*
Y173863D01*
D02*
G37*
G36*
X177649Y290395D02*
X144961D01*
X144524Y290308D01*
X144153Y290060D01*
X136311Y282218D01*
X136194Y282285D01*
X135355Y282510D01*
X134487D01*
X133648Y282285D01*
X132896Y281851D01*
X132282Y281237D01*
X131848Y280485D01*
X131624Y279647D01*
Y278779D01*
X131848Y277940D01*
X132282Y277188D01*
X132896Y276574D01*
X133648Y276140D01*
X134487Y275915D01*
X135355D01*
X136194Y276140D01*
X136946Y276574D01*
X137560Y277188D01*
X137994Y277940D01*
X138219Y278779D01*
Y279647D01*
X137994Y280485D01*
X137927Y280602D01*
X145434Y288110D01*
X177176D01*
X201109Y264177D01*
X200789Y263495D01*
X200207D01*
X199433Y263175D01*
X198841Y262583D01*
X198521Y261809D01*
Y260972D01*
X198841Y260199D01*
X199433Y259607D01*
X200207Y259286D01*
X201044D01*
X201094Y259307D01*
X201952Y258449D01*
Y185240D01*
X201929Y185217D01*
X182244D01*
X182065Y185486D01*
X181790Y185669D01*
X181466Y185734D01*
X175374D01*
X175050Y185669D01*
X174776Y185486D01*
X174592Y185211D01*
X174528Y184887D01*
Y183086D01*
X174592Y182762D01*
X174776Y182488D01*
X175050Y182304D01*
X175374Y182240D01*
X181466D01*
X181790Y182304D01*
X182065Y182488D01*
X182248Y182762D01*
X182282Y182932D01*
X202402D01*
X202840Y183019D01*
X203210Y183267D01*
X203902Y183959D01*
X204150Y184329D01*
X204237Y184767D01*
Y258922D01*
X204150Y259359D01*
X203902Y259730D01*
X202733Y260899D01*
X202807Y261591D01*
X203412Y261875D01*
X205061Y260225D01*
Y170152D01*
X205038Y170129D01*
X182265D01*
X182248Y170211D01*
X182065Y170486D01*
X181790Y170669D01*
X181466Y170734D01*
X175374D01*
X175050Y170669D01*
X174776Y170486D01*
X174592Y170211D01*
X174528Y169887D01*
Y168086D01*
X174592Y167762D01*
X174776Y167488D01*
X175050Y167304D01*
X175374Y167240D01*
X181466D01*
X181790Y167304D01*
X182065Y167488D01*
X182248Y167762D01*
X182265Y167844D01*
X205511D01*
X205949Y167931D01*
X206319Y168179D01*
X207011Y168871D01*
X207259Y169241D01*
X207346Y169679D01*
Y260699D01*
X207259Y261136D01*
X207011Y261506D01*
X178457Y290060D01*
X178086Y290308D01*
X177649Y290395D01*
D02*
G37*
G36*
X156310Y171045D02*
X155473D01*
X154699Y170725D01*
X154107Y170133D01*
X154096Y170106D01*
X144789D01*
X144768Y170211D01*
X144585Y170486D01*
X144310Y170669D01*
X143986Y170734D01*
X137894D01*
X137570Y170669D01*
X137295Y170486D01*
X137112Y170211D01*
X137047Y169887D01*
Y168086D01*
X137112Y167762D01*
X137295Y167488D01*
X137570Y167304D01*
X137894Y167240D01*
X143986D01*
X144310Y167304D01*
X144585Y167488D01*
X144768Y167762D01*
X144780Y167821D01*
X154077D01*
X154107Y167748D01*
X154699Y167157D01*
X155473Y166836D01*
X156310D01*
X157084Y167157D01*
X157676Y167748D01*
X157996Y168522D01*
Y169359D01*
X157676Y170133D01*
X157084Y170725D01*
X156310Y171045D01*
D02*
G37*
G36*
X199708Y166141D02*
X198870D01*
X198097Y165821D01*
X197505Y165228D01*
X197474Y165154D01*
X182260D01*
X182248Y165211D01*
X182065Y165486D01*
X181790Y165669D01*
X181466Y165734D01*
X175374D01*
X175050Y165669D01*
X174776Y165486D01*
X174592Y165211D01*
X174528Y164887D01*
Y163086D01*
X174592Y162762D01*
X174776Y162488D01*
X175050Y162304D01*
X175374Y162240D01*
X181466D01*
X181790Y162304D01*
X182065Y162488D01*
X182248Y162762D01*
X182270Y162869D01*
X197494D01*
X197505Y162844D01*
X198097Y162252D01*
X198870Y161932D01*
X199708D01*
X200481Y162252D01*
X201073Y162844D01*
X201394Y163618D01*
Y164455D01*
X201073Y165228D01*
X200481Y165821D01*
X199708Y166141D01*
D02*
G37*
G36*
X101816Y166424D02*
X97607D01*
Y162214D01*
X98569D01*
Y161009D01*
X98656Y160572D01*
X98904Y160201D01*
X101287Y157818D01*
X101657Y157571D01*
X102094Y157484D01*
X103930D01*
Y155242D01*
X112470D01*
Y157484D01*
X131583D01*
X132020Y157571D01*
X132391Y157818D01*
X136690Y162118D01*
X137295Y162488D01*
X137570Y162304D01*
X137894Y162240D01*
X143986D01*
X144310Y162304D01*
X144585Y162488D01*
X144768Y162762D01*
X144833Y163086D01*
Y164887D01*
X144768Y165211D01*
X144585Y165486D01*
X144310Y165669D01*
X143986Y165734D01*
X137894D01*
X137570Y165669D01*
X137295Y165486D01*
X137112Y165211D01*
X137047Y164887D01*
Y164870D01*
X136685D01*
X136247Y164783D01*
X135877Y164535D01*
X131110Y159769D01*
X112470D01*
Y162010D01*
X103930D01*
Y159769D01*
X102568D01*
X100854Y161482D01*
Y162214D01*
X101816D01*
Y166424D01*
D02*
G37*
G36*
X205264Y160972D02*
X204427D01*
X203654Y160652D01*
X203071Y160070D01*
X182277D01*
X182248Y160211D01*
X182065Y160486D01*
X181790Y160669D01*
X181466Y160734D01*
X175374D01*
X175050Y160669D01*
X174776Y160486D01*
X174592Y160211D01*
X174528Y159887D01*
Y158086D01*
X174592Y157762D01*
X174776Y157488D01*
X175050Y157304D01*
X175374Y157240D01*
X181466D01*
X181790Y157304D01*
X182065Y157488D01*
X182248Y157762D01*
X182253Y157785D01*
X203016D01*
X203062Y157675D01*
X203654Y157083D01*
X204427Y156763D01*
X205264D01*
X206038Y157083D01*
X206630Y157675D01*
X206950Y158449D01*
Y159286D01*
X206630Y160060D01*
X206038Y160652D01*
X205264Y160972D01*
D02*
G37*
G36*
X65880Y164252D02*
X62427D01*
Y160012D01*
X65880D01*
Y164252D01*
D02*
G37*
G36*
X61427D02*
X57974D01*
Y160012D01*
X61427D01*
Y164252D01*
D02*
G37*
G36*
X31891Y164050D02*
X28438D01*
Y159810D01*
X31891D01*
Y164050D01*
D02*
G37*
G36*
X27438D02*
X23985D01*
Y159810D01*
X27438D01*
Y164050D01*
D02*
G37*
G36*
X143986Y160734D02*
X137894D01*
X137570Y160669D01*
X137295Y160486D01*
X137112Y160211D01*
X137047Y159887D01*
Y158086D01*
X137112Y157762D01*
X137295Y157488D01*
X137570Y157304D01*
X137894Y157240D01*
X143986D01*
X144310Y157304D01*
X144585Y157488D01*
X144768Y157762D01*
X144833Y158086D01*
Y159887D01*
X144768Y160211D01*
X144585Y160486D01*
X144310Y160669D01*
X143986Y160734D01*
D02*
G37*
G36*
X65880Y159012D02*
X62427D01*
Y154772D01*
X65880D01*
Y159012D01*
D02*
G37*
G36*
X61427D02*
X57974D01*
Y154772D01*
X61427D01*
Y159012D01*
D02*
G37*
G36*
X31891Y158810D02*
X28438D01*
Y154570D01*
X31891D01*
Y158810D01*
D02*
G37*
G36*
X27438D02*
X23985D01*
Y154570D01*
X27438D01*
Y158810D01*
D02*
G37*
G36*
X181466Y155734D02*
X175374D01*
X175050Y155669D01*
X174776Y155486D01*
X174592Y155211D01*
X174528Y154887D01*
Y153086D01*
X174592Y152762D01*
X174776Y152488D01*
X175050Y152304D01*
X175374Y152240D01*
X181466D01*
X181790Y152304D01*
X182065Y152488D01*
X182248Y152762D01*
X182313Y153086D01*
Y154887D01*
X182248Y155211D01*
X182065Y155486D01*
X181790Y155669D01*
X181466Y155734D01*
D02*
G37*
G36*
X143986D02*
X137894D01*
X137570Y155669D01*
X137295Y155486D01*
X137112Y155211D01*
X137047Y154887D01*
Y153086D01*
X137112Y152762D01*
X137295Y152488D01*
X137570Y152304D01*
X137894Y152240D01*
X143986D01*
X144310Y152304D01*
X144585Y152488D01*
X144768Y152762D01*
X144833Y153086D01*
Y154887D01*
X144768Y155211D01*
X144585Y155486D01*
X144310Y155669D01*
X143986Y155734D01*
D02*
G37*
G36*
X169655Y148640D02*
X166301D01*
Y144400D01*
X169655D01*
Y148640D01*
D02*
G37*
G36*
X165301D02*
X161947D01*
Y144400D01*
X165301D01*
Y148640D01*
D02*
G37*
G36*
X169655Y143400D02*
X166301D01*
Y139160D01*
X169655D01*
Y143400D01*
D02*
G37*
G36*
X165301D02*
X161947D01*
Y139160D01*
X165301D01*
Y143400D01*
D02*
G37*
G36*
X131222Y151760D02*
X130385D01*
X129612Y151439D01*
X129020Y150847D01*
X128699Y150074D01*
Y149237D01*
X129020Y148463D01*
X129612Y147871D01*
X130385Y147550D01*
X131222D01*
X131272Y147571D01*
X147670Y131173D01*
X148041Y130926D01*
X148478Y130839D01*
X162531D01*
Y127598D01*
X169299D01*
Y136138D01*
X162531D01*
Y133124D01*
X148951D01*
X132888Y149187D01*
X132908Y149237D01*
Y150074D01*
X132588Y150847D01*
X131996Y151439D01*
X131222Y151760D01*
D02*
G37*
G36*
X174482Y125275D02*
X172408D01*
Y123200D01*
X174482D01*
Y125275D01*
D02*
G37*
G36*
X171408D02*
X169333D01*
Y123200D01*
X171408D01*
Y125275D01*
D02*
G37*
G36*
X43958Y125588D02*
X39661D01*
X38982Y125453D01*
X38405Y125068D01*
X38020Y124492D01*
X37885Y123812D01*
X38020Y123132D01*
X38405Y122556D01*
X38982Y122171D01*
X39661Y122036D01*
X43958D01*
X44638Y122171D01*
X45214Y122556D01*
X45599Y123132D01*
X45734Y123812D01*
X45599Y124492D01*
X45214Y125068D01*
X44638Y125453D01*
X43958Y125588D01*
D02*
G37*
G36*
X32357Y133037D02*
X32345Y133034D01*
X28466D01*
Y133006D01*
X23110D01*
X22442Y132873D01*
X21876Y132495D01*
X20493Y131111D01*
X20114Y130545D01*
X19982Y129877D01*
Y116420D01*
X19003D01*
Y107880D01*
X20688D01*
Y104561D01*
X18896D01*
Y96021D01*
X20819D01*
Y89017D01*
X20348D01*
Y84414D01*
X25148D01*
Y89017D01*
X24308D01*
Y96021D01*
X25862D01*
Y104561D01*
X24177D01*
Y107880D01*
X25969D01*
Y116420D01*
X23471D01*
Y123830D01*
X24179Y124045D01*
X24208Y124001D01*
X25619Y122590D01*
X26185Y122212D01*
X26853Y122079D01*
X29989D01*
X30208Y122036D01*
X34505D01*
X35184Y122171D01*
X35761Y122556D01*
X36146Y123132D01*
X36281Y123812D01*
X36146Y124492D01*
X35848Y124937D01*
X35810Y125332D01*
X35903Y125826D01*
X36100Y125957D01*
X36589Y126689D01*
X36661Y127052D01*
X32357D01*
Y128052D01*
X36661D01*
X36589Y128415D01*
X36292Y128860D01*
X36247Y129550D01*
X36247Y129550D01*
X36247Y129550D01*
Y133034D01*
X32368D01*
X32357Y133037D01*
D02*
G37*
G36*
X127341Y141460D02*
X126504D01*
X125730Y141140D01*
X125138Y140548D01*
X124818Y139774D01*
Y138937D01*
X125138Y138163D01*
X125579Y137722D01*
Y133019D01*
X123753D01*
Y124478D01*
X125794D01*
Y120745D01*
X125659Y120609D01*
X123443D01*
Y121371D01*
X119234D01*
Y117161D01*
X123443D01*
Y117923D01*
X126215D01*
X126729Y118025D01*
X127165Y118316D01*
X128087Y119239D01*
X128378Y119674D01*
X128481Y120188D01*
Y124478D01*
X130522D01*
Y133019D01*
X128266D01*
Y137722D01*
X128707Y138163D01*
X129027Y138937D01*
Y139774D01*
X128707Y140548D01*
X128115Y141140D01*
X127341Y141460D01*
D02*
G37*
G36*
X104723Y141441D02*
X103885D01*
X103112Y141120D01*
X102520Y140528D01*
X102199Y139755D01*
Y138917D01*
X102520Y138144D01*
X102961Y137703D01*
Y133019D01*
X101182D01*
Y124478D01*
X103223D01*
Y121189D01*
X102642Y120609D01*
X100872D01*
Y121371D01*
X96663D01*
Y117161D01*
X100872D01*
Y117923D01*
X103199D01*
X103713Y118025D01*
X104148Y118316D01*
X105516Y119683D01*
X105807Y120119D01*
X105909Y120633D01*
Y124478D01*
X107951D01*
Y133019D01*
X105647D01*
Y137703D01*
X106088Y138144D01*
X106409Y138917D01*
Y139755D01*
X106088Y140528D01*
X105496Y141120D01*
X104723Y141441D01*
D02*
G37*
G36*
X181193Y148170D02*
X174425D01*
Y139630D01*
X176666D01*
Y136138D01*
X174539D01*
Y127598D01*
X176781D01*
Y124165D01*
X176868Y123728D01*
X177115Y123357D01*
X177283Y123189D01*
Y120595D01*
X181493D01*
Y124805D01*
X179066D01*
Y127598D01*
X181307D01*
Y136138D01*
X178951D01*
Y139630D01*
X181193D01*
Y148170D01*
D02*
G37*
G36*
X174482Y122200D02*
X172408D01*
Y120125D01*
X174482D01*
Y122200D01*
D02*
G37*
G36*
X171408D02*
X169333D01*
Y120125D01*
X171408D01*
Y122200D01*
D02*
G37*
G36*
X60389Y122942D02*
X56149D01*
Y119489D01*
X60389D01*
Y122942D01*
D02*
G37*
G36*
X55149D02*
X50909D01*
Y119489D01*
X55149D01*
Y122942D01*
D02*
G37*
G36*
X72616Y122899D02*
X68376D01*
Y119447D01*
X72616D01*
Y122899D01*
D02*
G37*
G36*
X67376D02*
X63136D01*
Y119447D01*
X67376D01*
Y122899D01*
D02*
G37*
G36*
X68694Y148008D02*
X67857D01*
X67084Y147688D01*
X66492Y147096D01*
X66171Y146322D01*
Y145485D01*
X66492Y144711D01*
X66610Y144593D01*
X66909Y143966D01*
X66317Y143374D01*
X65997Y142600D01*
Y141763D01*
X66317Y140989D01*
X66909Y140397D01*
X67683Y140077D01*
X67789D01*
X68083Y139368D01*
X66926Y138212D01*
X66635Y137776D01*
X66533Y137262D01*
Y134240D01*
X63606D01*
Y132680D01*
X59919D01*
Y134283D01*
X51379D01*
Y132635D01*
X45084D01*
X44638Y132933D01*
X43958Y133069D01*
X39661D01*
X38982Y132933D01*
X38405Y132548D01*
X38020Y131972D01*
X37885Y131292D01*
X38020Y130613D01*
X38405Y130036D01*
X38982Y129651D01*
X39661Y129516D01*
X43958D01*
X44638Y129651D01*
X45083Y129949D01*
X51379D01*
Y127318D01*
X59919D01*
Y129994D01*
X63606D01*
Y127275D01*
X72146D01*
Y134240D01*
X69219D01*
Y136706D01*
X70126Y137613D01*
X71975D01*
X72416Y137172D01*
X73190Y136851D01*
X74027D01*
X74800Y137172D01*
X75392Y137764D01*
X75713Y138537D01*
Y139375D01*
X75392Y140148D01*
X75052Y140488D01*
X75346Y141197D01*
X87442D01*
X91416Y137222D01*
Y133019D01*
X89174D01*
Y124478D01*
X90145D01*
Y121371D01*
X89182D01*
Y117161D01*
X93392D01*
Y121371D01*
X92430D01*
Y124478D01*
X95943D01*
Y133019D01*
X93701D01*
Y137696D01*
X93614Y138133D01*
X93366Y138503D01*
X88723Y143147D01*
X88352Y143394D01*
X87915Y143482D01*
X69778D01*
X69767Y143492D01*
X69468Y144119D01*
X70060Y144711D01*
X70081Y144761D01*
X105925D01*
X111766Y138920D01*
Y133019D01*
X111745D01*
Y124478D01*
X112715D01*
Y121371D01*
X111753D01*
Y117161D01*
X115963D01*
Y121371D01*
X115000D01*
Y124478D01*
X118514D01*
Y133019D01*
X114051D01*
Y139393D01*
X113964Y139830D01*
X113716Y140201D01*
X107206Y146711D01*
X106835Y146959D01*
X106398Y147046D01*
X70081D01*
X70060Y147096D01*
X69468Y147688D01*
X68694Y148008D01*
D02*
G37*
G36*
X60389Y118489D02*
X56149D01*
Y115036D01*
X60389D01*
Y118489D01*
D02*
G37*
G36*
X55149D02*
X50909D01*
Y115036D01*
X55149D01*
Y118489D01*
D02*
G37*
G36*
X72616Y118447D02*
X68376D01*
Y114994D01*
X72616D01*
Y118447D01*
D02*
G37*
G36*
X67376D02*
X63136D01*
Y114994D01*
X67376D01*
Y118447D01*
D02*
G37*
G36*
X38250Y116891D02*
X34797D01*
Y112651D01*
X38250D01*
Y116891D01*
D02*
G37*
G36*
X33797D02*
X30344D01*
Y112651D01*
X33797D01*
Y116891D01*
D02*
G37*
G36*
X38250Y111651D02*
X34797D01*
Y107410D01*
X38250D01*
Y111651D01*
D02*
G37*
G36*
X33797D02*
X30344D01*
Y107410D01*
X33797D01*
Y111651D01*
D02*
G37*
G36*
X118514Y104561D02*
X111745D01*
Y102036D01*
X107930D01*
Y104561D01*
X101162D01*
Y96021D01*
X107930D01*
X108093Y95380D01*
Y94051D01*
X107836Y93431D01*
Y92593D01*
X108157Y91820D01*
X108749Y91228D01*
X109522Y90907D01*
X110360D01*
X111133Y91228D01*
X111725Y91820D01*
X112046Y92593D01*
Y93431D01*
X111725Y94204D01*
X111582Y94347D01*
Y95380D01*
X111745Y96021D01*
X118514D01*
Y104561D01*
D02*
G37*
G36*
X38143Y105031D02*
X34690D01*
Y100791D01*
X38143D01*
Y105031D01*
D02*
G37*
G36*
X33690D02*
X30237D01*
Y100791D01*
X33690D01*
Y105031D01*
D02*
G37*
G36*
X77213Y99797D02*
X73760D01*
Y95557D01*
X77213D01*
Y99797D01*
D02*
G37*
G36*
X72760D02*
X69307D01*
Y95557D01*
X72760D01*
Y99797D01*
D02*
G37*
G36*
X38143Y99791D02*
X34690D01*
Y95551D01*
X38143D01*
Y99791D01*
D02*
G37*
G36*
X33690D02*
X30237D01*
Y95551D01*
X33690D01*
Y99791D01*
D02*
G37*
G36*
X77213Y94557D02*
X73760D01*
Y90317D01*
X77213D01*
Y94557D01*
D02*
G37*
G36*
X72760D02*
X69307D01*
Y90317D01*
X72760D01*
Y94557D01*
D02*
G37*
G36*
X97132Y111922D02*
X92923D01*
Y109328D01*
X91730Y108135D01*
X91482Y107765D01*
X91395Y107328D01*
Y104561D01*
X89154D01*
Y96021D01*
X91390D01*
Y93722D01*
X91340Y93702D01*
X90748Y93110D01*
X90428Y92336D01*
Y91499D01*
X90748Y90725D01*
X91340Y90133D01*
X92114Y89813D01*
X92951D01*
X93724Y90133D01*
X94316Y90725D01*
X94637Y91499D01*
Y92336D01*
X94316Y93110D01*
X93724Y93702D01*
X93675Y93722D01*
Y96021D01*
X95922D01*
Y104561D01*
X93680D01*
Y106854D01*
X94538Y107712D01*
X97132D01*
Y111922D01*
D02*
G37*
G36*
X119703D02*
X115493D01*
Y107712D01*
X119703D01*
Y108675D01*
X122719D01*
X125995Y105399D01*
Y104561D01*
X123753D01*
Y97637D01*
X123707Y97591D01*
X123460Y97220D01*
X123373Y96783D01*
Y87763D01*
X123350Y87740D01*
X104910D01*
X104877Y87820D01*
X104285Y88412D01*
X103511Y88733D01*
X102674D01*
X101901Y88412D01*
X101309Y87820D01*
X100988Y87047D01*
Y86209D01*
X101309Y85436D01*
X101901Y84844D01*
X102674Y84523D01*
X103511D01*
X104285Y84844D01*
X104877Y85436D01*
X104885Y85455D01*
X123823D01*
X124260Y85542D01*
X124631Y85790D01*
X125323Y86482D01*
X125571Y86853D01*
X125658Y87290D01*
Y96021D01*
X130522D01*
Y104561D01*
X128280D01*
Y105872D01*
X128193Y106309D01*
X127945Y106680D01*
X124000Y110625D01*
X123630Y110872D01*
X123193Y110959D01*
X119703D01*
Y111922D01*
D02*
G37*
G36*
X148397Y116832D02*
X143794D01*
Y112032D01*
X144163D01*
Y95407D01*
X143417Y94977D01*
X142592Y94152D01*
X142009Y93143D01*
X141708Y92017D01*
Y90851D01*
X142009Y89725D01*
X142592Y88715D01*
X143417Y87891D01*
X144426Y87308D01*
X145552Y87006D01*
X146718D01*
X147844Y87308D01*
X148854Y87891D01*
X149678Y88715D01*
X150261Y89725D01*
X150563Y90851D01*
Y92017D01*
X150261Y93143D01*
X149678Y94152D01*
X148854Y94977D01*
X147844Y95560D01*
X147652Y95611D01*
Y112032D01*
X148397D01*
Y116832D01*
D02*
G37*
G36*
X160799Y116832D02*
X156196D01*
Y112032D01*
X160799D01*
Y112686D01*
X173543D01*
Y111147D01*
X177752D01*
Y111311D01*
X184256D01*
X191635Y103932D01*
Y95861D01*
X188952D01*
Y87006D01*
X197807D01*
Y88675D01*
X204591D01*
Y86937D01*
X211556D01*
Y93902D01*
X204591D01*
Y92164D01*
X197807D01*
Y95861D01*
X195124D01*
Y104655D01*
X194991Y105323D01*
X194613Y105889D01*
X186212Y114290D01*
X185646Y114668D01*
X184978Y114801D01*
X177752D01*
Y115356D01*
X176010D01*
X175702Y115664D01*
X175136Y116042D01*
X174468Y116175D01*
X160799D01*
Y116832D01*
D02*
G37*
G36*
X95765Y88336D02*
X93935D01*
X93609Y88271D01*
X93333Y88087D01*
X93148Y87811D01*
X93083Y87485D01*
Y82938D01*
X93148Y82612D01*
X93333Y82336D01*
X93609Y82151D01*
X93935Y82086D01*
X95765D01*
X96091Y82151D01*
X96367Y82336D01*
X96552Y82612D01*
X96617Y82938D01*
Y87485D01*
X96552Y87811D01*
X96367Y88087D01*
X96091Y88271D01*
X95765Y88336D01*
D02*
G37*
G36*
X90765D02*
X88935D01*
X88609Y88271D01*
X88333Y88087D01*
X88148Y87811D01*
X88083Y87485D01*
Y82938D01*
X88148Y82612D01*
X88333Y82336D01*
X88609Y82151D01*
X88935Y82086D01*
X90765D01*
X91091Y82151D01*
X91367Y82336D01*
X91552Y82612D01*
X91617Y82938D01*
Y87485D01*
X91552Y87811D01*
X91367Y88087D01*
X91091Y88271D01*
X90765Y88336D01*
D02*
G37*
G36*
X85765D02*
X83935D01*
X83609Y88271D01*
X83333Y88087D01*
X83148Y87811D01*
X83083Y87485D01*
Y82938D01*
X83148Y82612D01*
X83333Y82336D01*
X83609Y82151D01*
X83935Y82086D01*
X85765D01*
X86091Y82151D01*
X86367Y82336D01*
X86552Y82612D01*
X86617Y82938D01*
Y87485D01*
X86552Y87811D01*
X86367Y88087D01*
X86091Y88271D01*
X85765Y88336D01*
D02*
G37*
G36*
X80765D02*
X78935D01*
X78609Y88271D01*
X78333Y88087D01*
X78148Y87811D01*
X78083Y87485D01*
Y82938D01*
X78148Y82612D01*
X78333Y82336D01*
X78609Y82151D01*
X78935Y82086D01*
X80765D01*
X81091Y82151D01*
X81367Y82336D01*
X81552Y82612D01*
X81617Y82938D01*
Y87485D01*
X81552Y87811D01*
X81367Y88087D01*
X81091Y88271D01*
X80765Y88336D01*
D02*
G37*
G36*
X75765D02*
X73935D01*
X73609Y88271D01*
X73333Y88087D01*
X73148Y87811D01*
X73083Y87485D01*
Y82938D01*
X73148Y82612D01*
X73333Y82336D01*
X73609Y82151D01*
X73935Y82086D01*
X75765D01*
X76091Y82151D01*
X76367Y82336D01*
X76552Y82612D01*
X76617Y82938D01*
Y87485D01*
X76552Y87811D01*
X76367Y88087D01*
X76091Y88271D01*
X75765Y88336D01*
D02*
G37*
G36*
X70765D02*
X68935D01*
X68609Y88271D01*
X68333Y88087D01*
X68148Y87811D01*
X68083Y87485D01*
Y82938D01*
X68148Y82612D01*
X68333Y82336D01*
X68609Y82151D01*
X68935Y82086D01*
X70765D01*
X71091Y82151D01*
X71367Y82336D01*
X71552Y82612D01*
X71617Y82938D01*
Y87485D01*
X71552Y87811D01*
X71367Y88087D01*
X71091Y88271D01*
X70765Y88336D01*
D02*
G37*
G36*
X65765D02*
X63935D01*
X63609Y88271D01*
X63333Y88087D01*
X63148Y87811D01*
X63083Y87485D01*
Y82938D01*
X63148Y82612D01*
X63333Y82336D01*
X63609Y82151D01*
X63935Y82086D01*
X65765D01*
X66091Y82151D01*
X66367Y82336D01*
X66552Y82612D01*
X66617Y82938D01*
Y87485D01*
X66552Y87811D01*
X66367Y88087D01*
X66091Y88271D01*
X65765Y88336D01*
D02*
G37*
G36*
X64932Y99327D02*
X57966D01*
Y96801D01*
X50751D01*
X50083Y96668D01*
X49517Y96290D01*
X29285Y76059D01*
X25148D01*
Y76616D01*
X20348D01*
Y72013D01*
X21079D01*
Y50499D01*
X21212Y49832D01*
X21590Y49266D01*
X33173Y37682D01*
Y35264D01*
X31534D01*
Y26724D01*
X33173D01*
Y22546D01*
X31534D01*
Y14006D01*
X38302D01*
Y22546D01*
X36662D01*
Y26724D01*
X38302D01*
Y29250D01*
X46712D01*
X47379Y29383D01*
X47945Y29761D01*
X51513Y33328D01*
X51600D01*
X52373Y33649D01*
X52965Y34241D01*
X53286Y35014D01*
Y35071D01*
X62122Y43907D01*
X62501Y44473D01*
X62633Y45141D01*
Y46770D01*
X65037D01*
Y49453D01*
X71505D01*
X72837Y48121D01*
X72821Y47406D01*
X72786Y47375D01*
X72150Y47124D01*
X72074Y47175D01*
X71754Y47239D01*
X70012D01*
X69691Y47175D01*
X69420Y46994D01*
X69239Y46723D01*
X69175Y46403D01*
Y43875D01*
X66899D01*
X66334Y44440D01*
X65561Y44761D01*
X64723D01*
X63950Y44440D01*
X63358Y43848D01*
X63037Y43075D01*
Y42237D01*
X63358Y41464D01*
X63950Y40872D01*
X64723Y40551D01*
X65561D01*
X66334Y40872D01*
X66926Y41464D01*
X66979Y41591D01*
X69476D01*
X69691Y41447D01*
X70012Y41383D01*
X71754D01*
X72074Y41447D01*
X72345Y41628D01*
X72359Y41649D01*
X72366Y41652D01*
X73140D01*
X73146Y41649D01*
X73160Y41628D01*
X73432Y41447D01*
X73752Y41383D01*
X75494D01*
X75814Y41447D01*
X76085Y41628D01*
X76099Y41649D01*
X76106Y41652D01*
X76880D01*
X76886Y41649D01*
X76901Y41628D01*
X77172Y41447D01*
X77492Y41383D01*
X79234D01*
X79554Y41447D01*
X79825Y41628D01*
X80007Y41899D01*
X80070Y42219D01*
Y43247D01*
X81433D01*
X83075Y41605D01*
X83055Y41555D01*
Y40718D01*
X83375Y39944D01*
X83967Y39352D01*
X84741Y39032D01*
X85578D01*
X86352Y39352D01*
X86944Y39944D01*
X87264Y40718D01*
Y41555D01*
X86944Y42329D01*
X86352Y42921D01*
X85578Y43241D01*
X84741D01*
X84691Y43220D01*
X82714Y45198D01*
X82343Y45445D01*
X81906Y45532D01*
X80070D01*
Y46403D01*
X80007Y46723D01*
X79825Y46994D01*
X79554Y47175D01*
X79234Y47239D01*
X77492D01*
X77172Y47175D01*
X77056Y47098D01*
X76512Y47288D01*
X76348Y47412D01*
Y48822D01*
X76215Y49490D01*
X75837Y50056D01*
X73462Y52431D01*
X72895Y52809D01*
X72228Y52942D01*
X65037D01*
Y55311D01*
X58072D01*
Y46770D01*
X59144D01*
Y45863D01*
X50819Y37538D01*
X50762D01*
X49989Y37217D01*
X49397Y36625D01*
X49076Y35852D01*
Y35826D01*
X45989Y32739D01*
X38302D01*
Y35264D01*
X36662D01*
Y38405D01*
X36530Y39072D01*
X36151Y39638D01*
X24568Y51222D01*
Y72013D01*
X25148D01*
Y72570D01*
X30008D01*
X30676Y72702D01*
X31242Y73081D01*
X51473Y93312D01*
X57966D01*
Y90787D01*
X58145D01*
Y87795D01*
X58083Y87485D01*
Y82938D01*
X58148Y82612D01*
X58333Y82336D01*
X58609Y82151D01*
X58935Y82086D01*
X60765D01*
X61091Y82151D01*
X61367Y82336D01*
X61552Y82612D01*
X61617Y82938D01*
Y85164D01*
X61634Y85251D01*
Y90787D01*
X64932D01*
Y99327D01*
D02*
G37*
G36*
X108769Y80210D02*
X100229D01*
Y77968D01*
X93262D01*
X92825Y77881D01*
X92455Y77633D01*
X84035Y69213D01*
X83787Y68843D01*
X83700Y68405D01*
Y66636D01*
X83609Y66618D01*
X83333Y66433D01*
X83148Y66157D01*
X83083Y65831D01*
Y61284D01*
X83148Y60958D01*
X83333Y60682D01*
X83609Y60498D01*
X83935Y60433D01*
X85765D01*
X86091Y60498D01*
X86367Y60682D01*
X86552Y60958D01*
X86617Y61284D01*
Y65831D01*
X86552Y66157D01*
X86367Y66433D01*
X86091Y66618D01*
X85985Y66639D01*
Y67932D01*
X93736Y75683D01*
X100229D01*
Y73441D01*
X108769D01*
Y80210D01*
D02*
G37*
G36*
X53963Y68202D02*
X45423D01*
Y65808D01*
X42454D01*
X42434Y65858D01*
X41842Y66450D01*
X41068Y66770D01*
X40231D01*
X39457Y66450D01*
X38865Y65858D01*
X38545Y65084D01*
Y64247D01*
X38865Y63473D01*
X39457Y62881D01*
X40231Y62561D01*
X41068D01*
X41842Y62881D01*
X42434Y63473D01*
X42454Y63523D01*
X45423D01*
Y61433D01*
X53963D01*
Y68202D01*
D02*
G37*
G36*
X60765Y67162D02*
X60350D01*
Y64058D01*
X62096D01*
Y65831D01*
X61995Y66341D01*
X61706Y66772D01*
X61275Y67061D01*
X60765Y67162D01*
D02*
G37*
G36*
X59350D02*
X58935D01*
X58425Y67061D01*
X57994Y66772D01*
X57705Y66341D01*
X57604Y65831D01*
Y64058D01*
X59350D01*
Y67162D01*
D02*
G37*
G36*
X108769Y68202D02*
X100229D01*
Y61433D01*
X108769D01*
Y63424D01*
X113057D01*
X113078Y63375D01*
X113670Y62783D01*
X114444Y62462D01*
X115281D01*
X116054Y62783D01*
X116647Y63375D01*
X116967Y64148D01*
Y64986D01*
X116647Y65759D01*
X116054Y66351D01*
X115281Y66672D01*
X114444D01*
X113670Y66351D01*
X113078Y65759D01*
X113057Y65709D01*
X108769D01*
Y68202D01*
D02*
G37*
G36*
X95765Y66683D02*
X93935D01*
X93609Y66618D01*
X93333Y66433D01*
X93148Y66157D01*
X93083Y65831D01*
Y61284D01*
X93148Y60958D01*
X93333Y60682D01*
X93609Y60498D01*
X93935Y60433D01*
X95765D01*
X96091Y60498D01*
X96367Y60682D01*
X96552Y60958D01*
X96617Y61284D01*
Y65831D01*
X96552Y66157D01*
X96367Y66433D01*
X96091Y66618D01*
X95765Y66683D01*
D02*
G37*
G36*
X90765D02*
X88935D01*
X88609Y66618D01*
X88333Y66433D01*
X88148Y66157D01*
X88083Y65831D01*
Y61284D01*
X88148Y60958D01*
X88333Y60682D01*
X88609Y60498D01*
X88935Y60433D01*
X90765D01*
X91091Y60498D01*
X91367Y60682D01*
X91552Y60958D01*
X91617Y61284D01*
Y65831D01*
X91552Y66157D01*
X91367Y66433D01*
X91091Y66618D01*
X90765Y66683D01*
D02*
G37*
G36*
X53963Y80210D02*
X45423D01*
Y73441D01*
X53963D01*
Y76004D01*
X73623D01*
X73909Y75295D01*
X73637Y74639D01*
Y73802D01*
X73658Y73752D01*
X69287Y69381D01*
X69039Y69010D01*
X68952Y68573D01*
Y66683D01*
X68935D01*
X68609Y66618D01*
X68333Y66433D01*
X68148Y66157D01*
X68083Y65831D01*
Y61284D01*
X68148Y60958D01*
X68333Y60682D01*
X68609Y60498D01*
X68935Y60433D01*
X70765D01*
X71091Y60498D01*
X71367Y60682D01*
X71552Y60958D01*
X71617Y61284D01*
Y65831D01*
X71552Y66157D01*
X71367Y66433D01*
X71237Y66521D01*
Y68100D01*
X75274Y72137D01*
X75323Y72116D01*
X76161D01*
X76934Y72436D01*
X77526Y73028D01*
X77847Y73802D01*
Y74639D01*
X77575Y75295D01*
X77861Y76004D01*
X78569D01*
X78592Y75981D01*
Y66607D01*
X78333Y66433D01*
X78148Y66157D01*
X78083Y65831D01*
Y61284D01*
X78148Y60958D01*
X78333Y60682D01*
X78609Y60498D01*
X78935Y60433D01*
X80765D01*
X81091Y60498D01*
X81367Y60682D01*
X81552Y60958D01*
X81617Y61284D01*
Y65831D01*
X81552Y66157D01*
X81367Y66433D01*
X81091Y66618D01*
X80877Y66661D01*
Y76454D01*
X80790Y76891D01*
X80542Y77262D01*
X79850Y77954D01*
X79480Y78202D01*
X79043Y78289D01*
X53963D01*
Y80210D01*
D02*
G37*
G36*
X65306Y72941D02*
X64468D01*
X63695Y72620D01*
X63103Y72028D01*
X62782Y71255D01*
Y70417D01*
X63103Y69644D01*
X63695Y69052D01*
X63708Y69046D01*
Y66638D01*
X63609Y66618D01*
X63333Y66433D01*
X63148Y66157D01*
X63083Y65831D01*
Y61284D01*
X63148Y60958D01*
X63333Y60682D01*
X63609Y60498D01*
X63935Y60433D01*
X65765D01*
X66091Y60498D01*
X66367Y60682D01*
X66552Y60958D01*
X66617Y61284D01*
Y65831D01*
X66552Y66157D01*
X66367Y66433D01*
X66091Y66618D01*
X65992Y66638D01*
Y69016D01*
X66079Y69052D01*
X66671Y69644D01*
X66992Y70417D01*
Y71255D01*
X66671Y72028D01*
X66079Y72620D01*
X65306Y72941D01*
D02*
G37*
G36*
X62096Y63058D02*
X60350D01*
Y59953D01*
X60765D01*
X61275Y60055D01*
X61706Y60343D01*
X61995Y60775D01*
X62096Y61284D01*
Y63058D01*
D02*
G37*
G36*
X59350D02*
X57604D01*
Y61284D01*
X57705Y60775D01*
X57994Y60343D01*
X58425Y60055D01*
X58935Y59953D01*
X59350D01*
Y63058D01*
D02*
G37*
G36*
X211556Y80123D02*
X204591D01*
Y73158D01*
X207009D01*
Y66121D01*
X204264D01*
Y59352D01*
X212805D01*
Y66121D01*
X209293D01*
Y73158D01*
X211556D01*
Y80123D01*
D02*
G37*
G36*
X102769Y56397D02*
X99316D01*
Y52157D01*
X102769D01*
Y56397D01*
D02*
G37*
G36*
X98316D02*
X94864D01*
Y52157D01*
X98316D01*
Y56397D01*
D02*
G37*
G36*
X53696Y55781D02*
X50244D01*
Y51540D01*
X53696D01*
Y55781D01*
D02*
G37*
G36*
X49244D02*
X45791D01*
Y51540D01*
X49244D01*
Y55781D01*
D02*
G37*
G36*
X212805Y54113D02*
X204264D01*
Y47344D01*
X212805D01*
Y48939D01*
X215624D01*
X215709Y48854D01*
X216482Y48533D01*
X217320D01*
X218093Y48854D01*
X218685Y49446D01*
X219006Y50219D01*
Y51057D01*
X218685Y51830D01*
X218093Y52422D01*
X217320Y52743D01*
X216482D01*
X215722Y52428D01*
X212805D01*
Y54113D01*
D02*
G37*
G36*
X75765Y66683D02*
X73935D01*
X73609Y66618D01*
X73333Y66433D01*
X73148Y66157D01*
X73083Y65831D01*
Y61284D01*
X73148Y60958D01*
X73333Y60682D01*
X73609Y60498D01*
X73708Y60478D01*
Y59768D01*
X73795Y59330D01*
X74042Y58960D01*
X79160Y53842D01*
X79531Y53594D01*
X79968Y53508D01*
X83523D01*
Y47387D01*
X90488D01*
Y55927D01*
X83523D01*
Y55792D01*
X80441D01*
X76351Y59882D01*
X76367Y60682D01*
X76552Y60958D01*
X76617Y61284D01*
Y65831D01*
X76552Y66157D01*
X76367Y66433D01*
X76091Y66618D01*
X75765Y66683D01*
D02*
G37*
G36*
X102769Y51157D02*
X99316D01*
Y46917D01*
X102769D01*
Y51157D01*
D02*
G37*
G36*
X98316D02*
X94864D01*
Y46917D01*
X98316D01*
Y51157D01*
D02*
G37*
G36*
X53696Y50541D02*
X50244D01*
Y46300D01*
X53696D01*
Y50541D01*
D02*
G37*
G36*
X49244D02*
X45791D01*
Y46300D01*
X49244D01*
Y50541D01*
D02*
G37*
G36*
X75494Y37836D02*
X75123D01*
Y34429D01*
X74123D01*
Y37836D01*
X73752D01*
X73248Y37736D01*
X72821Y37451D01*
X72074Y37293D01*
X71754Y37357D01*
X70012D01*
X69691Y37293D01*
X69420Y37112D01*
X69239Y36841D01*
X69175Y36521D01*
Y32338D01*
X69239Y32017D01*
X69420Y31746D01*
X69691Y31565D01*
X69780Y31547D01*
Y29332D01*
X69867Y28895D01*
X70013Y28677D01*
Y27678D01*
X69764Y27454D01*
X69361Y27234D01*
X68878Y27434D01*
X68041D01*
X67627Y27262D01*
X66918Y27690D01*
Y28649D01*
X66890Y28790D01*
X66903Y28819D01*
Y29656D01*
X66582Y30430D01*
X65990Y31022D01*
X65216Y31343D01*
X64379D01*
X63606Y31022D01*
X63014Y30430D01*
X62693Y29656D01*
Y28819D01*
X63014Y28046D01*
X63429Y27630D01*
Y22156D01*
X62524D01*
Y18893D01*
X61524D01*
Y22156D01*
X59843D01*
Y21883D01*
X59162Y21513D01*
X58416Y21822D01*
X58115Y21861D01*
Y16668D01*
Y11475D01*
X58416Y11515D01*
X59162Y11824D01*
X59802Y12316D01*
X60294Y12956D01*
X60603Y13702D01*
X60708Y14503D01*
Y14872D01*
X60727Y14878D01*
X61435Y14352D01*
Y14340D01*
X61711Y13675D01*
X62220Y13166D01*
X62885Y12890D01*
X63605D01*
X64270Y13166D01*
X64779Y13675D01*
X65054Y14340D01*
Y15060D01*
X64917Y15390D01*
X65330Y16099D01*
X70528D01*
Y14501D01*
X68703Y12676D01*
X68455Y12306D01*
X68368Y11868D01*
Y6313D01*
X68455Y5876D01*
X68703Y5505D01*
X69394Y4813D01*
X69765Y4566D01*
X70202Y4479D01*
X74914D01*
X75217Y4539D01*
X75421Y4366D01*
X75551Y4209D01*
X75687Y3965D01*
X75421Y3322D01*
Y2484D01*
X75741Y1711D01*
X76333Y1119D01*
X77107Y798D01*
X77944D01*
X78718Y1119D01*
X79310Y1711D01*
X79630Y2484D01*
Y3322D01*
X79310Y4095D01*
X78718Y4687D01*
X78718Y4687D01*
Y16099D01*
X80370D01*
Y9571D01*
X80457Y9134D01*
X80705Y8764D01*
X80749Y8719D01*
X80572Y8293D01*
Y7455D01*
X80893Y6682D01*
X81485Y6090D01*
X82258Y5769D01*
X83096D01*
X83869Y6090D01*
X84461Y6682D01*
X84782Y7455D01*
Y8293D01*
X84461Y9066D01*
X83869Y9658D01*
X83096Y9979D01*
X82721D01*
X82655Y10045D01*
Y16099D01*
X83915D01*
X84328Y15390D01*
X84191Y15060D01*
Y14340D01*
X84467Y13675D01*
X84976Y13166D01*
X85641Y12890D01*
X86361D01*
X87026Y13166D01*
X87535Y13675D01*
X87810Y14340D01*
Y14352D01*
X88519Y14878D01*
X88537Y14872D01*
Y14503D01*
X88643Y13702D01*
X88952Y12956D01*
X89443Y12316D01*
X90084Y11824D01*
X90830Y11515D01*
X91131Y11475D01*
Y16668D01*
Y21861D01*
X90830Y21822D01*
X90084Y21513D01*
X89402Y21883D01*
Y22156D01*
X87721D01*
Y18893D01*
X86721D01*
Y22156D01*
X85816D01*
Y27840D01*
X85860Y27883D01*
X86180Y28657D01*
Y29494D01*
X85860Y30268D01*
X85268Y30860D01*
X84494Y31180D01*
X83657D01*
X82883Y30860D01*
X82291Y30268D01*
X81971Y29494D01*
Y28657D01*
X82291Y27883D01*
X82327Y27848D01*
Y21686D01*
X76749D01*
Y24569D01*
X79145Y26965D01*
X79393Y27336D01*
X79480Y27773D01*
Y31550D01*
X79554Y31565D01*
X79825Y31746D01*
X80007Y32017D01*
X80070Y32338D01*
Y36521D01*
X80007Y36841D01*
X79825Y37112D01*
X79554Y37293D01*
X79234Y37357D01*
X77492D01*
X77172Y37293D01*
X76424Y37451D01*
X75997Y37736D01*
X75494Y37836D01*
D02*
G37*
G36*
X26294Y35264D02*
X19526D01*
Y32796D01*
X10748D01*
X10708Y32836D01*
X9934Y33156D01*
X9097D01*
X8324Y32836D01*
X7732Y32244D01*
X7411Y31471D01*
Y30633D01*
X7732Y29860D01*
X8324Y29268D01*
X9097Y28947D01*
X9934D01*
X10708Y29268D01*
X10748Y29307D01*
X19526D01*
Y26724D01*
X26294D01*
Y35264D01*
D02*
G37*
G36*
X57115Y21861D02*
X56814Y21822D01*
X56068Y21513D01*
X55427Y21021D01*
X54936Y20380D01*
X54627Y19634D01*
X54522Y18834D01*
Y17168D01*
X57115D01*
Y21861D01*
D02*
G37*
G36*
X92131D02*
Y17168D01*
X94724D01*
Y18834D01*
X94619Y19634D01*
X94310Y20380D01*
X93818Y21021D01*
X93177Y21513D01*
X92431Y21822D01*
X92131Y21861D01*
D02*
G37*
G36*
X94724Y16168D02*
X92131D01*
Y11475D01*
X92431Y11515D01*
X93177Y11824D01*
X93818Y12316D01*
X94310Y12956D01*
X94619Y13702D01*
X94724Y14503D01*
Y16168D01*
D02*
G37*
G36*
X57115Y16168D02*
X54522D01*
Y14503D01*
X54627Y13702D01*
X54936Y12956D01*
X55427Y12316D01*
X56068Y11824D01*
X56814Y11515D01*
X57115Y11475D01*
Y16168D01*
D02*
G37*
G36*
X117984Y24756D02*
X117147D01*
X116373Y24435D01*
X115781Y23843D01*
X115461Y23070D01*
Y22233D01*
X115781Y21459D01*
X116373Y20867D01*
X116423Y20846D01*
Y12379D01*
X112706D01*
Y5610D01*
X121246D01*
Y12379D01*
X118708D01*
Y20846D01*
X118757Y20867D01*
X119350Y21459D01*
X119670Y22233D01*
Y23070D01*
X119350Y23843D01*
X118757Y24435D01*
X117984Y24756D01*
D02*
G37*
G36*
X103460Y24054D02*
X102623D01*
X101849Y23734D01*
X101257Y23142D01*
X100937Y22368D01*
Y21531D01*
X101257Y20757D01*
X101849Y20165D01*
X101899Y20144D01*
Y12379D01*
X98523D01*
Y5610D01*
X107063D01*
Y12379D01*
X104184D01*
Y20144D01*
X104234Y20165D01*
X104826Y20757D01*
X105146Y21531D01*
Y22368D01*
X104826Y23142D01*
X104234Y23734D01*
X103460Y24054D01*
D02*
G37*
G36*
X144226Y49870D02*
X143904Y49806D01*
X143631Y49624D01*
X140036Y46029D01*
X139854Y45756D01*
X139790Y45434D01*
Y40764D01*
X139854Y40442D01*
X140036Y40169D01*
X144203Y36002D01*
Y5414D01*
X144267Y5092D01*
X144450Y4819D01*
X144814Y4455D01*
X145087Y4273D01*
X145409Y4209D01*
X154130D01*
X154453Y4273D01*
X154725Y4455D01*
X155464Y5194D01*
X155464Y5194D01*
X155647Y5467D01*
X155711Y5789D01*
Y42111D01*
X155647Y42433D01*
X155464Y42706D01*
X148547Y49624D01*
X148274Y49806D01*
X147952Y49870D01*
X144226D01*
X144226Y49870D01*
D02*
G37*
G36*
X195465Y49662D02*
X190337D01*
X190015Y49598D01*
X189742Y49416D01*
X183620Y43293D01*
X183438Y43020D01*
X183373Y42698D01*
Y8070D01*
X183438Y7748D01*
X183620Y7475D01*
X186808Y4287D01*
X187081Y4104D01*
X187403Y4040D01*
X191164D01*
X191486Y4104D01*
X191759Y4287D01*
X194807Y7335D01*
X194807Y7335D01*
X194989Y7608D01*
X195053Y7930D01*
Y34613D01*
X199342Y38902D01*
X199342Y38902D01*
X199524Y39175D01*
X199589Y39497D01*
Y45538D01*
X199589Y45538D01*
X199524Y45860D01*
X199342Y46133D01*
X196060Y49416D01*
X195787Y49598D01*
X195465Y49662D01*
D02*
G37*
G36*
X167244Y104839D02*
X166922Y104775D01*
X166649Y104593D01*
X166649Y104593D01*
X164023Y101966D01*
X163840Y101693D01*
X163776Y101371D01*
Y8009D01*
X163840Y7687D01*
X164023Y7414D01*
X167191Y4246D01*
X167192Y4246D01*
X167464Y4063D01*
X167786Y3999D01*
X167786Y3999D01*
X171556D01*
X171878Y4063D01*
X172151Y4246D01*
X175472Y7566D01*
X175472Y7566D01*
X175654Y7839D01*
X175719Y8161D01*
X175719Y8161D01*
Y101516D01*
X175654Y101838D01*
X175472Y102111D01*
X175472Y102111D01*
X172990Y104593D01*
X172717Y104775D01*
X172395Y104839D01*
X167244D01*
X167244Y104839D01*
D02*
G37*
G36*
X51797Y6023D02*
X48344D01*
Y2570D01*
X51797D01*
Y6023D01*
D02*
G37*
G36*
X47344D02*
X43891D01*
Y2570D01*
X47344D01*
Y6023D01*
D02*
G37*
G36*
X58115Y4814D02*
Y712D01*
X60708D01*
Y1786D01*
X60603Y2587D01*
X60294Y3333D01*
X59802Y3974D01*
X59162Y4465D01*
X58416Y4774D01*
X58115Y4814D01*
D02*
G37*
G36*
X57115D02*
X56814Y4774D01*
X56068Y4465D01*
X55427Y3974D01*
X54936Y3333D01*
X54627Y2587D01*
X54522Y1786D01*
Y712D01*
X57115D01*
Y4814D01*
D02*
G37*
G36*
X92131D02*
Y712D01*
X94724D01*
Y1786D01*
X94619Y2587D01*
X94310Y3333D01*
X93818Y3974D01*
X93177Y4465D01*
X92431Y4774D01*
X92131Y4814D01*
D02*
G37*
G36*
X91131D02*
X90830Y4774D01*
X90084Y4465D01*
X89443Y3974D01*
X88952Y3333D01*
X88643Y2587D01*
X88537Y1786D01*
Y712D01*
X91131D01*
Y4814D01*
D02*
G37*
G36*
X26294Y22546D02*
X19526D01*
Y14006D01*
X21768D01*
Y13225D01*
X21855Y12787D01*
X22102Y12417D01*
X30582Y3937D01*
Y-1413D01*
X37547D01*
Y5553D01*
X32197D01*
X24452Y13298D01*
X24746Y14006D01*
X26294D01*
Y22546D01*
D02*
G37*
G36*
X51797Y1570D02*
X48344D01*
Y-1883D01*
X51797D01*
Y1570D01*
D02*
G37*
G36*
X47344D02*
X43891D01*
Y-1883D01*
X47344D01*
Y1570D01*
D02*
G37*
G36*
X107533Y841D02*
X103293D01*
Y-2513D01*
X107533D01*
Y841D01*
D02*
G37*
G36*
X121716D02*
X117476D01*
Y-2513D01*
X121716D01*
Y841D01*
D02*
G37*
G36*
X102293D02*
X98053D01*
Y-2513D01*
X102293D01*
Y841D01*
D02*
G37*
G36*
X116476D02*
X112236D01*
Y-2513D01*
X116476D01*
Y841D01*
D02*
G37*
G36*
X94724Y-288D02*
X92131D01*
Y-4391D01*
X92431Y-4351D01*
X93177Y-4042D01*
X93818Y-3551D01*
X94310Y-2910D01*
X94619Y-2164D01*
X94724Y-1363D01*
Y-288D01*
D02*
G37*
G36*
X60708Y-288D02*
X58115D01*
Y-4391D01*
X58416Y-4351D01*
X59162Y-4042D01*
X59802Y-3551D01*
X60294Y-2910D01*
X60603Y-2164D01*
X60708Y-1363D01*
Y-288D01*
D02*
G37*
G36*
X57115D02*
X54522D01*
Y-1363D01*
X54627Y-2164D01*
X54936Y-2910D01*
X55427Y-3551D01*
X56068Y-4042D01*
X56814Y-4351D01*
X57115Y-4391D01*
Y-288D01*
D02*
G37*
G36*
X91131Y-288D02*
X88537D01*
Y-1363D01*
X88643Y-2164D01*
X88952Y-2910D01*
X89443Y-3551D01*
X90084Y-4042D01*
X90830Y-4351D01*
X91131Y-4391D01*
Y-288D01*
D02*
G37*
G36*
X121716Y-3513D02*
X117476D01*
Y-6867D01*
X121716D01*
Y-3513D01*
D02*
G37*
G36*
X116476D02*
X112236D01*
Y-6867D01*
X116476D01*
Y-3513D01*
D02*
G37*
G36*
X107533D02*
X103293D01*
Y-6867D01*
X107533D01*
Y-3513D01*
D02*
G37*
G36*
X102293D02*
X98053D01*
Y-6867D01*
X102293D01*
Y-3513D01*
D02*
G37*
%LPD*%
D16*
X44871Y193065D02*
D03*
Y170231D02*
D03*
X37194Y193065D02*
D03*
X39753D02*
D03*
X47430D02*
D03*
X29517D02*
D03*
X32076D02*
D03*
X34635D02*
D03*
X42312D02*
D03*
X49989D02*
D03*
X52548D02*
D03*
X47430Y170231D02*
D03*
X42312D02*
D03*
X37194D02*
D03*
X34635D02*
D03*
X32076D02*
D03*
X29517D02*
D03*
X52548D02*
D03*
X39753D02*
D03*
X49989D02*
D03*
D17*
X49550Y298250D02*
D03*
X165801Y143900D02*
D03*
X53480Y260299D02*
D03*
X65488D02*
D03*
X177809Y143900D02*
D03*
X127137Y100291D02*
D03*
X115129D02*
D03*
Y128749D02*
D03*
X127137D02*
D03*
X177923Y131868D02*
D03*
X165915D02*
D03*
X92538Y100291D02*
D03*
X104546D02*
D03*
X92559Y128749D02*
D03*
X104567D02*
D03*
X61558Y298250D02*
D03*
X49550Y278294D02*
D03*
X61558D02*
D03*
X36648Y226738D02*
D03*
X24641D02*
D03*
X36587Y214823D02*
D03*
X24579D02*
D03*
X36530Y203127D02*
D03*
X24522D02*
D03*
X34918Y18277D02*
D03*
X22910D02*
D03*
X22910Y30994D02*
D03*
X34918D02*
D03*
D18*
X49649Y310521D02*
D03*
X27938Y159310D02*
D03*
X61460Y310521D02*
D03*
X61927Y159512D02*
D03*
X49744Y51041D02*
D03*
X98816Y51657D02*
D03*
X34297Y112151D02*
D03*
X34190Y100291D02*
D03*
X73260Y95057D02*
D03*
X39749Y159310D02*
D03*
X50116Y159512D02*
D03*
X61554Y51041D02*
D03*
X87005Y51657D02*
D03*
X22486Y112151D02*
D03*
X22379Y100291D02*
D03*
X61449Y95057D02*
D03*
D19*
X32357Y127552D02*
D03*
X41810Y131292D02*
D03*
Y123812D02*
D03*
X32357D02*
D03*
D20*
X21877Y240611D02*
D03*
X47844Y2070D02*
D03*
X35656Y240611D02*
D03*
X34064Y2070D02*
D03*
D21*
X59850Y63558D02*
D03*
Y85211D02*
D03*
X74850Y63558D02*
D03*
X84850D02*
D03*
X64850D02*
D03*
X69850D02*
D03*
X79850D02*
D03*
X89850D02*
D03*
X94850D02*
D03*
Y85211D02*
D03*
X89850D02*
D03*
X84850D02*
D03*
X79850D02*
D03*
X74850D02*
D03*
X69850D02*
D03*
X64850D02*
D03*
D22*
X87221Y18893D02*
D03*
X62024D02*
D03*
X84072D02*
D03*
X65174D02*
D03*
D23*
X74623Y34429D02*
D03*
X70883Y44311D02*
D03*
X74623D02*
D03*
X78363D02*
D03*
Y34429D02*
D03*
X70883D02*
D03*
D24*
X102793Y-3013D02*
D03*
X116976D02*
D03*
X208535Y50728D02*
D03*
Y62736D02*
D03*
X104499Y64818D02*
D03*
Y76825D02*
D03*
X102793Y8995D02*
D03*
X116976D02*
D03*
X108200Y170634D02*
D03*
Y158626D02*
D03*
X81357Y170479D02*
D03*
Y158471D02*
D03*
X49693Y64818D02*
D03*
Y76825D02*
D03*
X108240Y181271D02*
D03*
Y193279D02*
D03*
X81292Y193279D02*
D03*
Y181271D02*
D03*
D25*
X171908Y122700D02*
D03*
X113858Y119266D02*
D03*
X117598Y109817D02*
D03*
X121338Y119266D02*
D03*
X175648Y113251D02*
D03*
X179388Y122700D02*
D03*
X91287Y119266D02*
D03*
X95027Y109817D02*
D03*
X98767Y119266D02*
D03*
D26*
X61140Y187897D02*
D03*
X67876Y118947D02*
D03*
X55649Y118989D02*
D03*
X129530Y187145D02*
D03*
X61140Y176086D02*
D03*
X67876Y130758D02*
D03*
X55649Y130800D02*
D03*
X129530Y175334D02*
D03*
D27*
X32357Y131292D02*
D03*
D28*
X22748Y86716D02*
D03*
Y74314D02*
D03*
D29*
X140940Y153987D02*
D03*
Y158987D02*
D03*
Y163987D02*
D03*
Y168987D02*
D03*
Y173987D02*
D03*
Y178987D02*
D03*
Y183987D02*
D03*
Y188987D02*
D03*
Y193987D02*
D03*
Y198987D02*
D03*
X178420D02*
D03*
Y193987D02*
D03*
Y188987D02*
D03*
Y183987D02*
D03*
Y178987D02*
D03*
Y173987D02*
D03*
Y168987D02*
D03*
Y163987D02*
D03*
Y158987D02*
D03*
Y153987D02*
D03*
D30*
X208073Y76640D02*
D03*
Y90420D02*
D03*
D31*
X81512Y18893D02*
D03*
X79544D02*
D03*
X77575D02*
D03*
X75607D02*
D03*
X73638D02*
D03*
X71670D02*
D03*
X69701D02*
D03*
X67733D02*
D03*
D32*
X146096Y114432D02*
D03*
X158497Y114432D02*
D03*
X65685Y248175D02*
D03*
X53283D02*
D03*
D33*
X90263Y160579D02*
D03*
X99712Y164319D02*
D03*
X90263Y168059D02*
D03*
X90303Y183637D02*
D03*
X99752Y187378D02*
D03*
X90303Y191118D02*
D03*
D34*
X32999Y298616D02*
D03*
D35*
Y308458D02*
D03*
D36*
X27559Y261653D02*
D03*
Y251654D02*
D03*
Y271654D02*
D03*
D37*
X174078Y246413D02*
D03*
X131353Y246083D02*
D03*
X89515Y246083D02*
D03*
D38*
X91631Y212D02*
D03*
X57615D02*
D03*
D39*
X91631Y16668D02*
D03*
X57615D02*
D03*
D40*
X146135Y91434D02*
D03*
Y43402D02*
D03*
X193379D02*
D03*
D41*
X169757Y99308D02*
D03*
D42*
X193379Y91434D02*
D03*
D43*
X27559Y281653D02*
D03*
D44*
X174078Y226728D02*
D03*
X131353Y226398D02*
D03*
X89515Y226398D02*
D03*
D45*
X63245Y14700D02*
D03*
X86001D02*
D03*
D46*
X189339Y9955D02*
D03*
X169653D02*
D03*
D47*
X149969D02*
D03*
D48*
X114921Y279213D02*
D03*
X144921D02*
D03*
X124921D02*
D03*
X134921D02*
D03*
X104921Y319213D02*
D03*
X154921Y279213D02*
D03*
Y319213D02*
D03*
X104921Y279213D02*
D03*
X114921Y319213D02*
D03*
X144921D02*
D03*
X134921D02*
D03*
X124921D02*
D03*
D49*
X49617Y289743D02*
Y298183D01*
X49550Y298250D02*
X49617Y298183D01*
X51019Y204991D02*
X54453D01*
X44871Y193065D02*
Y198843D01*
X51019Y204991D01*
X199770Y194643D02*
Y253476D01*
X125867Y271669D02*
X181577D01*
X199770Y253476D01*
X125172Y272363D02*
Y278961D01*
Y272363D02*
X125867Y271669D01*
X124921Y279213D02*
X125172Y278961D01*
X177649Y289253D02*
X206203Y260699D01*
X144961Y289253D02*
X177649D01*
X134921Y279213D02*
X144961Y289253D01*
X155146Y295701D02*
Y318988D01*
X154921Y319213D02*
X155146Y318988D01*
Y295701D02*
X155371Y295476D01*
X118852Y304752D02*
X144416D01*
X145108Y305444D02*
Y319025D01*
X144416Y304752D02*
X145108Y305444D01*
X200625Y261391D02*
X203094Y258922D01*
Y184767D02*
Y258922D01*
X206203Y169679D02*
Y260699D01*
X178500Y158992D02*
X178565Y158927D01*
X204786D02*
X204846Y158868D01*
X178565Y158927D02*
X204786D01*
X191248Y179152D02*
X191414Y179317D01*
X178586Y179152D02*
X191248D01*
X178420Y178987D02*
X178586Y179152D01*
X178420Y173987D02*
X178529Y174096D01*
X195425D01*
X195534Y174205D01*
X202402Y184075D02*
X203094Y184767D01*
X178508Y184075D02*
X202402D01*
X178456Y193951D02*
X199078D01*
X199770Y194643D01*
X178420Y163987D02*
X178445Y164012D01*
X199264D02*
X199289Y164036D01*
X178445Y164012D02*
X199264D01*
X155951Y184107D02*
X156071Y184227D01*
X119846Y214415D02*
X123536Y210724D01*
X141060Y184107D02*
X155951D01*
X140987Y178939D02*
X159415D01*
X159462Y178892D01*
X164180Y188987D02*
X178420D01*
X162394Y190773D02*
X164180Y188987D01*
X162394Y190773D02*
Y224216D01*
X178420Y183987D02*
X178508Y184075D01*
X205511Y168987D02*
X206203Y169679D01*
X178420Y168987D02*
X205511D01*
X130804Y149655D02*
X148478Y131981D01*
X165802D02*
X165915Y131868D01*
X148478Y131981D02*
X165802D01*
X54394Y200631D02*
X54425Y200662D01*
X140963Y168964D02*
X155868D01*
X155891Y168941D01*
X155922Y209771D02*
Y223201D01*
X155953Y223231D01*
X155892Y209740D02*
X155922Y209771D01*
X159098Y194522D02*
Y226920D01*
X158406Y193830D02*
X159098Y194522D01*
Y226920D02*
X162600Y230423D01*
X144921Y319213D02*
X145108Y319025D01*
X134887Y308090D02*
Y319179D01*
X134195Y307398D02*
X134887Y308090D01*
X116463Y307398D02*
X134195D01*
X104868Y301305D02*
Y319213D01*
X91811Y288247D02*
X104868Y301305D01*
X145881Y279821D02*
X146058Y279998D01*
X22910Y13225D02*
X34064Y2070D01*
X22910Y13225D02*
Y18277D01*
X71624Y181271D02*
X81292D01*
X70769Y182126D02*
X71624Y181271D01*
X70236Y182126D02*
X70769D01*
X48885Y269985D02*
X63813D01*
X46295Y267395D02*
X48885Y269985D01*
X42772Y259061D02*
X46541Y255291D01*
X42772Y259061D02*
Y277907D01*
X27609Y281703D02*
X38998D01*
X27559Y281653D02*
X27609Y281703D01*
X30968Y248147D02*
X53255D01*
X27281Y251834D02*
X30968Y248147D01*
X50014Y77146D02*
X79043D01*
X79734Y63673D02*
Y76454D01*
Y63673D02*
X79850Y63558D01*
X49693Y76825D02*
X50014Y77146D01*
X79043D02*
X79734Y76454D01*
X84842Y63565D02*
X84850Y63558D01*
X84842Y63565D02*
Y68405D01*
X93262Y76825D01*
X104499D01*
X37194Y182793D02*
X41716Y178272D01*
X37194Y182793D02*
Y193065D01*
X69749Y164118D02*
Y167150D01*
X75396Y158471D02*
X81357D01*
X69749Y164118D02*
X75396Y158471D01*
X83465Y160579D02*
X90263D01*
X81357Y158471D02*
X83465Y160579D01*
X81292Y181271D02*
X81944Y181922D01*
X86112D02*
X87648Y183458D01*
X90124D02*
X90303Y183637D01*
X81944Y181922D02*
X86112D01*
X87648Y183458D02*
X90124D01*
X39737Y187484D02*
X44661Y182560D01*
X49220D01*
X39737Y187484D02*
Y193273D01*
X47517Y193151D02*
Y198640D01*
X49508Y200631D01*
X54394D01*
X47430Y193065D02*
X47517Y193151D01*
X22925Y175563D02*
X23106Y175383D01*
X31384D01*
X32076Y170231D02*
Y174691D01*
X31384Y175383D02*
X32076Y174691D01*
X68101Y142182D02*
X68259Y142339D01*
X87915D01*
X92559Y137696D01*
Y128749D02*
Y137696D01*
X91287Y127477D02*
X92559Y128749D01*
X91287Y119266D02*
Y127477D01*
X32495Y179103D02*
X34635Y176962D01*
X22952Y179243D02*
X23092Y179103D01*
X32495D01*
X106398Y145903D02*
X112909Y139393D01*
X68276Y145903D02*
X106398D01*
X34635Y170231D02*
Y176962D01*
X112909Y130969D02*
X115129Y128749D01*
X112909Y130969D02*
Y139393D01*
X113858Y127477D02*
X115129Y128749D01*
X113858Y119266D02*
Y127477D01*
X69701Y18893D02*
Y23554D01*
X68460Y24796D02*
X69701Y23554D01*
X68460Y24796D02*
Y25329D01*
X117565Y9398D02*
Y22651D01*
X117133Y8965D02*
X117565Y9398D01*
X102793Y8995D02*
X103042Y9244D01*
Y21949D01*
X81512Y9571D02*
Y18893D01*
Y9571D02*
X82677Y8407D01*
Y7874D02*
Y8407D01*
X208151Y63120D02*
X208535Y62736D01*
X208151Y63120D02*
Y78042D01*
X177923Y124165D02*
Y131868D01*
X177809Y131983D02*
X177923Y131868D01*
X177809Y131983D02*
Y143900D01*
X177923Y124165D02*
X179388Y122700D01*
X53283Y248175D02*
X53480Y248372D01*
Y260299D01*
X35656Y240611D02*
X35841Y240426D01*
X41255D01*
X43154Y242324D01*
X43686D01*
X63813Y269985D02*
X65556Y268242D01*
Y260367D02*
Y268242D01*
X162600Y230423D02*
X166549D01*
X141097Y193830D02*
X158406D01*
X140940Y193987D02*
X141097Y193830D01*
X97333Y283232D02*
X118852Y304752D01*
X97333Y279116D02*
Y283232D01*
Y279116D02*
X117397Y259052D01*
X149117D01*
X149184Y259119D01*
X148913Y208121D02*
Y229256D01*
Y208121D02*
X152380Y204655D01*
X152676Y188861D02*
X152802Y188735D01*
X141066Y188861D02*
X152676D01*
X140940Y188987D02*
X141066Y188861D01*
X140940Y183987D02*
X141060Y184107D01*
X116404Y256357D02*
X155343D01*
X155704Y256718D01*
X94567Y278194D02*
X116404Y256357D01*
X94567Y278194D02*
Y285502D01*
X116463Y307398D01*
X91811Y277151D02*
Y288247D01*
Y277151D02*
X119903Y249059D01*
Y240263D02*
Y249059D01*
X119763Y240123D02*
X119903Y240263D01*
X119846Y214415D02*
Y222817D01*
X140940Y178987D02*
X140987Y178939D01*
X108401Y193118D02*
X119087D01*
X102341Y193181D02*
X108142D01*
X108240Y193279D02*
X108401Y193118D01*
X99863Y190703D02*
X102341Y193181D01*
X99863Y187489D02*
Y190703D01*
X140940Y168987D02*
X140963Y168964D01*
X99712Y161009D02*
Y164319D01*
Y161009D02*
X102094Y158626D01*
X108200D01*
X131583D01*
X136685Y163727D01*
X140681D01*
X140940Y163987D01*
X124515Y96783D02*
X127137Y99405D01*
X124515Y87290D02*
Y96783D01*
X127137Y99405D02*
Y105872D01*
X103123Y86598D02*
X123823D01*
X124515Y87290D01*
X123193Y109817D02*
X127137Y105872D01*
X117598Y109817D02*
X123193D01*
X64850Y63558D02*
Y70799D01*
X64887Y70836D01*
X69850Y63558D02*
X70094Y63802D01*
Y68573D01*
X75679Y74158D01*
X92532Y91918D02*
Y100285D01*
X92538Y100291D01*
Y107328D01*
X95027Y109817D01*
X79968Y54650D02*
X84643D01*
X87005Y52288D01*
Y51657D02*
Y52288D01*
X74850Y59768D02*
X79968Y54650D01*
X74850Y59768D02*
Y63558D01*
X77575Y2953D02*
Y18893D01*
X77526Y2903D02*
X77575Y2953D01*
X72652Y10202D02*
Y10735D01*
X73638Y11721D01*
Y18893D01*
Y25106D01*
X71155Y27590D02*
X73638Y25106D01*
X71155Y27590D02*
Y29100D01*
X70922Y29332D02*
Y34389D01*
Y29332D02*
X71155Y29100D01*
X70883Y34429D02*
X70922Y34389D01*
X75606Y6313D02*
Y16872D01*
X75607Y16873D01*
Y18892D01*
Y18893D02*
Y25043D01*
X70202Y5621D02*
X74914D01*
X75606Y6313D01*
X75607Y25043D02*
X78337Y27773D01*
X69510Y6313D02*
X70202Y5621D01*
X69510Y6313D02*
Y11868D01*
X78337Y27773D02*
Y34403D01*
X69510Y11868D02*
X71670Y14028D01*
X78337Y34403D02*
X78363Y34429D01*
X71670Y14028D02*
Y18893D01*
X78363Y44311D02*
X78442Y44390D01*
X81906D01*
X85159Y41137D01*
X104750Y64567D02*
X114862D01*
X104499Y64818D02*
X104750Y64567D01*
X70312Y42733D02*
X70883Y43304D01*
X65219Y42733D02*
X70312D01*
X70883Y43304D02*
Y44311D01*
X65142Y42656D02*
X65219Y42733D01*
X40650Y64665D02*
X49541D01*
X49693Y64818D01*
X38998Y281703D02*
X42772Y277930D01*
Y277907D02*
X49163D01*
X49550Y278294D01*
X46541Y255291D02*
X46661D01*
X22853Y182944D02*
X31935D01*
X37243Y177636D01*
Y170279D02*
Y177636D01*
X37194Y162652D02*
Y170231D01*
X37243Y170279D01*
X37194Y162652D02*
X39749Y160098D01*
Y159310D02*
Y160098D01*
X47430Y170231D02*
Y175046D01*
X48471Y176086D01*
X61140D01*
X34627Y188099D02*
Y193058D01*
X33150Y186622D02*
X34627Y188099D01*
X22741Y186622D02*
X33150D01*
D50*
X49550Y298745D02*
Y310423D01*
X49649Y310521D01*
X32999Y298616D02*
X49421D01*
D51*
X22823Y74314D02*
X30008D01*
X50751Y95057D02*
X61449D01*
X30008Y74314D02*
X50751Y95057D01*
X60889Y50499D02*
X61587Y51197D01*
X22748Y74314D02*
X22823D01*
Y50499D02*
Y74314D01*
X25442Y125235D02*
X26853Y123824D01*
X32345D01*
X32357Y123812D01*
X25442Y125235D02*
Y131261D01*
X32325D01*
X21726Y112910D02*
X22486Y112151D01*
X23110Y131261D02*
X25442D01*
X21726Y129877D02*
X23110Y131261D01*
X21726Y112910D02*
Y129877D01*
X22433Y112097D02*
X22486Y112151D01*
X32325Y131261D02*
X32357Y131292D01*
X22379Y100291D02*
X22433Y100345D01*
Y112097D01*
X22379Y100291D02*
X22564Y100107D01*
Y86900D02*
Y100107D01*
Y86900D02*
X22748Y86716D01*
X9516Y31052D02*
X22852D01*
X22910Y30994D01*
X175559Y113339D02*
X175648D01*
X158499Y114431D02*
X174468D01*
X175559Y113339D01*
X194393Y90420D02*
X208073D01*
X193379Y91434D02*
X194393Y90420D01*
X193379Y91434D02*
Y104655D01*
X184978Y113056D02*
X193379Y104655D01*
X182439Y113056D02*
X184978D01*
X175648D02*
X182439D01*
X145907Y91662D02*
X146135Y91434D01*
X145907Y114244D02*
X146096Y114432D01*
X145907Y91662D02*
Y114244D01*
X208535Y50728D02*
X208580Y50683D01*
X216856D02*
X216901Y50638D01*
X208580Y50683D02*
X216856D01*
X108200Y170634D02*
X108240Y170674D01*
X140935Y173982D02*
X140940Y173987D01*
X108240Y175972D02*
X108451Y175761D01*
X108240Y170674D02*
Y175972D01*
Y181271D01*
X129253Y175611D02*
X129530Y175334D01*
X130882Y173982D01*
X140935D01*
X108451Y175761D02*
X119673D01*
X119823Y175611D01*
X129253D01*
X109838Y100291D02*
X115129D01*
X104546D02*
X109838D01*
X74603Y44331D02*
X74623Y44311D01*
X109838Y93115D02*
X109941Y93012D01*
X109838Y93115D02*
Y100291D01*
X74603Y44331D02*
Y48822D01*
X72228Y51197D02*
X74603Y48822D01*
X61587Y51197D02*
X72228D01*
X60889Y45141D02*
Y50499D01*
X51332Y35584D02*
X60889Y45141D01*
X51150Y35433D02*
X51181D01*
X59850Y85211D02*
X59889Y85251D01*
X46712Y30994D02*
X51150Y35433D01*
X59889Y93497D02*
X61449Y95057D01*
X59889Y85251D02*
Y93497D01*
X34918Y30994D02*
X46712D01*
X34918D02*
Y38405D01*
X22823Y50499D02*
X34918Y38405D01*
X34918Y18277D02*
Y30994D01*
X34918Y30994D02*
X34918Y30994D01*
X65174Y18893D02*
Y28649D01*
X64798Y29025D02*
Y29238D01*
Y29025D02*
X65174Y28649D01*
X84072Y29072D02*
X84075Y29076D01*
X84072Y18893D02*
Y29072D01*
X99752Y187378D02*
X99863Y187489D01*
D52*
X146497Y42529D02*
X149969Y39057D01*
X146497Y42529D02*
Y43394D01*
X149969Y9955D02*
Y39057D01*
X193379Y43039D02*
Y43402D01*
X189339Y38998D02*
X193379Y43039D01*
X189339Y9955D02*
Y38998D01*
X169757Y10059D02*
Y99308D01*
D53*
X22455Y202775D02*
X24461Y204781D01*
Y204971D01*
X11491Y202775D02*
X22455D01*
X42291Y193086D02*
Y199734D01*
X50544Y207987D01*
X54843D01*
X59055Y212199D01*
Y212598D01*
X51915Y214974D02*
X59106Y222166D01*
X80295Y212292D02*
X93795D01*
X36739Y214974D02*
X51915D01*
X93795Y212292D02*
X107902Y226398D01*
X36587Y214823D02*
X36739Y214974D01*
X107902Y226398D02*
X131353D01*
X32076Y193065D02*
Y196595D01*
Y193065D02*
X32175Y193164D01*
X32076Y196595D02*
X35298Y199818D01*
Y203800D01*
X36496Y204998D01*
X36591Y203066D02*
X37372Y203848D01*
X42911D01*
X49284Y210220D01*
X52250D01*
X68053Y226023D01*
X87066D01*
X88730Y225614D02*
X89139Y226023D01*
X89515D01*
X89139D02*
X89515Y226398D01*
X36527Y228924D02*
X38490Y226960D01*
X45330D01*
X63428D01*
X70719Y234251D01*
X173155Y234251D01*
X174078Y226728D02*
Y233328D01*
X173155Y234251D02*
X174078Y233328D01*
X22637Y192786D02*
X29419D01*
X29517Y192885D02*
Y193065D01*
X29419Y192786D02*
X29517Y192885D01*
X126922Y128963D02*
X127137Y128749D01*
Y120188D02*
Y128749D01*
X126922Y128963D02*
Y139356D01*
X121338Y119266D02*
X126215D01*
X127137Y120188D01*
X104304Y129009D02*
Y139336D01*
Y129009D02*
X104566Y128748D01*
Y120633D02*
Y128748D01*
X69570Y138956D02*
X73608D01*
X103199Y119266D02*
X104566Y120633D01*
X67876Y137262D02*
X69570Y138956D01*
X98767Y119266D02*
X103199D01*
X67876Y130758D02*
Y137262D01*
X49580Y151147D02*
Y158976D01*
X73339Y170302D02*
X81181D01*
X67296Y131337D02*
X67876Y130758D01*
X56186Y131337D02*
X67296D01*
X49989Y159639D02*
X50116Y159512D01*
X49580Y158976D02*
X50116Y159512D01*
X49989Y159639D02*
Y170231D01*
X81357Y170479D02*
X82996Y168840D01*
X81181Y170302D02*
X81357Y170479D01*
X73255Y191834D02*
Y219397D01*
X73302Y191787D02*
X82721D01*
X55649Y130800D02*
X56186Y131337D01*
X42503Y131292D02*
X55157D01*
X82996Y168840D02*
X89482D01*
X73255Y219397D02*
X75987Y222129D01*
X81292Y193279D02*
X82721Y191850D01*
X89570D01*
X24522Y203127D02*
Y204831D01*
X24662Y204971D01*
Y214740D01*
X89482Y168840D02*
X90263Y168059D01*
X89570Y191850D02*
X90303Y191118D01*
X24863Y215107D02*
Y226515D01*
X24579Y214823D02*
X24863Y215107D01*
X24641Y226738D02*
X24863Y226515D01*
X76115Y248107D02*
X76327Y248319D01*
Y270669D01*
X65719Y248141D02*
X76082D01*
X76115Y248107D01*
X67469Y279528D02*
X76327Y270669D01*
X65685Y248175D02*
X65719Y248141D01*
X62792Y279528D02*
X67469D01*
X61558Y278294D02*
Y298250D01*
X61558Y278294D02*
X62792Y279528D01*
X61558Y278294D02*
X61558Y278294D01*
D54*
X215473Y313216D02*
D03*
X209567Y301405D02*
D03*
X215473Y289594D02*
D03*
X209567Y277783D02*
D03*
X215473Y265972D02*
D03*
X209567Y254161D02*
D03*
X215473Y242350D02*
D03*
X209567Y230539D02*
D03*
X215473Y218728D02*
D03*
X209567Y206917D02*
D03*
X215473Y195106D02*
D03*
X209567Y183295D02*
D03*
X215473Y171484D02*
D03*
X209567Y159673D02*
D03*
X215473Y147862D02*
D03*
X209567Y136051D02*
D03*
X215473Y124240D02*
D03*
X209567Y112429D02*
D03*
Y41563D02*
D03*
X215473Y29752D02*
D03*
X209567Y17941D02*
D03*
X197756Y325027D02*
D03*
X203662Y313216D02*
D03*
X197756Y301405D02*
D03*
X203662Y289594D02*
D03*
X197756Y277783D02*
D03*
X203662Y147862D02*
D03*
X197756Y136051D02*
D03*
X203662Y124240D02*
D03*
X197756Y112429D02*
D03*
X203662Y100618D02*
D03*
X197756Y65185D02*
D03*
X203662Y29752D02*
D03*
X197756Y17941D02*
D03*
Y-5681D02*
D03*
X185945Y325027D02*
D03*
X191851Y313216D02*
D03*
X185945Y301405D02*
D03*
X191851Y289594D02*
D03*
X185945Y254161D02*
D03*
X191851Y242350D02*
D03*
X185945Y230539D02*
D03*
X191851Y218728D02*
D03*
X185945Y206917D02*
D03*
X191851Y171484D02*
D03*
Y147862D02*
D03*
X185945Y136051D02*
D03*
X191851Y124240D02*
D03*
X185945Y88807D02*
D03*
X191851Y76996D02*
D03*
X185945Y65185D02*
D03*
X191851Y53374D02*
D03*
X185945Y-5681D02*
D03*
X174134Y325027D02*
D03*
X180040Y313216D02*
D03*
X174134Y301405D02*
D03*
X180040Y265972D02*
D03*
X174134Y254161D02*
D03*
X180040Y242350D02*
D03*
Y218728D02*
D03*
Y100618D02*
D03*
Y76996D02*
D03*
Y53374D02*
D03*
Y29752D02*
D03*
Y6130D02*
D03*
X174134Y-5681D02*
D03*
X162323Y325027D02*
D03*
X168229Y313216D02*
D03*
X162323Y277783D02*
D03*
X168229Y265972D02*
D03*
Y195106D02*
D03*
X162323Y183295D02*
D03*
X168229Y171484D02*
D03*
X162323Y159673D02*
D03*
Y88807D02*
D03*
Y65185D02*
D03*
Y41563D02*
D03*
Y17941D02*
D03*
Y-5681D02*
D03*
X150512Y325027D02*
D03*
Y301405D02*
D03*
Y277783D02*
D03*
X156418Y265972D02*
D03*
X150512Y159673D02*
D03*
X156418Y147862D02*
D03*
X150512Y136051D02*
D03*
X156418Y124240D02*
D03*
X150512Y112429D02*
D03*
X156418Y100618D02*
D03*
Y76996D02*
D03*
X150512Y65185D02*
D03*
X156418Y53374D02*
D03*
X150512Y-5681D02*
D03*
X138701Y325027D02*
D03*
Y301405D02*
D03*
X144607Y265972D02*
D03*
Y242350D02*
D03*
X138701Y230539D02*
D03*
Y206917D02*
D03*
X144607Y147862D02*
D03*
Y124240D02*
D03*
X138701Y88807D02*
D03*
X144607Y76996D02*
D03*
X138701Y65185D02*
D03*
X144607Y53374D02*
D03*
X138701Y17941D02*
D03*
Y-5681D02*
D03*
X126890Y325027D02*
D03*
Y301405D02*
D03*
X132796Y289594D02*
D03*
Y265972D02*
D03*
X126890Y230539D02*
D03*
Y206917D02*
D03*
X132796Y195106D02*
D03*
Y124240D02*
D03*
X126890Y112429D02*
D03*
X132796Y100618D02*
D03*
X126890Y88807D02*
D03*
X132796Y76996D02*
D03*
X126890Y65185D02*
D03*
X132796Y53374D02*
D03*
X126890Y41563D02*
D03*
X132796Y29752D02*
D03*
X126890Y17941D02*
D03*
X132796Y6130D02*
D03*
X126890Y-5681D02*
D03*
X115079Y325027D02*
D03*
X120985Y313216D02*
D03*
Y289594D02*
D03*
Y265972D02*
D03*
X115079Y206917D02*
D03*
Y183295D02*
D03*
X120985Y147862D02*
D03*
Y124240D02*
D03*
Y100618D02*
D03*
Y76996D02*
D03*
Y53374D02*
D03*
X115079Y41563D02*
D03*
X120985Y29752D02*
D03*
X115079Y17941D02*
D03*
X103268Y325027D02*
D03*
X109174Y313216D02*
D03*
Y289594D02*
D03*
X103268Y254161D02*
D03*
X109174Y242350D02*
D03*
X103268Y230539D02*
D03*
X109174Y218728D02*
D03*
X103268Y206917D02*
D03*
X109174Y147862D02*
D03*
Y124240D02*
D03*
X103268Y112429D02*
D03*
X109174Y53374D02*
D03*
X103268Y41563D02*
D03*
X109174Y29752D02*
D03*
Y6130D02*
D03*
X91457Y325027D02*
D03*
X97363Y313216D02*
D03*
X91457Y301405D02*
D03*
X97363Y265972D02*
D03*
X91457Y254161D02*
D03*
X97363Y242350D02*
D03*
X91457Y206917D02*
D03*
X97363Y195106D02*
D03*
Y171484D02*
D03*
Y124240D02*
D03*
X91457Y112429D02*
D03*
X97363Y100618D02*
D03*
Y29752D02*
D03*
X91457Y-5681D02*
D03*
X79646Y325027D02*
D03*
X85552Y313216D02*
D03*
X79646Y301405D02*
D03*
X85552Y289594D02*
D03*
X79646Y277783D02*
D03*
X85552Y265972D02*
D03*
X79646Y254161D02*
D03*
Y230539D02*
D03*
X85552Y218728D02*
D03*
X79646Y206917D02*
D03*
Y136051D02*
D03*
X85552Y124240D02*
D03*
X79646Y112429D02*
D03*
X85552Y100618D02*
D03*
X79646Y-5681D02*
D03*
X67835Y325027D02*
D03*
X73741Y313216D02*
D03*
X67835Y301405D02*
D03*
X73741Y289594D02*
D03*
Y265972D02*
D03*
X67835Y254161D02*
D03*
Y206917D02*
D03*
Y159673D02*
D03*
X73741Y124240D02*
D03*
X67835Y112429D02*
D03*
Y-5681D02*
D03*
X56024Y325027D02*
D03*
Y301405D02*
D03*
X61930Y265972D02*
D03*
Y242350D02*
D03*
Y195106D02*
D03*
X56024Y159673D02*
D03*
Y136051D02*
D03*
X61930Y124240D02*
D03*
X56024Y112429D02*
D03*
X61930Y100618D02*
D03*
X56024Y88807D02*
D03*
Y65185D02*
D03*
X61930Y6130D02*
D03*
X56024Y-5681D02*
D03*
X44213Y325027D02*
D03*
Y301405D02*
D03*
X50119Y265972D02*
D03*
X44213Y230539D02*
D03*
Y136051D02*
D03*
X50119Y124240D02*
D03*
X44213Y112429D02*
D03*
X50119Y100618D02*
D03*
X44213Y41563D02*
D03*
Y17941D02*
D03*
Y-5681D02*
D03*
X32402Y325027D02*
D03*
X38308Y313216D02*
D03*
Y289594D02*
D03*
X32402Y277783D02*
D03*
X38308Y265972D02*
D03*
X32402Y254161D02*
D03*
Y136051D02*
D03*
Y88807D02*
D03*
X38308Y76996D02*
D03*
X32402Y65185D02*
D03*
X38308Y53374D02*
D03*
X32402Y-5681D02*
D03*
X26496Y313216D02*
D03*
X20591Y301405D02*
D03*
X26496Y289594D02*
D03*
X20591Y277783D02*
D03*
Y254161D02*
D03*
X26496Y171484D02*
D03*
X20591Y159673D02*
D03*
X26496Y147862D02*
D03*
X20591Y136051D02*
D03*
X26496Y53374D02*
D03*
X20591Y41563D02*
D03*
X14685Y313216D02*
D03*
X8780Y301405D02*
D03*
X14685Y289594D02*
D03*
X8780Y277783D02*
D03*
X14685Y265972D02*
D03*
X8780Y254161D02*
D03*
Y230539D02*
D03*
Y206917D02*
D03*
Y183295D02*
D03*
X14685Y171484D02*
D03*
X8780Y159673D02*
D03*
Y136051D02*
D03*
X14685Y124240D02*
D03*
X8780Y112429D02*
D03*
X14685Y100618D02*
D03*
X8780Y88807D02*
D03*
X14685Y76996D02*
D03*
X8780Y65185D02*
D03*
X14685Y53374D02*
D03*
X8780Y41563D02*
D03*
Y17941D02*
D03*
D55*
X49617Y289743D02*
D03*
X54513Y204931D02*
D03*
X9516Y31052D02*
D03*
X155371Y295476D02*
D03*
X200625Y261391D02*
D03*
X204846Y158868D02*
D03*
X191414Y179317D02*
D03*
X195534Y174205D02*
D03*
X199289Y164036D02*
D03*
X123536Y210724D02*
D03*
X156071Y184227D02*
D03*
X159462Y178892D02*
D03*
X130804Y149655D02*
D03*
X73255Y191834D02*
D03*
X155891Y168941D02*
D03*
X216901Y50638D02*
D03*
X119673Y175761D02*
D03*
X109941Y93012D02*
D03*
X51181Y35433D02*
D03*
X11491Y202775D02*
D03*
X155892Y209740D02*
D03*
X162394Y224216D02*
D03*
X70236Y182126D02*
D03*
X46295Y267395D02*
D03*
X41716Y178272D02*
D03*
X69749Y167150D02*
D03*
X49220Y182560D02*
D03*
X54456Y200631D02*
D03*
X22925Y175563D02*
D03*
X68101Y142182D02*
D03*
X22952Y179243D02*
D03*
X68276Y145903D02*
D03*
X64798Y29238D02*
D03*
X84075Y29076D02*
D03*
X68460Y25329D02*
D03*
X117565Y22651D02*
D03*
X103042Y21949D02*
D03*
X82677Y7874D02*
D03*
X43686Y242324D02*
D03*
X166549Y230423D02*
D03*
X149184Y259119D02*
D03*
X148913Y229256D02*
D03*
X152380Y204655D02*
D03*
X152802Y188735D02*
D03*
X155953Y223231D02*
D03*
X155704Y256718D02*
D03*
X119763Y240123D02*
D03*
X119846Y222817D02*
D03*
X119087Y193118D02*
D03*
X103093Y86628D02*
D03*
X64887Y70836D02*
D03*
X75742Y74221D02*
D03*
X92532Y91918D02*
D03*
X77526Y2903D02*
D03*
X72652Y10202D02*
D03*
X85159Y41137D02*
D03*
X114862Y64567D02*
D03*
X65142Y42656D02*
D03*
X40650Y64665D02*
D03*
X46661Y255291D02*
D03*
X22853Y182944D02*
D03*
X59055Y212598D02*
D03*
X59106Y222166D02*
D03*
X80295Y212292D02*
D03*
X22741Y186622D02*
D03*
X45330Y226960D02*
D03*
X22637Y192786D02*
D03*
X126922Y139356D02*
D03*
X104304Y139336D02*
D03*
X73608Y138956D02*
D03*
X49580Y151147D02*
D03*
X73339Y170302D02*
D03*
X75987Y222129D02*
D03*
X76115Y248107D02*
D03*
M02*
