M48
;Layer_Color=9474304
;FILE_FORMAT=2:5
INCH,TZ
;TYPE=PLATED
T01F00S00C0.01181
T02F00S00C0.01575
T04F00S00C0.03937
T05F00S00C0.04134
T06F00S00C0.04331
T07F00S00C0.04724
T08F00S00C0.05079
T09F00S00C0.05197
;TYPE=NON_PLATED
T10F00S00C0.02559
T11F00S00C0.12598
%
T01
X32402Y-5681
X44213
X56024
X44213Y17941
Y41563
X38308Y53374
X26496
X14685
X20591Y41563
X8780
Y17941
X61930Y6130
X67835Y-5681
X79646
X91457
X109174Y6130
X115079Y17941
X126890
X138701
X132796Y29752
X120985
X109174
X97363
X103268Y41563
X115079
X126890
X132796Y53374
X144607
X156418
X162323Y41563
Y17941
Y-5681
X174134
X185945
X197756
Y17941
X209567
X203662Y29752
X209567Y41563
X191851Y53374
X180040
Y29752
Y6130
X150512Y-5681
X138701
X126890
X132796Y6130
X120985Y53374
X109174
X215473Y29752
Y124240
Y147862
Y171484
Y195106
X209567Y206917
Y183295
Y159673
X203662Y147862
X191851
X197756Y136051
X209567
X203662Y124240
X191851
X197756Y112429
X209567
X203662Y100618
X180040
X185945Y88807
X191851Y76996
X180040
X185945Y65185
X197756
X162323
X150512
X138701
X126890
X132796Y76996
X144607
X156418
X162323Y88807
X156418Y100618
X150512Y112429
X156418Y124240
X144607
X132796
X120985
X109174
X97363
X85552
X73741
X61930
X67835Y112429
X79646
X91457
X103268
X97363Y100618
X85552
X61930
X79646Y136051
X67835Y159673
X97363Y171484
Y195106
X103268Y206917
X115079
X126890
X138701
X132796Y195106
X115079Y183295
X120985Y147862
X109174
X144607
X156418
X162323Y159673
X150512
Y136051
X185945
X191851Y171484
X168229
X162323Y183295
X168229Y195106
X185945Y206917
X91457
X79646
X67835
X61930Y195106
X126890Y112429
X132796Y100618
X120985
X126890Y88807
X138701
X120985Y76996
X56024Y88807
X50119Y100618
X56024Y112429
X44213
X50119Y124240
X56024Y136051
X44213
X32402
X20591
X8780
X14685Y124240
X8780Y112429
X14685Y100618
X8780Y88807
X14685Y76996
X8780Y65185
X32402
X38308Y76996
X32402Y88807
X56024Y65185
Y159673
X20591
X8780
X14685Y171484
X26496
Y147862
X8780Y183295
Y206917
Y230539
Y254161
X20591
X32402
X38308Y265972
X50119
X32402Y277783
X20591
X8780
X14685Y289594
X26496
X38308
X44213Y301405
X56024
Y325027
X44213
X32402
X38308Y313216
X26496
X14685
X20591Y301405
X8780
X14685Y265972
X44213Y230539
X61930Y242350
X67835Y254161
X79646
X91457
X103268
X109174Y242350
X97363
X103268Y230539
X109174Y218728
X85552
X79646Y230539
X85552Y265972
X97363
X120985
X132796
X144607
X156418
X168229
X180040
X185945Y254161
X174134
X180040Y242350
X191851
X185945Y230539
X191851Y218728
X180040
X209567Y230539
Y254161
Y277783
X197756
X203662Y289594
X191851
X197756Y301405
X209567
X203662Y313216
X191851
X180040
X168229
X174134Y325027
X185945
X197756
X185945Y301405
X174134
X150512
X138701
X126890
X132796Y289594
X120985
X109174
Y313216
X120985
X126890Y325027
X138701
X150512
X162323
Y277783
X150512
X144607Y242350
X138701Y230539
X126890
X73741Y265972
X61930
X79646Y277783
X85552Y289594
X73741
X79646Y301405
X91457
X97363Y313216
X85552
X73741
X79646Y325027
X91457
X103268
X115079
X67835
Y301405
X215473Y313216
Y289594
Y265972
Y242350
Y218728
T02
X9516Y31052
X51181Y35433
X64798Y29238
X68460Y25329
X72652Y10202
X77526Y2903
X82677Y7874
X84075Y29076
X85159Y41137
X65142Y42656
X103042Y21949
X117565Y22651
X216901Y50638
X114862Y64567
X109941Y93012
X103093Y86628
X92532Y91918
X75742Y74221
X64887Y70836
X68101Y142182
X68276Y145903
X73608Y138956
X104304Y139336
X126922Y139356
X130804Y149655
X119673Y175761
X119087Y193118
X123536Y210724
X155892Y209740
X152380Y204655
X152802Y188735
X156071Y184227
X159462Y178892
X155891Y168941
X195534Y174205
X191414Y179317
X199289Y164036
X204846Y158868
X73339Y170302
X69749Y167150
X70236Y182126
X73255Y191834
X80295Y212292
X54513Y204931
X54456Y200631
X49220Y182560
X41716Y178272
X22952Y179243
X22925Y175563
X22853Y182944
X22741Y186622
X22637Y192786
X11491Y202775
X49580Y151147
X40650Y64665
X45330Y226960
X43686Y242324
X46661Y255291
X46295Y267395
X49617Y289743
X76115Y248107
X75987Y222129
X59106Y222166
X59055Y212598
X119846Y222817
X119763Y240123
X148913Y229256
X155953Y223231
X162394Y224216
X166549Y230423
X155704Y256718
X149184Y259119
X155371Y295476
X200625Y261391
T04
X89515Y226398
Y246083
X131353Y246083
Y226398
X174078Y226728
Y246413
X154921Y279213
X144921
X134921
X124921
X114921
X104921
Y319213
X114921
X124921
X134921
X144921
X154921
T05
X32999Y298616
Y308458
T06
X27559Y251654
Y261653
Y271654
Y281653
T07
X149969Y9955
X169653
X189339
T08
X169757Y99308
T09
X146135Y43402
X193379
Y91434
X146135
T10
X63245Y14700
X86001
T11
X15748Y0
X212598
X15748Y330709
X212598
M30
