G04*
G04 #@! TF.GenerationSoftware,Altium Limited,Altium Designer,25.8.1 (18)*
G04*
G04 Layer_Color=255*
%FSLAX44Y44*%
%MOMM*%
G71*
G04*
G04 #@! TF.SameCoordinates,D5034472-531D-44ED-AF62-EB3B9E0E118A*
G04*
G04*
G04 #@! TF.FilePolarity,Positive*
G04*
G01*
G75*
%ADD35C,1.5500*%
%ADD36R,1.5500X1.5500*%
%ADD43C,1.4060*%
%ADD44O,2.1500X1.0500*%
%ADD45O,1.8500X1.0500*%
%ADD46C,1.6500*%
G04:AMPARAMS|DCode=47|XSize=1.65mm|YSize=1.65mm|CornerRadius=0.4125mm|HoleSize=0mm|Usage=FLASHONLY|Rotation=90.000|XOffset=0mm|YOffset=0mm|HoleType=Round|Shape=RoundedRectangle|*
%AMROUNDEDRECTD47*
21,1,1.6500,0.8250,0,0,90.0*
21,1,0.8250,1.6500,0,0,90.0*
1,1,0.8250,0.4125,0.4125*
1,1,0.8250,0.4125,-0.4125*
1,1,0.8250,-0.4125,-0.4125*
1,1,0.8250,-0.4125,0.4125*
%
%ADD47ROUNDEDRECTD47*%
%ADD48C,0.6500*%
%ADD49R,1.5750X1.5750*%
%ADD50C,1.5750*%
%ADD51R,1.8000X1.8000*%
%ADD52C,1.8000*%
%ADD53C,1.9350*%
%ADD54C,1.9800*%
%ADD55R,1.9800X1.9800*%
D35*
X122330Y643020D02*
D03*
X230552D02*
D03*
X337870D02*
D03*
D36*
X122330Y693020D02*
D03*
X230552D02*
D03*
X337870D02*
D03*
D43*
X241300Y840740D02*
D03*
X266700Y739140D02*
D03*
X190500D02*
D03*
Y840740D02*
D03*
X266700D02*
D03*
X165100Y739140D02*
D03*
X292100Y840740D02*
D03*
X165100D02*
D03*
X215900D02*
D03*
X292100Y739140D02*
D03*
X241300D02*
D03*
X215900D02*
D03*
D44*
X74820Y160040D02*
D03*
Y73640D02*
D03*
D45*
X33020Y160040D02*
D03*
Y73640D02*
D03*
D46*
X339173Y528589D02*
D03*
Y553989D02*
D03*
Y503189D02*
D03*
D47*
Y579389D02*
D03*
D48*
X69820Y145740D02*
D03*
Y87940D02*
D03*
D49*
X43010Y531000D02*
D03*
D50*
Y556000D02*
D03*
D51*
X381101Y114018D02*
D03*
D52*
Y214018D02*
D03*
Y164018D02*
D03*
D53*
X167920Y163830D02*
D03*
D54*
X187920Y103830D02*
D03*
X309920D02*
D03*
Y223830D02*
D03*
D55*
X187920D02*
D03*
M02*
