G04*
G04 #@! TF.GenerationSoftware,Altium Limited,Altium Designer,25.8.1 (18)*
G04*
G04 Layer_Color=8421504*
%FSLAX44Y44*%
%MOMM*%
G71*
G04*
G04 #@! TF.SameCoordinates,9FB52167-E1BE-4782-BDCD-D2F078FF21A9*
G04*
G04*
G04 #@! TF.FilePolarity,Positive*
G04*
G01*
G75*
%ADD16R,0.2500X0.7500*%
%ADD17R,0.7500X0.2500*%
%ADD18R,0.4500X1.5000*%
%ADD19R,1.6098X0.9561*%
%ADD20R,1.7000X0.9500*%
%ADD21R,0.9561X1.6098*%
G04:AMPARAMS|DCode=22|XSize=0.93mm|YSize=1.31mm|CornerRadius=0.0698mm|HoleSize=0mm|Usage=FLASHONLY|Rotation=90.000|XOffset=0mm|YOffset=0mm|HoleType=Round|Shape=RoundedRectangle|*
%AMROUNDEDRECTD22*
21,1,0.9300,1.1705,0,0,90.0*
21,1,0.7905,1.3100,0,0,90.0*
1,1,0.1395,0.5853,0.3953*
1,1,0.1395,0.5853,-0.3953*
1,1,0.1395,-0.5853,-0.3953*
1,1,0.1395,-0.5853,0.3953*
%
%ADD22ROUNDEDRECTD22*%
%ADD23R,0.9500X1.7000*%
%ADD24R,1.1300X1.4200*%
G04:AMPARAMS|DCode=25|XSize=1.31mm|YSize=0.62mm|CornerRadius=0.0775mm|HoleSize=0mm|Usage=FLASHONLY|Rotation=90.000|XOffset=0mm|YOffset=0mm|HoleType=Round|Shape=RoundedRectangle|*
%AMROUNDEDRECTD25*
21,1,1.3100,0.4650,0,0,90.0*
21,1,1.1550,0.6200,0,0,90.0*
1,1,0.1550,0.2325,0.5775*
1,1,0.1550,0.2325,-0.5775*
1,1,0.1550,-0.2325,-0.5775*
1,1,0.1550,-0.2325,0.5775*
%
%ADD25ROUNDEDRECTD25*%
%ADD26R,1.1500X0.6000*%
%ADD27R,1.4557X1.8582*%
%ADD28R,0.8000X0.8000*%
G04:AMPARAMS|DCode=29|XSize=3.24mm|YSize=1.31mm|CornerRadius=0.0983mm|HoleSize=0mm|Usage=FLASHONLY|Rotation=90.000|XOffset=0mm|YOffset=0mm|HoleType=Round|Shape=RoundedRectangle|*
%AMROUNDEDRECTD29*
21,1,3.2400,1.1135,0,0,90.0*
21,1,3.0435,1.3100,0,0,90.0*
1,1,0.1965,0.5568,1.5218*
1,1,0.1965,0.5568,-1.5218*
1,1,0.1965,-0.5568,-1.5218*
1,1,0.1965,-0.5568,1.5218*
%
%ADD29ROUNDEDRECTD29*%
%ADD30R,1.1500X0.3000*%
%ADD31R,0.9000X0.9500*%
%ADD32R,1.5000X1.5000*%
D16*
X33140Y335020D02*
D03*
X38140Y335020D02*
D03*
X43140Y335020D02*
D03*
X48140Y335020D02*
D03*
X33140Y366020D02*
D03*
X38140Y366020D02*
D03*
X43140D02*
D03*
X48140Y366020D02*
D03*
D17*
X401580Y443350D02*
D03*
X401580Y448350D02*
D03*
X401580Y453350D02*
D03*
X401580Y458349D02*
D03*
X370581Y443350D02*
D03*
X370580Y448350D02*
D03*
X370580Y453350D02*
D03*
X370580Y458349D02*
D03*
D18*
X160580Y402800D02*
D03*
X193080D02*
D03*
X134580D02*
D03*
X141080D02*
D03*
X147580D02*
D03*
X154080D02*
D03*
X167080D02*
D03*
X180080D02*
D03*
X193080Y460800D02*
D03*
X186580D02*
D03*
X167080D02*
D03*
X147580D02*
D03*
X141080D02*
D03*
X134580D02*
D03*
X180080D02*
D03*
X160580D02*
D03*
X154080D02*
D03*
X173580D02*
D03*
Y402800D02*
D03*
X186580D02*
D03*
X302173Y576405D02*
D03*
X276173D02*
D03*
X243673D02*
D03*
X295673D02*
D03*
X289173D02*
D03*
X282673D02*
D03*
X269673D02*
D03*
X256673D02*
D03*
X243673Y518405D02*
D03*
X250173D02*
D03*
X269673D02*
D03*
X289173D02*
D03*
X295673D02*
D03*
X302173D02*
D03*
X256673D02*
D03*
X276173D02*
D03*
X282673D02*
D03*
X263173D02*
D03*
Y576405D02*
D03*
X250173D02*
D03*
D19*
X78367Y435360D02*
D03*
X185420Y344481D02*
D03*
X24720Y435360D02*
D03*
X78367Y461382D02*
D03*
X24720D02*
D03*
X185420Y318459D02*
D03*
D20*
X102969Y435580D02*
D03*
X48260D02*
D03*
X118110Y61000D02*
D03*
X53340Y281910D02*
D03*
X12700Y407700D02*
D03*
X102969Y463580D02*
D03*
X48260D02*
D03*
X332740Y412720D02*
D03*
X95276Y531238D02*
D03*
Y559238D02*
D03*
X118110Y89000D02*
D03*
X53340Y309910D02*
D03*
X12700Y379700D02*
D03*
X332740Y440720D02*
D03*
D21*
X124771Y351790D02*
D03*
Y328930D02*
D03*
X116529Y509210D02*
D03*
X142551D02*
D03*
X220669Y419100D02*
D03*
X388309Y372110D02*
D03*
X414331D02*
D03*
X311461Y299720D02*
D03*
X285439D02*
D03*
X98749Y351790D02*
D03*
Y328930D02*
D03*
X246691Y419100D02*
D03*
D22*
X81710Y195540D02*
D03*
Y218440D02*
D03*
Y241340D02*
D03*
D23*
X248950Y360680D02*
D03*
X247670Y486790D02*
D03*
X248950Y384810D02*
D03*
X381030Y397510D02*
D03*
X220950Y360680D02*
D03*
X275670Y486790D02*
D03*
X220950Y384810D02*
D03*
X353030Y397510D02*
D03*
D24*
X105410Y264730D02*
D03*
Y195010D02*
D03*
Y240730D02*
D03*
Y219010D02*
D03*
D25*
X139665Y18794D02*
D03*
Y73794D02*
D03*
X152365D02*
D03*
X165065D02*
D03*
X177765D02*
D03*
X190465D02*
D03*
X203165D02*
D03*
X215865D02*
D03*
X228565D02*
D03*
Y18794D02*
D03*
X215865D02*
D03*
X190465D02*
D03*
X177765D02*
D03*
X165065D02*
D03*
X152365D02*
D03*
X203165D02*
D03*
D26*
X80470Y148840D02*
D03*
Y84840D02*
D03*
Y140840D02*
D03*
Y92840D02*
D03*
D27*
X308083Y63923D02*
D03*
X313463Y266523D02*
D03*
X278058Y63923D02*
D03*
X283438Y266523D02*
D03*
D28*
X395630Y353630D02*
D03*
X405130Y329630D02*
D03*
X414630Y353630D02*
D03*
D29*
X14810Y218440D02*
D03*
D30*
X80470Y134340D02*
D03*
Y129340D02*
D03*
Y124340D02*
D03*
Y119340D02*
D03*
Y114340D02*
D03*
Y109340D02*
D03*
Y104340D02*
D03*
Y99340D02*
D03*
D31*
X422180Y299720D02*
D03*
X390680Y299720D02*
D03*
D32*
X336830Y299720D02*
D03*
X371830D02*
D03*
M02*
