G04*
G04 #@! TF.GenerationSoftware,Altium Limited,Altium Designer,25.8.1 (18)*
G04*
G04 Layer_Color=32768*
%FSLAX44Y44*%
%MOMM*%
G71*
G04*
G04 #@! TF.SameCoordinates,D5034472-531D-44ED-AF62-EB3B9E0E118A*
G04*
G04*
G04 #@! TF.FilePolarity,Positive*
G04*
G01*
G75*
%ADD60C,0.1000*%
D60*
X437573Y506389D02*
X439573Y503189D01*
X437573Y557189D02*
X439573Y553989D01*
X437573Y525389D02*
X439573Y528589D01*
X437573Y531789D02*
X439573Y528589D01*
X437573Y550789D02*
X439573Y553989D01*
X437573Y576189D02*
X439573Y579389D01*
X437573Y582589D02*
X439573Y579389D01*
X437573Y499989D02*
X439573Y503189D01*
X379573Y531789D02*
X437573D01*
X379573Y525389D02*
X437573D01*
X379573Y506389D02*
X437573D01*
X379573Y499989D02*
X437573D01*
X379573Y557189D02*
X437573D01*
X379573Y550789D02*
X437573D01*
X379573Y576189D02*
X437573D01*
X379573Y582589D02*
X437573D01*
X354173Y490489D02*
X379573D01*
X335973Y499989D02*
X354173D01*
X335973D02*
Y506389D01*
X354173D01*
X335973Y525389D02*
X354173D01*
X335973D02*
Y531789D01*
X354173D01*
X379573Y490489D02*
Y592089D01*
X354173Y490489D02*
Y592089D01*
X335973Y550789D02*
X354173D01*
X335973D02*
Y557189D01*
X354173D01*
X335973Y576189D02*
X354173D01*
X335973D02*
Y582589D01*
X354173D01*
Y592089D02*
X379573D01*
M02*
