G04*
G04 #@! TF.GenerationSoftware,Altium Limited,Altium Designer,25.8.1 (18)*
G04*
G04 Layer_Color=255*
%FSLAX44Y44*%
%MOMM*%
G71*
G04*
G04 #@! TF.SameCoordinates,6AF8D778-47F9-488B-AB56-3A1079AA570C*
G04*
G04*
G04 #@! TF.FilePolarity,Positive*
G04*
G01*
G75*
%ADD43C,1.5500*%
%ADD52R,1.5500X1.5500*%
G04:AMPARAMS|DCode=64|XSize=1.65mm|YSize=1.65mm|CornerRadius=0.4125mm|HoleSize=0mm|Usage=FLASHONLY|Rotation=90.000|XOffset=0mm|YOffset=0mm|HoleType=Round|Shape=RoundedRectangle|*
%AMROUNDEDRECTD64*
21,1,1.6500,0.8250,0,0,90.0*
21,1,0.8250,1.6500,0,0,90.0*
1,1,0.8250,0.4125,0.4125*
1,1,0.8250,0.4125,-0.4125*
1,1,0.8250,-0.4125,-0.4125*
1,1,0.8250,-0.4125,0.4125*
%
%ADD64ROUNDEDRECTD64*%
%ADD65O,2.1500X1.0500*%
%ADD66O,1.8500X1.0500*%
%ADD67C,1.6500*%
%ADD68C,1.5750*%
%ADD69C,1.4060*%
%ADD70R,1.9800X1.9800*%
%ADD71C,1.9800*%
%ADD72C,1.9350*%
%ADD73C,0.6500*%
%ADD74R,1.5750X1.5750*%
%ADD75C,1.8000*%
%ADD76R,1.8000X1.8000*%
D43*
X122330Y643020D02*
D03*
X230552D02*
D03*
X337870D02*
D03*
D52*
X122330Y693020D02*
D03*
X230552D02*
D03*
X337870D02*
D03*
D64*
X339173Y579389D02*
D03*
D65*
X74820Y160040D02*
D03*
Y73640D02*
D03*
D66*
X33020Y160040D02*
D03*
Y73640D02*
D03*
D67*
X339173Y528589D02*
D03*
Y553989D02*
D03*
Y503189D02*
D03*
D68*
X43010Y556000D02*
D03*
D69*
X215900Y840740D02*
D03*
X241300D02*
D03*
X266700D02*
D03*
X190500D02*
D03*
X165100Y739140D02*
D03*
X292100Y840740D02*
D03*
Y739140D02*
D03*
X165100Y840740D02*
D03*
X241300Y739140D02*
D03*
X215900D02*
D03*
X266700D02*
D03*
X190500D02*
D03*
D70*
X187920Y223830D02*
D03*
D71*
X309920D02*
D03*
Y103830D02*
D03*
X187920D02*
D03*
D72*
X167920Y163830D02*
D03*
D73*
X69820Y87940D02*
D03*
Y145740D02*
D03*
D74*
X43010Y531000D02*
D03*
D75*
X381101Y164018D02*
D03*
Y214018D02*
D03*
D76*
Y114018D02*
D03*
M02*
