G04*
G04 #@! TF.GenerationSoftware,Altium Limited,Altium Designer,25.8.1 (18)*
G04*
G04 Layer_Color=0*
%FSLAX44Y44*%
%MOMM*%
G71*
G04*
G04 #@! TF.SameCoordinates,D5034472-531D-44ED-AF62-EB3B9E0E118A*
G04*
G04*
G04 #@! TF.FilePolarity,Positive*
G04*
G01*
G75*
%ADD10C,0.0500*%
%ADD60C,0.1000*%
D10*
X361873Y541289D02*
X371873D01*
X366873Y536289D02*
Y546289D01*
D60*
X124540Y509210D02*
X134540D01*
X129540Y504210D02*
Y514210D01*
X117330Y668020D02*
X127330D01*
X122330Y663020D02*
Y673020D01*
X225552Y668020D02*
X235552D01*
X230552Y663020D02*
Y673020D01*
X337870Y663020D02*
Y673020D01*
X332870Y668020D02*
X342870D01*
X354330Y294720D02*
Y304720D01*
X349330Y299720D02*
X359330D01*
X90276Y545238D02*
X100276D01*
X95276Y540238D02*
Y550238D01*
X111760Y323930D02*
Y333930D01*
X106760Y328930D02*
X116760D01*
X180420Y331470D02*
X190420D01*
X185420Y326470D02*
Y336470D01*
X233680Y414100D02*
Y424100D01*
X228680Y419100D02*
X238680D01*
X97969Y449580D02*
X107969D01*
X102969Y444580D02*
Y454580D01*
X78367Y443371D02*
Y453371D01*
X73367Y448371D02*
X83367D01*
X43260Y449580D02*
X53260D01*
X48260Y444580D02*
Y454580D01*
X293450Y266523D02*
X303450D01*
X298450Y261523D02*
Y271523D01*
X118110Y70000D02*
Y80000D01*
X113110Y75000D02*
X123110D01*
X293070Y58923D02*
Y68923D01*
X288070Y63923D02*
X298070D01*
X229950Y360680D02*
X239950D01*
X234950Y355680D02*
Y365680D01*
X400130Y341630D02*
X410130D01*
X405130Y336630D02*
Y346630D01*
X293450Y299720D02*
X303450D01*
X298450Y294720D02*
Y304720D01*
X381080Y450850D02*
X391080D01*
X386080Y445850D02*
Y455850D01*
X105410Y202010D02*
Y212010D01*
X100410Y207010D02*
X110410D01*
X256670Y486790D02*
X266670D01*
X261670Y481790D02*
Y491790D01*
X367030Y392510D02*
Y402510D01*
X362030Y397510D02*
X372030D01*
X332740Y421720D02*
Y431720D01*
X327740Y426720D02*
X337740D01*
X401320Y367110D02*
Y377110D01*
X396320Y372110D02*
X406320D01*
X111760Y346790D02*
Y356790D01*
X106760Y351790D02*
X116760D01*
X105410Y247730D02*
Y257730D01*
X100410Y252730D02*
X110410D01*
X234950Y379810D02*
Y389810D01*
X229950Y384810D02*
X239950D01*
X19720Y448371D02*
X29720D01*
X24720Y443371D02*
Y453371D01*
X35640Y350520D02*
X45640D01*
X40640Y345520D02*
Y355520D01*
X12700Y388700D02*
Y398700D01*
X7700Y393700D02*
X17700D01*
X48340Y295910D02*
X58340D01*
X53340Y290910D02*
Y300910D01*
M02*
