G04*
G04 #@! TF.GenerationSoftware,Altium Limited,Altium Designer,25.8.1 (18)*
G04*
G04 Layer_Color=8388736*
%FSLAX44Y44*%
%MOMM*%
G71*
G04*
G04 #@! TF.SameCoordinates,D5034472-531D-44ED-AF62-EB3B9E0E118A*
G04*
G04*
G04 #@! TF.FilePolarity,Negative*
G04*
G01*
G75*
%ADD18R,0.9561X1.6098*%
%ADD21R,1.7000X0.9500*%
%ADD24R,1.1300X1.4200*%
%ADD25R,1.4557X1.8582*%
%ADD26R,0.9500X1.7000*%
%ADD27R,0.8000X0.8000*%
%ADD28R,1.5000X1.5000*%
%ADD30R,1.6098X0.9561*%
%ADD33R,0.8000X0.3000*%
%ADD34R,0.3000X0.8000*%
%ADD35C,1.5500*%
%ADD36R,1.5500X1.5500*%
D18*
X142551Y509210D02*
D03*
X116529D02*
D03*
X285439Y299720D02*
D03*
X124771Y328930D02*
D03*
Y351790D02*
D03*
X98749Y328930D02*
D03*
X220669Y419100D02*
D03*
X246691D02*
D03*
X98749Y351790D02*
D03*
X311461Y299720D02*
D03*
X414331Y372110D02*
D03*
X388309D02*
D03*
D21*
X118110Y89000D02*
D03*
X12700Y379700D02*
D03*
X332740Y440720D02*
D03*
X53340Y281910D02*
D03*
X118110Y61000D02*
D03*
X12700Y407700D02*
D03*
X48260Y463580D02*
D03*
X102969D02*
D03*
X332740Y412720D02*
D03*
X95276Y531238D02*
D03*
Y559238D02*
D03*
X53340Y309910D02*
D03*
X102969Y435580D02*
D03*
X48260D02*
D03*
D24*
X105410Y240730D02*
D03*
Y195010D02*
D03*
Y264730D02*
D03*
Y219010D02*
D03*
D25*
X283438Y266523D02*
D03*
X308083Y63923D02*
D03*
X313463Y266523D02*
D03*
X278058Y63923D02*
D03*
D26*
X275670Y486790D02*
D03*
X248950Y360680D02*
D03*
Y384810D02*
D03*
X247670Y486790D02*
D03*
X381030Y397510D02*
D03*
X353030D02*
D03*
X220950Y384810D02*
D03*
Y360680D02*
D03*
D27*
X395630Y353630D02*
D03*
X405130Y329630D02*
D03*
X414630Y353630D02*
D03*
D28*
X336830Y299720D02*
D03*
X371830D02*
D03*
D30*
X185420Y344481D02*
D03*
Y318459D02*
D03*
X78367Y461382D02*
D03*
X24720D02*
D03*
X78367Y435360D02*
D03*
X24720D02*
D03*
D33*
X401580Y443350D02*
D03*
X370580Y448350D02*
D03*
X401580D02*
D03*
X370580Y443350D02*
D03*
X401580Y453350D02*
D03*
X370580D02*
D03*
Y458350D02*
D03*
X401580D02*
D03*
D34*
X38140Y366020D02*
D03*
Y335020D02*
D03*
X43140Y366020D02*
D03*
Y335020D02*
D03*
X33140Y366020D02*
D03*
Y335020D02*
D03*
X48140Y366020D02*
D03*
Y335020D02*
D03*
D35*
X122330Y643020D02*
D03*
X230552D02*
D03*
X337870D02*
D03*
D36*
X122330Y693020D02*
D03*
X230552D02*
D03*
X337870D02*
D03*
M02*
