G04*
G04 #@! TF.GenerationSoftware,Altium Limited,Altium Designer,25.8.1 (18)*
G04*
G04 Layer_Color=65535*
%FSLAX44Y44*%
%MOMM*%
G71*
G04*
G04 #@! TF.SameCoordinates,D5034472-531D-44ED-AF62-EB3B9E0E118A*
G04*
G04*
G04 #@! TF.FilePolarity,Positive*
G04*
G01*
G75*
%ADD10C,0.0500*%
%ADD11C,0.2500*%
%ADD12C,0.2000*%
%ADD13C,0.2540*%
%ADD14C,0.1270*%
%ADD15R,0.5080X1.5870*%
G36*
X324518Y584649D02*
X324509Y584575D01*
Y584491D01*
X324500Y584297D01*
X324472Y584094D01*
X324444Y583872D01*
X324398Y583669D01*
X324370Y583567D01*
X324342Y583484D01*
Y583474D01*
X324333Y583465D01*
X324305Y583410D01*
X324269Y583326D01*
X324204Y583225D01*
X324121Y583114D01*
X324010Y582994D01*
X323880Y582883D01*
X323732Y582772D01*
X323723D01*
X323714Y582762D01*
X323658Y582725D01*
X323566Y582688D01*
X323446Y582633D01*
X323307Y582587D01*
X323141Y582541D01*
X322965Y582513D01*
X322771Y582504D01*
X322761D01*
X322743D01*
X322706D01*
X322660Y582513D01*
X322595D01*
X322530Y582522D01*
X322373Y582559D01*
X322188Y582615D01*
X321994Y582688D01*
X321800Y582799D01*
X321707Y582873D01*
X321615Y582947D01*
X321606Y582957D01*
X321597Y582966D01*
X321569Y582994D01*
X321541Y583031D01*
X321504Y583077D01*
X321467Y583132D01*
X321421Y583206D01*
X321365Y583280D01*
X321319Y583373D01*
X321273Y583474D01*
X321217Y583585D01*
X321171Y583705D01*
X321134Y583844D01*
X321088Y583983D01*
X321060Y584140D01*
X321033Y584306D01*
X321023Y584288D01*
X321005Y584251D01*
X320968Y584196D01*
X320931Y584122D01*
X320829Y583955D01*
X320765Y583872D01*
X320709Y583798D01*
X320690Y583779D01*
X320644Y583733D01*
X320570Y583659D01*
X320478Y583567D01*
X320348Y583465D01*
X320210Y583345D01*
X320043Y583225D01*
X319858Y583095D01*
X318120Y581995D01*
Y583049D01*
X319452Y583890D01*
X319461D01*
X319479Y583909D01*
X319507Y583927D01*
X319544Y583955D01*
X319646Y584020D01*
X319775Y584103D01*
X319914Y584205D01*
X320062Y584306D01*
X320201Y584408D01*
X320330Y584501D01*
X320339Y584510D01*
X320376Y584538D01*
X320432Y584584D01*
X320496Y584649D01*
X320635Y584787D01*
X320700Y584861D01*
X320755Y584935D01*
X320765Y584944D01*
X320774Y584963D01*
X320792Y585000D01*
X320820Y585055D01*
X320848Y585111D01*
X320875Y585176D01*
X320922Y585323D01*
Y585333D01*
X320931Y585351D01*
Y585388D01*
X320940Y585434D01*
X320949Y585499D01*
Y585573D01*
X320959Y585675D01*
Y586766D01*
X318120D01*
Y587616D01*
X324518D01*
Y584649D01*
D02*
G37*
G36*
X320247Y580664D02*
X320238D01*
X320228D01*
X320201Y580654D01*
X320163D01*
X320080Y580636D01*
X319960Y580608D01*
X319840Y580571D01*
X319701Y580534D01*
X319572Y580470D01*
X319452Y580405D01*
X319442Y580396D01*
X319405Y580368D01*
X319341Y580322D01*
X319276Y580248D01*
X319193Y580155D01*
X319109Y580053D01*
X319026Y579915D01*
X318952Y579767D01*
Y579758D01*
X318943Y579748D01*
X318934Y579721D01*
X318925Y579693D01*
X318897Y579600D01*
X318860Y579480D01*
X318823Y579332D01*
X318795Y579166D01*
X318777Y578981D01*
X318767Y578778D01*
Y578694D01*
X318777Y578602D01*
X318786Y578491D01*
X318804Y578362D01*
X318823Y578214D01*
X318860Y578066D01*
X318906Y577927D01*
X318915Y577909D01*
X318934Y577862D01*
X318971Y577798D01*
X319008Y577714D01*
X319072Y577631D01*
X319137Y577539D01*
X319211Y577446D01*
X319304Y577372D01*
X319313Y577363D01*
X319350Y577345D01*
X319396Y577317D01*
X319470Y577280D01*
X319544Y577243D01*
X319636Y577215D01*
X319738Y577197D01*
X319849Y577187D01*
X319858D01*
X319905D01*
X319960Y577197D01*
X320034Y577206D01*
X320108Y577234D01*
X320201Y577261D01*
X320293Y577308D01*
X320376Y577372D01*
X320385Y577382D01*
X320413Y577409D01*
X320450Y577446D01*
X320506Y577511D01*
X320561Y577585D01*
X320626Y577687D01*
X320690Y577807D01*
X320746Y577946D01*
X320755Y577955D01*
X320765Y578001D01*
X320792Y578075D01*
X320802Y578121D01*
X320820Y578186D01*
X320848Y578251D01*
X320866Y578334D01*
X320894Y578426D01*
X320922Y578537D01*
X320949Y578648D01*
X320986Y578778D01*
X321023Y578926D01*
X321060Y579083D01*
Y579092D01*
X321070Y579120D01*
X321079Y579166D01*
X321097Y579221D01*
X321116Y579295D01*
X321134Y579379D01*
X321190Y579563D01*
X321255Y579767D01*
X321319Y579980D01*
X321384Y580164D01*
X321421Y580248D01*
X321458Y580322D01*
Y580331D01*
X321467Y580340D01*
X321504Y580396D01*
X321550Y580479D01*
X321624Y580571D01*
X321707Y580682D01*
X321809Y580793D01*
X321929Y580904D01*
X322059Y580997D01*
X322077Y581006D01*
X322124Y581034D01*
X322198Y581071D01*
X322290Y581107D01*
X322410Y581144D01*
X322549Y581181D01*
X322697Y581209D01*
X322854Y581218D01*
X322863D01*
X322873D01*
X322900D01*
X322937D01*
X323030Y581200D01*
X323150Y581181D01*
X323288Y581154D01*
X323446Y581107D01*
X323603Y581043D01*
X323760Y580950D01*
X323769D01*
X323778Y580941D01*
X323834Y580895D01*
X323908Y580830D01*
X324000Y580747D01*
X324102Y580636D01*
X324213Y580497D01*
X324315Y580331D01*
X324407Y580146D01*
Y580137D01*
X324417Y580118D01*
X324426Y580090D01*
X324444Y580053D01*
X324463Y580007D01*
X324481Y579943D01*
X324518Y579804D01*
X324555Y579628D01*
X324592Y579425D01*
X324620Y579212D01*
X324629Y578972D01*
Y578852D01*
X324620Y578787D01*
Y578722D01*
X324601Y578546D01*
X324574Y578352D01*
X324527Y578149D01*
X324472Y577927D01*
X324398Y577724D01*
Y577714D01*
X324389Y577696D01*
X324370Y577668D01*
X324352Y577631D01*
X324305Y577539D01*
X324222Y577419D01*
X324130Y577280D01*
X324010Y577141D01*
X323871Y577012D01*
X323714Y576892D01*
X323705D01*
X323695Y576882D01*
X323668Y576864D01*
X323640Y576845D01*
X323547Y576799D01*
X323427Y576744D01*
X323279Y576679D01*
X323104Y576633D01*
X322919Y576586D01*
X322715Y576568D01*
X322651Y577382D01*
X322660D01*
X322678D01*
X322706Y577391D01*
X322752Y577400D01*
X322854Y577428D01*
X322993Y577465D01*
X323141Y577520D01*
X323288Y577603D01*
X323427Y577705D01*
X323557Y577835D01*
X323566Y577853D01*
X323603Y577899D01*
X323658Y577992D01*
X323714Y578112D01*
X323769Y578269D01*
X323825Y578454D01*
X323862Y578685D01*
X323871Y578944D01*
Y579073D01*
X323862Y579129D01*
X323853Y579203D01*
X323834Y579369D01*
X323797Y579554D01*
X323751Y579739D01*
X323677Y579915D01*
X323631Y579989D01*
X323584Y580063D01*
X323575Y580081D01*
X323538Y580118D01*
X323473Y580174D01*
X323400Y580229D01*
X323298Y580294D01*
X323187Y580349D01*
X323057Y580386D01*
X322910Y580405D01*
X322891D01*
X322854D01*
X322789Y580396D01*
X322715Y580377D01*
X322623Y580349D01*
X322530Y580303D01*
X322438Y580248D01*
X322346Y580164D01*
X322336Y580155D01*
X322309Y580109D01*
X322281Y580072D01*
X322262Y580035D01*
X322234Y579980D01*
X322198Y579915D01*
X322170Y579832D01*
X322133Y579739D01*
X322096Y579637D01*
X322050Y579517D01*
X322013Y579388D01*
X321966Y579240D01*
X321929Y579073D01*
X321883Y578889D01*
Y578879D01*
X321874Y578842D01*
X321865Y578787D01*
X321846Y578722D01*
X321828Y578639D01*
X321800Y578537D01*
X321772Y578436D01*
X321744Y578325D01*
X321680Y578084D01*
X321615Y577853D01*
X321578Y577742D01*
X321541Y577640D01*
X321513Y577548D01*
X321476Y577474D01*
Y577465D01*
X321467Y577446D01*
X321449Y577419D01*
X321430Y577382D01*
X321375Y577280D01*
X321301Y577160D01*
X321199Y577021D01*
X321088Y576882D01*
X320959Y576753D01*
X320820Y576642D01*
X320802Y576633D01*
X320755Y576596D01*
X320672Y576559D01*
X320561Y576503D01*
X320432Y576457D01*
X320275Y576411D01*
X320099Y576383D01*
X319914Y576374D01*
X319905D01*
X319895D01*
X319868D01*
X319831D01*
X319729Y576392D01*
X319599Y576411D01*
X319452Y576448D01*
X319294Y576494D01*
X319128Y576568D01*
X318952Y576670D01*
X318943D01*
X318934Y576679D01*
X318878Y576725D01*
X318795Y576790D01*
X318703Y576882D01*
X318592Y577002D01*
X318472Y577150D01*
X318361Y577317D01*
X318259Y577511D01*
Y577520D01*
X318250Y577539D01*
X318240Y577566D01*
X318222Y577603D01*
X318204Y577659D01*
X318176Y577724D01*
X318139Y577872D01*
X318092Y578047D01*
X318046Y578260D01*
X318018Y578491D01*
X318009Y578741D01*
Y578889D01*
X318018Y578963D01*
Y579046D01*
X318028Y579138D01*
X318037Y579249D01*
X318074Y579480D01*
X318111Y579721D01*
X318176Y579961D01*
X318259Y580192D01*
Y580201D01*
X318268Y580220D01*
X318287Y580248D01*
X318305Y580285D01*
X318361Y580396D01*
X318444Y580525D01*
X318555Y580673D01*
X318684Y580830D01*
X318841Y580978D01*
X319017Y581117D01*
X319026D01*
X319045Y581135D01*
X319072Y581144D01*
X319109Y581172D01*
X319156Y581191D01*
X319211Y581218D01*
X319350Y581283D01*
X319526Y581348D01*
X319720Y581403D01*
X319942Y581440D01*
X320173Y581459D01*
X320247Y580664D01*
D02*
G37*
G36*
X324518Y570623D02*
X323760D01*
Y572731D01*
X318120D01*
Y573582D01*
X323760D01*
Y575690D01*
X324518D01*
Y570623D01*
D02*
G37*
G36*
X320247Y566501D02*
X320238D01*
X320228D01*
X320201Y566492D01*
X320164D01*
X320080Y566474D01*
X319960Y566446D01*
X319840Y566409D01*
X319701Y566372D01*
X319572Y566307D01*
X319452Y566242D01*
X319442Y566233D01*
X319405Y566205D01*
X319341Y566159D01*
X319276Y566085D01*
X319193Y565993D01*
X319110Y565891D01*
X319026Y565752D01*
X318952Y565604D01*
Y565595D01*
X318943Y565586D01*
X318934Y565558D01*
X318925Y565530D01*
X318897Y565438D01*
X318860Y565318D01*
X318823Y565170D01*
X318795Y565003D01*
X318777Y564818D01*
X318768Y564615D01*
Y564532D01*
X318777Y564440D01*
X318786Y564328D01*
X318804Y564199D01*
X318823Y564051D01*
X318860Y563903D01*
X318906Y563764D01*
X318915Y563746D01*
X318934Y563700D01*
X318971Y563635D01*
X319008Y563552D01*
X319073Y563469D01*
X319137Y563376D01*
X319211Y563284D01*
X319304Y563210D01*
X319313Y563200D01*
X319350Y563182D01*
X319396Y563154D01*
X319470Y563117D01*
X319544Y563080D01*
X319637Y563053D01*
X319738Y563034D01*
X319849Y563025D01*
X319858D01*
X319905D01*
X319960Y563034D01*
X320034Y563043D01*
X320108Y563071D01*
X320201Y563099D01*
X320293Y563145D01*
X320376Y563210D01*
X320386Y563219D01*
X320413Y563247D01*
X320450Y563284D01*
X320506Y563349D01*
X320561Y563422D01*
X320626Y563524D01*
X320691Y563644D01*
X320746Y563783D01*
X320755Y563792D01*
X320765Y563839D01*
X320792Y563913D01*
X320802Y563959D01*
X320820Y564023D01*
X320848Y564088D01*
X320866Y564171D01*
X320894Y564264D01*
X320922Y564375D01*
X320949Y564486D01*
X320986Y564615D01*
X321023Y564763D01*
X321060Y564920D01*
Y564930D01*
X321070Y564957D01*
X321079Y565003D01*
X321097Y565059D01*
X321116Y565133D01*
X321134Y565216D01*
X321190Y565401D01*
X321255Y565604D01*
X321319Y565817D01*
X321384Y566002D01*
X321421Y566085D01*
X321458Y566159D01*
Y566168D01*
X321467Y566178D01*
X321504Y566233D01*
X321550Y566316D01*
X321624Y566409D01*
X321708Y566520D01*
X321809Y566631D01*
X321930Y566742D01*
X322059Y566834D01*
X322077Y566843D01*
X322124Y566871D01*
X322198Y566908D01*
X322290Y566945D01*
X322410Y566982D01*
X322549Y567019D01*
X322697Y567047D01*
X322854Y567056D01*
X322863D01*
X322873D01*
X322900D01*
X322937D01*
X323030Y567038D01*
X323150Y567019D01*
X323289Y566991D01*
X323446Y566945D01*
X323603Y566880D01*
X323760Y566788D01*
X323769D01*
X323779Y566779D01*
X323834Y566732D01*
X323908Y566668D01*
X324001Y566584D01*
X324102Y566474D01*
X324213Y566335D01*
X324315Y566168D01*
X324407Y565984D01*
Y565974D01*
X324417Y565956D01*
X324426Y565928D01*
X324444Y565891D01*
X324463Y565845D01*
X324481Y565780D01*
X324518Y565641D01*
X324555Y565466D01*
X324592Y565262D01*
X324620Y565050D01*
X324629Y564809D01*
Y564689D01*
X324620Y564624D01*
Y564560D01*
X324602Y564384D01*
X324574Y564190D01*
X324528Y563986D01*
X324472Y563764D01*
X324398Y563561D01*
Y563552D01*
X324389Y563533D01*
X324370Y563506D01*
X324352Y563469D01*
X324306Y563376D01*
X324222Y563256D01*
X324130Y563117D01*
X324010Y562979D01*
X323871Y562849D01*
X323714Y562729D01*
X323705D01*
X323695Y562720D01*
X323668Y562701D01*
X323640Y562683D01*
X323548Y562637D01*
X323427Y562581D01*
X323279Y562516D01*
X323104Y562470D01*
X322919Y562424D01*
X322715Y562405D01*
X322651Y563219D01*
X322660D01*
X322678D01*
X322706Y563228D01*
X322752Y563237D01*
X322854Y563265D01*
X322993Y563302D01*
X323141Y563358D01*
X323289Y563441D01*
X323427Y563543D01*
X323557Y563672D01*
X323566Y563691D01*
X323603Y563737D01*
X323658Y563829D01*
X323714Y563949D01*
X323769Y564107D01*
X323825Y564291D01*
X323862Y564523D01*
X323871Y564781D01*
Y564911D01*
X323862Y564967D01*
X323853Y565040D01*
X323834Y565207D01*
X323797Y565392D01*
X323751Y565577D01*
X323677Y565752D01*
X323631Y565826D01*
X323584Y565900D01*
X323575Y565919D01*
X323538Y565956D01*
X323474Y566011D01*
X323400Y566067D01*
X323298Y566131D01*
X323187Y566187D01*
X323057Y566224D01*
X322910Y566242D01*
X322891D01*
X322854D01*
X322789Y566233D01*
X322715Y566215D01*
X322623Y566187D01*
X322530Y566141D01*
X322438Y566085D01*
X322346Y566002D01*
X322336Y565993D01*
X322309Y565947D01*
X322281Y565910D01*
X322262Y565872D01*
X322235Y565817D01*
X322198Y565752D01*
X322170Y565669D01*
X322133Y565577D01*
X322096Y565475D01*
X322050Y565355D01*
X322013Y565225D01*
X321967Y565077D01*
X321930Y564911D01*
X321883Y564726D01*
Y564717D01*
X321874Y564680D01*
X321865Y564624D01*
X321846Y564560D01*
X321828Y564476D01*
X321800Y564375D01*
X321772Y564273D01*
X321745Y564162D01*
X321680Y563922D01*
X321615Y563691D01*
X321578Y563580D01*
X321541Y563478D01*
X321513Y563386D01*
X321476Y563312D01*
Y563302D01*
X321467Y563284D01*
X321449Y563256D01*
X321430Y563219D01*
X321375Y563117D01*
X321301Y562997D01*
X321199Y562859D01*
X321088Y562720D01*
X320959Y562590D01*
X320820Y562479D01*
X320802Y562470D01*
X320755Y562433D01*
X320672Y562396D01*
X320561Y562341D01*
X320432Y562295D01*
X320275Y562248D01*
X320099Y562220D01*
X319914Y562211D01*
X319905D01*
X319895D01*
X319868D01*
X319831D01*
X319729Y562230D01*
X319600Y562248D01*
X319452Y562285D01*
X319294Y562332D01*
X319128Y562405D01*
X318952Y562507D01*
X318943D01*
X318934Y562516D01*
X318878Y562563D01*
X318795Y562627D01*
X318703Y562720D01*
X318592Y562840D01*
X318472Y562988D01*
X318361Y563154D01*
X318259Y563349D01*
Y563358D01*
X318250Y563376D01*
X318241Y563404D01*
X318222Y563441D01*
X318204Y563496D01*
X318176Y563561D01*
X318139Y563709D01*
X318093Y563885D01*
X318046Y564097D01*
X318019Y564328D01*
X318009Y564578D01*
Y564726D01*
X318019Y564800D01*
Y564883D01*
X318028Y564976D01*
X318037Y565087D01*
X318074Y565318D01*
X318111Y565558D01*
X318176Y565799D01*
X318259Y566030D01*
Y566039D01*
X318268Y566057D01*
X318287Y566085D01*
X318305Y566122D01*
X318361Y566233D01*
X318444Y566362D01*
X318555Y566511D01*
X318684Y566668D01*
X318841Y566816D01*
X319017Y566954D01*
X319026D01*
X319045Y566973D01*
X319073Y566982D01*
X319110Y567010D01*
X319156Y567028D01*
X319211Y567056D01*
X319350Y567121D01*
X319526Y567185D01*
X319720Y567241D01*
X319942Y567278D01*
X320173Y567296D01*
X320247Y566501D01*
D02*
G37*
G36*
X324518Y560760D02*
X320321Y559807D01*
X320312D01*
X320293Y559798D01*
X320256Y559789D01*
X320210Y559780D01*
X320145Y559770D01*
X320080Y559752D01*
X319997Y559733D01*
X319905Y559715D01*
X319711Y559669D01*
X319489Y559622D01*
X319248Y559576D01*
X319008Y559530D01*
X319017D01*
X319054Y559521D01*
X319100Y559502D01*
X319174Y559493D01*
X319248Y559475D01*
X319341Y559447D01*
X319544Y559401D01*
X319748Y559345D01*
X319849Y559327D01*
X319942Y559299D01*
X320025Y559280D01*
X320099Y559262D01*
X320154Y559243D01*
X320191Y559234D01*
X324518Y558023D01*
Y556997D01*
X321273Y556091D01*
X321264D01*
X321218Y556072D01*
X321153Y556054D01*
X321070Y556035D01*
X320959Y556007D01*
X320839Y555970D01*
X320700Y555933D01*
X320543Y555896D01*
X320367Y555850D01*
X320191Y555813D01*
X319812Y555730D01*
X319415Y555647D01*
X319008Y555582D01*
X319017D01*
X319036Y555573D01*
X319073D01*
X319119Y555554D01*
X319174Y555545D01*
X319239Y555527D01*
X319322Y555518D01*
X319415Y555490D01*
X319618Y555443D01*
X319858Y555388D01*
X320117Y555332D01*
X320404Y555259D01*
X324518Y554260D01*
Y553400D01*
X318120Y555157D01*
Y555989D01*
X322993Y557330D01*
X323002D01*
X323021Y557339D01*
X323048Y557348D01*
X323094Y557357D01*
X323196Y557385D01*
X323316Y557413D01*
X323446Y557450D01*
X323566Y557487D01*
X323668Y557514D01*
X323714Y557524D01*
X323742Y557533D01*
X323732D01*
X323723Y557542D01*
X323668Y557551D01*
X323584Y557570D01*
X323483Y557598D01*
X323372Y557626D01*
X323242Y557662D01*
X323113Y557690D01*
X322993Y557727D01*
X318120Y559077D01*
Y559965D01*
X324518Y561638D01*
Y560760D01*
D02*
G37*
G36*
Y551616D02*
X318120D01*
Y552466D01*
X324518D01*
Y551616D01*
D02*
G37*
G36*
Y548879D02*
X319979Y547363D01*
X319969D01*
X319951Y547354D01*
X319923Y547344D01*
X319877Y547326D01*
X319766Y547289D01*
X319627Y547243D01*
X319470Y547196D01*
X319313Y547141D01*
X319165Y547095D01*
X319036Y547058D01*
X319054Y547048D01*
X319100Y547039D01*
X319184Y547011D01*
X319294Y546974D01*
X319442Y546928D01*
X319618Y546864D01*
X319821Y546799D01*
X320062Y546716D01*
X324518Y545181D01*
Y544044D01*
X318120D01*
Y544857D01*
X323474D01*
X318120Y546725D01*
Y547483D01*
X323566Y549332D01*
X318120D01*
Y550146D01*
X324518D01*
Y548879D01*
D02*
G37*
G36*
X322913Y514758D02*
X324651D01*
Y514019D01*
X322913D01*
Y512280D01*
X322183D01*
Y514019D01*
X320426D01*
Y514758D01*
X322183D01*
Y516496D01*
X322913D01*
Y514758D01*
D02*
G37*
G36*
X321184Y510598D02*
X321175D01*
X321156Y510588D01*
X321119Y510579D01*
X321073Y510570D01*
X321017Y510561D01*
X320953Y510542D01*
X320814Y510496D01*
X320648Y510431D01*
X320490Y510348D01*
X320343Y510256D01*
X320213Y510145D01*
X320204Y510126D01*
X320167Y510089D01*
X320121Y510015D01*
X320075Y509923D01*
X320019Y509812D01*
X319973Y509673D01*
X319936Y509516D01*
X319926Y509350D01*
Y509294D01*
X319936Y509257D01*
X319945Y509155D01*
X319973Y509026D01*
X320019Y508878D01*
X320084Y508721D01*
X320176Y508564D01*
X320306Y508416D01*
X320324Y508397D01*
X320380Y508351D01*
X320463Y508296D01*
X320574Y508222D01*
X320712Y508148D01*
X320870Y508092D01*
X321054Y508046D01*
X321258Y508027D01*
X321267D01*
X321286D01*
X321313D01*
X321350Y508037D01*
X321452Y508046D01*
X321572Y508074D01*
X321720Y508111D01*
X321868Y508175D01*
X322016Y508268D01*
X322155Y508388D01*
X322173Y508406D01*
X322210Y508453D01*
X322266Y508527D01*
X322330Y508628D01*
X322395Y508758D01*
X322451Y508915D01*
X322488Y509091D01*
X322506Y509285D01*
Y509368D01*
X322497Y509433D01*
X322488Y509516D01*
X322469Y509608D01*
X322451Y509719D01*
X322423Y509840D01*
X323116Y509747D01*
Y509701D01*
X323107Y509664D01*
Y509544D01*
X323125Y509442D01*
X323144Y509322D01*
X323172Y509183D01*
X323218Y509026D01*
X323283Y508878D01*
X323366Y508721D01*
Y508712D01*
X323375Y508702D01*
X323412Y508656D01*
X323477Y508591D01*
X323560Y508517D01*
X323680Y508443D01*
X323819Y508379D01*
X323976Y508332D01*
X324069Y508314D01*
X324170D01*
X324179D01*
X324189D01*
X324244D01*
X324318Y508332D01*
X324420Y508351D01*
X324531Y508388D01*
X324651Y508434D01*
X324771Y508508D01*
X324882Y508610D01*
X324891Y508619D01*
X324928Y508665D01*
X324975Y508730D01*
X325030Y508813D01*
X325076Y508924D01*
X325123Y509054D01*
X325159Y509202D01*
X325169Y509368D01*
Y509442D01*
X325150Y509525D01*
X325132Y509636D01*
X325095Y509756D01*
X325049Y509877D01*
X324975Y510006D01*
X324882Y510126D01*
X324873Y510135D01*
X324827Y510172D01*
X324762Y510228D01*
X324669Y510293D01*
X324549Y510357D01*
X324401Y510422D01*
X324226Y510477D01*
X324022Y510514D01*
X324161Y511300D01*
X324170D01*
X324198Y511291D01*
X324235Y511282D01*
X324291Y511273D01*
X324355Y511254D01*
X324429Y511226D01*
X324605Y511171D01*
X324808Y511078D01*
X325012Y510967D01*
X325206Y510829D01*
X325381Y510653D01*
X325391Y510644D01*
X325400Y510625D01*
X325418Y510598D01*
X325446Y510561D01*
X325483Y510514D01*
X325520Y510450D01*
X325557Y510385D01*
X325603Y510302D01*
X325677Y510117D01*
X325751Y509904D01*
X325798Y509655D01*
X325816Y509525D01*
Y509294D01*
X325807Y509192D01*
X325788Y509072D01*
X325760Y508924D01*
X325714Y508758D01*
X325659Y508591D01*
X325585Y508425D01*
Y508416D01*
X325576Y508406D01*
X325548Y508351D01*
X325492Y508268D01*
X325428Y508175D01*
X325335Y508064D01*
X325233Y507953D01*
X325113Y507842D01*
X324975Y507750D01*
X324956Y507741D01*
X324910Y507713D01*
X324827Y507676D01*
X324725Y507630D01*
X324605Y507584D01*
X324466Y507547D01*
X324309Y507519D01*
X324152Y507510D01*
X324133D01*
X324078D01*
X324004Y507519D01*
X323902Y507537D01*
X323782Y507565D01*
X323652Y507611D01*
X323523Y507667D01*
X323394Y507741D01*
X323375Y507750D01*
X323338Y507778D01*
X323273Y507833D01*
X323200Y507907D01*
X323116Y508000D01*
X323024Y508111D01*
X322941Y508240D01*
X322857Y508397D01*
Y508388D01*
X322848Y508369D01*
X322839Y508342D01*
X322830Y508305D01*
X322793Y508203D01*
X322737Y508074D01*
X322663Y507926D01*
X322571Y507778D01*
X322451Y507639D01*
X322312Y507510D01*
X322293Y507500D01*
X322238Y507463D01*
X322146Y507408D01*
X322025Y507352D01*
X321877Y507297D01*
X321702Y507242D01*
X321498Y507205D01*
X321276Y507195D01*
X321267D01*
X321239D01*
X321193D01*
X321138Y507205D01*
X321064Y507214D01*
X320980Y507232D01*
X320888Y507251D01*
X320786Y507269D01*
X320564Y507343D01*
X320444Y507399D01*
X320333Y507454D01*
X320213Y507528D01*
X320093Y507611D01*
X319973Y507704D01*
X319862Y507815D01*
X319853Y507824D01*
X319834Y507842D01*
X319806Y507879D01*
X319769Y507926D01*
X319723Y507981D01*
X319677Y508055D01*
X319621Y508138D01*
X319575Y508240D01*
X319520Y508342D01*
X319464Y508462D01*
X319418Y508582D01*
X319372Y508721D01*
X319335Y508869D01*
X319307Y509026D01*
X319289Y509183D01*
X319279Y509359D01*
Y509442D01*
X319289Y509497D01*
X319298Y509571D01*
X319307Y509655D01*
X319326Y509747D01*
X319344Y509849D01*
X319400Y510071D01*
X319492Y510302D01*
X319548Y510422D01*
X319612Y510533D01*
X319695Y510644D01*
X319779Y510755D01*
X319788Y510764D01*
X319806Y510783D01*
X319834Y510810D01*
X319871Y510838D01*
X319917Y510884D01*
X319982Y510930D01*
X320047Y510986D01*
X320130Y511041D01*
X320222Y511097D01*
X320315Y511152D01*
X320537Y511254D01*
X320796Y511337D01*
X320934Y511365D01*
X321082Y511384D01*
X321184Y510598D01*
D02*
G37*
G36*
X320287Y505078D02*
X319390D01*
Y505975D01*
X320287D01*
Y505078D01*
D02*
G37*
G36*
X321184Y503136D02*
X321175D01*
X321156Y503127D01*
X321119Y503118D01*
X321073Y503109D01*
X321017Y503100D01*
X320953Y503081D01*
X320814Y503035D01*
X320648Y502970D01*
X320490Y502887D01*
X320343Y502794D01*
X320213Y502683D01*
X320204Y502665D01*
X320167Y502628D01*
X320121Y502554D01*
X320075Y502462D01*
X320019Y502351D01*
X319973Y502212D01*
X319936Y502055D01*
X319926Y501888D01*
Y501833D01*
X319936Y501796D01*
X319945Y501694D01*
X319973Y501565D01*
X320019Y501417D01*
X320084Y501260D01*
X320176Y501102D01*
X320306Y500955D01*
X320324Y500936D01*
X320380Y500890D01*
X320463Y500834D01*
X320574Y500760D01*
X320712Y500686D01*
X320870Y500631D01*
X321054Y500585D01*
X321258Y500566D01*
X321267D01*
X321286D01*
X321313D01*
X321350Y500575D01*
X321452Y500585D01*
X321572Y500612D01*
X321720Y500649D01*
X321868Y500714D01*
X322016Y500807D01*
X322155Y500927D01*
X322173Y500945D01*
X322210Y500992D01*
X322266Y501065D01*
X322330Y501167D01*
X322395Y501297D01*
X322451Y501454D01*
X322488Y501629D01*
X322506Y501824D01*
Y501907D01*
X322497Y501972D01*
X322488Y502055D01*
X322469Y502147D01*
X322451Y502258D01*
X322423Y502378D01*
X323116Y502286D01*
Y502240D01*
X323107Y502203D01*
Y502082D01*
X323125Y501981D01*
X323144Y501861D01*
X323172Y501722D01*
X323218Y501565D01*
X323283Y501417D01*
X323366Y501260D01*
Y501250D01*
X323375Y501241D01*
X323412Y501195D01*
X323477Y501130D01*
X323560Y501056D01*
X323680Y500982D01*
X323819Y500918D01*
X323976Y500871D01*
X324069Y500853D01*
X324170D01*
X324179D01*
X324189D01*
X324244D01*
X324318Y500871D01*
X324420Y500890D01*
X324531Y500927D01*
X324651Y500973D01*
X324771Y501047D01*
X324882Y501149D01*
X324891Y501158D01*
X324928Y501204D01*
X324975Y501269D01*
X325030Y501352D01*
X325076Y501463D01*
X325123Y501592D01*
X325159Y501740D01*
X325169Y501907D01*
Y501981D01*
X325150Y502064D01*
X325132Y502175D01*
X325095Y502295D01*
X325049Y502415D01*
X324975Y502545D01*
X324882Y502665D01*
X324873Y502674D01*
X324827Y502711D01*
X324762Y502767D01*
X324669Y502831D01*
X324549Y502896D01*
X324401Y502961D01*
X324226Y503016D01*
X324022Y503053D01*
X324161Y503839D01*
X324170D01*
X324198Y503830D01*
X324235Y503821D01*
X324291Y503811D01*
X324355Y503793D01*
X324429Y503765D01*
X324605Y503710D01*
X324808Y503617D01*
X325012Y503506D01*
X325206Y503368D01*
X325381Y503192D01*
X325391Y503183D01*
X325400Y503164D01*
X325418Y503136D01*
X325446Y503100D01*
X325483Y503053D01*
X325520Y502989D01*
X325557Y502924D01*
X325603Y502841D01*
X325677Y502656D01*
X325751Y502443D01*
X325798Y502193D01*
X325816Y502064D01*
Y501833D01*
X325807Y501731D01*
X325788Y501611D01*
X325760Y501463D01*
X325714Y501297D01*
X325659Y501130D01*
X325585Y500964D01*
Y500955D01*
X325576Y500945D01*
X325548Y500890D01*
X325492Y500807D01*
X325428Y500714D01*
X325335Y500603D01*
X325233Y500492D01*
X325113Y500381D01*
X324975Y500289D01*
X324956Y500280D01*
X324910Y500252D01*
X324827Y500215D01*
X324725Y500169D01*
X324605Y500122D01*
X324466Y500085D01*
X324309Y500058D01*
X324152Y500048D01*
X324133D01*
X324078D01*
X324004Y500058D01*
X323902Y500076D01*
X323782Y500104D01*
X323652Y500150D01*
X323523Y500206D01*
X323394Y500280D01*
X323375Y500289D01*
X323338Y500317D01*
X323273Y500372D01*
X323200Y500446D01*
X323116Y500538D01*
X323024Y500649D01*
X322941Y500779D01*
X322857Y500936D01*
Y500927D01*
X322848Y500908D01*
X322839Y500881D01*
X322830Y500844D01*
X322793Y500742D01*
X322737Y500612D01*
X322663Y500465D01*
X322571Y500317D01*
X322451Y500178D01*
X322312Y500048D01*
X322293Y500039D01*
X322238Y500002D01*
X322146Y499947D01*
X322025Y499891D01*
X321877Y499836D01*
X321702Y499780D01*
X321498Y499743D01*
X321276Y499734D01*
X321267D01*
X321239D01*
X321193D01*
X321138Y499743D01*
X321064Y499753D01*
X320980Y499771D01*
X320888Y499790D01*
X320786Y499808D01*
X320564Y499882D01*
X320444Y499938D01*
X320333Y499993D01*
X320213Y500067D01*
X320093Y500150D01*
X319973Y500243D01*
X319862Y500354D01*
X319853Y500363D01*
X319834Y500381D01*
X319806Y500418D01*
X319769Y500465D01*
X319723Y500520D01*
X319677Y500594D01*
X319621Y500677D01*
X319575Y500779D01*
X319520Y500881D01*
X319464Y501001D01*
X319418Y501121D01*
X319372Y501260D01*
X319335Y501408D01*
X319307Y501565D01*
X319289Y501722D01*
X319279Y501898D01*
Y501981D01*
X319289Y502036D01*
X319298Y502110D01*
X319307Y502193D01*
X319326Y502286D01*
X319344Y502388D01*
X319400Y502609D01*
X319492Y502841D01*
X319548Y502961D01*
X319612Y503072D01*
X319695Y503183D01*
X319779Y503294D01*
X319788Y503303D01*
X319806Y503321D01*
X319834Y503349D01*
X319871Y503377D01*
X319917Y503423D01*
X319982Y503469D01*
X320047Y503525D01*
X320130Y503580D01*
X320222Y503636D01*
X320315Y503691D01*
X320537Y503793D01*
X320796Y503876D01*
X320934Y503904D01*
X321082Y503922D01*
X321184Y503136D01*
D02*
G37*
G36*
X325788Y498375D02*
X321138Y496711D01*
X321129D01*
X321110Y496702D01*
X321082Y496692D01*
X321045Y496674D01*
X320990Y496665D01*
X320934Y496646D01*
X320796Y496600D01*
X320638Y496544D01*
X320463Y496489D01*
X320093Y496378D01*
X320102D01*
X320121Y496369D01*
X320148Y496359D01*
X320185Y496350D01*
X320287Y496323D01*
X320426Y496276D01*
X320583Y496230D01*
X320759Y496175D01*
X320944Y496110D01*
X321138Y496036D01*
X325788Y494298D01*
Y493438D01*
X319390Y495943D01*
Y496822D01*
X325788Y499300D01*
Y498375D01*
D02*
G37*
G36*
X321440Y538077D02*
X321523D01*
X321624Y538068D01*
X321726Y538049D01*
X321846Y538040D01*
X321976Y538012D01*
X322114Y537994D01*
X322410Y537920D01*
X322715Y537827D01*
X323021Y537698D01*
X323030Y537689D01*
X323057Y537679D01*
X323094Y537661D01*
X323150Y537624D01*
X323224Y537587D01*
X323298Y537541D01*
X323474Y537411D01*
X323677Y537254D01*
X323871Y537060D01*
X324065Y536838D01*
X324148Y536709D01*
X324232Y536579D01*
X324241Y536570D01*
X324250Y536542D01*
X324269Y536505D01*
X324296Y536450D01*
X324324Y536376D01*
X324361Y536293D01*
X324398Y536200D01*
X324435Y536089D01*
X324472Y535969D01*
X324500Y535840D01*
X324537Y535701D01*
X324565Y535553D01*
X324611Y535229D01*
X324629Y535063D01*
Y534767D01*
X324620Y534712D01*
Y534638D01*
X324602Y534462D01*
X324574Y534268D01*
X324528Y534064D01*
X324472Y533843D01*
X324398Y533630D01*
Y533621D01*
X324389Y533602D01*
X324380Y533574D01*
X324361Y533537D01*
X324306Y533436D01*
X324241Y533306D01*
X324148Y533168D01*
X324038Y533020D01*
X323917Y532881D01*
X323769Y532752D01*
X323751Y532733D01*
X323695Y532696D01*
X323612Y532641D01*
X323492Y532567D01*
X323344Y532493D01*
X323159Y532410D01*
X322956Y532326D01*
X322725Y532262D01*
X322521Y533029D01*
X322530D01*
X322540Y533038D01*
X322567Y533047D01*
X322604Y533057D01*
X322688Y533084D01*
X322799Y533121D01*
X322928Y533177D01*
X323048Y533242D01*
X323178Y533306D01*
X323289Y533390D01*
X323298Y533399D01*
X323335Y533427D01*
X323381Y533482D01*
X323446Y533547D01*
X323520Y533630D01*
X323594Y533741D01*
X323668Y533861D01*
X323732Y534000D01*
X323742Y534018D01*
X323760Y534064D01*
X323788Y534148D01*
X323825Y534259D01*
X323853Y534388D01*
X323880Y534536D01*
X323899Y534702D01*
X323908Y534878D01*
Y534980D01*
X323899Y535026D01*
Y535081D01*
X323890Y535220D01*
X323862Y535377D01*
X323834Y535553D01*
X323788Y535719D01*
X323723Y535886D01*
X323714Y535904D01*
X323695Y535960D01*
X323649Y536034D01*
X323603Y536126D01*
X323529Y536237D01*
X323455Y536357D01*
X323363Y536468D01*
X323261Y536570D01*
X323252Y536579D01*
X323215Y536616D01*
X323150Y536662D01*
X323076Y536718D01*
X322984Y536783D01*
X322873Y536847D01*
X322752Y536912D01*
X322623Y536977D01*
X322614D01*
X322595Y536986D01*
X322567Y536995D01*
X322521Y537014D01*
X322466Y537032D01*
X322401Y537051D01*
X322327Y537079D01*
X322244Y537097D01*
X322050Y537143D01*
X321828Y537180D01*
X321597Y537208D01*
X321338Y537217D01*
X321329D01*
X321301D01*
X321255D01*
X321199Y537208D01*
X321125D01*
X321033Y537199D01*
X320940Y537189D01*
X320839Y537180D01*
X320607Y537143D01*
X320367Y537097D01*
X320127Y537023D01*
X319895Y536931D01*
X319886D01*
X319868Y536912D01*
X319840Y536903D01*
X319803Y536875D01*
X319701Y536810D01*
X319572Y536709D01*
X319433Y536589D01*
X319294Y536441D01*
X319165Y536265D01*
X319045Y536071D01*
Y536062D01*
X319036Y536043D01*
X319017Y536015D01*
X318999Y535969D01*
X318980Y535923D01*
X318962Y535858D01*
X318906Y535710D01*
X318860Y535525D01*
X318814Y535322D01*
X318777Y535100D01*
X318768Y534869D01*
Y534776D01*
X318777Y534721D01*
Y534665D01*
X318795Y534527D01*
X318814Y534360D01*
X318851Y534185D01*
X318906Y533991D01*
X318971Y533796D01*
Y533787D01*
X318980Y533769D01*
X318989Y533750D01*
X319008Y533713D01*
X319054Y533611D01*
X319110Y533501D01*
X319174Y533371D01*
X319248Y533232D01*
X319331Y533103D01*
X319424Y532992D01*
X320626D01*
Y534878D01*
X321384D01*
Y532160D01*
X319008D01*
X318999Y532169D01*
X318989Y532188D01*
X318962Y532225D01*
X318925Y532271D01*
X318888Y532326D01*
X318841Y532391D01*
X318786Y532474D01*
X318731Y532557D01*
X318610Y532752D01*
X318481Y532974D01*
X318361Y533205D01*
X318259Y533454D01*
Y533464D01*
X318250Y533482D01*
X318241Y533519D01*
X318222Y533565D01*
X318204Y533630D01*
X318176Y533704D01*
X318157Y533787D01*
X318139Y533870D01*
X318093Y534074D01*
X318046Y534305D01*
X318019Y534554D01*
X318009Y534813D01*
Y534906D01*
X318019Y534971D01*
Y535054D01*
X318028Y535155D01*
X318046Y535266D01*
X318056Y535387D01*
X318111Y535655D01*
X318176Y535941D01*
X318277Y536237D01*
X318333Y536385D01*
X318407Y536533D01*
X318416Y536542D01*
X318425Y536570D01*
X318453Y536607D01*
X318481Y536662D01*
X318527Y536727D01*
X318573Y536792D01*
X318703Y536968D01*
X318869Y537152D01*
X319073Y537347D01*
X319304Y537532D01*
X319572Y537698D01*
X319581D01*
X319609Y537716D01*
X319646Y537735D01*
X319711Y537763D01*
X319775Y537790D01*
X319868Y537818D01*
X319960Y537855D01*
X320071Y537892D01*
X320191Y537929D01*
X320330Y537966D01*
X320469Y537994D01*
X320617Y538022D01*
X320940Y538068D01*
X321282Y538086D01*
X321292D01*
X321329D01*
X321375D01*
X321440Y538077D01*
D02*
G37*
G36*
X324518Y530052D02*
X319489Y526696D01*
X324518D01*
Y525882D01*
X318120D01*
Y526760D01*
X323141Y530107D01*
X318120D01*
Y530921D01*
X324518D01*
Y530052D01*
D02*
G37*
G36*
Y521999D02*
X324509Y521833D01*
X324500Y521648D01*
X324481Y521463D01*
X324454Y521278D01*
X324426Y521121D01*
Y521111D01*
X324417Y521093D01*
Y521065D01*
X324398Y521028D01*
X324370Y520927D01*
X324324Y520797D01*
X324259Y520649D01*
X324176Y520492D01*
X324084Y520335D01*
X323964Y520187D01*
X323954Y520178D01*
X323945Y520168D01*
X323917Y520141D01*
X323890Y520104D01*
X323797Y520011D01*
X323668Y519900D01*
X323511Y519780D01*
X323326Y519651D01*
X323113Y519530D01*
X322873Y519429D01*
X322863D01*
X322845Y519420D01*
X322808Y519401D01*
X322752Y519392D01*
X322688Y519364D01*
X322614Y519346D01*
X322530Y519327D01*
X322429Y519299D01*
X322327Y519272D01*
X322207Y519253D01*
X321948Y519207D01*
X321661Y519179D01*
X321347Y519170D01*
X321338D01*
X321319D01*
X321273D01*
X321227D01*
X321162Y519179D01*
X321088D01*
X320913Y519188D01*
X320709Y519216D01*
X320496Y519244D01*
X320275Y519290D01*
X320053Y519346D01*
X320043D01*
X320025Y519355D01*
X319997Y519364D01*
X319960Y519373D01*
X319858Y519410D01*
X319729Y519466D01*
X319581Y519521D01*
X319433Y519595D01*
X319276Y519688D01*
X319128Y519780D01*
X319110Y519789D01*
X319063Y519826D01*
X318999Y519882D01*
X318915Y519956D01*
X318823Y520039D01*
X318731Y520141D01*
X318629Y520242D01*
X318546Y520363D01*
X318536Y520381D01*
X318509Y520418D01*
X318472Y520483D01*
X318425Y520575D01*
X318370Y520686D01*
X318324Y520816D01*
X318268Y520964D01*
X318222Y521130D01*
Y521148D01*
X318213Y521176D01*
X318204Y521204D01*
X318194Y521296D01*
X318176Y521426D01*
X318157Y521574D01*
X318139Y521749D01*
X318130Y521944D01*
X318120Y522156D01*
Y524458D01*
X324518D01*
Y521999D01*
D02*
G37*
%LPC*%
G36*
X323806Y586766D02*
X321689D01*
Y584861D01*
X321698Y584750D01*
X321707Y584621D01*
X321717Y584473D01*
X321735Y584325D01*
X321763Y584177D01*
X321800Y584048D01*
X321809Y584029D01*
X321828Y583992D01*
X321856Y583937D01*
X321892Y583863D01*
X321948Y583779D01*
X322013Y583696D01*
X322096Y583613D01*
X322188Y583548D01*
X322198Y583539D01*
X322234Y583521D01*
X322290Y583493D01*
X322364Y583456D01*
X322447Y583428D01*
X322540Y583400D01*
X322651Y583382D01*
X322761Y583373D01*
X322771D01*
X322780D01*
X322836Y583382D01*
X322919Y583391D01*
X323030Y583410D01*
X323141Y583456D01*
X323270Y583511D01*
X323390Y583595D01*
X323510Y583705D01*
X323520Y583724D01*
X323557Y583770D01*
X323603Y583844D01*
X323658Y583964D01*
X323714Y584103D01*
X323760Y584288D01*
X323797Y584501D01*
X323806Y584750D01*
Y586766D01*
D02*
G37*
G36*
X323760Y523608D02*
X318878D01*
Y522091D01*
X318888Y522027D01*
X318897Y521888D01*
X318906Y521731D01*
X318925Y521564D01*
X318952Y521398D01*
X318989Y521259D01*
X318999Y521241D01*
X319008Y521195D01*
X319036Y521130D01*
X319073Y521047D01*
X319128Y520954D01*
X319184Y520862D01*
X319248Y520769D01*
X319322Y520677D01*
X319341Y520668D01*
X319378Y520631D01*
X319442Y520575D01*
X319535Y520510D01*
X319655Y520437D01*
X319794Y520353D01*
X319951Y520279D01*
X320127Y520215D01*
X320136D01*
X320154Y520205D01*
X320182Y520196D01*
X320219Y520187D01*
X320265Y520178D01*
X320330Y520159D01*
X320395Y520141D01*
X320469Y520122D01*
X320654Y520094D01*
X320866Y520067D01*
X321107Y520048D01*
X321366Y520039D01*
X321375D01*
X321412D01*
X321458D01*
X321532Y520048D01*
X321615D01*
X321708Y520057D01*
X321819Y520067D01*
X321930Y520076D01*
X322179Y520122D01*
X322438Y520178D01*
X322678Y520261D01*
X322799Y520316D01*
X322900Y520372D01*
X322910D01*
X322928Y520390D01*
X322956Y520409D01*
X322993Y520427D01*
X323085Y520501D01*
X323196Y520594D01*
X323316Y520714D01*
X323437Y520853D01*
X323538Y521010D01*
X323621Y521176D01*
X323631Y521195D01*
X323640Y521241D01*
X323668Y521324D01*
X323695Y521444D01*
X323714Y521592D01*
X323742Y521777D01*
X323751Y521888D01*
Y522008D01*
X323760Y522128D01*
Y523608D01*
D02*
G37*
%LPD*%
D10*
X301159Y559405D02*
G03*
X301159Y559405I-2236J0D01*
G01*
D02*
G03*
X301159Y559405I-2236J0D01*
G01*
X140066Y419800D02*
G03*
X140066Y419800I-2236J0D01*
G01*
D02*
G03*
X140066Y419800I-2236J0D01*
G01*
D11*
X386580Y299470D02*
G03*
X386580Y299470I-1250J0D01*
G01*
D12*
X437573Y531789D02*
X439573Y528589D01*
X437573Y525389D02*
X439573Y528589D01*
X380323Y531789D02*
X437573D01*
X380323Y525389D02*
X437573D01*
X353423Y593589D02*
X380323D01*
Y488989D02*
Y593589D01*
X353423Y488989D02*
X380323D01*
X353423D02*
Y593589D01*
X380323Y576189D02*
X437573D01*
X380323Y582589D02*
X437573D01*
Y576189D02*
X439573Y579389D01*
X437573Y582589D02*
X439573Y579389D01*
X380323Y550789D02*
X437573D01*
X380323Y557189D02*
X437573D01*
Y550789D02*
X439573Y553989D01*
X437573Y557189D02*
X439573Y553989D01*
X380323Y499989D02*
X437573D01*
X380323Y506389D02*
X437573D01*
Y499989D02*
X439573Y503189D01*
X437573Y506389D02*
X439573Y503189D01*
X82330Y708020D02*
X162330D01*
Y628020D02*
Y708020D01*
X82330Y628020D02*
X162330D01*
X82330D02*
Y708020D01*
X190552D02*
X270552D01*
Y628020D02*
Y708020D01*
X190552Y628020D02*
X270552D01*
X190552D02*
Y708020D01*
X297870Y628020D02*
Y708020D01*
Y628020D02*
X377870D01*
Y708020D01*
X297870D02*
X377870D01*
X348080Y308220D02*
X360580D01*
X348080Y291220D02*
X360580D01*
X351101Y204018D02*
Y224018D01*
Y154018D02*
Y174018D01*
Y104018D02*
Y124018D01*
X348101Y89018D02*
X424101D01*
X348101D02*
Y239018D01*
X424101D01*
Y89018D02*
Y239018D01*
X412780Y291970D02*
Y307470D01*
X400080Y291970D02*
X412780D01*
X400080Y307470D02*
X412780D01*
X403380Y350630D02*
X406880D01*
X389630Y332630D02*
Y345880D01*
X412880Y332630D02*
X420630D01*
X389630D02*
X397380D01*
X420630D02*
Y345880D01*
X378330Y440350D02*
X393830D01*
X378330Y461350D02*
X393830D01*
X96410Y205860D02*
Y208160D01*
X114410Y205860D02*
Y208160D01*
X256170Y477790D02*
X267170D01*
X256170Y495790D02*
X267170D01*
X361530Y406510D02*
X372530D01*
X361530Y388510D02*
X372530D01*
X323740Y421220D02*
Y432220D01*
X341740Y421220D02*
Y432220D01*
X396839Y379860D02*
X405801D01*
X396839Y364360D02*
X405801D01*
X114410Y251580D02*
Y253880D01*
X96410Y251580D02*
Y253880D01*
X51140Y342770D02*
Y358270D01*
X30140Y342770D02*
Y358270D01*
D13*
X78600Y719940D02*
Y859940D01*
X378600Y719940D02*
Y859940D01*
X78600D02*
X378600D01*
X78600Y719940D02*
X378600D01*
X408754Y457042D02*
X408865Y448712D01*
X410553Y447068D01*
X413885Y447112D01*
X415529Y448801D01*
X415418Y457130D01*
X425414Y457263D02*
X422104Y455553D01*
X418816Y452177D01*
X418861Y448845D01*
X420549Y447201D01*
X423881Y447245D01*
X425525Y448933D01*
X425503Y450600D01*
X423814Y452243D01*
X418816Y452177D01*
X106680Y802630D02*
X113028Y808978D01*
X125724D01*
X132072Y802630D01*
Y796282D01*
X125724Y789934D01*
X132072Y783586D01*
Y777238D01*
X125724Y770890D01*
X113028D01*
X106680Y777238D01*
Y783586D01*
X113028Y789934D01*
X106680Y796282D01*
Y802630D01*
X113028Y789934D02*
X125724D01*
X144768Y770890D02*
Y777238D01*
X151116D01*
Y770890D01*
X144768D01*
X176507Y802630D02*
X182855Y808978D01*
X195551D01*
X201899Y802630D01*
Y796282D01*
X195551Y789934D01*
X201899Y783586D01*
Y777238D01*
X195551Y770890D01*
X182855D01*
X176507Y777238D01*
Y783586D01*
X182855Y789934D01*
X176507Y796282D01*
Y802630D01*
X182855Y789934D02*
X195551D01*
X214595Y770890D02*
Y777238D01*
X220943D01*
Y770890D01*
X214595D01*
X246335Y802630D02*
X252683Y808978D01*
X265379D01*
X271727Y802630D01*
Y796282D01*
X265379Y789934D01*
X271727Y783586D01*
Y777238D01*
X265379Y770890D01*
X252683D01*
X246335Y777238D01*
Y783586D01*
X252683Y789934D01*
X246335Y796282D01*
Y802630D01*
X252683Y789934D02*
X265379D01*
X284422Y770890D02*
Y777238D01*
X290770D01*
Y770890D01*
X284422D01*
X316162Y802630D02*
X322510Y808978D01*
X335206D01*
X341554Y802630D01*
Y796282D01*
X335206Y789934D01*
X341554Y783586D01*
Y777238D01*
X335206Y770890D01*
X322510D01*
X316162Y777238D01*
Y783586D01*
X322510Y789934D01*
X316162Y796282D01*
Y802630D01*
X322510Y789934D02*
X335206D01*
X354250Y770890D02*
Y777238D01*
X360598D01*
Y770890D01*
X354250D01*
X438847Y212745D02*
X428850D01*
X438847Y219410D01*
X428850D01*
X430516Y229407D02*
X428850Y227740D01*
Y224408D01*
X430516Y222742D01*
X437180D01*
X438847Y224408D01*
Y227740D01*
X437180Y229407D01*
X438825Y104420D02*
X428828D01*
X438825Y111085D01*
X428828D01*
Y119415D02*
Y116083D01*
X430494Y114417D01*
X437159D01*
X438825Y116083D01*
Y119415D01*
X437159Y121081D01*
X430494D01*
X428828Y119415D01*
X429986Y158438D02*
X428320Y156772D01*
Y153439D01*
X429986Y151773D01*
X436651D01*
X438317Y153439D01*
Y156772D01*
X436651Y158438D01*
X428320Y166768D02*
Y163436D01*
X429986Y161770D01*
X436651D01*
X438317Y163436D01*
Y166768D01*
X436651Y168435D01*
X429986D01*
X428320Y166768D01*
X438317Y171767D02*
X428320D01*
X431652Y175099D01*
X428320Y178431D01*
X438317D01*
X88906Y853438D02*
Y838203D01*
X96523D01*
X99062Y840742D01*
Y850898D01*
X96523Y853438D01*
X88906D01*
X104141Y838203D02*
Y853438D01*
X111758D01*
X114298Y850898D01*
Y845820D01*
X111758Y843281D01*
X104141D01*
X119376Y838203D02*
X124454D01*
X121915D01*
Y853438D01*
X119376Y850898D01*
X259166Y558948D02*
Y546252D01*
X261705Y543713D01*
X266784D01*
X269323Y546252D01*
Y558948D01*
X284558Y543713D02*
X274401D01*
X284558Y553870D01*
Y556409D01*
X282019Y558948D01*
X276940D01*
X274401Y556409D01*
X43180Y124458D02*
X38102D01*
X40641D01*
Y111762D01*
X38102Y109222D01*
X35563D01*
X33023Y111762D01*
X48258Y109222D02*
X53337D01*
X50798D01*
Y124458D01*
X48258Y121918D01*
X40643Y223517D02*
Y210822D01*
X43182Y208282D01*
X48261D01*
X50800Y210822D01*
Y223517D01*
X55878Y208282D02*
X60957D01*
X58418D01*
Y223517D01*
X55878Y220978D01*
X243843Y182878D02*
Y167642D01*
Y172721D01*
X254000Y182878D01*
X246383Y175260D01*
X254000Y167642D01*
X259078D02*
X264157D01*
X261618D01*
Y182878D01*
X259078Y180338D01*
X129579Y209080D02*
X127040Y211619D01*
X121961D01*
X119422Y209080D01*
Y198923D01*
X121961Y196384D01*
X127040D01*
X129579Y198923D01*
X142275Y196384D02*
Y211619D01*
X134657Y204001D01*
X144814D01*
X258916Y424099D02*
Y414101D01*
Y424099D02*
X263201D01*
X264629Y423623D01*
X265105Y423147D01*
X265581Y422195D01*
Y421242D01*
X265105Y420290D01*
X264629Y419814D01*
X263201Y419338D01*
X258916D01*
X262249D02*
X265581Y414101D01*
X268771Y424099D02*
X274008D01*
X271152Y420290D01*
X272580D01*
X273532Y419814D01*
X274008Y419338D01*
X274484Y417910D01*
Y416958D01*
X274008Y415529D01*
X273056Y414577D01*
X271628Y414101D01*
X270199D01*
X268771Y414577D01*
X268295Y415053D01*
X267819Y416005D01*
X154518Y330430D02*
Y340427D01*
X159516D01*
X161182Y338761D01*
Y335428D01*
X159516Y333762D01*
X154518D01*
X157850D02*
X161182Y330430D01*
X171179D02*
X164515D01*
X171179Y337094D01*
Y338761D01*
X169513Y340427D01*
X166181D01*
X164515Y338761D01*
X75886Y323932D02*
Y333928D01*
X80884D01*
X82550Y332262D01*
Y328930D01*
X80884Y327264D01*
X75886D01*
X79218D02*
X82550Y323932D01*
X85882D02*
X89214D01*
X87548D01*
Y333928D01*
X85882Y332262D01*
X151647Y440233D02*
Y427537D01*
X154186Y424998D01*
X159264D01*
X161803Y427537D01*
Y440233D01*
X177038D02*
X166882D01*
Y432616D01*
X171960Y435155D01*
X174499D01*
X177038Y432616D01*
Y427537D01*
X174499Y424998D01*
X169421D01*
X166882Y427537D01*
X36348Y353234D02*
Y349069D01*
X37181Y348236D01*
X38847D01*
X39680Y349069D01*
Y353234D01*
X43845Y348236D02*
Y353234D01*
X41346Y350735D01*
X44678D01*
X165104Y53337D02*
Y40642D01*
X167643Y38103D01*
X172722D01*
X175261Y40642D01*
Y53337D01*
X180339Y50798D02*
X182878Y53337D01*
X187957D01*
X190496Y50798D01*
Y48259D01*
X187957Y45720D01*
X185417D01*
X187957D01*
X190496Y43181D01*
Y40642D01*
X187957Y38103D01*
X182878D01*
X180339Y40642D01*
X329342Y674072D02*
X326803Y676611D01*
X321724D01*
X319185Y674072D01*
Y671532D01*
X321724Y668993D01*
X326803D01*
X329342Y666454D01*
Y663915D01*
X326803Y661376D01*
X321724D01*
X319185Y663915D01*
X334420Y676611D02*
Y661376D01*
X339499Y666454D01*
X344577Y661376D01*
Y676611D01*
X349655Y674072D02*
X352195Y676611D01*
X357273D01*
X359812Y674072D01*
Y671532D01*
X357273Y668993D01*
X354734D01*
X357273D01*
X359812Y666454D01*
Y663915D01*
X357273Y661376D01*
X352195D01*
X349655Y663915D01*
X220217Y674072D02*
X217677Y676611D01*
X212599D01*
X210060Y674072D01*
Y671532D01*
X212599Y668993D01*
X217677D01*
X220217Y666454D01*
Y663915D01*
X217677Y661376D01*
X212599D01*
X210060Y663915D01*
X225295Y676611D02*
Y661376D01*
X230373Y666454D01*
X235452Y661376D01*
Y676611D01*
X250687Y661376D02*
X240530D01*
X250687Y671532D01*
Y674072D01*
X248147Y676611D01*
X243069D01*
X240530Y674072D01*
X114712Y671828D02*
X112173Y674368D01*
X107095D01*
X104556Y671828D01*
Y669289D01*
X107095Y666750D01*
X112173D01*
X114712Y664211D01*
Y661672D01*
X112173Y659133D01*
X107095D01*
X104556Y661672D01*
X119791Y674368D02*
Y659133D01*
X124869Y664211D01*
X129948Y659133D01*
Y674368D01*
X135026Y659133D02*
X140104D01*
X137565D01*
Y674368D01*
X135026Y671828D01*
X153091Y503591D02*
Y513588D01*
X158089D01*
X159755Y511922D01*
Y508590D01*
X158089Y506923D01*
X153091D01*
X156423D02*
X159755Y503591D01*
X163088D02*
X166420D01*
X164754D01*
Y513588D01*
X163088Y511922D01*
X171418Y503591D02*
X174750D01*
X173084D01*
Y513588D01*
X171418Y511922D01*
X281086Y312049D02*
Y322046D01*
X286084D01*
X287751Y320380D01*
Y317048D01*
X286084Y315382D01*
X281086D01*
X284418D02*
X287751Y312049D01*
X291083D02*
X294415D01*
X292749D01*
Y322046D01*
X291083Y320380D01*
X299414D02*
X301080Y322046D01*
X304412D01*
X306078Y320380D01*
Y313715D01*
X304412Y312049D01*
X301080D01*
X299414Y313715D01*
Y320380D01*
X17069Y472522D02*
Y482518D01*
X22068D01*
X23734Y480852D01*
Y477520D01*
X22068Y475854D01*
X17069D01*
X20402D02*
X23734Y472522D01*
X27066Y474188D02*
X28732Y472522D01*
X32064D01*
X33731Y474188D01*
Y480852D01*
X32064Y482518D01*
X28732D01*
X27066Y480852D01*
Y479186D01*
X28732Y477520D01*
X33731D01*
X70607Y472547D02*
Y482544D01*
X75606D01*
X77272Y480878D01*
Y477546D01*
X75606Y475880D01*
X70607D01*
X73940D02*
X77272Y472547D01*
X80604Y482544D02*
X87269D01*
Y480878D01*
X80604Y474213D01*
Y472547D01*
X363305Y367290D02*
Y377286D01*
X368304D01*
X369970Y375620D01*
Y372288D01*
X368304Y370622D01*
X363305D01*
X366638D02*
X369970Y367290D01*
X373302Y375620D02*
X374968Y377286D01*
X378301D01*
X379967Y375620D01*
Y373954D01*
X378301Y372288D01*
X379967Y370622D01*
Y368956D01*
X378301Y367290D01*
X374968D01*
X373302Y368956D01*
Y370622D01*
X374968Y372288D01*
X373302Y373954D01*
Y375620D01*
X374968Y372288D02*
X378301D01*
X72949Y348062D02*
Y358058D01*
X77948D01*
X79614Y356392D01*
Y353060D01*
X77948Y351394D01*
X72949D01*
X76282D02*
X79614Y348062D01*
X89611Y358058D02*
X86278Y356392D01*
X82946Y353060D01*
Y349728D01*
X84612Y348062D01*
X87944D01*
X89611Y349728D01*
Y351394D01*
X87944Y353060D01*
X82946D01*
X252319Y261798D02*
Y271795D01*
X257317D01*
X258983Y270129D01*
Y266797D01*
X257317Y265131D01*
X252319D01*
X255651D02*
X258983Y261798D01*
X268980Y271795D02*
X262316D01*
Y266797D01*
X265648Y268463D01*
X267314D01*
X268980Y266797D01*
Y263464D01*
X267314Y261798D01*
X263982D01*
X262316Y263464D01*
X249246Y58664D02*
Y68661D01*
X254245D01*
X255911Y66995D01*
Y63663D01*
X254245Y61997D01*
X249246D01*
X252579D02*
X255911Y58664D01*
X264242D02*
Y68661D01*
X259243Y63663D01*
X265908D01*
X376956Y342729D02*
Y349393D01*
X375290Y351059D01*
X371958D01*
X370291Y349393D01*
Y342729D01*
X371958Y341063D01*
X375290D01*
X373624Y344395D02*
X376956Y341063D01*
X375290D02*
X376956Y342729D01*
X380288Y341063D02*
X383620D01*
X381954D01*
Y351059D01*
X380288Y349393D01*
X359710Y551715D02*
X374945D01*
Y544098D01*
X372406Y541558D01*
X367328D01*
X364789Y544098D01*
Y551715D01*
X359710Y536480D02*
Y531402D01*
Y533941D01*
X374945D01*
X372406Y536480D01*
X61493Y521500D02*
X58160D01*
X59827D01*
Y513170D01*
X58160Y511503D01*
X56494D01*
X54828Y513170D01*
X64825Y519834D02*
X66491Y521500D01*
X69823D01*
X71489Y519834D01*
Y518168D01*
X69823Y516502D01*
X68157D01*
X69823D01*
X71489Y514836D01*
Y513170D01*
X69823Y511503D01*
X66491D01*
X64825Y513170D01*
X409629Y232777D02*
X406297D01*
X407963D01*
Y224446D01*
X406297Y222780D01*
X404631D01*
X402965Y224446D01*
X419626Y222780D02*
X412962D01*
X419626Y229444D01*
Y231110D01*
X417960Y232777D01*
X414628D01*
X412962Y231110D01*
X409015Y321710D02*
Y311713D01*
X414014D01*
X415680Y313379D01*
Y320043D01*
X414014Y321710D01*
X409015D01*
X425676Y311713D02*
X419012D01*
X425676Y318377D01*
Y320043D01*
X424010Y321710D01*
X420678D01*
X419012Y320043D01*
X328615Y325038D02*
Y315042D01*
X333614D01*
X335280Y316708D01*
Y323372D01*
X333614Y325038D01*
X328615D01*
X338612Y315042D02*
X341944D01*
X340278D01*
Y325038D01*
X338612Y323372D01*
X116054Y548846D02*
X114388Y550512D01*
X111056D01*
X109390Y548846D01*
Y542182D01*
X111056Y540516D01*
X114388D01*
X116054Y542182D01*
X119387Y540516D02*
X122719D01*
X121053D01*
Y550512D01*
X119387Y548846D01*
X127717D02*
X129383Y550512D01*
X132716D01*
X134382Y548846D01*
Y547180D01*
X132716Y545514D01*
X131049D01*
X132716D01*
X134382Y543848D01*
Y542182D01*
X132716Y540516D01*
X129383D01*
X127717Y542182D01*
X300289Y428970D02*
X298623Y430636D01*
X295291D01*
X293625Y428970D01*
Y422305D01*
X295291Y420639D01*
X298623D01*
X300289Y422305D01*
X303621Y420639D02*
X306954D01*
X305288D01*
Y430636D01*
X303621Y428970D01*
X318617Y420639D02*
X311952D01*
X318617Y427304D01*
Y428970D01*
X316950Y430636D01*
X313618D01*
X311952Y428970D01*
X330192Y401053D02*
X328526Y402719D01*
X325194D01*
X323528Y401053D01*
Y394389D01*
X325194Y392723D01*
X328526D01*
X330192Y394389D01*
X333525Y392723D02*
X336857D01*
X335191D01*
Y402719D01*
X333525Y401053D01*
X341855Y392723D02*
X345187D01*
X343521D01*
Y402719D01*
X341855Y401053D01*
X42114Y423119D02*
X40448Y424785D01*
X37116D01*
X35450Y423119D01*
Y416455D01*
X37116Y414788D01*
X40448D01*
X42114Y416455D01*
X45447Y414788D02*
X48779D01*
X47113D01*
Y424785D01*
X45447Y423119D01*
X53777D02*
X55444Y424785D01*
X58776D01*
X60442Y423119D01*
Y416455D01*
X58776Y414788D01*
X55444D01*
X53777Y416455D01*
Y423119D01*
X101814Y424615D02*
X100148Y426281D01*
X96816D01*
X95149Y424615D01*
Y417951D01*
X96816Y416284D01*
X100148D01*
X101814Y417951D01*
X105146D02*
X106812Y416284D01*
X110145D01*
X111811Y417951D01*
Y424615D01*
X110145Y426281D01*
X106812D01*
X105146Y424615D01*
Y422949D01*
X106812Y421283D01*
X111811D01*
X200386Y362598D02*
X198720Y364265D01*
X195387D01*
X193721Y362598D01*
Y355934D01*
X195387Y354268D01*
X198720D01*
X200386Y355934D01*
X203718Y362598D02*
X205384Y364265D01*
X208716D01*
X210382Y362598D01*
Y360932D01*
X208716Y359266D01*
X210382Y357600D01*
Y355934D01*
X208716Y354268D01*
X205384D01*
X203718Y355934D01*
Y357600D01*
X205384Y359266D01*
X203718Y360932D01*
Y362598D01*
X205384Y359266D02*
X208716D01*
X201425Y387894D02*
X199759Y389560D01*
X196427D01*
X194761Y387894D01*
Y381229D01*
X196427Y379563D01*
X199759D01*
X201425Y381229D01*
X204757Y389560D02*
X211422D01*
Y387894D01*
X204757Y381229D01*
Y379563D01*
X11509Y366894D02*
X9843Y368560D01*
X6511D01*
X4845Y366894D01*
Y360229D01*
X6511Y358563D01*
X9843D01*
X11509Y360229D01*
X21506Y368560D02*
X18174Y366894D01*
X14842Y363562D01*
Y360229D01*
X16508Y358563D01*
X19840D01*
X21506Y360229D01*
Y361895D01*
X19840Y363562D01*
X14842D01*
X70162Y299606D02*
X68495Y301272D01*
X65163D01*
X63497Y299606D01*
Y292941D01*
X65163Y291275D01*
X68495D01*
X70162Y292941D01*
X80158Y301272D02*
X73494D01*
Y296273D01*
X76826Y297939D01*
X78492D01*
X80158Y296273D01*
Y292941D01*
X78492Y291275D01*
X75160D01*
X73494Y292941D01*
X128691Y257358D02*
X126152Y259897D01*
X121074D01*
X118535Y257358D01*
Y247201D01*
X121074Y244662D01*
X126152D01*
X128691Y247201D01*
X133770Y257358D02*
X136309Y259897D01*
X141387D01*
X143926Y257358D01*
Y254819D01*
X141387Y252280D01*
X138848D01*
X141387D01*
X143926Y249741D01*
Y247201D01*
X141387Y244662D01*
X136309D01*
X133770Y247201D01*
X226335Y490012D02*
X224669Y491678D01*
X221337D01*
X219671Y490012D01*
Y483348D01*
X221337Y481681D01*
X224669D01*
X226335Y483348D01*
X236332Y481681D02*
X229667D01*
X236332Y488346D01*
Y490012D01*
X234666Y491678D01*
X231334D01*
X229667Y490012D01*
X118110Y107472D02*
X116444Y109138D01*
X113112D01*
X111446Y107472D01*
Y100808D01*
X113112Y99142D01*
X116444D01*
X118110Y100808D01*
X121442Y99142D02*
X124775D01*
X123108D01*
Y109138D01*
X121442Y107472D01*
D14*
X7020Y72140D02*
Y161540D01*
X20570D01*
X45470D02*
X60870D01*
X7020Y72140D02*
X20570D01*
X45470D02*
X60870D01*
X19510Y506500D02*
X77010D01*
X19510D02*
Y580500D01*
X77010D01*
Y506500D02*
Y580500D01*
X29660Y184840D02*
X66860D01*
X29660Y252040D02*
X66860D01*
Y184840D02*
Y187440D01*
Y249540D02*
Y252040D01*
X29660Y237140D02*
Y252040D01*
Y184840D02*
Y200840D01*
X153420Y86330D02*
X344420D01*
Y241330D01*
X153420D02*
X344420D01*
X153420Y86330D02*
Y241330D01*
D15*
X410240Y299405D02*
D03*
M02*
